<svg xmlns="http://www.w3.org/2000/svg" width="95" height="81.5" viewBox="0 0 95 81.5">
    <path id="prefix__Path_469" d="M97.5 44.8a21.549 21.549 0 0 0-24.4-21.5 28.6 28.6 0 0 0-51.7 5.5h-.1a18.825 18.825 0 0 0-8.9 35.4 22.691 22.691 0 0 0 2 12.5l-2.5 7.5a5.027 5.027 0 0 0 1.2 5.1 4.852 4.852 0 0 0 3.5 1.5 4.529 4.529 0 0 0 1.6-.3l7.5-2.5a23.036 23.036 0 0 0 24.4-3 23.01 23.01 0 0 0 24.4 3l7.5 2.5a4.529 4.529 0 0 0 1.6.3 4.691 4.691 0 0 0 3.5-1.5 5.027 5.027 0 0 0 1.2-5.1l-2.5-7.5a23.884 23.884 0 0 0 1.9-13.6 22.358 22.358 0 0 0 9.8-18.3zM27.1 82.6a3.073 3.073 0 0 0-2.1-.2L17.3 85l2.6-7.7a2.558 2.558 0 0 0-.2-2.1 17.819 17.819 0 1 1 7.4 7.4zm47.9-.2a2.769 2.769 0 0 0-.9-.1 3.079 3.079 0 0 0-1.3.3A17.636 17.636 0 0 1 53.7 81a23.109 23.109 0 0 0 0-28.2 17.782 17.782 0 0 1 26.6 22.4 3.073 3.073 0 0 0-.2 2.1l2.6 7.7zm6.1-31.9a23.052 23.052 0 0 0-16.5-6.8A22.684 22.684 0 0 0 50 48.9a23.269 23.269 0 0 0-31.1 1.6 22.406 22.406 0 0 0-5.2 8.2 13.187 13.187 0 0 1-5.7-11 13.4 13.4 0 0 1 13.4-13.4c.4 0 .8.1 1.3.1l.4.1a2.68 2.68 0 0 0 3-2 23.093 23.093 0 0 1 43.1-5.1 2.685 2.685 0 0 0 3 1.4 15.038 15.038 0 0 1 3.5-.4 16.237 16.237 0 0 1 10.1 29 21.174 21.174 0 0 0-4.7-6.9z" data-name="Path 469" transform="translate(-2.5 -9.3)" style="fill:#5e5e5e"/>
</svg>
