<svg xmlns="http://www.w3.org/2000/svg" width="181.05" height="181.053" viewBox="0 0 181.05 181.053">
    <defs>
        <style>
            .prefix__cls-2{fill:#a7d676}
        </style>
    </defs>
    <g id="prefix__Group_323" data-name="Group 323" transform="translate(-1088 -1346)">
        <path id="prefix__Path_1091" d="M74.351 90.028a11.785 11.785 0 0 0 7.242 2.1 11.791 11.791 0 0 0 7.242-2.1 3.233 3.233 0 0 1 2.457-1.135h61.428c8.406 0 12.932-8.083 12.932-15.7v-.462h-6.466A12.932 12.932 0 0 1 146.253 59.8v-6.47a12.932 12.932 0 0 1 12.933-12.93h6.466v-4.159c0-8.723-8.535-15.241-16.165-15.241H20.165C12.535 21 4 27.518 4 36.241V40.4h6.466A12.932 12.932 0 0 1 23.4 53.33v6.47a12.932 12.932 0 0 1-12.934 12.929H4v.462c0 7.62 4.526 15.7 12.932 15.7h54.962a3.233 3.233 0 0 1 2.457 1.137zm-28.321-56.1h-6.467a3.233 3.233 0 1 1 0-6.466h6.466a3.233 3.233 0 1 1 0 6.466zm9.7-3.233a3.233 3.233 0 0 1 3.233-3.233h35.562a3.233 3.233 0 1 1 0 6.466H58.962a3.233 3.233 0 0 1-3.233-3.228z" data-name="Path 1091" transform="translate(1084 1379.965)" style="fill:#5ba80c"/>
        <path id="prefix__Path_1092" d="M16.932 41.932v-6.466A6.466 6.466 0 0 0 10.466 29H4v19.4h6.466a6.466 6.466 0 0 0 6.466-6.468z" class="prefix__cls-2" data-name="Path 1092" transform="translate(1084 1397.829)"/>
        <path id="prefix__Path_1093" d="M68.667 26.659L56 32.993v18.635l11.826-5.913a78.025 78.025 0 0 0 1.106-12.909c0-2.073-.107-4.117-.265-6.147z" class="prefix__cls-2" data-name="Path 1093" transform="translate(1200.118 1392.602)"/>
        <path id="prefix__Path_1094" d="M154.3 74.2v2.16l11.839-5.92A81.191 81.191 0 0 0 11.98 52.5h119.687A22.767 22.767 0 0 1 154.3 74.2z" data-name="Path 1094" transform="translate(1101.82 1342.001)" style="fill:#5e5e5e"/>
        <path id="prefix__Path_1095" d="M110.321 86.975a79.782 79.782 0 0 0 45.97-51.9l-10 5v1.7c0 12.638-8.341 22.169-19.4 22.169H66.743a20.242 20.242 0 0 1-21.949 0h-29.23a81.624 81.624 0 0 0 35.68 24.872A3.233 3.233 0 0 1 52 94.531l-31.011 21.134h129.25l-40.258-22.9a3.233 3.233 0 0 1 .323-5.787z" data-name="Path 1095" transform="translate(1109.823 1411.388)" style="fill:rgba(170,255,82,.23)"/>
        <path id="prefix__Path_1096" d="M50 35.466v6.466a6.466 6.466 0 0 0 6.466 6.468h6.466V29h-6.466A6.466 6.466 0 0 0 50 35.466z" class="prefix__cls-2" data-name="Path 1096" transform="translate(1186.719 1397.829)"/>
    </g>
</svg>
