<svg xmlns="http://www.w3.org/2000/svg" width="309.201" height="202.406" viewBox="0 0 309.201 202.406">
    <defs>
        <style>
            .prefix__cls-1,.prefix__cls-8{fill:#6c63ff}.prefix__cls-1,.prefix__cls-10,.prefix__cls-6,.prefix__cls-7{opacity:.1}.prefix__cls-4{fill:#a7d676}.prefix__cls-5{fill:#5e5e5e}.prefix__cls-9{fill:#444053}.prefix__cls-10{fill:#fff}.prefix__cls-11{fill:#5ba80c}.prefix__cls-12{fill:none;stroke:#444053;stroke-miterlimit:10}
        </style>
    </defs>
    <g id="prefix__Group_306" data-name="Group 306" transform="translate(-942 -1833.044)">
        <g id="prefix__Group_314" data-name="Group 314">
            <circle id="prefix__Ellipse_434" cx="6.084" cy="6.084" r="6.084" class="prefix__cls-1" data-name="Ellipse 434" transform="translate(1213.156 1929.616)"/>
            <circle id="prefix__Ellipse_435" cx="10.197" cy="10.197" r="10.197" class="prefix__cls-1" data-name="Ellipse 435" transform="translate(1230.807 1898.375)"/>
            <circle id="prefix__Ellipse_436" cx="6.084" cy="6.084" r="6.084" class="prefix__cls-1" data-name="Ellipse 436" transform="translate(1063.995 1833.044)"/>
            <circle id="prefix__Ellipse_437" cx="6.084" cy="6.084" r="6.084" class="prefix__cls-1" data-name="Ellipse 437" transform="translate(1133.788 1840.037)"/>
            <circle id="prefix__Ellipse_438" cx="10.197" cy="10.197" r="10.197" class="prefix__cls-1" data-name="Ellipse 438" transform="translate(942 1912.882)"/>
        </g>
        <path id="prefix__Path_608" d="M217.738 116.854c-16.085-.6-31.405-6.176-46.034-12.28s-29.121-12.862-44.809-16.1c-10.1-2.08-21.645-2.376-29.782 3.44-7.841 5.607-10.371 15.258-11.724 24.22-1.024 6.745-1.625 13.844 1.178 20.156 1.946 4.384 5.4 8.068 7.794 12.265 8.319 14.609 2.438 32.626-6.576 46.889-4.225 6.691-9.131 13.073-12.395 20.2s-4.779 15.286-1.931 22.556c2.828 7.208 9.571 12.611 16.876 16.4 14.835 7.727 32.31 9.942 49.362 11.184 37.733 2.774 75.67 1.573 113.5.37 14-.445 28.065-.9 41.839-3.231 7.65-1.292 15.546-3.343 21.1-8.291 7.051-6.281 8.8-16.918 4.074-24.794-7.923-13.212-29.824-16.5-35.369-30.675-3.047-7.8.082-16.5 4.513-23.735 9.5-15.529 25.433-29.151 26.27-46.9.577-12.178-7.081-24.4-18.921-30.165-12.412-6.047-29.621-5.286-38.772 4.722-9.422 10.347-25.992 14.301-40.193 13.769z" data-name="Path 608" transform="translate(909.177 1767.973)" style="fill:#f0efff;opacity:.33"/>
        <path id="prefix__Path_626" d="M917.575 491.5l-1.108 1.48a1.888 1.888 0 0 0-.259.408 6.6 6.6 0 0 0-.166 1.255 2.616 2.616 0 0 1-.324.751 17.318 17.318 0 0 1-1.406 2.1 3.759 3.759 0 0 1-.875.866 1.451 1.451 0 0 1-1.181.208.741.741 0 0 1 .388.352 4.293 4.293 0 0 1 .281 2.745 2.816 2.816 0 0 1-.309.9 1.35 1.35 0 0 1-.706.61 1.041 1.041 0 0 0 1.226.88 2.052 2.052 0 0 0 .608-.3l1.781-1.153a4.727 4.727 0 0 0 .83-.622c.332-.332.563-.751.889-1.094.563-.582 1.361-.931 1.753-1.634a7.688 7.688 0 0 0 .436-1.44c.1-.312.245-.61.338-.926a4.135 4.135 0 0 0-.366-2.965 12.67 12.67 0 0 0-1.83-2.421z" data-name="Path 626" transform="translate(272.429 1453.567)" style="fill:#f86d70"/>
        <path id="prefix__Path_635" d="M475.992 249.17v94.35a31.252 31.252 0 0 0-9.741-1.5c-14.028 0-25.421 9.927-25.421 23.955s11.392 23.845 25.421 23.845 25.491-10.329 25.491-25.317v-65.52h73.981v44.537a31.24 31.24 0 0 0-9.741-1.5c-14.028 0-25.421 9.927-25.421 23.955s11.393 23.845 25.421 23.845 25.491-10.329 25.491-25.317V249.17zm89.734 35.162h-73.981v-19.409h73.981z" class="prefix__cls-4" data-name="Path 635" transform="translate(610.996 1627.731)"/>
        <path id="prefix__Path_636" d="M208.05 212.17v63.32a23.952 23.952 0 1 0 11.983 20.7v-60.025h24.023V212.17z" class="prefix__cls-4" data-name="Path 636" transform="translate(804.113 1654.323)"/>
        <path id="prefix__Path_637" d="M227.933 721.777a15.287 15.287 0 0 0-4.4-1.558 20.127 20.127 0 0 0 3.294-.74c2.861-.906 4.3-2.121 3.221-2.715s-4.281-.343-7.142.563a11.032 11.032 0 0 0-2.743 1.218 5.5 5.5 0 0 0-2.354-2.045c-2.532-1.407-5.958-2.1-7.629-1.573s-.965 2.087 1.578 3.485a15.228 15.228 0 0 0 3.938 1.466 23.149 23.149 0 0 0-2.715.481c-3.114.748-4.914 1.876-4.023 2.532s4.143.563 7.257-.18a13.563 13.563 0 0 0 3.263-1.153 5.254 5.254 0 0 0 2.4 2.141c2.532 1.406 5.958 2.1 7.629 1.572s.958-2.098-1.574-3.494z" class="prefix__cls-5" data-name="Path 637" transform="translate(777.809 1293.116)"/>
        <path id="prefix__Path_638" d="M316.9 657.959a7.457 7.457 0 0 0-2.135-.757 10.034 10.034 0 0 0 1.6-.357c1.39-.442 2.09-1.03 1.564-1.319a5.967 5.967 0 0 0-3.468.281 5.532 5.532 0 0 0-1.331.591 2.68 2.68 0 0 0-1.142-.993 5.829 5.829 0 0 0-3.7-.762c-.81.256-.467 1.015.765 1.688a7.369 7.369 0 0 0 1.918.709 11.534 11.534 0 0 0-1.319.236c-1.511.36-2.385.909-1.952 1.224s2.011.281 3.522-.087a6.687 6.687 0 0 0 1.586-.563 2.528 2.528 0 0 0 1.162 1.038 5.832 5.832 0 0 0 3.7.765c.814-.253.468-1.016-.77-1.694z" class="prefix__cls-5" data-name="Path 638" transform="translate(706.759 1336.377)"/>
        <path id="prefix__Path_639" d="M154.4 587.113a4.678 4.678 0 0 0-1.345-.473 5.85 5.85 0 0 0 1.007-.225c.869-.281 1.308-.644.979-.824a3.766 3.766 0 0 0-2.169.172 3.455 3.455 0 0 0-.844.369 1.646 1.646 0 0 0-.714-.619 3.639 3.639 0 0 0-2.318-.478c-.509.16-.281.633.481 1.058a4.581 4.581 0 0 0 1.2.444 6.945 6.945 0 0 0-.827.149c-.945.225-1.494.563-1.224.765a3.819 3.819 0 0 0 2.205-.053 4.207 4.207 0 0 0 .993-.352 1.568 1.568 0 0 0 .726.65 3.645 3.645 0 0 0 2.318.478c.504-.161.299-.637-.468-1.061z" class="prefix__cls-5" data-name="Path 639" transform="translate(821.055 1386.382)"/>
        <path id="prefix__Path_640" d="M254.135 212.17v20.056h-24.023v60.029a23.986 23.986 0 0 1-38.872 18.816 23.989 23.989 0 0 0 42.81-14.878v-60.028h24.023V212.17z" class="prefix__cls-6" data-name="Path 640" transform="translate(790.378 1654.323)"/>
        <g id="prefix__Group_302" class="prefix__cls-7" data-name="Group 302" transform="translate(1063.801 1876.901)">
            <path id="prefix__Path_689" d="M592.667 420.25h-73.981v65.525c0 14.982-11.463 25.317-25.491 25.317a28.166 28.166 0 0 1-9.795-1.719 27.437 27.437 0 0 0 13.451 3.406c14.028 0 25.491-10.329 25.491-25.317v-65.524h70.324z" data-name="Path 689" transform="translate(-483.4 -372.126)"/>
            <path id="prefix__Path_690" d="M558.42 231.452h3.657v-17.724h70.33v-1.688H558.42z" data-name="Path 690" transform="translate(-523.14 -197.981)"/>
            <path id="prefix__Path_691" d="M837.676 249.17v113.644c0 14.982-11.463 25.317-25.491 25.317a28.165 28.165 0 0 1-9.795-1.719 27.438 27.438 0 0 0 13.452 3.406c14.028 0 25.491-10.329 25.491-25.317V249.17z" data-name="Path 691" transform="translate(-712.659 -249.17)"/>
        </g>
        <path id="prefix__Path_692" d="M628.1 130.536c1.814 3.75 4.782 8.014 8.138 6.385s5.862-8.537 4.048-12.293-6.017-5.463-9.381-3.834-4.619 5.998-2.805 9.742z" class="prefix__cls-4" data-name="Path 692" transform="translate(477.001 1720.438)"/>
        <path id="prefix__Path_693" d="M651.367 181.823s.655-.11.405-.65a1 1 0 0 0-.079-.138 1.735 1.735 0 0 1-.25-.7 2.53 2.53 0 0 1 .031-.869l-1.786-.118s.695.591.613.9a.177.177 0 0 1-.081.107.282.282 0 0 1-.118.051l-.135.039c-.47.166-.281.4-.281.4.06.775 1.681.978 1.681.978z" class="prefix__cls-8" data-name="Path 693" transform="translate(460.919 1677.911)"/>
        <path id="prefix__Path_694" d="M651.68 182.657l1.26.174a1.564 1.564 0 0 1-.037-.194c-.321-.014-.824-.056-1.142-.087a.177.177 0 0 1-.081.107z" class="prefix__cls-9" data-name="Path 694" transform="translate(459.458 1675.611)"/>
        <path id="prefix__Path_695" d="M651.367 184.626s.655-.11.405-.65a2.024 2.024 0 0 1-.773.031 1.713 1.713 0 0 1-1.032-.757c-.47.166-.281.4-.281.4.06.773 1.681.976 1.681.976z" class="prefix__cls-8" data-name="Path 695" transform="translate(460.919 1675.108)"/>
        <path id="prefix__Path_696" d="M651.367 184.626s.655-.11.405-.65a2.024 2.024 0 0 1-.773.031 1.713 1.713 0 0 1-1.032-.757c-.47.166-.281.4-.281.4.06.773 1.681.976 1.681.976z" class="prefix__cls-6" data-name="Path 696" transform="translate(460.919 1675.108)"/>
        <path id="prefix__Path_697" d="M652.37 123.726s2-.242 2.563 1.089a1.607 1.607 0 0 0-.717.042 1.018 1.018 0 0 1-.467.09 2.678 2.678 0 0 0-1.379-1.221z" class="prefix__cls-10" data-name="Path 697" transform="translate(458.962 1717.9)"/>
        <path id="prefix__Path_698" d="M658.033 213.782a.7.7 0 0 0 .112-.113 1.523 1.523 0 0 1 .428-.338 1.482 1.482 0 0 1 .177-.09 2.6 2.6 0 0 1 .563-.169 2.25 2.25 0 0 1 .281-.031l-.253-1.21v-.017l-.11-.526a3.82 3.82 0 0 1-.253.442c-.129.2-.281.385-.45.388a.2.2 0 0 1-.127-.048.381.381 0 0 1-.079-.1c-.028-.045-.051-.084-.076-.121-.281-.405-.459-.152-.459-.152-.321.115-.453.5-.5.883a.551.551 0 0 1-.017.166 4.4 4.4 0 0 0 .028.819s.291.605.735.217z" class="prefix__cls-11" data-name="Path 698" transform="translate(455.445 1654.955)"/>
        <path id="prefix__Path_699" d="M661.6 215.33a1.5 1.5 0 0 1 .177-.09c-.062-.262-.138-.655-.191-.965v-.065a.193.193 0 0 0-.017-.093.2.2 0 0 1-.127-.048l.028.188v.076z" class="prefix__cls-9" data-name="Path 699" transform="translate(452.443 1652.957)"/>
        <path id="prefix__Path_700" d="M658.033 214.625a2.027 2.027 0 0 1-.236-.737 1.6 1.6 0 0 1 .053-.467c.014-.045.025-.09.042-.132a1.369 1.369 0 0 1 .354-.6c-.281-.405-.459-.152-.459-.152-.321.115-.453.5-.5.883a.548.548 0 0 1-.017.166 4.426 4.426 0 0 0 .028.819s.291.608.735.22z" class="prefix__cls-8" data-name="Path 700" transform="translate(455.445 1654.113)"/>
        <path id="prefix__Path_701" d="M658.033 214.625a2.027 2.027 0 0 1-.236-.737 1.6 1.6 0 0 1 .053-.467c.014-.045.025-.09.042-.132a1.369 1.369 0 0 1 .354-.6c-.281-.405-.459-.152-.459-.152-.321.115-.453.5-.5.883a.548.548 0 0 1-.017.166 4.426 4.426 0 0 0 .028.819s.291.608.735.22z" class="prefix__cls-4" data-name="Path 701" transform="translate(455.445 1654.113)"/>
        <path id="prefix__Path_702" d="M607.371 146.541a20.609 20.609 0 0 0 4.937 2.422 6.068 6.068 0 0 0 3.533.186 3.237 3.237 0 0 0 1.2-.692 3.42 3.42 0 0 0 .6-.72c1.19-1.859 1.167-5.128.225-7.958a8.749 8.749 0 0 0-3.187-4.636c-3.505-2.25-7.983-1.519-10 1.629s-.813 7.519 2.692 9.769z" class="prefix__cls-8" data-name="Path 702" transform="translate(493.941 1710.621)"/>
        <path id="prefix__Path_703" d="M607.371 146.541a20.609 20.609 0 0 0 4.937 2.422 6.068 6.068 0 0 0 3.533.186 3.237 3.237 0 0 0 1.2-.692 3.42 3.42 0 0 0 .6-.72c1.19-1.859 1.167-5.128.225-7.958a8.749 8.749 0 0 0-3.187-4.636c-3.505-2.25-7.983-1.519-10 1.629s-.813 7.519 2.692 9.769z" class="prefix__cls-11" data-name="Path 703" transform="translate(493.941 1710.621)"/>
        <path id="prefix__Path_704" d="M645.869 187.027c.447.624 1.93-.045 1.93-.045s.5-.433 0-.762a1.2 1.2 0 0 0-.138-.079 1.57 1.57 0 0 1-.447-.318c-.045-.045-.09-.093-.132-.143a2.632 2.632 0 0 1-.315-.5 2.073 2.073 0 0 1-.11-.262l-1.587.844a3.591 3.591 0 0 1 .5.121c.228.073.453.18.5.326a.177.177 0 0 1 0 .135.335.335 0 0 1-.076.1 1.392 1.392 0 0 0-.093.1c-.328.384-.032.483-.032.483z" class="prefix__cls-8" data-name="Path 704" transform="translate(464.208 1673.908)"/>
        <path id="prefix__Path_705" d="M648.58 188.325l1.162-.512c-.045-.045-.09-.093-.132-.143-.281.152-.729.38-1.018.52a.177.177 0 0 1-.012.135z" class="prefix__cls-9" data-name="Path 705" transform="translate(461.686 1671.931)"/>
        <path id="prefix__Path_706" d="M647.585 190.347c.447.624 1.93-.045 1.93-.045s.5-.433 0-.762a1.944 1.944 0 0 1-.644.428 1.714 1.714 0 0 1-1.272-.1c-.309.381-.014.479-.014.479z" class="prefix__cls-8" data-name="Path 706" transform="translate(462.492 1670.587)"/>
        <path id="prefix__Path_707" d="M647.585 190.347c.447.624 1.93-.045 1.93-.045s.5-.433 0-.762a1.944 1.944 0 0 1-.644.428 1.714 1.714 0 0 1-1.272-.1c-.309.381-.014.479-.014.479z" class="prefix__cls-6" data-name="Path 707" transform="translate(462.492 1670.587)"/>
        <path id="prefix__Path_708" d="M618.28 137.337s1.578-1.246 2.754-.408a1.62 1.62 0 0 0-.588.411 1.022 1.022 0 0 1-.354.321 2.681 2.681 0 0 0-1.812-.324z" class="prefix__cls-10" data-name="Path 708" transform="translate(483.462 1708.607)"/>
        <g id="prefix__Group_303" class="prefix__cls-7" data-name="Group 303" transform="translate(1116.356 1857.314)">
            <path id="prefix__Path_709" d="M676.979 181.293l-.366-1.753a3.39 3.39 0 0 1-.253.442 3.166 3.166 0 0 0 .337 1.345 1.972 1.972 0 0 1 .282-.034z" data-name="Path 709" transform="translate(-674.636 -179.54)"/>
            <path id="prefix__Path_710" d="M671.011 182.035a.841.841 0 0 0 .113-.113 1.572 1.572 0 0 1 .428-.34 1.5 1.5 0 0 1 .177-.09 2.41 2.41 0 0 1 .563-.166 1.971 1.971 0 0 1 .281-.034l-.366-1.753a3.362 3.362 0 0 1-.253.442c-.129.2-.3.388-.45.391a.205.205 0 0 1-.124-.051.345.345 0 0 1-.087-.09c-.025-.045-.051-.084-.073-.121-.281-.405-.461-.149-.461-.149-.723.262-.489 1.868-.489 1.868s.288.591.741.206z" data-name="Path 710" transform="translate(-670.232 -179.54)"/>
            <path id="prefix__Path_711" d="M674.489 183.566a1.5 1.5 0 0 1 .177-.09c-.073-.307-.163-.8-.222-1.125a.205.205 0 0 1-.124-.051z" data-name="Path 711" transform="translate(-673.17 -181.524)"/>
            <path id="prefix__Path_712" d="M671.032 182.881a2.061 2.061 0 0 1-.236-.74 1.727 1.727 0 0 1 .453-1.2c-.281-.405-.461-.149-.461-.149-.723.262-.49 1.868-.49 1.868s.281.606.734.221z" data-name="Path 712" transform="translate(-670.254 -180.385)"/>
            <path id="prefix__Path_713" d="M671.032 182.881a2.061 2.061 0 0 1-.236-.74 1.727 1.727 0 0 1 .453-1.2c-.281-.405-.461-.149-.461-.149-.723.262-.49 1.868-.49 1.868s.281.606.734.221z" class="prefix__cls-6" data-name="Path 713" transform="translate(-670.254 -180.385)"/>
        </g>
        <path id="prefix__Path_714" d="M670.205 180.8a.708.708 0 0 0 .113-.113 1.571 1.571 0 0 1 .427-.338 1.5 1.5 0 0 1 .177-.09 2.41 2.41 0 0 1 .563-.166 1.968 1.968 0 0 1 .281-.034l-.366-1.752a3.593 3.593 0 0 1-.253.442c-.129.2-.281.388-.45.388a.186.186 0 0 1-.124-.048.388.388 0 0 1-.081-.1c-.025-.045-.051-.084-.073-.121-.281-.405-.461-.152-.461-.152-.723.264-.489 1.871-.489 1.871s.283.603.736.213z" class="prefix__cls-8" data-name="Path 714" transform="translate(446.699 1678.658)"/>
        <path id="prefix__Path_715" d="M673.669 182.343a1.508 1.508 0 0 1 .177-.09c-.073-.307-.163-.8-.222-1.125a.186.186 0 0 1-.124-.048z" class="prefix__cls-9" data-name="Path 715" transform="translate(443.776 1676.667)"/>
        <path id="prefix__Path_716" d="M670.248 181.645a2.026 2.026 0 0 1-.236-.737 1.727 1.727 0 0 1 .467-1.2c-.281-.405-.461-.152-.461-.152-.723.264-.49 1.871-.49 1.871s.272.606.72.218z" class="prefix__cls-8" data-name="Path 716" transform="translate(446.656 1677.816)"/>
        <path id="prefix__Path_717" d="M670.248 181.645a2.026 2.026 0 0 1-.236-.737 1.727 1.727 0 0 1 .467-1.2c-.281-.405-.461-.152-.461-.152-.723.264-.49 1.871-.49 1.871s.272.606.72.218z" class="prefix__cls-6" data-name="Path 717" transform="translate(446.656 1677.816)"/>
        <g id="prefix__Group_304" class="prefix__cls-7" data-name="Group 304" transform="translate(1114.725 1853.891)">
            <path id="prefix__Path_718" d="M666.425 167.829a3.21 3.21 0 0 0 1.3.481 2.345 2.345 0 0 1 .129-.253l-1.654-.686a3.378 3.378 0 0 1 .225.458z" data-name="Path 718" transform="translate(-665.703 -167.37)"/>
            <path id="prefix__Path_719" d="M665.73 170.27s.655.11.594-.484a.911.911 0 0 0-.031-.158 1.558 1.558 0 0 1-.039-.543 1.508 1.508 0 0 1 .028-.2 2.706 2.706 0 0 1 .309-.813l-1.654-.686a3.368 3.368 0 0 1 .231.453c.09.219.152.464.068.591a.194.194 0 0 1-.113.076.3.3 0 0 1-.127 0h-.144c-.495 0-.383.281-.383.281-.205.772 1.261 1.483 1.261 1.483z" data-name="Path 719" transform="translate(-664.445 -167.384)"/>
            <path id="prefix__Path_720" d="M666.8 171.174l1.125.563a1.487 1.487 0 0 1 .028-.2c-.3-.115-.76-.321-1.052-.45a.194.194 0 0 1-.101.087z" data-name="Path 720" transform="translate(-666.134 -170.044)"/>
            <path id="prefix__Path_721" d="M665.718 173.152s.656.11.594-.484a2.025 2.025 0 0 1-.743-.219 1.733 1.733 0 0 1-.734-1.049c-.495 0-.383.281-.383.281-.199.76 1.266 1.471 1.266 1.471z" data-name="Path 721" transform="translate(-664.433 -170.266)"/>
            <path id="prefix__Path_722" d="M665.718 173.152s.656.11.594-.484a2.025 2.025 0 0 1-.743-.219 1.733 1.733 0 0 1-.734-1.049c-.495 0-.383.281-.383.281-.199.76 1.266 1.471 1.266 1.471z" class="prefix__cls-6" data-name="Path 722" transform="translate(-664.433 -170.266)"/>
        </g>
        <path id="prefix__Path_723" d="M665.29 169.633s.655.11.594-.481a.881.881 0 0 0-.031-.158 1.573 1.573 0 0 1-.039-.546 1.466 1.466 0 0 1 .028-.194 2.3 2.3 0 0 1 .18-.563 2.346 2.346 0 0 1 .129-.253l-1.654-.689a3.37 3.37 0 0 1 .225.459c.09.222.152.464.068.594a.2.2 0 0 1-.113.073.346.346 0 0 1-.127 0h-.143c-.5 0-.383.281-.383.281-.193.768 1.266 1.477 1.266 1.477z" class="prefix__cls-8" data-name="Path 723" transform="translate(450.598 1686.966)"/>
        <path id="prefix__Path_724" d="M666.39 170.562l1.125.563a1.456 1.456 0 0 1 .028-.194c-.3-.115-.76-.321-1.052-.45a.2.2 0 0 1-.101.081z" class="prefix__cls-9" data-name="Path 724" transform="translate(448.886 1684.286)"/>
        <path id="prefix__Path_725" d="M665.29 172.53s.655.11.594-.481a2.093 2.093 0 0 1-.743-.222 1.727 1.727 0 0 1-.734-1.046c-.5 0-.383.281-.383.281-.193.759 1.266 1.468 1.266 1.468z" class="prefix__cls-8" data-name="Path 725" transform="translate(450.598 1684.07)"/>
        <path id="prefix__Path_726" d="M665.29 172.53s.655.11.594-.481a2.093 2.093 0 0 1-.743-.222 1.727 1.727 0 0 1-.734-1.046c-.5 0-.383.281-.383.281-.193.759 1.266 1.468 1.266 1.468z" class="prefix__cls-6" data-name="Path 726" transform="translate(450.598 1684.07)"/>
        <path id="prefix__Path_727" d="M644.613 197.72a3.482 3.482 0 0 1 .256-.439c.135-.2.3-.385.453-.385a.177.177 0 0 1 .127.051.367.367 0 0 1 .079.1c.025.048.051.087.073.124.281.411.461.155.461.155.726-.253.506-1.865.506-1.865s-.281-.6-.731-.222a1.038 1.038 0 0 0-.115.11 1.8 1.8 0 0 1-.608.425 2.533 2.533 0 0 1-.563.16 1.788 1.788 0 0 1-.281.031z" class="prefix__cls-8" data-name="Path 727" transform="translate(464.783 1666.585)"/>
        <path id="prefix__Path_728" d="M647.468 198.362a.177.177 0 0 1 .127.051l-.157-1.263a1.472 1.472 0 0 1-.177.087c.072.31.157.808.207 1.125z" class="prefix__cls-9" data-name="Path 728" transform="translate(462.634 1665.118)"/>
        <path id="prefix__Path_729" d="M649 197.168c.281.411.461.155.461.155.726-.253.506-1.865.506-1.865s-.281-.6-.731-.222a1.97 1.97 0 0 1 .225.74 1.7 1.7 0 0 1-.461 1.192z" class="prefix__cls-8" data-name="Path 729" transform="translate(461.384 1666.585)"/>
        <path id="prefix__Path_730" d="M649 197.168c.281.411.461.155.461.155.726-.253.506-1.865.506-1.865s-.281-.6-.731-.222a1.97 1.97 0 0 1 .225.74 1.7 1.7 0 0 1-.461 1.192z" class="prefix__cls-6" data-name="Path 730" transform="translate(461.384 1666.585)"/>
        <path id="prefix__Path_731" d="M636.978 195.956a5.5 5.5 0 0 0 .844-2.813c.135-.2.3-.385.453-.385a.177.177 0 0 1 .127.051.364.364 0 0 1 .079.1c.025.048.051.087.073.124.281.411.461.155.461.155.726-.253.506-1.865.506-1.865s-.281-.6-.731-.222a1.027 1.027 0 0 0-.115.11 1.8 1.8 0 0 1-.608.425 2.535 2.535 0 0 1-.563.16 3.781 3.781 0 0 0-.52-.782 6.416 6.416 0 0 0-2.5-1.651c.39 2.492 1.124 5.119 2.494 6.593z" class="prefix__cls-6" data-name="Path 731" transform="translate(471.819 1670.717)"/>
        <path id="prefix__Path_732" d="M657.39 172.4a4.889 4.889 0 0 0 .6-.135 5.3 5.3 0 0 0 .537-.186l.115-.048c.149-.065.3-.135.453-.214s.228-.118.343-.183a12.763 12.763 0 0 0 5.148-6.239 8.187 8.187 0 0 0 .5-2.143 5.767 5.767 0 0 0-.017-1.167 8.24 8.24 0 0 0-1.046-3.153c-.062-.1-.121-.2-.186-.3a6.72 6.72 0 0 0-6.287-3.218 6.844 6.844 0 0 0 2.416 3.623c.09.222.152.464.067.594a.2.2 0 0 1-.113.073.346.346 0 0 1-.127 0h-.143c-.5 0-.383.281-.383.281-.194.745 1.266 1.457 1.266 1.457s.655.11.594-.481a.871.871 0 0 0-.031-.158 1.574 1.574 0 0 1-.039-.546 1.466 1.466 0 0 1 .028-.194 2.3 2.3 0 0 1 .18-.563 3.615 3.615 0 0 0 .94 0 4.992 4.992 0 0 0 1.283-.349c-.059.093-.113.186-.163.281a5.519 5.519 0 0 0-.844 2.813c-.129.2-.281.388-.45.388a.186.186 0 0 1-.124-.048.386.386 0 0 1-.082-.1c-.025-.045-.051-.084-.073-.121-.281-.405-.461-.152-.461-.152-.723.264-.489 1.871-.489 1.871s.281.6.734.214a.712.712 0 0 0 .113-.113 1.57 1.57 0 0 1 .428-.338 1.5 1.5 0 0 1 .177-.09 2.41 2.41 0 0 1 .563-.166 3.584 3.584 0 0 0 .526.779l.112.121-.039.037a22.2 22.2 0 0 0-2.5 2.655 9.983 9.983 0 0 0-.641.895q-.208.318-.388.633a5.533 5.533 0 0 0-.827 2.813c-.129.2-.281.385-.45.388a.2.2 0 0 1-.127-.048.383.383 0 0 1-.079-.1c-.028-.045-.051-.084-.076-.121-.281-.405-.458-.152-.458-.152a1.062 1.062 0 0 0-.48.91z" class="prefix__cls-6" data-name="Path 732" transform="translate(455.354 1695.138)"/>
        <g id="prefix__Group_305" class="prefix__cls-7" data-name="Group 305" transform="translate(1106.061 1850.411)">
            <path id="prefix__Path_733" d="M666.451 161.771a1.013 1.013 0 0 0 .473.065 1.64 1.64 0 0 1 .692.191c-.107-1.44-2.076-1.857-2.076-1.857a2.673 2.673 0 0 1 .911 1.601z" data-name="Path 733" transform="translate(-656.565 -158.716)"/>
            <path id="prefix__Path_734" d="M633.7 163.3c.037.281.076.588.124.886a6.068 6.068 0 0 0 3.533.186c.228.073.453.18.5.326a.177.177 0 0 1 0 .135.335.335 0 0 1-.076.1 1.378 1.378 0 0 0-.093.1c-.315.385-.02.484-.02.484.447.625 1.93-.045 1.93-.045s.5-.433 0-.762a1.2 1.2 0 0 0-.138-.079 1.569 1.569 0 0 1-.447-.318c-.045-.045-.09-.093-.132-.143a2.632 2.632 0 0 1-.315-.5 3.421 3.421 0 0 0 .6-.72c1.19-1.859 1.167-5.128.225-7.958-3.66.526-6.197 4.227-5.691 8.308z" data-name="Path 734" transform="translate(-633.634 -155)"/>
            <path id="prefix__Path_735" d="M645.411 212.442a3.207 3.207 0 0 0 1.3.487 2.057 2.057 0 0 1 .132-.253L645.18 212a3.883 3.883 0 0 1 .231.442z" data-name="Path 735" transform="translate(-641.932 -195.966)"/>
            <path id="prefix__Path_736" d="M644.715 214.866s.658.113.594-.481a.851.851 0 0 0-.028-.158 1.577 1.577 0 0 1-.04-.546 1.394 1.394 0 0 1 .025-.194 2.539 2.539 0 0 1 .18-.563 2.065 2.065 0 0 1 .132-.253l-1.657-.671a3.906 3.906 0 0 1 .225.456c.087.222.149.467.065.594a.185.185 0 0 1-.11.076.37.37 0 0 1-.129 0 1.279 1.279 0 0 0-.141 0c-.5 0-.385.281-.385.281-.191.751 1.269 1.459 1.269 1.459z" data-name="Path 736" transform="translate(-640.673 -195.966)"/>
            <path id="prefix__Path_737" d="M645.82 215.792l1.125.563a.738.738 0 0 1 .025-.194c-.3-.115-.759-.321-1.052-.45a.189.189 0 0 1-.098.081z" data-name="Path 737" transform="translate(-642.392 -198.632)"/>
            <path id="prefix__Path_738" d="M644.713 217.72s.655.11.594-.484a2 2 0 0 1-.743-.219 1.716 1.716 0 0 1-.734-1.046c-.5 0-.385.281-.385.281-.195.759 1.268 1.468 1.268 1.468z" data-name="Path 738" transform="translate(-640.672 -198.819)"/>
            <path id="prefix__Path_739" d="M644.713 217.72s.655.11.594-.484a2 2 0 0 1-.743-.219 1.716 1.716 0 0 1-.734-1.046c-.5 0-.385.281-.385.281-.195.759 1.268 1.468 1.268 1.468z" class="prefix__cls-6" data-name="Path 739" transform="translate(-640.672 -198.819)"/>
            <path id="prefix__Path_740" d="M666.451 161.771a1.013 1.013 0 0 0 .473.065 1.64 1.64 0 0 1 .692.191c-.107-1.44-2.076-1.857-2.076-1.857a2.673 2.673 0 0 1 .911 1.601z" class="prefix__cls-6" data-name="Path 740" transform="translate(-656.565 -158.716)"/>
        </g>
        <path id="prefix__Path_741" d="M635.136 163.963c.509 4.135 1.935 9.125 5.646 8.667s8.3-6.189 7.795-10.326-3.938-7.111-7.646-6.653-6.307 4.18-5.795 8.312z" class="prefix__cls-4" data-name="Path 741" transform="translate(471.394 1694.977)"/>
        <path id="prefix__Path_742" d="M646.133 215.64s.655.113.594-.481a1.241 1.241 0 0 0-.027-.159 1.511 1.511 0 0 1-.042-.546 1.115 1.115 0 0 1 .028-.194 2.533 2.533 0 0 1 .312-.813l-1.654-.689s.467.785.281 1.052a.194.194 0 0 1-.112.076.433.433 0 0 1-.127 0h-.141c-.5 0-.385.281-.385.281-.187.767 1.273 1.473 1.273 1.473z" class="prefix__cls-11" data-name="Path 742" transform="translate(464.372 1653.899)"/>
        <path id="prefix__Path_743" d="M647.25 216.572l1.125.563a1.127 1.127 0 0 1 .028-.194c-.3-.115-.759-.321-1.052-.45a.2.2 0 0 1-.101.081z" class="prefix__cls-9" data-name="Path 743" transform="translate(462.642 1651.218)"/>
        <path id="prefix__Path_744" d="M646.15 218.53s.656.113.594-.481a1.969 1.969 0 0 1-.743-.222 1.7 1.7 0 0 1-.731-1.046c-.5 0-.385.281-.385.281-.194.762 1.265 1.468 1.265 1.468z" class="prefix__cls-8" data-name="Path 744" transform="translate(464.354 1651.01)"/>
        <path id="prefix__Path_745" d="M646.15 218.53s.656.113.594-.481a1.969 1.969 0 0 1-.743-.222 1.7 1.7 0 0 1-.731-1.046c-.5 0-.385.281-.385.281-.194.762 1.265 1.468 1.265 1.468z" class="prefix__cls-4" data-name="Path 745" transform="translate(464.354 1651.01)"/>
        <path id="prefix__Path_746" d="M667 161s1.969.416 2.076 1.857a1.615 1.615 0 0 0-.695-.188 1.024 1.024 0 0 1-.47-.068A2.692 2.692 0 0 0 667 161z" class="prefix__cls-10" data-name="Path 746" transform="translate(448.447 1691.099)"/>
        <path id="prefix__Path_747" d="M644.814 218.1a1.2 1.2 0 0 1 1.066 1.474c-.248.83-1.266 1.091-1.93 1.646a3.383 3.383 0 0 0-1.063 2.3 5.649 5.649 0 0 0 1.623 4.467c.6.588 1.316 1.038 1.9 1.634a9.728 9.728 0 0 1 1.646 2.509 5.874 5.874 0 0 1 .729 2.11 4.973 4.973 0 0 1-1.21 3.269 22.372 22.372 0 0 0-2.115 2.864 6.017 6.017 0 0 0-.346 4.717.61.61 0 0 0 .2.315.222.222 0 0 0 .326-.07" class="prefix__cls-12" data-name="Path 747" transform="translate(465.792 1650.061)"/>
        <path id="prefix__Path_748" d="M647.492 217.36a.563.563 0 0 1 .025.714.869.869 0 0 1-.687.318c-.318 0-.672-.1-.934.087a.807.807 0 0 0-.281.61 3.11 3.11 0 0 1-.07.689 1.374 1.374 0 0 1-.3.5 1.524 1.524 0 0 1-.563.411c-.47.183-1.013.017-1.494.169a2.1 2.1 0 0 0-1.164 1.519 4.373 4.373 0 0 0-.138 2.357 8.147 8.147 0 0 0 .639 1.446 3.272 3.272 0 0 1 .416 1.508 1.384 1.384 0 0 1-.793 1.266" class="prefix__cls-12" data-name="Path 748" transform="translate(466.571 1650.593)"/>
    </g>
</svg>
