<svg xmlns="http://www.w3.org/2000/svg" id="prefix__noun_training_1450385" width="23.452" height="15.018" viewBox="0 0 23.452 15.018">
    <path id="prefix__Path_1171" d="M24.232 33.268a2.568 2.568 0 1 1 2.568 2.568 2.565 2.565 0 0 1-2.568-2.568zM34.659 36.5a.591.591 0 1 0-.35-1.128l-6.069 1.747h-4.2a.567.567 0 0 0-.506.272l-3.5 5.33a.576.576 0 0 0 .156.817.468.468 0 0 0 .311.078.567.567 0 0 0 .499-.272l2.451-3.7v5.1a.6.6 0 0 0 .584.584h4.319a.6.6 0 0 0 .584-.584v-6.613zm8.054-5.369H32.091a.6.6 0 0 0-.584.584v3.265l2.529-.739a1.953 1.953 0 0 1 .467-.078 1.707 1.707 0 0 1 1.673 1.284 1.761 1.761 0 0 1-1.206 2.179l-3.5 1.012v1.672a.6.6 0 0 0 .584.584H36.8v1.128l-2.3 2.723a.6.6 0 0 0 .078.817.691.691 0 0 0 .389.156.718.718 0 0 0 .467-.195l1.4-1.673v1.167a.584.584 0 0 0 1.167 0V43.85l1.4 1.673a.524.524 0 0 0 .467.195.557.557 0 0 0 .389-.156.6.6 0 0 0 .078-.817l-2.3-2.723v-1.129h4.747a.6.6 0 0 0 .584-.584v-8.6a.741.741 0 0 0-.653-.581z" data-name="Path 1171" transform="translate(-19.922 -30.7)" style="fill:#5e5e5e"/>
</svg>
