<svg xmlns="http://www.w3.org/2000/svg" width="128.918" height="119.137" viewBox="0 0 128.918 119.137">
    <defs>
        <style>
            .prefix__cls-1{fill:#fff}
        </style>
    </defs>
    <g id="prefix__noun_passion_2068975" transform="translate(-9.007 -12.108)">
        <path id="prefix__Path_1148" d="M63.324 25.55a8.725 8.725 0 0 1 8.724 8.706 1.572 1.572 0 1 0 3.145 0A8.716 8.716 0 0 1 83.9 25.55a1.572 1.572 0 0 0 0-3.145 8.725 8.725 0 0 1-8.706-8.724 1.572 1.572 0 1 0-3.145 0 8.734 8.734 0 0 1-8.724 8.724 1.572 1.572 0 0 0 0 3.145zm10.294-5.968a11.946 11.946 0 0 0 4.388 4.394 11.953 11.953 0 0 0-4.388 4.388 11.956 11.956 0 0 0-4.394-4.388 11.949 11.949 0 0 0 4.395-4.395z" class="prefix__cls-1" data-name="Path 1148" transform="translate(30.186)"/>
        <path id="prefix__Path_1149" d="M98.061 32.972a8.724 8.724 0 0 1-8.706-8.723 1.572 1.572 0 0 0-3.145 0 8.732 8.732 0 0 1-8.724 8.723 1.572 1.572 0 0 0 0 3.145 8.725 8.725 0 0 1 8.724 8.706 1.572 1.572 0 0 0 3.145 0 8.716 8.716 0 0 1 8.706-8.706 1.572 1.572 0 0 0 0-3.145zm-10.28 5.959a11.956 11.956 0 0 0-4.394-4.388 11.945 11.945 0 0 0 4.394-4.393 11.946 11.946 0 0 0 4.388 4.393 11.957 11.957 0 0 0-4.388 4.388z" class="prefix__cls-1" data-name="Path 1149" transform="translate(38.291 6.048)"/>
        <g id="prefix__Group_369" data-name="Group 369" transform="translate(9.007 17.516)">
            <path id="prefix__Path_1150" d="M124.785 67.922a9.387 9.387 0 0 0-5.2-16.012l-26.353-3.828a6.257 6.257 0 0 1-4.714-3.426L76.734 20.779a9.387 9.387 0 0 0-16.834 0L48.115 44.658a6.259 6.259 0 0 1-4.715 3.424L17.05 51.91a9.388 9.388 0 0 0-5.2 16.012l19.067 18.587a6.259 6.259 0 0 1 1.8 5.541l-4.5 26.244a9.386 9.386 0 0 0 13.619 9.894L65.4 115.8a6.264 6.264 0 0 1 5.826 0L94.8 128.188a9.386 9.386 0 0 0 13.619-9.894l-4.5-26.244a6.26 6.26 0 0 1 1.8-5.541zm-83.314 37.915a1.564 1.564 0 0 1-1.539 1.3 1.617 1.617 0 0 1-.269-.023 1.562 1.562 0 0 1-1.272-1.807l.362-2.079a1.563 1.563 0 1 1 3.08.534zm2.074-11.929a1.565 1.565 0 0 1-1.539 1.3 1.582 1.582 0 0 1-.266-.023 1.562 1.562 0 0 1-1.276-1.806 14.113 14.113 0 0 0-4.06-12.5l-14.28-13.92a1.563 1.563 0 1 1 2.182-2.239l14.28 13.92a17.237 17.237 0 0 1 4.959 15.268zm60.521-22.5a11.269 11.269 0 0 0-11.255 11.257 1.572 1.572 0 1 1-3.145 0 11.28 11.28 0 0 0-11.278-11.256 1.572 1.572 0 0 1 0-3.145 11.291 11.291 0 0 0 11.278-11.277 1.572 1.572 0 0 1 3.145 0 11.28 11.28 0 0 0 11.256 11.278 1.572 1.572 0 0 1 0 3.145z" class="prefix__cls-1" data-name="Path 1150" transform="translate(-9.007 -15.548)"/>
        </g>
    </g>
</svg>
