<svg xmlns="http://www.w3.org/2000/svg" width="1512" height="206.393" viewBox="0 0 1512 206.393">
    <defs>
        <style>
            .prefix__cls-3{fill:#a7d676}.prefix__cls-4{fill:#7d4092}
        </style>
    </defs>
    <g id="prefix__Group_446" data-name="Group 446" transform="translate(-204 -173)">
        <g id="prefix__Group_441" data-name="Group 441" transform="translate(-52)">
            <rect id="prefix___1201746525_jpg_8" width="1512" height="206" data-name="1201746525.jpg.8" rx="10" transform="translate(256 173)" style="fill:rgba(170,255,82,.23)"/>
            <text id="prefix__virtual_majlis_videos" data-name="virtual majlis videos" transform="translate(311 299)" style="fill:#4d4d4d;font-size:55px;font-family:SegoeUI-Bold,Segoe UI;font-weight:700">
                <tspan x="0" y="0">virtual majlis videos</tspan>
            </text>
        </g>
        <g id="prefix__Group_445" data-name="Group 445">
            <g id="prefix__Group_442" data-name="Group 442" transform="translate(1450.432 -63.014)">
                <path id="prefix__Path_755" d="M112.852 482.47l1.116-7.237 2.137-13.861 2.555-16.552 2.716-17.608L124 410.2l2.28-14.781 1.68-10.9c.432-2.789 1.178-5.661.676-8.5s-2.768-4.731-3.772-7.373a26.4 26.4 0 0 1-1.2-6.421 22.2 22.2 0 0 0-1.579-6.17c-1.544-3.706-3.239-7.669-6.153-10.524-2.123-2.092-4.476-4.27-5.926-6.9a3.68 3.68 0 0 1-.645-2.59c.46-1.645 2.489-1.715 3.7-.966 1.656 1.025 2.879 2.813 4.058 4.319 2.688 3.441 6.881 9.9 8.9 8.394.952-.7.279-2.656 0-3.538a25.721 25.721 0 0 0-2.092-5c-2.092-3.727-4.26-7.495-5.993-11.4-.739-1.663-3.347-7.279-.638-8.447s5.292 3.343 6.345 5.163a34.831 34.831 0 0 1 2.228 4.434c.9 2.238 2.067 4.385 3.036 6.623q1.394 3.232 2.548 6.571a1.436 1.436 0 0 0 .593.892c1.307.652.471-3.542.373-4.019-.607-2.977-1.687-5.822-2.364-8.781-.868-3.786-1.628-7.669-2.123-11.5a9.94 9.94 0 0 1 .171-4.563 2.832 2.832 0 0 1 4.34-1.081 4.627 4.627 0 0 1 1.325 3.137c.171 1.394.272 2.744.551 4.131.631 3.137 1.684 6.275 2.569 9.412.457 1.607.875 3.232 1.171 4.88a38.915 38.915 0 0 0 .781 4.9 1.551 1.551 0 0 0 .481.819 1.046 1.046 0 0 0 1.133 0c1.394-.826.6-2.74.436-3.991a60.846 60.846 0 0 1-.248-7.174c-.042-3.169-.192-6.362-.248-9.506-.035-1.942.376-4.626 2.757-4.849 2.235-.209 3.137 2.133 3.448 3.946.439 2.541.066 5.229.265 7.823.213 2.789.275 5.578.467 8.328.181 2.649 1.105 5.25 1.377 7.9.293 2.883-.1 5.745 1.893 8.164a4.183 4.183 0 0 0 2.59 1.586c2.876.349 5.518-2.44 6.972-4.584a20.446 20.446 0 0 1 5.5-5.7 10.69 10.69 0 0 1 4.316-1.886c1.412-.185 3.28.387 3.727 1.907.558 1.9-1.694 3.835-2.956 4.912a49.5 49.5 0 0 0-8.9 10.577s-5.623 12-8.227 15.363c-1.436 1.851-3.615 3.092-4.588 5.271-1.478 3.3-1.245 7.76-1.684 11.357q-.429 3.517-.861 7.038-1.074 8.778-2.154 17.556-2.458 20.017-4.926 40.037-1.722 13.993-3.448 27.982z" class="prefix__cls-3" data-name="Path 755" transform="translate(-71.197 -40.071)"/>
                <path id="prefix__Path_756" d="M171.1 427.279c-.983-2.942 1.548-7.2 4.56-7.561a2.939 2.939 0 0 1 1.935.349c2.716 1.743-.31 8.994-1.074 11.155-1.091 3.1-2.381 6.118-3.747 9.1a8.176 8.176 0 0 1-.655 1.269 49.37 49.37 0 0 1-7.321-7.669c-1.963-2.4-7.53-8.816-4.626-12.023a3.58 3.58 0 0 1 1.576-.934 6.519 6.519 0 0 1 4.7.279c2.294 1.064 3.88 3.72 4.652 6.035z" class="prefix__cls-4" data-name="Path 756" transform="translate(-105.681 -109.861)"/>
                <path id="prefix__Path_757" d="M632.6 616.147l-.07-1.046-1-14.92-.736-11.006c-.188-2.82-.084-5.783-1.192-8.44s-3.734-4.012-5.288-6.372a26.54 26.54 0 0 1-2.569-6.007 22.206 22.206 0 0 0-2.886-5.679c-2.315-3.28-4.832-6.773-8.3-8.928-2.524-1.569-5.3-3.19-7.3-5.435a3.7 3.7 0 0 1-1.2-2.388c.091-1.7 2.053-2.217 3.4-1.743 1.841.638 3.423 2.116 4.9 3.333 3.371 2.789 8.875 8.164 10.514 6.25.774-.9-.307-2.656-.76-3.455A25.722 25.722 0 0 0 617 545.9c-2.838-3.183-5.79-6.386-8.335-9.813-1.095-1.482-4.87-6.393-2.475-8.136s5.891 2.109 7.321 3.657a34.825 34.825 0 0 1 3.137 3.835c1.363 1.991 2.974 3.835 4.4 5.79q2.092 2.848 3.918 5.857a1.436 1.436 0 0 0 .774.742c1.419.349-.314-3.559-.512-4.005-1.241-2.789-2.914-5.313-4.222-8.053-1.67-3.5-3.263-7.133-4.584-10.782a9.721 9.721 0 0 1-.83-4.49 2.84 2.84 0 0 1 4-2 4.613 4.613 0 0 1 1.98 2.789c.471 1.321.865 2.618 1.436 3.911 1.3 2.935 3.015 5.766 4.56 8.618.795 1.471 1.558 2.963 2.207 4.5a39.185 39.185 0 0 0 1.83 4.612 1.553 1.553 0 0 0 .648.7 1.046 1.046 0 0 0 1.105-.244c1.185-1.112 0-2.789-.443-3.992a61.376 61.376 0 0 1-1.806-6.944c-.732-3.085-1.572-6.167-2.315-9.224-.457-1.886-.641-4.595 1.635-5.334 2.137-.7 3.521 1.394 4.225 3.1.983 2.384 1.206 5.089 1.966 7.575.812 2.663 1.482 5.365 2.273 8.018.753 2.545 2.224 4.88 3.068 7.411.917 2.75 1.154 5.63 3.629 7.558a4.184 4.184 0 0 0 2.876.983c2.886-.275 4.856-3.58 5.815-6a20.342 20.342 0 0 1 4.131-6.766 10.781 10.781 0 0 1 3.8-2.789c1.339-.488 3.284-.349 4.051 1.046.962 1.743-.819 4.114-1.813 5.438a49.49 49.49 0 0 0-6.376 12.26s-2.872 12.94-4.678 16.785c-1 2.12-2.855 3.807-3.329 6.142-.722 3.542.478 7.844.833 11.452l.7 7.056q.864 8.8 1.743 17.6l.133 1.346z" class="prefix__cls-3" data-name="Path 757" transform="translate(-400.973 -173.748)"/>
                <path id="prefix__Path_758" d="M678.97 629.038c-.443-3.071 2.806-6.8 5.836-6.623a2.938 2.938 0 0 1 1.841.7c2.364 2.193-1.91 8.792-3.047 10.789-1.625 2.852-3.434 5.6-5.309 8.286a8.172 8.172 0 0 1-.868 1.133 47.866 47.866 0 0 1-5.825-8.848c-1.5-2.712-5.836-10.019-2.405-12.658a3.58 3.58 0 0 1 1.715-.638 6.519 6.519 0 0 1 4.57 1.112c2.055 1.434 3.143 4.331 3.492 6.747z" class="prefix__cls-4" data-name="Path 758" transform="translate(-443.853 -241.08)"/>
                <path id="prefix__Path_759" d="M245.761 541.245l.955-6.2 2.719-17.608 2.625-17.015 2.28-14.781 1.68-10.9c.432-2.789 1.178-5.661.676-8.5s-2.768-4.731-3.772-7.373a26.4 26.4 0 0 1-1.2-6.421 22.2 22.2 0 0 0-1.579-6.17c-1.544-3.706-3.239-7.669-6.153-10.524-2.123-2.092-4.476-4.27-5.926-6.9a3.68 3.68 0 0 1-.645-2.59c.46-1.645 2.489-1.715 3.7-.966 1.656 1.025 2.879 2.813 4.058 4.319 2.688 3.441 6.881 9.9 8.9 8.394.952-.7.279-2.656 0-3.538a25.72 25.72 0 0 0-2.092-5c-2.092-3.727-4.26-7.495-5.993-11.4-.739-1.663-3.347-7.279-.638-8.447s5.292 3.343 6.345 5.163a34.837 34.837 0 0 1 2.224 4.427c.9 2.238 2.067 4.385 3.036 6.623q1.394 3.232 2.548 6.571a1.436 1.436 0 0 0 .593.892c1.307.652.471-3.542.373-4.019-.607-2.977-1.687-5.822-2.364-8.781-.868-3.786-1.628-7.669-2.123-11.5a9.94 9.94 0 0 1 .171-4.563 2.832 2.832 0 0 1 4.34-1.081 4.627 4.627 0 0 1 1.325 3.137c.171 1.394.272 2.743.551 4.131.631 3.137 1.684 6.275 2.569 9.412.457 1.607.875 3.232 1.171 4.88a38.908 38.908 0 0 0 .781 4.9 1.551 1.551 0 0 0 .481.819 1.046 1.046 0 0 0 1.133 0c1.394-.826.6-2.74.436-3.992a60.842 60.842 0 0 1-.248-7.174c-.042-3.169-.192-6.362-.247-9.507-.035-1.942.376-4.626 2.757-4.849 2.235-.209 3.137 2.133 3.448 3.946.439 2.541.066 5.229.265 7.823.213 2.789.275 5.578.467 8.328.181 2.649 1.105 5.25 1.377 7.9.293 2.883-.1 5.745 1.893 8.164a4.183 4.183 0 0 0 2.59 1.586c2.876.349 5.518-2.44 6.972-4.584a20.494 20.494 0 0 1 5.5-5.7 10.69 10.69 0 0 1 4.316-1.886c1.412-.185 3.28.387 3.727 1.907.558 1.9-1.694 3.835-2.956 4.912a49.5 49.5 0 0 0-8.9 10.577s-5.623 12-8.227 15.363c-1.436 1.851-3.615 3.092-4.588 5.271-1.478 3.3-1.245 7.76-1.684 11.358q-.429 3.517-.861 7.038-1.074 8.778-2.154 17.556-2.252 18.274-4.494 36.558z" class="prefix__cls-3" data-name="Path 759" transform="translate(-158.006 -98.846)"/>
                <path id="prefix__Path_760" d="M299.152 517.5c-.983-2.942 1.548-7.2 4.56-7.561a2.938 2.938 0 0 1 1.935.349c2.716 1.743-.31 8.994-1.074 11.155-1.091 3.1-2.381 6.118-3.748 9.1a8.171 8.171 0 0 1-.655 1.269 49.368 49.368 0 0 1-7.321-7.669c-1.963-2.4-7.53-8.816-4.626-12.023a3.58 3.58 0 0 1 1.576-.934 6.518 6.518 0 0 1 4.7.279c2.301 1.063 3.879 3.719 4.653 6.035z" class="prefix__cls-4" data-name="Path 760" transform="translate(-190.603 -168.63)"/>
                <path id="prefix__Path_761" d="M440.335 471.617l-.547-3.538-1.468-9.52-2.12-13.859-2.552-16.555-2.716-17.608-2.642-17.005-2.28-14.781-1.68-10.9c-.432-2.789-1.178-5.661-.676-8.5s2.768-4.731 3.772-7.373a26.4 26.4 0 0 0 1.2-6.421 22.2 22.2 0 0 1 1.579-6.17c1.544-3.706 3.239-7.669 6.153-10.524 2.123-2.092 4.476-4.27 5.926-6.9a3.68 3.68 0 0 0 .645-2.59c-.46-1.645-2.489-1.715-3.7-.966-1.656 1.025-2.879 2.813-4.058 4.319-2.688 3.441-6.881 9.9-8.9 8.394-.952-.7-.279-2.656 0-3.538a25.72 25.72 0 0 1 2.092-5c2.092-3.727 4.26-7.495 5.993-11.4.739-1.663 3.347-7.279.638-8.447s-5.292 3.343-6.345 5.163a34.858 34.858 0 0 0-2.207 4.431c-.9 2.238-2.067 4.385-3.036 6.624q-1.394 3.232-2.548 6.571a1.436 1.436 0 0 1-.593.892c-1.307.652-.471-3.542-.373-4.019.607-2.977 1.687-5.822 2.364-8.781.868-3.786 1.628-7.669 2.123-11.5a9.939 9.939 0 0 0-.171-4.563 2.832 2.832 0 0 0-4.34-1.081 4.627 4.627 0 0 0-1.325 3.138c-.171 1.394-.272 2.744-.551 4.131-.631 3.137-1.684 6.275-2.569 9.412-.457 1.607-.875 3.232-1.171 4.88a38.92 38.92 0 0 1-.781 4.9 1.551 1.551 0 0 1-.481.819 1.045 1.045 0 0 1-1.133 0c-1.394-.826-.6-2.74-.436-3.991a60.836 60.836 0 0 0 .247-7.174c.042-3.169.192-6.362.248-9.506.035-1.942-.377-4.626-2.757-4.849-2.235-.209-3.137 2.133-3.448 3.946-.439 2.541-.066 5.229-.265 7.823-.213 2.789-.275 5.578-.467 8.328-.181 2.649-1.105 5.25-1.377 7.9-.293 2.883.1 5.745-1.893 8.164a4.183 4.183 0 0 1-2.59 1.586c-2.876.349-5.518-2.44-6.972-4.584a20.493 20.493 0 0 0-5.5-5.7 10.691 10.691 0 0 0-4.316-1.886c-1.412-.185-3.28.387-3.727 1.907-.558 1.9 1.694 3.835 2.956 4.912a49.5 49.5 0 0 1 8.9 10.577s5.623 12 8.227 15.363c1.436 1.851 3.615 3.092 4.588 5.271 1.478 3.3 1.244 7.76 1.684 11.358q.429 3.517.861 7.038 1.06 8.757 2.154 17.531 2.44 20.02 4.908 40.03 1.813 14.732 3.629 29.461l.526 4.354z" class="prefix__cls-3" data-name="Path 761" transform="translate(-251.966 -29.218)"/>
                <path id="prefix__Path_762" d="M465.511 410.569c.983-2.942-1.548-7.2-4.56-7.561a2.939 2.939 0 0 0-1.935.349c-2.716 1.743.31 8.994 1.074 11.155 1.091 3.1 2.381 6.118 3.747 9.1a8.17 8.17 0 0 0 .655 1.269 49.365 49.365 0 0 0 7.321-7.669c1.963-2.4 7.53-8.816 4.626-12.023a3.58 3.58 0 0 0-1.576-.934 6.519 6.519 0 0 0-4.7.279c-2.292 1.066-3.879 3.72-4.652 6.035z" class="prefix__cls-4" data-name="Path 762" transform="translate(-303.681 -98.977)"/>
                <path id="prefix__Path_763" d="M353.669 623.811l-.234-11.521-.223-11.026c-.056-2.824-.418-5.769.453-8.513s3.368-4.323 4.713-6.808a26.337 26.337 0 0 0 2.036-6.209 22.2 22.2 0 0 1 2.381-5.905c2.022-3.469 4.225-7.167 7.492-9.615 2.377-1.781 5-3.639 6.8-6.048a3.684 3.684 0 0 0 .983-2.482c-.237-1.691-2.238-2.029-3.542-1.447-1.778.795-3.228 2.405-4.595 3.744-3.117 3.057-8.133 8.907-9.932 7.143-.847-.833.077-2.67.457-3.507a25.72 25.72 0 0 1 2.75-4.671c2.552-3.416 5.229-6.864 7.45-10.5.955-1.551 4.281-6.77 1.743-8.286s-5.686 2.615-6.972 4.281a34.831 34.831 0 0 0-2.789 4.093c-1.185 2.092-2.628 4.075-3.883 6.153q-1.823 3.015-3.4 6.177a1.437 1.437 0 0 1-.7.805c-1.394.474 0-3.573.16-4.033.994-2.869 2.44-5.546 3.5-8.391 1.36-3.636 2.632-7.39 3.629-11.155a9.853 9.853 0 0 0 .436-4.532 2.832 2.832 0 0 0-4.159-1.645 4.706 4.706 0 0 0-1.743 2.949c-.349 1.36-.634 2.684-1.091 4.019-1.046 3.036-2.5 6.006-3.793 8.984-.666 1.534-1.293 3.085-1.806 4.678a39.209 39.209 0 0 1-1.422 4.751 1.551 1.551 0 0 1-.586.746 1.046 1.046 0 0 1-1.122-.146c-1.279-1-.23-2.789.094-4.016a61.566 61.566 0 0 0 1.2-7.077c.46-3.137 1.046-6.275 1.506-9.391.293-1.917.241-4.633-2.092-5.17-2.189-.5-3.388 1.7-3.939 3.455-.774 2.461-.76 5.173-1.3 7.718-.579 2.723-1.011 5.477-1.565 8.2-.53 2.6-1.792 5.055-2.412 7.652-.673 2.82-.659 5.707-2.956 7.844a4.183 4.183 0 0 1-2.789 1.231c-2.9-.021-5.149-3.137-6.313-5.466a20.323 20.323 0 0 0-4.7-6.383 10.709 10.709 0 0 0-4.03-2.44c-1.377-.37-3.3-.052-3.946 1.394-.805 1.813 1.171 4.026 2.28 5.26a49.547 49.547 0 0 1 7.418 11.661s3.984 12.634 6.123 16.308c1.178 2.025 3.172 3.545 3.835 5.829 1.028 3.465.206 7.858.167 11.48q-.038 3.545-.08 7.091-.07 6.369-.136 12.735z" class="prefix__cls-3" data-name="Path 763" transform="translate(-208.519 -181.412)"/>
                <path id="prefix__Path_764" d="M395.089 639.093c1.363-2.789-.582-7.321-3.517-8.1a2.939 2.939 0 0 0-1.966.094c-2.921 1.36-.885 8.956-.415 11.2.673 3.214 1.548 6.379 2.506 9.517a8.179 8.179 0 0 0 .481 1.346 48.4 48.4 0 0 0 8.258-6.623c2.262-2.12 8.631-7.743 6.177-11.305a3.58 3.58 0 0 0-1.436-1.133 6.519 6.519 0 0 0-4.692-.349c-2.398.738-4.322 3.16-5.396 5.353z" class="prefix__cls-4" data-name="Path 764" transform="translate(-257.357 -247.43)"/>
                <path id="prefix__Path_765" d="M555.755 559.85l-.275-13.6-.349-17.214-.3-14.952-.223-11.026c-.056-2.824-.418-5.769.453-8.513s3.367-4.323 4.713-6.808a26.347 26.347 0 0 0 2.036-6.209 22.2 22.2 0 0 1 2.381-5.905c2.022-3.469 4.225-7.167 7.492-9.614 2.377-1.781 5-3.639 6.8-6.048a3.684 3.684 0 0 0 .983-2.482c-.237-1.691-2.238-2.029-3.542-1.447-1.778.795-3.228 2.405-4.595 3.744-3.117 3.057-8.133 8.907-9.932 7.143-.847-.833.077-2.67.457-3.507a25.718 25.718 0 0 1 2.768-4.661c2.552-3.416 5.229-6.864 7.45-10.5.955-1.551 4.281-6.77 1.743-8.286s-5.686 2.615-6.972 4.281a34.82 34.82 0 0 0-2.789 4.093c-1.185 2.092-2.629 4.075-3.884 6.153q-1.823 3.015-3.4 6.177a1.436 1.436 0 0 1-.7.805c-1.394.474 0-3.573.16-4.033.994-2.869 2.44-5.546 3.5-8.391 1.359-3.636 2.632-7.39 3.629-11.155a9.852 9.852 0 0 0 .436-4.532 2.832 2.832 0 0 0-4.159-1.645 4.706 4.706 0 0 0-1.743 2.949c-.349 1.36-.634 2.684-1.091 4.019-1.046 3.036-2.5 6.006-3.793 8.984-.666 1.534-1.293 3.085-1.806 4.678a39.43 39.43 0 0 1-1.422 4.755 1.552 1.552 0 0 1-.586.746 1.046 1.046 0 0 1-1.123-.146c-1.279-1-.23-2.789.094-4.016a61.545 61.545 0 0 0 1.2-7.077c.46-3.137 1.046-6.275 1.506-9.391.293-1.917.241-4.633-2.092-5.17-2.189-.5-3.388 1.7-3.939 3.455-.774 2.461-.76 5.173-1.3 7.718-.579 2.723-1.011 5.477-1.565 8.2-.53 2.6-1.792 5.055-2.412 7.652-.673 2.82-.659 5.707-2.956 7.844a4.183 4.183 0 0 1-2.789 1.231c-2.9-.021-5.149-3.137-6.313-5.466a20.323 20.323 0 0 0-4.7-6.383 10.708 10.708 0 0 0-4.03-2.44c-1.377-.37-3.3-.052-3.946 1.394-.805 1.813 1.171 4.026 2.28 5.26a49.048 49.048 0 0 1 7.418 11.647s3.984 12.644 6.121 16.315c1.178 2.025 3.172 3.545 3.835 5.829 1.028 3.465.206 7.858.167 11.48l-.077 7.091q-.1 8.844-.188 17.685-.153 14.641-.3 29.283z" class="prefix__cls-3" data-name="Path 765" transform="translate(-344.02 -117.451)"/>
                <path id="prefix__Path_766" d="M596.449 540.873c1.363-2.789-.582-7.321-3.517-8.1a2.939 2.939 0 0 0-1.966.094c-2.921 1.36-.885 8.956-.415 11.2.673 3.214 1.548 6.379 2.506 9.517a8.181 8.181 0 0 0 .481 1.346 48.4 48.4 0 0 0 8.258-6.624c2.263-2.12 8.631-7.742 6.177-11.305a3.58 3.58 0 0 0-1.436-1.133 6.518 6.518 0 0 0-4.692-.349c-2.398.739-4.322 3.161-5.396 5.354z" class="prefix__cls-4" data-name="Path 766" transform="translate(-390.895 -183.45)"/>
                <path id="prefix__Path_767" d="M13.038 573.358l3.528-10.828 5.334-16.384 4.629-14.206 3.416-10.49c.875-2.688 1.5-5.578 3.228-7.889s4.6-2.974 6.69-4.88a26.686 26.686 0 0 0 3.967-5.194 22.207 22.207 0 0 1 4.183-4.793c3.05-2.611 6.345-5.379 10.235-6.623 2.834-.9 5.926-1.792 8.408-3.486a3.691 3.691 0 0 0 1.743-2.018c.331-1.677-1.447-2.653-2.869-2.531-1.942.167-3.835 1.21-5.578 2.025-3.95 1.862-10.612 5.735-11.727 3.486-.526-1.067.952-2.5 1.586-3.162a25.723 25.723 0 0 1 4.134-3.507c3.535-2.388 7.181-4.769 10.49-7.467 1.394-1.15 6.275-4.985 4.378-7.251s-6.23.6-7.99 1.743a34.849 34.849 0 0 0-3.981 2.946c-1.809 1.593-3.835 2.984-5.689 4.532q-2.712 2.249-5.229 4.717a1.436 1.436 0 0 1-.931.53c-1.461 0 1.178-3.374 1.478-3.758 1.882-2.384 4.131-4.434 6.069-6.77 2.482-2.988 4.915-6.115 7.091-9.325a9.766 9.766 0 0 0 1.907-4.148 2.834 2.834 0 0 0-3.385-2.925 4.629 4.629 0 0 0-2.6 2.217c-.781 1.168-1.482 2.329-2.353 3.437-1.98 2.524-4.337 4.849-6.536 7.237a49.485 49.485 0 0 0-3.246 3.835 36.471 36.471 0 0 1-2.907 4.019 1.552 1.552 0 0 1-.8.512 1.046 1.046 0 0 1-1.011-.506c-.875-1.37.7-2.716 1.394-3.761a63.209 63.209 0 0 0 3.458-6.275c1.468-2.81 3.04-5.578 4.511-8.367.906-1.715 1.743-4.3-.275-5.578-1.9-1.2-3.758.492-4.856 1.966-1.537 2.071-2.419 4.636-3.765 6.861-1.443 2.381-2.754 4.839-4.183 7.223-1.356 2.283-3.354 4.183-4.793 6.432-1.562 2.44-2.5 5.173-5.372 6.435a4.183 4.183 0 0 1-3.029.248c-2.73-.973-3.835-4.661-4.166-7.241a20.318 20.318 0 0 0-2.343-7.572 10.36 10.36 0 0 0-2.974-3.625c-1.178-.8-3.1-1.133-4.183.021-1.356 1.447-.216 4.183.422 5.717a49.552 49.552 0 0 1 3.172 13.453s-.394 13.247.415 17.43c.446 2.3 1.83 4.392 1.719 6.773-.171 3.612-2.388 7.488-3.619 10.9l-2.405 6.669-6 16.639L0 545.843v27.515z" class="prefix__cls-3" data-name="Path 767" transform="translate(0 -130.959)"/>
                <path id="prefix__Path_768" d="M70.275 557.253c1.014-2.932-1.475-7.209-4.483-7.607a2.939 2.939 0 0 0-1.938.349c-2.733 1.708.22 8.994.959 11.155 1.046 3.106 2.318 6.143 3.653 9.141a8.166 8.166 0 0 0 .641 1.276 48.47 48.47 0 0 0 7.387-7.589c1.987-2.381 7.621-8.74 4.748-11.978a3.58 3.58 0 0 0-1.565-.952 6.519 6.519 0 0 0-4.7.23c-2.294 1.028-3.904 3.667-4.702 5.975z" class="prefix__cls-4" data-name="Path 768" transform="translate(-40.852 -194.496)"/>
                <path id="prefix__Path_771" d="M102.122 189.219c-.983-2.942 1.548-7.2 4.56-7.561a2.939 2.939 0 0 1 1.935.349c2.716 1.743-.31 8.994-1.074 11.155-1.091 3.1-2.381 6.118-3.748 9.1a8.172 8.172 0 0 1-.655 1.269 49.368 49.368 0 0 1-7.321-7.669c-1.963-2.4-7.53-8.816-4.626-12.023a3.58 3.58 0 0 1 1.576-.934 6.519 6.519 0 0 1 4.7.279c2.293 1.06 3.879 3.716 4.653 6.035z" class="prefix__cls-4" data-name="Path 771" transform="translate(-58.867 62.548)"/>
                <path id="prefix__Path_773" d="M374.134 251.093c-.858-2.562 1.349-6.275 3.971-6.585a2.559 2.559 0 0 1 1.687.307c2.364 1.513-.268 7.833-.934 9.719-.948 2.7-2.074 5.33-3.263 7.927a7.121 7.121 0 0 1-.568 1.105 42.141 42.141 0 0 1-6.366-6.676c-1.708-2.092-6.561-7.669-4.03-10.458a3.116 3.116 0 0 1 1.369-.812 5.679 5.679 0 0 1 4.089.244c1.991.885 3.372 3.214 4.045 5.229z" class="prefix__cls-3" data-name="Path 773" transform="translate(-241.305 4.266)"/>
                <path id="prefix__Path_774" d="M240.022 179.243c.858-2.562-1.349-6.275-3.971-6.585a2.559 2.559 0 0 0-1.687.307c-2.364 1.513.268 7.833.934 9.719.952 2.7 2.074 5.33 3.263 7.927a7.118 7.118 0 0 0 .568 1.105 42.147 42.147 0 0 0 6.366-6.676c1.708-2.092 6.561-7.669 4.03-10.458a3.138 3.138 0 0 0-1.374-.812 5.679 5.679 0 0 0-4.089.244c-1.983.899-3.362 3.214-4.04 5.229z" class="prefix__cls-3" data-name="Path 774" transform="translate(-153.812 67.932)"/>
                <path id="prefix__Path_775" d="M485.34 154.633c-.858-2.562 1.349-6.275 3.971-6.585a2.559 2.559 0 0 1 1.687.307c2.364 1.513-.268 7.833-.934 9.719-.952 2.695-2.074 5.33-3.263 7.927a7.112 7.112 0 0 1-.565 1.112 42.144 42.144 0 0 1-6.366-6.676c-1.708-2.092-6.561-7.669-4.03-10.458a3.137 3.137 0 0 1 1.374-.812 5.679 5.679 0 0 1 4.089.244c1.984.899 3.364 3.214 4.037 5.222z" class="prefix__cls-4" data-name="Path 775" transform="translate(-315.046 88)"/>
                <path id="prefix__Path_776" d="M262 309.828a3.718 3.718 0 0 0-2.66-4.41 1.711 1.711 0 0 0-1.129.206c-1.583 1.011.181 5.229.624 6.508.634 1.806 1.394 3.57 2.186 5.309a4.758 4.758 0 0 0 .38.739 28.145 28.145 0 0 0 4.263-4.469c1.143-1.394 4.392-5.142 2.7-7.014a2.092 2.092 0 0 0-.92-.544 3.8 3.8 0 0 0-2.74.164 5.917 5.917 0 0 0-2.704 3.511z" class="prefix__cls-4" data-name="Path 776" transform="translate(-170.724 -35.418)"/>
                <path id="prefix__Path_777" d="M590.321 267a3.718 3.718 0 0 0-2.66-4.41 1.712 1.712 0 0 0-1.129.206c-1.583 1.011.181 5.229.624 6.508.634 1.806 1.394 3.57 2.186 5.309a4.766 4.766 0 0 0 .38.739 28.148 28.148 0 0 0 4.263-4.469c1.143-1.394 4.392-5.142 2.7-7.014a2.092 2.092 0 0 0-.92-.544 3.8 3.8 0 0 0-2.74.164 5.975 5.975 0 0 0-2.704 3.511z" class="prefix__cls-3" data-name="Path 777" transform="translate(-388.347 -7.519)"/>
                <path id="prefix__Path_778" d="M45.121 389.088a3.718 3.718 0 0 0-2.66-4.41 1.712 1.712 0 0 0-1.129.206c-1.583 1.011.181 5.229.624 6.508.634 1.806 1.394 3.57 2.186 5.309a4.77 4.77 0 0 0 .38.739 28.143 28.143 0 0 0 4.263-4.469c1.143-1.394 4.392-5.142 2.7-7.014a2.092 2.092 0 0 0-.927-.547 3.8 3.8 0 0 0-2.74.164 5.9 5.9 0 0 0-2.697 3.514z" class="prefix__cls-3" data-name="Path 778" transform="translate(-26.502 -87.048)"/>
            </g>
            <g id="prefix__Group_444" data-name="Group 444" transform="translate(969.432 173)">
                <path id="prefix__Path_755-2" d="M170.246 482.47l-1.116-7.237-2.137-13.861-2.555-16.552-2.716-17.608L159.1 410.2l-2.28-14.781-1.68-10.9c-.432-2.789-1.178-5.661-.676-8.5s2.768-4.731 3.772-7.373a26.4 26.4 0 0 0 1.2-6.421 22.2 22.2 0 0 1 1.579-6.17c1.544-3.706 3.239-7.669 6.153-10.524 2.123-2.092 4.476-4.27 5.926-6.9a3.68 3.68 0 0 0 .645-2.59c-.46-1.645-2.489-1.715-3.7-.966-1.656 1.025-2.879 2.813-4.058 4.319-2.688 3.441-6.881 9.9-8.9 8.394-.952-.7-.279-2.656 0-3.538a25.72 25.72 0 0 1 2.092-5c2.092-3.727 4.26-7.5 5.993-11.4.739-1.663 3.347-7.279.638-8.447s-5.292 3.343-6.345 5.163a34.831 34.831 0 0 0-2.23 4.434c-.9 2.238-2.067 4.385-3.036 6.624q-1.394 3.232-2.548 6.571a1.436 1.436 0 0 1-.593.892c-1.307.652-.471-3.542-.373-4.019.607-2.977 1.687-5.822 2.364-8.781.868-3.786 1.628-7.669 2.123-11.5a9.94 9.94 0 0 0-.171-4.563 2.832 2.832 0 0 0-4.34-1.081 4.627 4.627 0 0 0-1.325 3.137c-.171 1.394-.272 2.744-.551 4.131-.631 3.137-1.684 6.275-2.569 9.412-.457 1.607-.875 3.232-1.171 4.881a38.915 38.915 0 0 1-.781 4.9 1.551 1.551 0 0 1-.481.819 1.046 1.046 0 0 1-1.133 0c-1.394-.826-.6-2.74-.436-3.991a60.847 60.847 0 0 0 .248-7.174c.042-3.169.192-6.362.248-9.507.035-1.942-.376-4.626-2.757-4.849-2.235-.209-3.137 2.133-3.448 3.946-.439 2.541-.066 5.229-.265 7.823-.213 2.789-.275 5.578-.467 8.328-.181 2.649-1.105 5.25-1.377 7.9-.293 2.883.1 5.745-1.893 8.164a4.183 4.183 0 0 1-2.59 1.586c-2.876.349-5.518-2.44-6.972-4.584a20.447 20.447 0 0 0-5.5-5.7 10.69 10.69 0 0 0-4.316-1.886c-1.412-.185-3.28.387-3.727 1.907-.558 1.9 1.694 3.835 2.956 4.912a49.5 49.5 0 0 1 8.9 10.577s5.623 12 8.227 15.363c1.436 1.851 3.615 3.092 4.588 5.271 1.478 3.3 1.245 7.76 1.684 11.358q.429 3.517.861 7.038 1.074 8.778 2.154 17.556 2.458 20.017 4.926 40.037 1.722 13.993 3.448 27.983z" class="prefix__cls-3" data-name="Path 755" transform="translate(53.667 -276.084)"/>
                <path id="prefix__Path_756-2" d="M166.955 427.279c.983-2.942-1.548-7.2-4.56-7.561a2.939 2.939 0 0 0-1.935.349c-2.716 1.743.31 8.994 1.074 11.155 1.091 3.1 2.381 6.118 3.747 9.1a8.176 8.176 0 0 0 .655 1.269 49.369 49.369 0 0 0 7.321-7.669c1.963-2.4 7.53-8.816 4.626-12.023a3.58 3.58 0 0 0-1.576-.934 6.519 6.519 0 0 0-4.7.279c-2.292 1.064-3.878 3.72-4.652 6.035z" class="prefix__cls-4" data-name="Path 756" transform="translate(33.191 -345.875)"/>
                <path id="prefix__Path_757-2" d="M636.012 616.147l.07-1.046 1-14.92.736-11.006c.188-2.82.084-5.783 1.192-8.44s3.734-4.012 5.288-6.372a26.54 26.54 0 0 0 2.569-6.007 22.208 22.208 0 0 1 2.886-5.679c2.315-3.28 4.832-6.773 8.3-8.928 2.524-1.569 5.3-3.19 7.3-5.435a3.7 3.7 0 0 0 1.2-2.388c-.091-1.7-2.053-2.217-3.4-1.743-1.841.638-3.423 2.116-4.9 3.333-3.371 2.789-8.875 8.164-10.514 6.25-.774-.9.307-2.656.76-3.455a25.722 25.722 0 0 1 3.137-4.413c2.838-3.183 5.79-6.386 8.335-9.813 1.095-1.482 4.87-6.393 2.475-8.136s-5.891 2.109-7.321 3.657a34.825 34.825 0 0 0-3.137 3.835c-1.363 1.991-2.974 3.835-4.4 5.79q-2.092 2.848-3.918 5.857a1.436 1.436 0 0 1-.774.742c-1.419.349.314-3.559.512-4.005 1.241-2.789 2.914-5.313 4.222-8.053 1.67-3.5 3.263-7.133 4.584-10.782a9.721 9.721 0 0 0 .83-4.49 2.84 2.84 0 0 0-4-2 4.613 4.613 0 0 0-1.98 2.789c-.471 1.321-.865 2.618-1.436 3.911-1.3 2.935-3.015 5.766-4.56 8.618-.795 1.471-1.558 2.963-2.207 4.5a39.19 39.19 0 0 1-1.83 4.612 1.553 1.553 0 0 1-.648.7 1.046 1.046 0 0 1-1.105-.244c-1.185-1.112 0-2.789.443-3.992a61.376 61.376 0 0 0 1.806-6.944c.732-3.085 1.572-6.167 2.315-9.224.457-1.886.641-4.595-1.635-5.334-2.137-.7-3.521 1.394-4.225 3.1-.983 2.384-1.206 5.09-1.966 7.575-.812 2.663-1.482 5.365-2.273 8.018-.753 2.545-2.224 4.88-3.068 7.411-.917 2.75-1.154 5.63-3.629 7.558a4.184 4.184 0 0 1-2.876.983c-2.886-.275-4.856-3.58-5.815-6a20.343 20.343 0 0 0-4.131-6.766 10.781 10.781 0 0 0-3.8-2.789c-1.339-.488-3.284-.349-4.051 1.046-.962 1.743.819 4.114 1.813 5.438a49.49 49.49 0 0 1 6.376 12.26s2.872 12.94 4.678 16.785c1 2.12 2.855 3.807 3.329 6.142.722 3.542-.478 7.844-.833 11.452l-.7 7.056q-.864 8.8-1.743 17.6l-.133 1.346z" class="prefix__cls-3" data-name="Path 757" transform="translate(-626.074 -409.762)"/>
                <path id="prefix__Path_758-2" d="M676.28 629.038c.443-3.071-2.806-6.8-5.836-6.624a2.938 2.938 0 0 0-1.841.7c-2.364 2.193 1.91 8.792 3.047 10.789 1.625 2.852 3.434 5.6 5.309 8.286a8.172 8.172 0 0 0 .868 1.133 47.866 47.866 0 0 0 5.825-8.848c1.5-2.712 5.836-10.019 2.405-12.658a3.58 3.58 0 0 0-1.715-.638 6.519 6.519 0 0 0-4.57 1.112c-2.056 1.435-3.144 4.332-3.492 6.748z" class="prefix__cls-4" data-name="Path 758" transform="translate(-669.828 -477.094)"/>
                <path id="prefix__Path_759-2" d="M293.457 541.245l-.955-6.2-2.719-17.608-2.625-17.015-2.28-14.781-1.68-10.9c-.432-2.789-1.178-5.661-.676-8.5s2.768-4.731 3.772-7.373a26.4 26.4 0 0 0 1.2-6.421 22.2 22.2 0 0 1 1.579-6.17c1.544-3.706 3.239-7.669 6.153-10.524 2.123-2.092 4.476-4.27 5.926-6.9a3.681 3.681 0 0 0 .645-2.59c-.46-1.645-2.489-1.715-3.7-.966-1.656 1.025-2.879 2.813-4.058 4.319-2.688 3.441-6.881 9.9-8.9 8.394-.952-.7-.279-2.656 0-3.538a25.719 25.719 0 0 1 2.092-5c2.092-3.727 4.26-7.495 5.993-11.4.739-1.663 3.347-7.279.638-8.447s-5.292 3.343-6.345 5.163a34.835 34.835 0 0 0-2.224 4.427c-.9 2.238-2.067 4.385-3.036 6.624q-1.394 3.232-2.548 6.571a1.436 1.436 0 0 1-.593.892c-1.307.652-.471-3.542-.373-4.019.607-2.977 1.687-5.822 2.364-8.781.868-3.786 1.628-7.669 2.123-11.5a9.941 9.941 0 0 0-.171-4.563 2.832 2.832 0 0 0-4.34-1.081 4.627 4.627 0 0 0-1.325 3.137c-.171 1.394-.272 2.743-.551 4.131-.631 3.137-1.684 6.275-2.569 9.412-.457 1.607-.875 3.232-1.171 4.88a38.907 38.907 0 0 1-.781 4.9 1.551 1.551 0 0 1-.481.819 1.046 1.046 0 0 1-1.133 0c-1.394-.826-.6-2.74-.436-3.992a60.843 60.843 0 0 0 .248-7.174c.042-3.169.192-6.362.247-9.507.035-1.942-.376-4.626-2.757-4.849-2.235-.209-3.137 2.133-3.448 3.946-.439 2.541-.066 5.229-.265 7.823-.213 2.789-.275 5.578-.467 8.328-.181 2.649-1.105 5.25-1.377 7.9-.293 2.883.1 5.745-1.893 8.164a4.183 4.183 0 0 1-2.59 1.586c-2.876.349-5.518-2.44-6.972-4.584a20.494 20.494 0 0 0-5.5-5.7 10.69 10.69 0 0 0-4.316-1.886c-1.412-.185-3.28.387-3.727 1.907-.558 1.9 1.694 3.835 2.956 4.912a49.5 49.5 0 0 1 8.9 10.577s5.623 12 8.227 15.363c1.436 1.851 3.615 3.092 4.588 5.271 1.478 3.3 1.245 7.76 1.684 11.358q.429 3.517.861 7.038 1.074 8.778 2.154 17.556 2.252 18.274 4.494 36.558z" class="prefix__cls-3" data-name="Path 759" transform="translate(-115.645 -334.86)"/>
                <path id="prefix__Path_760-2" d="M295.005 517.5c.983-2.942-1.548-7.2-4.56-7.561a2.938 2.938 0 0 0-1.935.349c-2.716 1.743.31 8.994 1.074 11.155 1.091 3.1 2.381 6.118 3.748 9.1a8.171 8.171 0 0 0 .655 1.269 49.369 49.369 0 0 0 7.321-7.669c1.963-2.4 7.53-8.816 4.626-12.023a3.579 3.579 0 0 0-1.576-.934 6.518 6.518 0 0 0-4.7.279c-2.296 1.063-3.879 3.719-4.653 6.035z" class="prefix__cls-4" data-name="Path 760" transform="translate(-137.987 -404.644)"/>
                <path id="prefix__Path_761-2" d="M381.166 471.618l.547-3.538 1.468-9.52 2.119-13.86 2.552-16.555 2.716-17.608 2.642-17.005 2.28-14.781 1.68-10.9c.432-2.789 1.178-5.661.676-8.5s-2.768-4.731-3.772-7.373a26.4 26.4 0 0 1-1.2-6.421 22.2 22.2 0 0 0-1.579-6.17c-1.544-3.706-3.239-7.669-6.153-10.524-2.123-2.092-4.476-4.27-5.926-6.9a3.68 3.68 0 0 1-.645-2.59c.46-1.645 2.489-1.715 3.7-.966 1.656 1.025 2.879 2.813 4.058 4.319 2.688 3.441 6.881 9.9 8.9 8.394.952-.7.279-2.656 0-3.538a25.72 25.72 0 0 0-2.092-5c-2.092-3.727-4.26-7.5-5.993-11.4-.739-1.663-3.347-7.279-.638-8.447s5.292 3.343 6.345 5.163a34.856 34.856 0 0 1 2.207 4.431c.9 2.238 2.067 4.385 3.036 6.624q1.394 3.232 2.548 6.571a1.436 1.436 0 0 0 .593.892c1.307.652.471-3.542.373-4.019-.607-2.977-1.687-5.822-2.364-8.781-.868-3.786-1.628-7.669-2.123-11.5a9.939 9.939 0 0 1 .171-4.563 2.832 2.832 0 0 1 4.34-1.081 4.627 4.627 0 0 1 1.325 3.138c.171 1.394.272 2.744.551 4.131.631 3.137 1.684 6.275 2.569 9.412.457 1.607.875 3.232 1.171 4.88a38.922 38.922 0 0 0 .781 4.9 1.551 1.551 0 0 0 .481.819 1.045 1.045 0 0 0 1.133 0c1.394-.826.6-2.74.436-3.992a60.836 60.836 0 0 1-.247-7.174c-.042-3.169-.192-6.362-.248-9.507-.035-1.942.377-4.626 2.757-4.849 2.235-.209 3.137 2.133 3.448 3.946.439 2.541.066 5.229.265 7.823.213 2.789.275 5.578.467 8.328.181 2.649 1.105 5.25 1.377 7.9.293 2.883-.1 5.745 1.893 8.164a4.183 4.183 0 0 0 2.59 1.586c2.876.349 5.518-2.44 6.972-4.584a20.493 20.493 0 0 1 5.5-5.7 10.691 10.691 0 0 1 4.316-1.886c1.412-.185 3.28.387 3.727 1.907.558 1.9-1.694 3.835-2.956 4.912a49.5 49.5 0 0 0-8.9 10.577s-5.623 12-8.227 15.363c-1.436 1.851-3.615 3.092-4.588 5.271-1.478 3.3-1.244 7.76-1.684 11.358q-.429 3.517-.861 7.038-1.06 8.757-2.154 17.531-2.44 20.02-4.908 40.03-1.813 14.732-3.629 29.461l-.526 4.354z" class="prefix__cls-3" data-name="Path 761" transform="translate(-303.967 -265.232)"/>
                <path id="prefix__Path_762-2" d="M469.657 410.569c-.983-2.942 1.548-7.2 4.56-7.561a2.939 2.939 0 0 1 1.935.349c2.716 1.743-.31 8.994-1.074 11.155-1.091 3.1-2.381 6.118-3.747 9.1a8.17 8.17 0 0 1-.655 1.269 49.365 49.365 0 0 1-7.321-7.669c-1.963-2.4-7.53-8.816-4.626-12.023a3.58 3.58 0 0 1 1.576-.934 6.519 6.519 0 0 1 4.7.279c2.295 1.066 3.878 3.72 4.652 6.035z" class="prefix__cls-4" data-name="Path 762" transform="translate(-365.919 -334.99)"/>
                <path id="prefix__Path_763-2" d="M337.647 623.811l.234-11.521.223-11.026c.056-2.824.418-5.769-.453-8.513s-3.368-4.323-4.713-6.808a26.338 26.338 0 0 1-2.036-6.209 22.2 22.2 0 0 0-2.381-5.905c-2.022-3.469-4.225-7.167-7.492-9.615-2.377-1.781-5-3.639-6.8-6.048a3.684 3.684 0 0 1-.983-2.482c.237-1.691 2.238-2.029 3.542-1.447 1.778.795 3.228 2.405 4.595 3.744 3.117 3.057 8.133 8.907 9.932 7.143.847-.833-.077-2.67-.457-3.507a25.72 25.72 0 0 0-2.75-4.671c-2.552-3.416-5.229-6.864-7.45-10.5-.955-1.551-4.281-6.77-1.743-8.286s5.686 2.615 6.972 4.281a34.837 34.837 0 0 1 2.789 4.093c1.185 2.092 2.628 4.075 3.883 6.153q1.823 3.015 3.4 6.177a1.437 1.437 0 0 0 .7.805c1.394.474 0-3.573-.16-4.033-.994-2.869-2.44-5.546-3.5-8.391-1.36-3.636-2.632-7.39-3.629-11.155a9.853 9.853 0 0 1-.436-4.532 2.832 2.832 0 0 1 4.159-1.645 4.706 4.706 0 0 1 1.743 2.949c.349 1.36.634 2.684 1.091 4.019 1.046 3.036 2.5 6.006 3.793 8.984.666 1.534 1.293 3.085 1.806 4.678a39.209 39.209 0 0 0 1.422 4.751 1.551 1.551 0 0 0 .586.746 1.046 1.046 0 0 0 1.122-.146c1.279-1 .23-2.789-.094-4.016a61.566 61.566 0 0 1-1.2-7.077c-.46-3.138-1.046-6.275-1.506-9.391-.293-1.917-.241-4.633 2.092-5.17 2.189-.5 3.388 1.7 3.939 3.455.774 2.461.76 5.173 1.3 7.718.579 2.723 1.011 5.477 1.565 8.2.53 2.6 1.792 5.055 2.412 7.652.673 2.82.659 5.707 2.956 7.844a4.183 4.183 0 0 0 2.789 1.231c2.9-.021 5.149-3.138 6.313-5.466a20.323 20.323 0 0 1 4.7-6.383 10.709 10.709 0 0 1 4.03-2.44c1.377-.37 3.3-.052 3.946 1.394.805 1.813-1.171 4.026-2.28 5.26a49.548 49.548 0 0 0-7.418 11.661s-3.985 12.644-6.122 16.315c-1.178 2.025-3.172 3.545-3.835 5.829-1.028 3.465-.206 7.858-.167 11.48q.038 3.545.08 7.091.07 6.369.136 12.735z" class="prefix__cls-3" data-name="Path 763" transform="translate(-217.228 -417.426)"/>
                <path id="prefix__Path_764-2" d="M400.141 639.093c-1.363-2.789.582-7.321 3.517-8.1a2.939 2.939 0 0 1 1.966.094c2.921 1.36.885 8.956.415 11.2-.673 3.214-1.548 6.38-2.506 9.517a8.179 8.179 0 0 1-.481 1.346 48.4 48.4 0 0 1-8.258-6.623c-2.262-2.12-8.631-7.743-6.177-11.305a3.58 3.58 0 0 1 1.436-1.133 6.519 6.519 0 0 1 4.692-.349c2.398.738 4.322 3.16 5.396 5.353z" class="prefix__cls-4" data-name="Path 764" transform="translate(-272.305 -483.444)"/>
                <path id="prefix__Path_765-2" d="M538.363 559.851l.275-13.6.349-17.214.3-14.952.223-11.026c.056-2.824.418-5.769-.453-8.513s-3.367-4.323-4.713-6.808a26.348 26.348 0 0 1-2.036-6.209 22.2 22.2 0 0 0-2.381-5.905c-2.022-3.469-4.225-7.167-7.492-9.614-2.377-1.781-5-3.639-6.8-6.048a3.684 3.684 0 0 1-.983-2.482c.237-1.691 2.238-2.029 3.542-1.447 1.778.795 3.228 2.405 4.595 3.744 3.117 3.057 8.133 8.907 9.932 7.143.847-.833-.077-2.67-.457-3.507a25.718 25.718 0 0 0-2.768-4.661c-2.552-3.416-5.229-6.864-7.45-10.5-.955-1.551-4.281-6.77-1.743-8.286s5.686 2.615 6.972 4.281a34.823 34.823 0 0 1 2.789 4.093c1.185 2.092 2.629 4.075 3.884 6.153q1.823 3.015 3.4 6.177a1.436 1.436 0 0 0 .7.805c1.394.474 0-3.573-.16-4.033-.994-2.869-2.44-5.546-3.5-8.391-1.359-3.636-2.632-7.39-3.629-11.155a9.852 9.852 0 0 1-.436-4.532 2.832 2.832 0 0 1 4.159-1.645 4.706 4.706 0 0 1 1.743 2.949c.349 1.36.634 2.684 1.091 4.019 1.046 3.036 2.5 6.006 3.793 8.984.666 1.534 1.293 3.085 1.806 4.678a39.432 39.432 0 0 0 1.422 4.755 1.552 1.552 0 0 0 .586.746 1.046 1.046 0 0 0 1.123-.146c1.279-1 .23-2.789-.094-4.016a61.545 61.545 0 0 1-1.2-7.077c-.46-3.137-1.046-6.275-1.506-9.391-.293-1.917-.241-4.633 2.092-5.17 2.189-.5 3.388 1.7 3.939 3.455.774 2.461.76 5.173 1.3 7.718.579 2.723 1.011 5.477 1.565 8.2.53 2.6 1.792 5.055 2.412 7.652.673 2.82.659 5.707 2.956 7.844a4.183 4.183 0 0 0 2.789 1.231c2.9-.021 5.149-3.137 6.313-5.466a20.323 20.323 0 0 1 4.7-6.383 10.708 10.708 0 0 1 4.03-2.44c1.377-.37 3.3-.052 3.946 1.394.805 1.813-1.171 4.026-2.28 5.261a49.048 49.048 0 0 0-7.418 11.647s-3.984 12.644-6.121 16.315c-1.178 2.025-3.172 3.545-3.835 5.829-1.028 3.465-.206 7.858-.167 11.48l.077 7.091q.1 8.844.188 17.685.153 14.641.3 29.283z" class="prefix__cls-3" data-name="Path 765" transform="translate(-484.531 -353.465)"/>
                <path id="prefix__Path_766-2" d="M601.5 540.873c-1.363-2.789.582-7.321 3.517-8.1a2.939 2.939 0 0 1 1.966.094c2.921 1.36.885 8.956.415 11.2-.673 3.214-1.548 6.379-2.506 9.517a8.181 8.181 0 0 1-.481 1.346 48.4 48.4 0 0 1-8.258-6.624c-2.263-2.12-8.631-7.742-6.177-11.305a3.58 3.58 0 0 1 1.436-1.133 6.518 6.518 0 0 1 4.692-.349c2.396.739 4.323 3.161 5.396 5.354z" class="prefix__cls-4" data-name="Path 766" transform="translate(-541.487 -419.464)"/>
                <path id="prefix__Path_767-2" d="M56.209 573.358l-3.528-10.828-5.334-16.384-4.629-14.206-3.418-10.489c-.875-2.688-1.5-5.578-3.228-7.889s-4.6-2.974-6.69-4.88a26.687 26.687 0 0 1-3.967-5.194 22.207 22.207 0 0 0-4.183-4.793c-3.05-2.611-6.345-5.379-10.235-6.624-2.834-.9-5.926-1.792-8.408-3.486a3.691 3.691 0 0 1-1.743-2.018c-.331-1.677 1.447-2.653 2.869-2.531 1.942.167 3.835 1.21 5.578 2.025 3.95 1.862 10.612 5.735 11.727 3.486.526-1.067-.952-2.5-1.586-3.162a25.723 25.723 0 0 0-4.134-3.507c-3.535-2.388-7.181-4.769-10.49-7.467-1.394-1.15-6.275-4.985-4.378-7.251s6.23.6 7.99 1.743a34.849 34.849 0 0 1 3.981 2.946c1.809 1.593 3.835 2.984 5.689 4.532q2.712 2.249 5.229 4.717a1.436 1.436 0 0 0 .931.53c1.461 0-1.178-3.374-1.478-3.758-1.882-2.384-4.131-4.434-6.069-6.77-2.482-2.988-4.915-6.115-7.091-9.325a9.766 9.766 0 0 1-1.907-4.148 2.834 2.834 0 0 1 3.385-2.925 4.629 4.629 0 0 1 2.6 2.217c.781 1.168 1.482 2.329 2.353 3.437 1.98 2.524 4.337 4.849 6.536 7.237a49.485 49.485 0 0 1 3.246 3.835 36.474 36.474 0 0 0 2.907 4.019 1.552 1.552 0 0 0 .8.512 1.046 1.046 0 0 0 1.011-.506c.875-1.37-.7-2.716-1.394-3.761a63.209 63.209 0 0 1-3.458-6.275c-1.468-2.81-3.04-5.578-4.511-8.367-.906-1.715-1.743-4.3.275-5.578 1.9-1.2 3.758.492 4.856 1.966 1.537 2.071 2.419 4.637 3.765 6.861 1.443 2.381 2.754 4.839 4.183 7.223 1.356 2.283 3.354 4.183 4.793 6.432 1.562 2.44 2.5 5.173 5.372 6.435a4.183 4.183 0 0 0 3.029.248c2.73-.973 3.835-4.661 4.166-7.241a20.318 20.318 0 0 1 2.343-7.572 10.36 10.36 0 0 1 2.974-3.626c1.178-.8 3.1-1.133 4.183.021 1.356 1.447.216 4.183-.422 5.717a49.553 49.553 0 0 0-3.169 13.454s.394 13.247-.415 17.43c-.446 2.3-1.83 4.392-1.719 6.773.171 3.612 2.388 7.488 3.619 10.9l2.405 6.669 6 16.639 1.83 5.044v27.515z" class="prefix__cls-3" data-name="Path 767" transform="translate(196.321 -366.973)"/>
                <path id="prefix__Path_768-2" d="M74.483 557.253c-1.014-2.932 1.475-7.209 4.483-7.607A2.939 2.939 0 0 1 80.9 550c2.733 1.708-.22 8.994-.959 11.155-1.046 3.106-2.318 6.143-3.653 9.141a8.166 8.166 0 0 1-.641 1.276 48.47 48.47 0 0 1-7.387-7.589c-1.987-2.381-7.621-8.74-4.748-11.978a3.58 3.58 0 0 1 1.565-.952 6.519 6.519 0 0 1 4.7.23c2.297 1.023 3.907 3.662 4.706 5.97z" class="prefix__cls-4" data-name="Path 768" transform="translate(161.663 -430.51)"/>
                <path id="prefix__Path_771-2" d="M97.975 189.219c.983-2.942-1.548-7.2-4.56-7.561a2.939 2.939 0 0 0-1.935.349c-2.716 1.743.31 8.994 1.074 11.155 1.091 3.1 2.381 6.118 3.748 9.1a8.172 8.172 0 0 0 .655 1.269 49.368 49.368 0 0 0 7.321-7.669c1.963-2.4 7.53-8.816 4.626-12.023a3.58 3.58 0 0 0-1.576-.934 6.519 6.519 0 0 0-4.7.279c-2.293 1.06-3.879 3.716-4.653 6.035z" class="prefix__cls-4" data-name="Path 771" transform="translate(124.338 -173.466)"/>
                <path id="prefix__Path_773-2" d="M370.538 251.093c.858-2.562-1.349-6.275-3.971-6.585a2.559 2.559 0 0 0-1.687.307c-2.364 1.513.268 7.833.934 9.719.948 2.7 2.074 5.33 3.263 7.927a7.121 7.121 0 0 0 .568 1.105 42.141 42.141 0 0 0 6.366-6.676c1.708-2.092 6.561-7.669 4.03-10.458a3.116 3.116 0 0 0-1.374-.812 5.679 5.679 0 0 0-4.089.244c-1.986.885-3.367 3.214-4.04 5.229z" class="prefix__cls-3" data-name="Path 773" transform="translate(-237.799 -231.748)"/>
                <path id="prefix__Path_774-2" d="M243.618 179.243c-.858-2.562 1.349-6.275 3.971-6.585a2.559 2.559 0 0 1 1.687.307c2.364 1.513-.268 7.833-.934 9.719-.952 2.7-2.074 5.33-3.263 7.927a7.118 7.118 0 0 1-.568 1.105 42.146 42.146 0 0 1-6.366-6.676c-1.708-2.092-6.561-7.669-4.03-10.458a3.138 3.138 0 0 1 1.374-.812 5.679 5.679 0 0 1 4.089.244c1.983.899 3.363 3.214 4.04 5.229z" class="prefix__cls-3" data-name="Path 774" transform="translate(-64.26 -168.082)"/>
                <path id="prefix__Path_775-2" d="M481.748 154.633c.858-2.562-1.349-6.275-3.971-6.585a2.559 2.559 0 0 0-1.687.307c-2.364 1.513.268 7.833.934 9.719.952 2.695 2.074 5.33 3.263 7.927a7.113 7.113 0 0 0 .565 1.112 42.144 42.144 0 0 0 6.366-6.676c1.708-2.092 6.561-7.669 4.03-10.458a3.137 3.137 0 0 0-1.374-.812 5.679 5.679 0 0 0-4.089.244c-1.985.899-3.364 3.214-4.037 5.222z" class="prefix__cls-4" data-name="Path 775" transform="translate(-386.474 -148.014)"/>
                <path id="prefix__Path_776-2" d="M264.406 309.828a3.718 3.718 0 0 1 2.66-4.41 1.711 1.711 0 0 1 1.129.206c1.583 1.011-.181 5.229-.624 6.508-.634 1.806-1.394 3.57-2.186 5.309a4.758 4.758 0 0 1-.38.739 28.145 28.145 0 0 1-4.263-4.469c-1.143-1.394-4.392-5.142-2.7-7.014a2.092 2.092 0 0 1 .92-.544 3.8 3.8 0 0 1 2.74.164 5.917 5.917 0 0 1 2.704 3.511z" class="prefix__cls-4" data-name="Path 776" transform="translate(-90.115 -271.432)"/>
                <path id="prefix__Path_777-2" d="M592.726 267a3.718 3.718 0 0 1 2.66-4.41 1.712 1.712 0 0 1 1.129.206c1.583 1.011-.181 5.229-.624 6.508-.634 1.806-1.394 3.57-2.186 5.309a4.766 4.766 0 0 1-.38.739 28.147 28.147 0 0 1-4.263-4.469c-1.143-1.394-4.392-5.142-2.7-7.014a2.092 2.092 0 0 1 .92-.544 3.8 3.8 0 0 1 2.74.164 5.975 5.975 0 0 1 2.704 3.511z" class="prefix__cls-3" data-name="Path 777" transform="translate(-529.132 -243.533)"/>
                <path id="prefix__Path_778-2" d="M47.526 389.088a3.718 3.718 0 0 1 2.66-4.41 1.712 1.712 0 0 1 1.129.206c1.583 1.011-.181 5.229-.624 6.508-.634 1.806-1.394 3.57-2.186 5.309a4.77 4.77 0 0 1-.38.739 28.142 28.142 0 0 1-4.263-4.469c-1.143-1.394-4.392-5.142-2.7-7.014a2.092 2.092 0 0 1 .927-.547 3.8 3.8 0 0 1 2.74.164 5.9 5.9 0 0 1 2.697 3.514z" class="prefix__cls-3" data-name="Path 778" transform="translate(199.423 -323.062)"/>
            </g>
            <g id="prefix__Group_443" data-name="Group 443" transform="translate(1202.432 -63.014)">
                <path id="prefix__Path_755-3" d="M112.852 482.47l1.116-7.237 2.137-13.861 2.555-16.552 2.716-17.608L124 410.2l2.28-14.781 1.68-10.9c.432-2.789 1.178-5.661.676-8.5s-2.768-4.731-3.772-7.373a26.4 26.4 0 0 1-1.2-6.421 22.2 22.2 0 0 0-1.579-6.17c-1.544-3.706-3.239-7.669-6.153-10.524-2.123-2.092-4.476-4.27-5.926-6.9a3.68 3.68 0 0 1-.645-2.59c.46-1.645 2.489-1.715 3.7-.966 1.656 1.025 2.879 2.813 4.058 4.319 2.688 3.441 6.881 9.9 8.9 8.394.952-.7.279-2.656 0-3.538a25.721 25.721 0 0 0-2.092-5c-2.092-3.727-4.26-7.495-5.993-11.4-.739-1.663-3.347-7.279-.638-8.447s5.292 3.343 6.345 5.163a34.831 34.831 0 0 1 2.228 4.434c.9 2.238 2.067 4.385 3.036 6.623q1.394 3.232 2.548 6.571a1.436 1.436 0 0 0 .593.892c1.307.652.471-3.542.373-4.019-.607-2.977-1.687-5.822-2.364-8.781-.868-3.786-1.628-7.669-2.123-11.5a9.94 9.94 0 0 1 .171-4.563 2.832 2.832 0 0 1 4.34-1.081 4.627 4.627 0 0 1 1.325 3.137c.171 1.394.272 2.744.551 4.131.631 3.137 1.684 6.275 2.569 9.412.457 1.607.875 3.232 1.171 4.88a38.915 38.915 0 0 0 .781 4.9 1.551 1.551 0 0 0 .481.819 1.046 1.046 0 0 0 1.133 0c1.394-.826.6-2.74.436-3.991a60.846 60.846 0 0 1-.248-7.174c-.042-3.169-.192-6.362-.248-9.506-.035-1.942.376-4.626 2.757-4.849 2.235-.209 3.137 2.133 3.448 3.946.439 2.541.066 5.229.265 7.823.213 2.789.275 5.578.467 8.328.181 2.649 1.105 5.25 1.377 7.9.293 2.883-.1 5.745 1.893 8.164a4.183 4.183 0 0 0 2.59 1.586c2.876.349 5.518-2.44 6.972-4.584a20.446 20.446 0 0 1 5.5-5.7 10.69 10.69 0 0 1 4.316-1.886c1.412-.185 3.28.387 3.727 1.907.558 1.9-1.694 3.835-2.956 4.912a49.5 49.5 0 0 0-8.9 10.577s-5.623 12-8.227 15.363c-1.436 1.851-3.615 3.092-4.588 5.271-1.478 3.3-1.245 7.76-1.684 11.357q-.429 3.517-.861 7.038-1.074 8.778-2.154 17.556-2.458 20.017-4.926 40.037-1.722 13.993-3.448 27.982z" class="prefix__cls-3" data-name="Path 755" transform="translate(-71.197 -40.071)"/>
                <path id="prefix__Path_756-3" d="M171.1 427.279c-.983-2.942 1.548-7.2 4.56-7.561a2.939 2.939 0 0 1 1.935.349c2.716 1.743-.31 8.994-1.074 11.155-1.091 3.1-2.381 6.118-3.747 9.1a8.176 8.176 0 0 1-.655 1.269 49.37 49.37 0 0 1-7.321-7.669c-1.963-2.4-7.53-8.816-4.626-12.023a3.58 3.58 0 0 1 1.576-.934 6.519 6.519 0 0 1 4.7.279c2.294 1.064 3.88 3.72 4.652 6.035z" class="prefix__cls-4" data-name="Path 756" transform="translate(-105.681 -109.861)"/>
                <path id="prefix__Path_757-3" d="M632.6 616.147l-.07-1.046-1-14.92-.736-11.006c-.188-2.82-.084-5.783-1.192-8.44s-3.734-4.012-5.288-6.372a26.54 26.54 0 0 1-2.569-6.007 22.206 22.206 0 0 0-2.886-5.679c-2.315-3.28-4.832-6.773-8.3-8.928-2.524-1.569-5.3-3.19-7.3-5.435a3.7 3.7 0 0 1-1.2-2.388c.091-1.7 2.053-2.217 3.4-1.743 1.841.638 3.423 2.116 4.9 3.333 3.371 2.789 8.875 8.164 10.514 6.25.774-.9-.307-2.656-.76-3.455A25.722 25.722 0 0 0 617 545.9c-2.838-3.183-5.79-6.386-8.335-9.813-1.095-1.482-4.87-6.393-2.475-8.136s5.891 2.109 7.321 3.657a34.825 34.825 0 0 1 3.137 3.835c1.363 1.991 2.974 3.835 4.4 5.79q2.092 2.848 3.918 5.857a1.436 1.436 0 0 0 .774.742c1.419.349-.314-3.559-.512-4.005-1.241-2.789-2.914-5.313-4.222-8.053-1.67-3.5-3.263-7.133-4.584-10.782a9.721 9.721 0 0 1-.83-4.49 2.84 2.84 0 0 1 4-2 4.613 4.613 0 0 1 1.98 2.789c.471 1.321.865 2.618 1.436 3.911 1.3 2.935 3.015 5.766 4.56 8.618.795 1.471 1.558 2.963 2.207 4.5a39.185 39.185 0 0 0 1.83 4.612 1.553 1.553 0 0 0 .648.7 1.046 1.046 0 0 0 1.105-.244c1.185-1.112 0-2.789-.443-3.992a61.376 61.376 0 0 1-1.806-6.944c-.732-3.085-1.572-6.167-2.315-9.224-.457-1.886-.641-4.595 1.635-5.334 2.137-.7 3.521 1.394 4.225 3.1.983 2.384 1.206 5.089 1.966 7.575.812 2.663 1.482 5.365 2.273 8.018.753 2.545 2.224 4.88 3.068 7.411.917 2.75 1.154 5.63 3.629 7.558a4.184 4.184 0 0 0 2.876.983c2.886-.275 4.856-3.58 5.815-6a20.342 20.342 0 0 1 4.131-6.766 10.781 10.781 0 0 1 3.8-2.789c1.339-.488 3.284-.349 4.051 1.046.962 1.743-.819 4.114-1.813 5.438a49.49 49.49 0 0 0-6.376 12.26s-2.872 12.94-4.678 16.785c-1 2.12-2.855 3.807-3.329 6.142-.722 3.542.478 7.844.833 11.452l.7 7.056q.864 8.8 1.743 17.6l.133 1.346z" class="prefix__cls-3" data-name="Path 757" transform="translate(-400.973 -173.748)"/>
                <path id="prefix__Path_758-3" d="M678.97 629.038c-.443-3.071 2.806-6.8 5.836-6.623a2.938 2.938 0 0 1 1.841.7c2.364 2.193-1.91 8.792-3.047 10.789-1.625 2.852-3.434 5.6-5.309 8.286a8.172 8.172 0 0 1-.868 1.133 47.866 47.866 0 0 1-5.825-8.848c-1.5-2.712-5.836-10.019-2.405-12.658a3.58 3.58 0 0 1 1.715-.638 6.519 6.519 0 0 1 4.57 1.112c2.055 1.434 3.143 4.331 3.492 6.747z" class="prefix__cls-4" data-name="Path 758" transform="translate(-443.853 -241.08)"/>
                <path id="prefix__Path_759-3" d="M245.761 541.245l.955-6.2 2.719-17.608 2.625-17.015 2.28-14.781 1.68-10.9c.432-2.789 1.178-5.661.676-8.5s-2.768-4.731-3.772-7.373a26.4 26.4 0 0 1-1.2-6.421 22.2 22.2 0 0 0-1.579-6.17c-1.544-3.706-3.239-7.669-6.153-10.524-2.123-2.092-4.476-4.27-5.926-6.9a3.68 3.68 0 0 1-.645-2.59c.46-1.645 2.489-1.715 3.7-.966 1.656 1.025 2.879 2.813 4.058 4.319 2.688 3.441 6.881 9.9 8.9 8.394.952-.7.279-2.656 0-3.538a25.72 25.72 0 0 0-2.092-5c-2.092-3.727-4.26-7.495-5.993-11.4-.739-1.663-3.347-7.279-.638-8.447s5.292 3.343 6.345 5.163a34.837 34.837 0 0 1 2.224 4.427c.9 2.238 2.067 4.385 3.036 6.623q1.394 3.232 2.548 6.571a1.436 1.436 0 0 0 .593.892c1.307.652.471-3.542.373-4.019-.607-2.977-1.687-5.822-2.364-8.781-.868-3.786-1.628-7.669-2.123-11.5a9.94 9.94 0 0 1 .171-4.563 2.832 2.832 0 0 1 4.34-1.081 4.627 4.627 0 0 1 1.325 3.137c.171 1.394.272 2.743.551 4.131.631 3.137 1.684 6.275 2.569 9.412.457 1.607.875 3.232 1.171 4.88a38.908 38.908 0 0 0 .781 4.9 1.551 1.551 0 0 0 .481.819 1.046 1.046 0 0 0 1.133 0c1.394-.826.6-2.74.436-3.992a60.842 60.842 0 0 1-.248-7.174c-.042-3.169-.192-6.362-.247-9.507-.035-1.942.376-4.626 2.757-4.849 2.235-.209 3.137 2.133 3.448 3.946.439 2.541.066 5.229.265 7.823.213 2.789.275 5.578.467 8.328.181 2.649 1.105 5.25 1.377 7.9.293 2.883-.1 5.745 1.893 8.164a4.183 4.183 0 0 0 2.59 1.586c2.876.349 5.518-2.44 6.972-4.584a20.494 20.494 0 0 1 5.5-5.7 10.69 10.69 0 0 1 4.316-1.886c1.412-.185 3.28.387 3.727 1.907.558 1.9-1.694 3.835-2.956 4.912a49.5 49.5 0 0 0-8.9 10.577s-5.623 12-8.227 15.363c-1.436 1.851-3.615 3.092-4.588 5.271-1.478 3.3-1.245 7.76-1.684 11.358q-.429 3.517-.861 7.038-1.074 8.778-2.154 17.556-2.252 18.274-4.494 36.558z" class="prefix__cls-3" data-name="Path 759" transform="translate(-158.006 -98.846)"/>
                <path id="prefix__Path_760-3" d="M299.152 517.5c-.983-2.942 1.548-7.2 4.56-7.561a2.938 2.938 0 0 1 1.935.349c2.716 1.743-.31 8.994-1.074 11.155-1.091 3.1-2.381 6.118-3.748 9.1a8.171 8.171 0 0 1-.655 1.269 49.368 49.368 0 0 1-7.321-7.669c-1.963-2.4-7.53-8.816-4.626-12.023a3.58 3.58 0 0 1 1.576-.934 6.518 6.518 0 0 1 4.7.279c2.301 1.063 3.879 3.719 4.653 6.035z" class="prefix__cls-4" data-name="Path 760" transform="translate(-190.603 -168.63)"/>
                <path id="prefix__Path_761-3" d="M440.335 471.617l-.547-3.538-1.468-9.52-2.12-13.859-2.552-16.555-2.716-17.608-2.642-17.005-2.28-14.781-1.68-10.9c-.432-2.789-1.178-5.661-.676-8.5s2.768-4.731 3.772-7.373a26.4 26.4 0 0 0 1.2-6.421 22.2 22.2 0 0 1 1.579-6.17c1.544-3.706 3.239-7.669 6.153-10.524 2.123-2.092 4.476-4.27 5.926-6.9a3.68 3.68 0 0 0 .645-2.59c-.46-1.645-2.489-1.715-3.7-.966-1.656 1.025-2.879 2.813-4.058 4.319-2.688 3.441-6.881 9.9-8.9 8.394-.952-.7-.279-2.656 0-3.538a25.72 25.72 0 0 1 2.092-5c2.092-3.727 4.26-7.495 5.993-11.4.739-1.663 3.347-7.279.638-8.447s-5.292 3.343-6.345 5.163a34.858 34.858 0 0 0-2.207 4.431c-.9 2.238-2.067 4.385-3.036 6.624q-1.394 3.232-2.548 6.571a1.436 1.436 0 0 1-.593.892c-1.307.652-.471-3.542-.373-4.019.607-2.977 1.687-5.822 2.364-8.781.868-3.786 1.628-7.669 2.123-11.5a9.939 9.939 0 0 0-.171-4.563 2.832 2.832 0 0 0-4.34-1.081 4.627 4.627 0 0 0-1.325 3.138c-.171 1.394-.272 2.744-.551 4.131-.631 3.137-1.684 6.275-2.569 9.412-.457 1.607-.875 3.232-1.171 4.88a38.92 38.92 0 0 1-.781 4.9 1.551 1.551 0 0 1-.481.819 1.045 1.045 0 0 1-1.133 0c-1.394-.826-.6-2.74-.436-3.991a60.836 60.836 0 0 0 .247-7.174c.042-3.169.192-6.362.248-9.506.035-1.942-.377-4.626-2.757-4.849-2.235-.209-3.137 2.133-3.448 3.946-.439 2.541-.066 5.229-.265 7.823-.213 2.789-.275 5.578-.467 8.328-.181 2.649-1.105 5.25-1.377 7.9-.293 2.883.1 5.745-1.893 8.164a4.183 4.183 0 0 1-2.59 1.586c-2.876.349-5.518-2.44-6.972-4.584a20.493 20.493 0 0 0-5.5-5.7 10.691 10.691 0 0 0-4.316-1.886c-1.412-.185-3.28.387-3.727 1.907-.558 1.9 1.694 3.835 2.956 4.912a49.5 49.5 0 0 1 8.9 10.577s5.623 12 8.227 15.363c1.436 1.851 3.615 3.092 4.588 5.271 1.478 3.3 1.244 7.76 1.684 11.358q.429 3.517.861 7.038 1.06 8.757 2.154 17.531 2.44 20.02 4.908 40.03 1.813 14.732 3.629 29.461l.526 4.354z" class="prefix__cls-3" data-name="Path 761" transform="translate(-251.966 -29.218)"/>
                <path id="prefix__Path_762-3" d="M465.511 410.569c.983-2.942-1.548-7.2-4.56-7.561a2.939 2.939 0 0 0-1.935.349c-2.716 1.743.31 8.994 1.074 11.155 1.091 3.1 2.381 6.118 3.747 9.1a8.17 8.17 0 0 0 .655 1.269 49.365 49.365 0 0 0 7.321-7.669c1.963-2.4 7.53-8.816 4.626-12.023a3.58 3.58 0 0 0-1.576-.934 6.519 6.519 0 0 0-4.7.279c-2.292 1.066-3.879 3.72-4.652 6.035z" class="prefix__cls-4" data-name="Path 762" transform="translate(-303.681 -98.977)"/>
                <path id="prefix__Path_763-3" d="M353.669 623.811l-.234-11.521-.223-11.026c-.056-2.824-.418-5.769.453-8.513s3.368-4.323 4.713-6.808a26.337 26.337 0 0 0 2.036-6.209 22.2 22.2 0 0 1 2.381-5.905c2.022-3.469 4.225-7.167 7.492-9.615 2.377-1.781 5-3.639 6.8-6.048a3.684 3.684 0 0 0 .983-2.482c-.237-1.691-2.238-2.029-3.542-1.447-1.778.795-3.228 2.405-4.595 3.744-3.117 3.057-8.133 8.907-9.932 7.143-.847-.833.077-2.67.457-3.507a25.72 25.72 0 0 1 2.75-4.671c2.552-3.416 5.229-6.864 7.45-10.5.955-1.551 4.281-6.77 1.743-8.286s-5.686 2.615-6.972 4.281a34.831 34.831 0 0 0-2.789 4.093c-1.185 2.092-2.628 4.075-3.883 6.153q-1.823 3.015-3.4 6.177a1.437 1.437 0 0 1-.7.805c-1.394.474 0-3.573.16-4.033.994-2.869 2.44-5.546 3.5-8.391 1.36-3.636 2.632-7.39 3.629-11.155a9.853 9.853 0 0 0 .436-4.532 2.832 2.832 0 0 0-4.159-1.645 4.706 4.706 0 0 0-1.743 2.949c-.349 1.36-.634 2.684-1.091 4.019-1.046 3.036-2.5 6.006-3.793 8.984-.666 1.534-1.293 3.085-1.806 4.678a39.209 39.209 0 0 1-1.422 4.751 1.551 1.551 0 0 1-.586.746 1.046 1.046 0 0 1-1.122-.146c-1.279-1-.23-2.789.094-4.016a61.566 61.566 0 0 0 1.2-7.077c.46-3.137 1.046-6.275 1.506-9.391.293-1.917.241-4.633-2.092-5.17-2.189-.5-3.388 1.7-3.939 3.455-.774 2.461-.76 5.173-1.3 7.718-.579 2.723-1.011 5.477-1.565 8.2-.53 2.6-1.792 5.055-2.412 7.652-.673 2.82-.659 5.707-2.956 7.844a4.183 4.183 0 0 1-2.789 1.231c-2.9-.021-5.149-3.137-6.313-5.466a20.323 20.323 0 0 0-4.7-6.383 10.709 10.709 0 0 0-4.03-2.44c-1.377-.37-3.3-.052-3.946 1.394-.805 1.813 1.171 4.026 2.28 5.26a49.547 49.547 0 0 1 7.418 11.661s3.984 12.634 6.123 16.308c1.178 2.025 3.172 3.545 3.835 5.829 1.028 3.465.206 7.858.167 11.48q-.038 3.545-.08 7.091-.07 6.369-.136 12.735z" class="prefix__cls-3" data-name="Path 763" transform="translate(-208.519 -181.412)"/>
                <path id="prefix__Path_764-3" d="M395.089 639.093c1.363-2.789-.582-7.321-3.517-8.1a2.939 2.939 0 0 0-1.966.094c-2.921 1.36-.885 8.956-.415 11.2.673 3.214 1.548 6.379 2.506 9.517a8.179 8.179 0 0 0 .481 1.346 48.4 48.4 0 0 0 8.258-6.623c2.262-2.12 8.631-7.743 6.177-11.305a3.58 3.58 0 0 0-1.436-1.133 6.519 6.519 0 0 0-4.692-.349c-2.398.738-4.322 3.16-5.396 5.353z" class="prefix__cls-4" data-name="Path 764" transform="translate(-257.357 -247.43)"/>
                <path id="prefix__Path_765-3" d="M555.755 559.85l-.275-13.6-.349-17.214-.3-14.952-.223-11.026c-.056-2.824-.418-5.769.453-8.513s3.367-4.323 4.713-6.808a26.347 26.347 0 0 0 2.036-6.209 22.2 22.2 0 0 1 2.381-5.905c2.022-3.469 4.225-7.167 7.492-9.614 2.377-1.781 5-3.639 6.8-6.048a3.684 3.684 0 0 0 .983-2.482c-.237-1.691-2.238-2.029-3.542-1.447-1.778.795-3.228 2.405-4.595 3.744-3.117 3.057-8.133 8.907-9.932 7.143-.847-.833.077-2.67.457-3.507a25.718 25.718 0 0 1 2.768-4.661c2.552-3.416 5.229-6.864 7.45-10.5.955-1.551 4.281-6.77 1.743-8.286s-5.686 2.615-6.972 4.281a34.82 34.82 0 0 0-2.789 4.093c-1.185 2.092-2.629 4.075-3.884 6.153q-1.823 3.015-3.4 6.177a1.436 1.436 0 0 1-.7.805c-1.394.474 0-3.573.16-4.033.994-2.869 2.44-5.546 3.5-8.391 1.359-3.636 2.632-7.39 3.629-11.155a9.852 9.852 0 0 0 .436-4.532 2.832 2.832 0 0 0-4.159-1.645 4.706 4.706 0 0 0-1.743 2.949c-.349 1.36-.634 2.684-1.091 4.019-1.046 3.036-2.5 6.006-3.793 8.984-.666 1.534-1.293 3.085-1.806 4.678a39.43 39.43 0 0 1-1.422 4.755 1.552 1.552 0 0 1-.586.746 1.046 1.046 0 0 1-1.123-.146c-1.279-1-.23-2.789.094-4.016a61.545 61.545 0 0 0 1.2-7.077c.46-3.137 1.046-6.275 1.506-9.391.293-1.917.241-4.633-2.092-5.17-2.189-.5-3.388 1.7-3.939 3.455-.774 2.461-.76 5.173-1.3 7.718-.579 2.723-1.011 5.477-1.565 8.2-.53 2.6-1.792 5.055-2.412 7.652-.673 2.82-.659 5.707-2.956 7.844a4.183 4.183 0 0 1-2.789 1.231c-2.9-.021-5.149-3.137-6.313-5.466a20.323 20.323 0 0 0-4.7-6.383 10.708 10.708 0 0 0-4.03-2.44c-1.377-.37-3.3-.052-3.946 1.394-.805 1.813 1.171 4.026 2.28 5.26a49.048 49.048 0 0 1 7.418 11.647s3.984 12.644 6.121 16.315c1.178 2.025 3.172 3.545 3.835 5.829 1.028 3.465.206 7.858.167 11.48l-.077 7.091q-.1 8.844-.188 17.685-.153 14.641-.3 29.283z" class="prefix__cls-3" data-name="Path 765" transform="translate(-344.02 -117.451)"/>
                <path id="prefix__Path_766-3" d="M596.449 540.873c1.363-2.789-.582-7.321-3.517-8.1a2.939 2.939 0 0 0-1.966.094c-2.921 1.36-.885 8.956-.415 11.2.673 3.214 1.548 6.379 2.506 9.517a8.181 8.181 0 0 0 .481 1.346 48.4 48.4 0 0 0 8.258-6.624c2.263-2.12 8.631-7.742 6.177-11.305a3.58 3.58 0 0 0-1.436-1.133 6.518 6.518 0 0 0-4.692-.349c-2.398.739-4.322 3.161-5.396 5.354z" class="prefix__cls-4" data-name="Path 766" transform="translate(-390.895 -183.45)"/>
                <path id="prefix__Path_767-3" d="M13.038 573.358l3.528-10.828 5.334-16.384 4.629-14.206 3.416-10.49c.875-2.688 1.5-5.578 3.228-7.889s4.6-2.974 6.69-4.88a26.686 26.686 0 0 0 3.967-5.194 22.207 22.207 0 0 1 4.183-4.793c3.05-2.611 6.345-5.379 10.235-6.623 2.834-.9 5.926-1.792 8.408-3.486a3.691 3.691 0 0 0 1.743-2.018c.331-1.677-1.447-2.653-2.869-2.531-1.942.167-3.835 1.21-5.578 2.025-3.95 1.862-10.612 5.735-11.727 3.486-.526-1.067.952-2.5 1.586-3.162a25.723 25.723 0 0 1 4.134-3.507c3.535-2.388 7.181-4.769 10.49-7.467 1.394-1.15 6.275-4.985 4.378-7.251s-6.23.6-7.99 1.743a34.849 34.849 0 0 0-3.981 2.946c-1.809 1.593-3.835 2.984-5.689 4.532q-2.712 2.249-5.229 4.717a1.436 1.436 0 0 1-.931.53c-1.461 0 1.178-3.374 1.478-3.758 1.882-2.384 4.131-4.434 6.069-6.77 2.482-2.988 4.915-6.115 7.091-9.325a9.766 9.766 0 0 0 1.907-4.148 2.834 2.834 0 0 0-3.385-2.925 4.629 4.629 0 0 0-2.6 2.217c-.781 1.168-1.482 2.329-2.353 3.437-1.98 2.524-4.337 4.849-6.536 7.237a49.485 49.485 0 0 0-3.246 3.835 36.471 36.471 0 0 1-2.907 4.019 1.552 1.552 0 0 1-.8.512 1.046 1.046 0 0 1-1.011-.506c-.875-1.37.7-2.716 1.394-3.761a63.209 63.209 0 0 0 3.458-6.275c1.468-2.81 3.04-5.578 4.511-8.367.906-1.715 1.743-4.3-.275-5.578-1.9-1.2-3.758.492-4.856 1.966-1.537 2.071-2.419 4.636-3.765 6.861-1.443 2.381-2.754 4.839-4.183 7.223-1.356 2.283-3.354 4.183-4.793 6.432-1.562 2.44-2.5 5.173-5.372 6.435a4.183 4.183 0 0 1-3.029.248c-2.73-.973-3.835-4.661-4.166-7.241a20.318 20.318 0 0 0-2.343-7.572 10.36 10.36 0 0 0-2.974-3.625c-1.178-.8-3.1-1.133-4.183.021-1.356 1.447-.216 4.183.422 5.717a49.552 49.552 0 0 1 3.172 13.453s-.394 13.247.415 17.43c.446 2.3 1.83 4.392 1.719 6.773-.171 3.612-2.388 7.488-3.619 10.9l-2.405 6.669-6 16.639L0 545.843v27.515z" class="prefix__cls-3" data-name="Path 767" transform="translate(0 -130.959)"/>
                <path id="prefix__Path_768-3" d="M70.275 557.253c1.014-2.932-1.475-7.209-4.483-7.607a2.939 2.939 0 0 0-1.938.349c-2.733 1.708.22 8.994.959 11.155 1.046 3.106 2.318 6.143 3.653 9.141a8.166 8.166 0 0 0 .641 1.276 48.47 48.47 0 0 0 7.387-7.589c1.987-2.381 7.621-8.74 4.748-11.978a3.58 3.58 0 0 0-1.565-.952 6.519 6.519 0 0 0-4.7.23c-2.294 1.028-3.904 3.667-4.702 5.975z" class="prefix__cls-4" data-name="Path 768" transform="translate(-40.852 -194.496)"/>
                <path id="prefix__Path_771-3" d="M102.122 189.219c-.983-2.942 1.548-7.2 4.56-7.561a2.939 2.939 0 0 1 1.935.349c2.716 1.743-.31 8.994-1.074 11.155-1.091 3.1-2.381 6.118-3.748 9.1a8.172 8.172 0 0 1-.655 1.269 49.368 49.368 0 0 1-7.321-7.669c-1.963-2.4-7.53-8.816-4.626-12.023a3.58 3.58 0 0 1 1.576-.934 6.519 6.519 0 0 1 4.7.279c2.293 1.06 3.879 3.716 4.653 6.035z" class="prefix__cls-4" data-name="Path 771" transform="translate(-58.867 62.548)"/>
                <path id="prefix__Path_773-3" d="M374.134 251.093c-.858-2.562 1.349-6.275 3.971-6.585a2.559 2.559 0 0 1 1.687.307c2.364 1.513-.268 7.833-.934 9.719-.948 2.7-2.074 5.33-3.263 7.927a7.121 7.121 0 0 1-.568 1.105 42.141 42.141 0 0 1-6.366-6.676c-1.708-2.092-6.561-7.669-4.03-10.458a3.116 3.116 0 0 1 1.369-.812 5.679 5.679 0 0 1 4.089.244c1.991.885 3.372 3.214 4.045 5.229z" class="prefix__cls-3" data-name="Path 773" transform="translate(-241.305 4.266)"/>
                <path id="prefix__Path_774-3" d="M240.022 179.243c.858-2.562-1.349-6.275-3.971-6.585a2.559 2.559 0 0 0-1.687.307c-2.364 1.513.268 7.833.934 9.719.952 2.7 2.074 5.33 3.263 7.927a7.118 7.118 0 0 0 .568 1.105 42.147 42.147 0 0 0 6.366-6.676c1.708-2.092 6.561-7.669 4.03-10.458a3.138 3.138 0 0 0-1.374-.812 5.679 5.679 0 0 0-4.089.244c-1.983.899-3.362 3.214-4.04 5.229z" class="prefix__cls-3" data-name="Path 774" transform="translate(-153.812 67.932)"/>
                <path id="prefix__Path_775-3" d="M485.34 154.633c-.858-2.562 1.349-6.275 3.971-6.585a2.559 2.559 0 0 1 1.687.307c2.364 1.513-.268 7.833-.934 9.719-.952 2.695-2.074 5.33-3.263 7.927a7.112 7.112 0 0 1-.565 1.112 42.144 42.144 0 0 1-6.366-6.676c-1.708-2.092-6.561-7.669-4.03-10.458a3.137 3.137 0 0 1 1.374-.812 5.679 5.679 0 0 1 4.089.244c1.984.899 3.364 3.214 4.037 5.222z" class="prefix__cls-4" data-name="Path 775" transform="translate(-315.046 88)"/>
                <path id="prefix__Path_776-3" d="M262 309.828a3.718 3.718 0 0 0-2.66-4.41 1.711 1.711 0 0 0-1.129.206c-1.583 1.011.181 5.229.624 6.508.634 1.806 1.394 3.57 2.186 5.309a4.758 4.758 0 0 0 .38.739 28.145 28.145 0 0 0 4.263-4.469c1.143-1.394 4.392-5.142 2.7-7.014a2.092 2.092 0 0 0-.92-.544 3.8 3.8 0 0 0-2.74.164 5.917 5.917 0 0 0-2.704 3.511z" class="prefix__cls-4" data-name="Path 776" transform="translate(-170.724 -35.418)"/>
                <path id="prefix__Path_777-3" d="M590.321 267a3.718 3.718 0 0 0-2.66-4.41 1.712 1.712 0 0 0-1.129.206c-1.583 1.011.181 5.229.624 6.508.634 1.806 1.394 3.57 2.186 5.309a4.766 4.766 0 0 0 .38.739 28.148 28.148 0 0 0 4.263-4.469c1.143-1.394 4.392-5.142 2.7-7.014a2.092 2.092 0 0 0-.92-.544 3.8 3.8 0 0 0-2.74.164 5.975 5.975 0 0 0-2.704 3.511z" class="prefix__cls-3" data-name="Path 777" transform="translate(-388.347 -7.519)"/>
                <path id="prefix__Path_778-3" d="M45.121 389.088a3.718 3.718 0 0 0-2.66-4.41 1.712 1.712 0 0 0-1.129.206c-1.583 1.011.181 5.229.624 6.508.634 1.806 1.394 3.57 2.186 5.309a4.77 4.77 0 0 0 .38.739 28.143 28.143 0 0 0 4.263-4.469c1.143-1.394 4.392-5.142 2.7-7.014a2.092 2.092 0 0 0-.927-.547 3.8 3.8 0 0 0-2.74.164 5.9 5.9 0 0 0-2.697 3.514z" class="prefix__cls-3" data-name="Path 778" transform="translate(-26.502 -87.048)"/>
            </g>
        </g>
    </g>
</svg>
