<svg xmlns="http://www.w3.org/2000/svg" width="1182.437" height="1061.799" viewBox="0 0 1182.437 1061.799">
    <path id="prefix__Path" d="M1.355 138.14C7.78 62.718 34.96.259 34.96.259L1182.2 0l.235 1061.8-375.342-1.108s-147.318 16.935-298.341-102.727q-7.06-5.6-13.873-11.514a412.353 412.353 0 0 1-57.656-61.28A428.146 428.146 0 0 1 352.9 677.277c-7.283-59.23-25.745-134.51-70.682-196.887q-2.353-3.194-4.707-6.364c-30.993-40.74-73.835-75.422-132.962-95.515-55.938-19.032-91.7-49.885-113.63-86.028C2.049 245.133-2.963 188.708 1.355 138.14z" transform="rotate(180 591.218 530.9)" style="fill:#f9fff3;opacity:.8"/>
</svg>
