<svg xmlns="http://www.w3.org/2000/svg" width="1599.36" height="1004.122" viewBox="0 0 1599.36 1004.122">
    <path id="prefix__Path_1162" fill="#e8f9d4" d="M106.455 950.373a191.034 191.034 0 0 1-42.712-42.883c-34.894-48.783-43.516-113.423-35.26-171.8 3.417-24.171 14.08-37.584 23.627-58.827 12.778-28.428 18.883-64.047 21.384-94.922 4.637-57.235-10.158-114.094-14.4-171.358-3.631-49.037 1.3-107.1 34.25-146.424 35.029-41.814 98.24-51.633 149.788-51.83 77.474-.294 151.577 9.154 228.223-6.644 76.876-15.843 146.162-56.269 213.862-94.221C776.822 60.118 879.365 9.991 982.493 29.8c46.215 8.876 88.509 31.308 132.555 47.883 87.36 32.876 182.625 1.891 269.981 34.676 48.563 18.227 92.03 59.7 96.844 111.348 3.949 42.375-17.8 82.238-34.853 121.23-15.49 35.424-31.693 84.387-7.547 119.167 21.146 30.457 47.005 60.984 70.3 90.508 49.8 63.108 108.432 129.282 114.658 213.3 7.288 98.359-65.417 189.945-155.628 229.81s-193.688 36.838-290.886 20.107c-97.149-16.723-191.925-43.815-289.6-56.166-104.065-13.163-197.633-12.395-301.617 5.918-100.14 17.639-200.545 40.685-302.151 36.8-62.637-2.398-128.626-17.702-178.094-54.008z" data-name="Path 1162" opacity="0.18" transform="translate(-25.579 -25.374)"/>
</svg>
