<svg xmlns="http://www.w3.org/2000/svg" width="304" height="430" viewBox="0 0 304 430">
    <defs>
        <clipPath id="prefix__clip-path">
            <rect id="prefix__Rectangle_67" width="304" height="430" data-name="Rectangle 67" rx="10" transform="translate(140 2487)" style="fill:#fff"/>
        </clipPath>
    </defs>
    <g id="prefix__Mask_Group_6" data-name="Mask Group 6" transform="translate(-140 -2487)">
        <path id="prefix__Path_252" d="M520.33 247.4c-16.58 26.821-13.473 63.36-6.191 92.17 2.436 9.647 5.243 19.829 3.16 30.625-2.548 13.2-11.837 23.566-21.238 29.5-17.138 10.8-36.709 10.5-50.96-.791-12.306-9.749-20.411-26.754-32.976-35.98-21.01-15.444-49.86-6.084-74.91 8.35C319.5 381.46 300 394.423 283.628 387.083c-11.52-5.154-18.7-19.7-22.056-35.52-1.618-7.639-2.6-15.985-6.307-21.805a24.473 24.473 0 0 0-8.39-7.675c-28.721-17.317-67.579-2.839-95.276-22.449-18.707-13.241-29.342-40.589-32.838-69.832s-.621-60.535 2.977-91.343c2.561-21.9 6.026-45.336 17.523-63.15 12.163-18.842 31.336-27.268 48-25.48s31.139 12.347 43.606 25.252c15.587 16.128 29.646 36.727 49.82 41.93 13.741 3.545 28.747-.559 43.36-2.879 24.4-3.88 48.456-2.767 72.345-1.31 22.869 1.395 45.877 3.129 67.186 11.175 15.078 5.7 26.651 17.563 40.723 25.279 9.173 5.029 19.521 5.668 28.068 12.373 10.527 8.261 19.637 23.508 15.422 42.784-4.019 18.337-18.664 28.73-27.461 42.967z" data-name="Path 252" transform="rotate(165.02 175.281 1513.735)" style="fill:#f0feff"/>
      
    </g>
</svg>
