<svg xmlns="http://www.w3.org/2000/svg" width="368.793" height="305.847" viewBox="0 0 368.793 305.847">
    <g id="prefix__Group_176" data-name="Group 176" transform="translate(-232.779 -2605.673)">
        <path id="prefix__Path_189" d="M461.61 218.586c-14.165 22.914-11.511 54.131-5.289 78.745 2.081 8.241 4.48 16.941 2.7 26.164-2.177 11.278-10.113 20.134-18.144 25.206-14.642 9.223-31.362 8.967-43.537-.676-10.514-8.329-17.438-22.857-28.173-30.739-17.949-13.195-42.6-5.2-64 7.134-15.135 8.7-31.793 19.779-45.783 13.508-9.842-4.4-15.979-16.827-18.843-30.346-1.382-6.527-2.219-13.657-5.389-18.629a20.908 20.908 0 0 0-7.168-6.557c-24.537-14.795-57.736-2.425-81.4-19.179-15.984-11.317-25.068-34.679-28.054-59.663s-.531-51.717 2.543-78.038c2.188-18.713 5.148-38.733 14.971-53.952 10.392-16.1 26.771-23.3 41.009-21.769s26.6 10.548 37.255 21.574c13.317 13.779 25.328 31.377 42.563 35.823 11.74 3.029 24.56-.477 37.045-2.459 20.844-3.315 41.4-2.364 61.807-1.119 19.538 1.192 39.195 2.673 57.4 9.548 12.882 4.869 22.769 15 34.791 21.6 7.837 4.3 16.678 4.843 23.98 10.571a36.058 36.058 0 0 1 13.176 36.552c-3.433 15.662-15.945 24.541-23.46 36.701z" data-name="Path 189" transform="translate(115.602 2556.078)" style="fill:#f0feff"/>
    </g>
</svg>
