<svg xmlns="http://www.w3.org/2000/svg" width="280.316" height="202.827" viewBox="0 0 280.316 202.827">
    <defs>
        <linearGradient id="prefix__linear-gradient" x1=".5" x2=".5" y1="1" gradientUnits="objectBoundingBox">
            <stop offset="0" stop-color="gray" stop-opacity=".251"/>
            <stop offset=".54" stop-color="gray" stop-opacity=".122"/>
            <stop offset="1" stop-color="gray" stop-opacity=".102"/>
        </linearGradient>
        <style>
            .prefix__cls-2{fill:#6c63ff}.prefix__cls-10,.prefix__cls-14{opacity:.1}.prefix__cls-14,.prefix__cls-5{fill:none;stroke-miterlimit:10}.prefix__cls-5{stroke:#535461;stroke-width:2px}.prefix__cls-6{fill:#a7d676}.prefix__cls-8{fill:#ffd037}.prefix__cls-9{fill:#5ba80c}.prefix__cls-14{stroke:#000;stroke-width:4px}
        </style>
    </defs>
    <g id="prefix__Group_307" data-name="Group 307" transform="translate(-270 -1032)">
        <path id="prefix__Path_749" d="M382.672 205.993c-8.863 14.5-7.3 34.184-3.5 49.708 1.271 5.2 2.739 10.68 1.609 16.5-1.383 7.122-6.337 12.736-11.34 15.948-9.123 5.861-19.509 5.742-27.031-.309-6.51-5.225-10.772-14.374-17.41-19.32-11.127-8.278-26.451-3.166-39.782 4.678-9.432 5.546-19.813 12.567-28.486 8.655-6.1-2.752-9.877-10.576-11.626-19.1-.842-4.114-1.341-8.611-3.3-11.743a12.9 12.9 0 0 0-4.437-4.12c-15.209-9.271-35.869-1.378-50.526-11.89-9.9-7.1-15.486-21.817-17.271-37.576s-.205-32.64 1.765-49.261c1.409-11.81 3.3-24.458 9.445-34.088 6.5-10.186 16.7-14.766 25.539-13.853s16.5 6.586 23.091 13.515c8.239 8.66 15.652 19.735 26.35 22.493 7.278 1.879 15.262-.366 23.015-1.65 12.962-2.147 25.731-1.6 38.4-.871 12.135.7 24.346 1.588 35.639 5.882 7.992 3.038 14.108 9.409 21.56 13.536 4.858 2.69 10.35 3.01 14.872 6.607a22.756 22.756 0 0 1 8.088 23.031c-2.165 9.894-9.963 15.535-14.664 23.228z" data-name="Path 749" transform="translate(129.289 942.359)" style="opacity:.1;fill:#6c63ff"/>
        <path id="prefix__Path_750" d="M314.374 170.312s-38.244-8.551 10.417-58.582c0 0 20.975 19.881 13.282 44.593a20.317 20.317 0 0 1-23.132 14.105z" class="prefix__cls-2" data-name="Path 750" transform="translate(32.119 933.762)"/>
        <path id="prefix__Path_751" d="M314.716 170.312c-.84-.187-37.427-9.4 10.417-58.582 0 0 20.975 19.881 13.282 44.593a20.317 20.317 0 0 1-23.132 14.105z" data-name="Path 751" transform="translate(31.776 933.762)" style="fill:#4d4d4d"/>
        <path id="prefix__Path_752" d="M357 170.6s20.2-30.431 9.916-58.865" data-name="Path 752" transform="translate(-10.001 933.754)" style="stroke:#fff;fill:none;stroke-miterlimit:10"/>
        <path id="prefix__Path_753" d="M954.285 212.746s-6.591-26.54 3.4-45.435a41.423 41.423 0 0 0 4.46-25.825 69.67 69.67 0 0 0-3.155-12.346" class="prefix__cls-5" data-name="Path 753" transform="translate(-450.465 920.877)"/>
        <path id="prefix__Path_754" d="M969.274 65.891c-.138 3.213-6.352 12.276-6.352 12.276s-5.417-9.562-5.279-12.775a5.821 5.821 0 1 1 11.632.5z" class="prefix__cls-2" data-name="Path 754" transform="translate(-454.527 972.18)"/>
        <path id="prefix__Path_755" d="M1002.275 127.036c-1.861 2.622-12.005 6.854-12.005 6.854s.65-10.971 2.511-13.593a5.821 5.821 0 1 1 9.493 6.74z" class="prefix__cls-2" data-name="Path 755" transform="translate(-478.676 929.237)"/>
        <path id="prefix__Path_756" d="M990.472 238.424c-2.929 1.323-13.822-.143-13.822-.143s6.1-9.141 9.029-10.467a5.822 5.822 0 1 1 4.793 10.611z" class="prefix__cls-2" data-name="Path 756" transform="translate(-468.596 848.233)"/>
        <path id="prefix__Path_757" d="M966.038 327.115c-2.664 1.8-13.648 2.194-13.648 2.194s4.468-10.04 7.132-11.842a5.822 5.822 0 1 1 6.517 9.649z" class="prefix__cls-2" data-name="Path 757" transform="translate(-450.642 782.237)"/>
        <path id="prefix__Path_758" d="M938.661 152.04c2.207 2.339 12.842 5.115 12.842 5.115s-2.173-10.773-4.379-13.11a5.822 5.822 0 1 0-8.463 8z" class="prefix__cls-2" data-name="Path 758" transform="translate(-439.303 911.196)"/>
        <path id="prefix__Path_759" d="M907.185 251.6c2.807 1.559 13.775 1.04 13.775 1.04s-5.284-9.632-8.094-11.2a5.822 5.822 0 0 0-5.682 10.16z" class="prefix__cls-2" data-name="Path 759" transform="translate(-415.069 838.266)"/>
        <path id="prefix__Path_761" d="M969.274 65.891c-.138 3.213-6.352 12.276-6.352 12.276s-5.417-9.562-5.279-12.775a5.821 5.821 0 1 1 11.632.5z" class="prefix__cls-6" data-name="Path 761" transform="translate(-454.527 972.18)"/>
        <path id="prefix__Path_762" d="M1002.275 127.036c-1.861 2.622-12.005 6.854-12.005 6.854s.65-10.971 2.511-13.593a5.821 5.821 0 1 1 9.493 6.74z" class="prefix__cls-6" data-name="Path 762" transform="translate(-478.676 929.237)"/>
        <path id="prefix__Path_763" d="M990.472 238.424c-2.929 1.323-13.822-.143-13.822-.143s6.1-9.141 9.029-10.467a5.822 5.822 0 1 1 4.793 10.611z" class="prefix__cls-6" data-name="Path 763" transform="translate(-468.596 848.233)"/>
        <path id="prefix__Path_764" d="M966.038 327.115c-2.664 1.8-13.648 2.194-13.648 2.194s4.468-10.04 7.132-11.842a5.822 5.822 0 1 1 6.517 9.649z" data-name="Path 764" transform="translate(-450.642 782.237)" style="fill:#fc6681"/>
        <path id="prefix__Path_765" d="M938.661 152.04c2.207 2.339 12.842 5.115 12.842 5.115s-2.173-10.773-4.379-13.11a5.822 5.822 0 1 0-8.463 8z" class="prefix__cls-6" data-name="Path 765" transform="translate(-439.303 911.196)"/>
        <path id="prefix__Path_766" d="M907.185 251.6c2.807 1.559 13.775 1.04 13.775 1.04s-5.284-9.632-8.094-11.2a5.822 5.822 0 0 0-5.682 10.16z" class="prefix__cls-6" data-name="Path 766" transform="translate(-415.069 838.266)"/>
        <circle id="prefix__Ellipse_439" cx="2.599" cy="2.599" r="2.599" class="prefix__cls-8" data-name="Ellipse 439" transform="rotate(-72.43 988.781 172.06)"/>
        <circle id="prefix__Ellipse_440" cx="2.599" cy="2.599" r="2.599" class="prefix__cls-8" data-name="Ellipse 440" transform="rotate(-72.43 984.937 173.513)"/>
        <path id="prefix__Path_775" d="M267.464 173.132s11.176-8.317-2.859-37.427c0 0-18.714-23.132 0-44.965 0 0-40.806 1.04-40.027 38.987s20.4 43.405 20.4 43.405z" class="prefix__cls-9" data-name="Path 775" transform="translate(88.011 949.296)"/>
        <path id="prefix__Path_776" d="M308.693 173.11s-2.815-20.013-10.352-32.229a26.2 26.2 0 0 1-3.168-7.99 32.711 32.711 0 0 1 9.211-30.6l11.891-11.581" class="prefix__cls-5" data-name="Path 776" transform="translate(36.344 949.318)"/>
        <path id="prefix__Path_777" d="M459.048 150.69s2.568 3.358-1.185 8.426-6.846 9.357-5.6 12.507c0 0 5.661-9.414 10.269-9.547s1.584-5.725-3.484-11.386z" class="prefix__cls-6" data-name="Path 777" transform="translate(-80.298 904.928)"/>
        <path id="prefix__Path_778" d="M459.451 150.69a4.157 4.157 0 0 1 .52 1.053c4.5 5.281 6.89 10.212 2.571 10.337-4.026.114-8.855 7.314-10.012 9.131a3.9 3.9 0 0 0 .138.413s5.661-9.414 10.269-9.547 1.583-5.726-3.486-11.387z" class="prefix__cls-10" data-name="Path 778" transform="translate(-80.702 904.928)"/>
        <path id="prefix__Path_779" d="M495.833 165c0 1.183-.133 2.139-.3 2.139s-.3-.959-.3-2.139.166-.626.33-.626.27-.557.27.626z" class="prefix__cls-8" data-name="Path 779" transform="translate(-112.311 894.899)"/>
        <path id="prefix__Path_780" d="M498.054 170.276c-1.04.567-1.942.907-2.019.764s.7-.717 1.736-1.284.629-.153.707 0 .613-.047-.424.52z" class="prefix__cls-8" data-name="Path 780" transform="translate(-112.895 891.032)"/>
        <path id="prefix__Path_781" d="M410.593 150.69s-2.568 3.358 1.185 8.426 6.846 9.357 5.6 12.507c0 0-5.661-9.414-10.269-9.547s-1.589-5.725 3.484-11.386z" class="prefix__cls-6" data-name="Path 781" transform="translate(-45.4 904.928)"/>
        <path id="prefix__Path_782" d="M410.583 150.69a4.159 4.159 0 0 0-.52 1.053c-4.5 5.281-6.89 10.212-2.571 10.337 4.026.114 8.855 7.314 10.012 9.131a3.9 3.9 0 0 1-.138.413s-5.669-9.417-10.277-9.544-1.58-5.729 3.494-11.39z" class="prefix__cls-10" data-name="Path 782" transform="translate(-45.39 904.928)"/>
        <path id="prefix__Path_783" d="M408.62 165c0 1.183.133 2.139.3 2.139s.3-.959.3-2.139-.166-.626-.33-.626-.27-.557-.27.626z" class="prefix__cls-8" data-name="Path 783" transform="translate(-48.204 894.899)"/>
        <path id="prefix__Path_784" d="M400.523 170.276c1.04.567 1.942.907 2.02.764s-.7-.717-1.736-1.284-.629-.153-.707 0-.614-.047.423.52z" class="prefix__cls-8" data-name="Path 784" transform="translate(-41.745 891.032)"/>
        <path id="prefix__Path_785" d="M341.066 329.346l-22.771-100.191h-8.46c-.338-3.829-.564-7.537-.65-11.031 0 0-30.67 6.711-55.127-12.7s-53.212 1.679-53.212 1.679l-.112-.081v.01c-2-1.414-29.542-20.291-53.092-1.593-24.447 19.415-55.127 12.7-55.127 12.7-.086 3.537-.315 7.278-.66 11.142H84L60.75 329.708s94.53 3.54 127.656.276c1.188 2.511 6.308 4.4 12.442 4.4 6.893 0 12.5-2.383 12.694-5.354 25.786 1.959 81.272 5.096 127.524.316z" data-name="Path 785" transform="translate(209.25 870.502)"/>
        <path id="prefix__Path_786" d="M94.766 323.194L72 421.53s125.322 4.694 135.414-1.877c0 0 77.8 7.862 139.053 1.526l-22.3-98.1z" class="prefix__cls-6" data-name="Path 786" transform="translate(200.924 777.344)"/>
        <path id="prefix__Path_787" d="M128.954 336.279l-21.224 91.679s116.841 4.377 126.25-1.749c0 0 72.534 7.33 129.642 1.422l-20.793-91.461z" class="prefix__cls-10" data-name="Path 787" transform="translate(174.481 767.657)"/>
        <path id="prefix__Path_788" d="M350.342 223.217s-30.041 6.571-53.979-12.439-52.1 1.643-52.1 1.643-28.162-20.653-52.1-1.643-53.979 12.439-53.979 12.439c-.946 38.254-18.773 100.212-18.773 100.212s32.856 8.918 76.274-9.152 48.58 6.337 48.58 6.337 5.162-24.408 48.58-6.337 76.274 9.152 76.274 9.152-17.838-61.958-18.777-100.212z" data-name="Path 788" transform="translate(165.836 866.41)" style="fill:#f1f2fb"/>
        <path id="prefix__Path_789" d="M376.75 647.5s39.663-8.918 57.96 4.224c0 0 17.6-15.959 58.436-3.519" class="prefix__cls-10" data-name="Path 789" transform="translate(-24.618 540.236)"/>
        <ellipse id="prefix__Ellipse_441" cx="12.439" cy="5.398" data-name="Ellipse 441" rx="12.439" ry="5.398" transform="translate(397.659 1192.654)" style="fill:#e8eaf8"/>
        <path id="prefix__Path_790" d="M599.32 239.55s8.918 45.295.234 109.129" class="prefix__cls-10" data-name="Path 790" transform="translate(-189.339 839.164)"/>
        <path id="prefix__Path_791" d="M224.7 309.712s18.68 4.341 34.849 0 45.856-18.54 55.621 0" class="prefix__cls-14" data-name="Path 791" transform="translate(87.913 794.114)"/>
        <path id="prefix__Path_792" d="M224.7 357.848s18.68 4.341 34.849 0 51.179-4.107 55.621 0" class="prefix__cls-14" data-name="Path 792" transform="translate(87.913 753.957)"/>
        <path id="prefix__Path_793" d="M224.7 394.542s18.68 4.341 34.849 0 45.856-18.54 55.621 0" class="prefix__cls-14" data-name="Path 793" transform="translate(87.913 731.333)"/>
        <path id="prefix__Path_794" d="M224.7 442.718s18.68 4.341 34.849 0 51.179-4.107 55.621 0" class="prefix__cls-14" data-name="Path 794" transform="translate(87.913 691.146)"/>
        <path id="prefix__Path_795" d="M717.24 309.712s-18.68 4.341-34.849 0-45.856-18.54-55.621 0" class="prefix__cls-14" data-name="Path 795" transform="translate(-209.654 794.114)"/>
        <path id="prefix__Path_796" d="M717.24 357.848s-18.68 4.341-34.849 0-51.179-4.107-55.621 0" class="prefix__cls-14" data-name="Path 796" transform="translate(-209.654 753.957)"/>
        <path id="prefix__Path_797" d="M717.24 394.542s-18.68 4.341-34.849 0-45.856-18.54-55.621 0" class="prefix__cls-14" data-name="Path 797" transform="translate(-209.654 731.333)"/>
        <path id="prefix__Path_798" d="M717.24 442.718s-18.68 4.341-34.849 0-51.179-4.107-55.621 0" class="prefix__cls-14" data-name="Path 798" transform="translate(-209.654 691.146)"/>
        <path id="prefix__Path_799" d="M928.075 757.209a4.436 4.436 0 0 0 1.747-2.15 1.819 1.819 0 0 0-1.219-2.188 3.912 3.912 0 0 0-3.226.923 4.753 4.753 0 0 1-3.135 1.235 3.488 3.488 0 0 0 1.476-3.639 1.411 1.411 0 0 0-.411-.741 2.332 2.332 0 0 0-2.492.117c-2.368 1.359-3.028 3.982-3.041 6.344a9.885 9.885 0 0 1-.044-2.615 2.49 2.49 0 0 0-1.2-2.313 4.3 4.3 0 0 0-1.835-.351 4.408 4.408 0 0 0-2.976.691 2.078 2.078 0 0 0 .117 2.981 11.466 11.466 0 0 0 3.08 2.014 6.416 6.416 0 0 1 2.2 1.713 1.55 1.55 0 0 1 .164.307h6.672a19.179 19.179 0 0 0 4.125-2.329z" class="prefix__cls-9" data-name="Path 799" transform="translate(-420.109 461.14)"/>
        <path id="prefix__Path_825" d="M846.55 237.8c1.214.353 2.573-2.49 4.008-2.49 1.52 0 2.953 3.044 4.221 2.4a38.1 38.1 0 0 1 1.606-6.027l-9.786.863a13.1 13.1 0 0 1-.049 5.254z" class="prefix__cls-10" data-name="Path 825" transform="translate(-372.311 844.988)"/>
        <circle id="prefix__Ellipse_442" cx="9.344" cy="9.344" r="9.344" data-name="Ellipse 442" transform="translate(469.124 1064.577)" style="fill:rgba(170,255,82,.23)"/>
    </g>
</svg>
