<svg xmlns="http://www.w3.org/2000/svg" width="1008.719" height="521.283" viewBox="0 0 1008.719 521.283">
    <defs>
        <clipPath id="prefix__clip-path">
            <path id="prefix__Rectangle_362" fill="none" d="M0 0H378.83V285.964H0z" data-name="Rectangle 362"/>
        </clipPath>
        <style>
            .prefix__cls-14,.prefix__cls-20,.prefix__cls-3,.prefix__cls-31,.prefix__cls-32,.prefix__cls-42,.prefix__cls-43,.prefix__cls-50,.prefix__cls-51{fill:none}.prefix__cls-2{opacity:.24}.prefix__cls-14,.prefix__cls-3{stroke:#6ca7b5}.prefix__cls-20,.prefix__cls-3{stroke-miterlimit:10}.prefix__cls-3{stroke-width:.779px}.prefix__cls-4{fill:#6ca7b5}.prefix__cls-5{opacity:.43}.prefix__cls-50,.prefix__cls-51{stroke:#fff}.prefix__cls-14,.prefix__cls-31,.prefix__cls-32,.prefix__cls-42,.prefix__cls-43,.prefix__cls-50,.prefix__cls-51{stroke-linecap:round;stroke-linejoin:round}.prefix__cls-7{fill:#5b9ba5}.prefix__cls-9{fill:#79b1ba}.prefix__cls-14,.prefix__cls-50{stroke-width:2px}.prefix__cls-16{opacity:.39}.prefix__cls-17{fill:#fff}.prefix__cls-18{fill:#a3d1de}.prefix__cls-19{fill:#e1f6fb}.prefix__cls-20{stroke:#a3d1de}.prefix__cls-23{fill:#fec9cf}.prefix__cls-24{fill:#212a6b}.prefix__cls-25{fill:#ffcad0}.prefix__cls-26{fill:#23585e}.prefix__cls-28{fill:#ee84aa}.prefix__cls-29{fill:#561e15}.prefix__cls-31,.prefix__cls-42{stroke:#561e15}.prefix__cls-31{stroke-width:1.027px}.prefix__cls-32,.prefix__cls-43{stroke:#ee84aa}.prefix__cls-32{stroke-width:.771px}.prefix__cls-34{fill:#1a4a4c}.prefix__cls-35{fill:#21565c}.prefix__cls-36{fill:#feb161}.prefix__cls-37{fill:#255c63}.prefix__cls-40{fill:#f75959}.prefix__cls-41{fill:#f66}.prefix__cls-43{stroke-width:.75px}.prefix__cls-51{stroke-width:2.217px}
        </style>
    </defs>
    <g id="prefix__Group_465" data-name="Group 465" transform="translate(-23.392 -61.82)">
        <g id="prefix__Group_395" data-name="Group 395" transform="translate(79.435 449.215)">
            <g id="prefix__Group_386" class="prefix__cls-2" data-name="Group 386" transform="translate(412.82 29.676)">
                <path id="prefix__Path_1163" d="M385.706 423.719a40.969 40.969 0 0 1 16.469-25.508" class="prefix__cls-3" data-name="Path 1163" transform="translate(-324.745 -323.365)"/>
                <path id="prefix__Path_1164" d="M385.533 430.831c.36-8.506 3.65-29 11.431-41.821" class="prefix__cls-3" data-name="Path 1164" transform="translate(-324.825 -327.619)"/>
                <path id="prefix__Path_1165" d="M385.966 431.756c1.348-15.179 1.234-31.958-1.136-47.011" class="prefix__cls-3" data-name="Path 1165" transform="translate(-325.15 -329.591)"/>
                <path id="prefix__Path_1166" d="M398.871 397.548c1.8-3.205 4.27-6.5 7.881-7.2 3.014-.588 6.015.793 9.03 1.375 2.536.488 5.143.411 7.712.655a13.03 13.03 0 0 1 7.2 2.52c1.984 1.654 3.1 4.558 2.05 6.917-1.277 2.868-4.938 3.722-8.076 3.676-5.427-.077-10.7-1.723-16.08-2.432a28.453 28.453 0 0 0-7.834-.056c-1.977.291-4.962 2.217-6.727 1.948a42.942 42.942 0 0 0 4.844-7.403z" class="prefix__cls-4" data-name="Path 1166" transform="translate(-320.897 -327.068)"/>
                <path id="prefix__Path_1167" d="M397.782 384.836c2.525-5.485 6.521-10.845 12.333-12.478 4.909-1.38 10.108.148 15.2.285a58.052 58.052 0 0 1 7.1.178 8.2 8.2 0 0 1 5.949 3.461c1.907 3.188.08 7.6-3.056 9.593s-7.107 2.093-10.8 1.677-7.376-1.281-11.082-1a24.077 24.077 0 0 0-12.858 5.557c-2.922 2.327-5.226 6.133-8.24 8.1-1.512-1.317 4.488-13.274 5.454-15.373z" class="prefix__cls-4" data-name="Path 1167" transform="translate(-321.793 -335.583)"/>
                <path id="prefix__Path_1168" d="M396.615 387.447c-.94-5.775-5.273-10.479-6.671-16.16-1.047-4.26-.379-8.8-1.462-13.054a16.356 16.356 0 0 0-5.941-8.932 9.493 9.493 0 0 0-7.173-2.167c-3.869.695-6.377 4.851-6.4 8.783s1.867 7.613 3.992 10.921 4.561 6.49 5.86 10.2c1.846 5.279 1.231 11.187 3.157 16.438a17.858 17.858 0 0 0 3.861 6.154c1.066 1.116 4.476 4.516 6.212 4.185 1.686-.322 3.119-5.8 3.615-7.338a19.419 19.419 0 0 0 .95-9.03z" class="prefix__cls-4" data-name="Path 1168" transform="translate(-332.483 -347.028)"/>
                <path id="prefix__Path_1169" d="M389.29 428.468c-1-13.413-4.444-28.558-11.953-39.717" class="prefix__cls-3" data-name="Path 1169" transform="translate(-328.614 -327.738)"/>
                <path id="prefix__Path_1170" d="M391.7 387.3a24.476 24.476 0 0 0-6.912-10.634c-3.3-2.786-7.47-4.311-11.637-5.438a41.07 41.07 0 0 0-13.29-1.682 21.074 21.074 0 0 0-12.374 4.665 9.648 9.648 0 0 0-3.318 4.949 5.269 5.269 0 0 0 1.771 5.433 8.017 8.017 0 0 0 4.279 1.1c6.594.363 13.241-.072 19.78.861s13.174 3.453 17.348 8.571a31.8 31.8 0 0 0 3.058 3.7c.654.591 2.615 2.063 3.571 1.359.891-.655.2-2.629.058-3.45a59.3 59.3 0 0 0-2.334-9.434z" class="prefix__cls-4" data-name="Path 1170" transform="translate(-344.018 -336.643)"/>
                <path id="prefix__Path_1171" d="M389.864 426.739A46.513 46.513 0 0 0 375.5 395.6" class="prefix__cls-3" data-name="Path 1171" transform="translate(-329.461 -324.574)"/>
                <path id="prefix__Path_1172" d="M384.152 392.477a48.835 48.835 0 0 0-9.719-3.572c-3.2-.895-6.531-1.8-9.789-1.167-3.612.7-6.586 3.173-9.385 5.56a38.314 38.314 0 0 0-6.042 5.98c-.831 1.11-1.569 2.508-1.151 3.83.54 1.705 2.678 2.3 4.464 2.2 3.213-.183 6.171-1.7 9.173-2.86a42.885 42.885 0 0 1 15.012-2.837c4.638-.042 9.862-.085 14.209 1.752-.872-.369-2.183-3.96-2.767-4.849a10.637 10.637 0 0 0-3.349-3.675c-.216-.124-.434-.245-.656-.362z" class="prefix__cls-4" data-name="Path 1172" transform="translate(-342.203 -328.304)"/>
            </g>
            <g id="prefix__Group_390" class="prefix__cls-5" data-name="Group 390" transform="translate(719.078)">
                <g id="prefix__Group_387" data-name="Group 387" transform="translate(80.83 81.625)">
                    <path id="prefix__Path_1173" d="M611.332 418.905c1.781-4.552 4.78-8.863 9.009-11.27 3.872-2.2 8.638-2.771 11.83-5.939 2.591-2.571 3.558-6.285 4.706-9.723s2.882-7.114 6.13-8.672c3.8-1.822 8.078-.012 11.443 2.154s6.8 4.807 10.9 4.663c3.287-.114 6.415-2.034 9.7-2.259 4.546-.312 8.419 2.6 11.867 5.381 2.48 2 5.083 4.178 5.95 7.318 1.053 3.815-.888 8.24-4.052 10.884a18.148 18.148 0 0 1-11.278 3.8c-3.613.083-7.815-.331-10.342 2.463-2.48 2.742-1.815 7.021-3.5 10.3-1.736 3.381-5.746 5.1-9.394 5.1s-7.047-1.4-10.366-2.732-6.769-2.651-10.425-2.489c-4.068.18-7.926 2.161-11.769 3.773-3.312 1.388-9.524 3.919-12.12.49-2.321-3.07.412-9.916 1.711-13.242z" class="prefix__cls-4" data-name="Path 1173" transform="translate(-608.723 -382.553)"/>
                    <path id="prefix__Path_1174" fill="none" stroke="#fff" stroke-linecap="round" stroke-linejoin="round" stroke-width="0.705px" d="M609.835 426.452a143.332 143.332 0 0 1 66.681-32.49" data-name="Path 1174" transform="translate(-608.209 -377.278)"/>
                </g>
                <g id="prefix__Group_388" data-name="Group 388" transform="translate(66.952)">
                    <path id="prefix__Path_1175" d="M633.974 431.824c.448-5.516-.591-11.254 1.224-16.48 3.227-9.3 14.439-14.153 17.248-23.582 3.358-11.276-6.9-22.785-5.124-34.415.75-4.9 3.574-9.208 5.326-13.85s2.21-10.448-1.2-14.055c-3.571-3.779-10.051-3.336-14.287-.323s-6.689 7.9-8.669 12.709-3.716 9.847-7.06 13.828c-6.1 7.266-17.068 10.448-20.4 19.334-3.391 9.042 3.026 18.6 4.168 28.185.864 7.259-1.353 14.483-3.315 21.526s-3.7 14.5-1.9 21.587c2.4 9.428 10.9 15.441 19.045 9.4 8.034-5.965 14.103-13.497 14.944-23.864z" class="prefix__cls-7" data-name="Path 1175" transform="translate(-599.233 -326.735)"/>
                    <path id="prefix__Path_1176" fill="none" stroke="#fff" stroke-linecap="round" stroke-linejoin="round" stroke-width="1.136px" d="M609.464 447.867c-3.238-33.663 4.173-70.176 21.448-99.25" data-name="Path 1176" transform="translate(-594.845 -316.618)"/>
                </g>
                <g id="prefix__Group_389" data-name="Group 389" transform="translate(0 51.238)">
                    <path id="prefix__Path_1177" d="M613.5 429.091c-3.556-5.019-5.592-11.283-10.409-15.109-5.525-4.387-13.183-4.425-20.214-5s-14.964-2.559-18.227-8.813c-1.791-3.434-1.78-7.513-3.03-11.178-1.37-4.017-4.187-7.357-6.152-11.118s-3-8.544-.721-12.124c2.311-3.625 7.366-4.69 11.5-3.524s7.535 4.077 10.633 7.057 6.121 6.168 9.95 8.123c6.338 3.235 13.851 2.628 20.96 2.329s14.865 0 20.35 4.536c4.52 3.735 6.575 9.6 8.429 15.162 2.656 7.967 5.381 15.915 7.968 23.9 1.592 4.918 4.643 12.443-.478 16.312-9.02 6.823-25.365-3.219-30.559-10.553z" class="prefix__cls-9" data-name="Path 1177" transform="translate(-553.449 -361.774)"/>
                    <path id="prefix__Path_1178" fill="none" stroke="#fff" stroke-linecap="round" stroke-linejoin="round" stroke-width="0.817px" d="M633.628 433.7c-11.292-26.211-35.188-48.514-63.787-58.368" data-name="Path 1178" transform="translate(-545.87 -355.507)"/>
                </g>
            </g>
            <g id="prefix__Group_394" class="prefix__cls-5" data-name="Group 394" transform="translate(0 10.694)">
                <g id="prefix__Group_391" data-name="Group 391" transform="translate(92.455 45.802)">
                    <path id="prefix__Path_1179" d="M154.912 429.7c3.226-4.81 5.1-10.99 9.445-14.5 4.985-4.027 11.848-3.5 18.155-3.567s13.43-1.483 16.4-7.563c1.632-3.336 1.654-7.459 2.8-11.07 1.259-3.957 3.809-7.126 5.6-10.78s2.754-8.411.738-12.2a9.3 9.3 0 0 0-10.282-4.407c-3.719.872-6.785 3.564-9.584 6.348s-5.533 5.782-8.979 7.475c-5.7 2.8-12.434 1.636-18.8.81s-13.322-1.088-18.272 3.088c-4.08 3.439-5.968 9.213-7.673 14.7-2.441 7.854-4.946 15.684-7.325 23.564-1.465 4.852-4.257 12.23.3 16.516 8.038 7.553 22.765-1.39 27.477-8.414z" class="prefix__cls-9" data-name="Path 1179" transform="translate(-124.941 -365.369)"/>
                    <path id="prefix__Path_1180" fill="none" stroke="#fff" stroke-linecap="round" stroke-linejoin="round" stroke-width="0.778px" d="M128.4 432.637c10.323-25.652 31.911-46.428 57.619-54.279" data-name="Path 1180" transform="translate(-123.343 -359.363)"/>
                </g>
                <g id="prefix__Group_392" data-name="Group 392" transform="translate(67.324)">
                    <path id="prefix__Path_1181" d="M123.791 430.707c-.358-5.073.472-10.35-.981-15.159-2.584-8.548-11.566-13.016-13.81-21.689-2.691-10.372 5.529-20.957 4.1-31.654-.6-4.511-2.863-8.47-4.267-12.74s-1.769-9.609.959-12.927c2.86-3.475 8.05-3.068 11.443-.3s5.359 7.268 6.945 11.688 2.976 9.059 5.655 12.719c4.889 6.683 13.671 9.61 16.34 17.783 2.716 8.316-2.425 17.1-3.339 25.924-.692 6.677 1.082 13.322 2.656 19.8s2.963 13.339 1.521 19.856c-1.919 8.672-8.729 14.2-15.255 8.641-6.433-5.478-11.294-12.406-11.967-21.942z" class="prefix__cls-7" data-name="Path 1181" transform="translate(-107.755 -334.048)"/>
                    <path id="prefix__Path_1182" fill="none" stroke="#fff" stroke-linecap="round" stroke-linejoin="round" stroke-width="0.975px" d="M135.174 445.464c2.593-30.963-3.343-64.547-17.18-91.289" data-name="Path 1182" transform="translate(-103.021 -324.742)"/>
                </g>
                <g id="prefix__Group_393" data-name="Group 393" transform="translate(0 51.171)">
                    <path id="prefix__Path_1183" d="M160.748 420.85c-2.253-6.285-5.972-12.338-11.127-15.913-4.722-3.274-10.479-4.408-14.4-8.932-3.183-3.672-4.437-8.761-5.9-13.493s-3.644-9.828-7.6-12.181c-4.63-2.754-9.738-.639-13.743 2.028s-8.082 5.966-13.034 5.456c-3.966-.408-7.783-3.242-11.753-3.8-5.488-.771-10.086 2.869-14.177 6.354-2.941 2.505-6.028 5.25-7 9.422-1.179 5.071 1.265 11.2 5.142 15.011a22.131 22.131 0 0 0 13.686 6.007c4.358.39 9.413.154 12.525 4.121 3.055 3.894 2.354 9.621 4.465 14.185a13.716 13.716 0 0 0 11.444 7.606c4.4.275 8.463-1.345 12.431-2.891s8.1-3.058 12.509-2.558c4.908.557 9.606 3.53 14.277 6 4.026 2.129 11.574 6.028 14.622 1.6 2.731-3.972-.72-13.431-2.367-18.022z" class="prefix__cls-4" data-name="Path 1183" transform="translate(-61.716 -369.04)"/>
                    <path id="prefix__Path_1184" fill="none" stroke="#fff" stroke-linecap="round" stroke-linejoin="round" stroke-width="0.899px" d="M156.115 431.857c-23.854-24.076-51.5-40.773-81.154-49.012" data-name="Path 1184" transform="translate(-55.593 -362.658)"/>
                </g>
            </g>
        </g>
        <g id="prefix__Group_400" data-name="Group 400" transform="translate(82.018 76.265)">
            <g id="prefix__Group_396" data-name="Group 396" transform="translate(767.767 72.478)">
                <path id="prefix__Path_1185" d="M605.306 129.659a8.4 8.4 0 1 1-8.4-8.4 8.4 8.4 0 0 1 8.4 8.4z" class="prefix__cls-14" data-name="Path 1185" transform="translate(-588.511 -121.261)"/>
                <path id="prefix__Line_25" d="M0 0L5.927 5.927" class="prefix__cls-14" data-name="Line 25" transform="translate(14.472 14.187)"/>
            </g>
            <g id="prefix__Group_397" data-name="Group 397" transform="translate(472.244)">
                <path id="prefix__Line_26" d="M0 0L8.835 8.835" class="prefix__cls-14" data-name="Line 26"/>
                <path id="prefix__Line_27" d="M8.835 0L0 8.835" class="prefix__cls-14" data-name="Line 27"/>
            </g>
            <g id="prefix__Group_398" data-name="Group 398" transform="translate(614.886 444.022)">
                <path id="prefix__Line_28" d="M0 0L8.835 8.835" class="prefix__cls-14" data-name="Line 28"/>
                <path id="prefix__Line_29" d="M8.835 0L0 8.835" class="prefix__cls-14" data-name="Line 29"/>
            </g>
            <g id="prefix__Group_399" data-name="Group 399" transform="translate(0 364.021)">
                <path id="prefix__Line_30" d="M0 0L0 12.495" class="prefix__cls-14" data-name="Line 30" transform="translate(6.247)"/>
                <path id="prefix__Line_31" d="M12.495 0L0 0" class="prefix__cls-14" data-name="Line 31" transform="translate(0 6.247)"/>
            </g>
            <path id="prefix__Path_1186" d="M117.739 270.671a7.586 7.586 0 1 1-7.587-7.585 7.586 7.586 0 0 1 7.587 7.585z" class="prefix__cls-14" data-name="Path 1186" transform="translate(-45.413 16.787)"/>
            <path id="prefix__Path_1187" d="M324.357 356.573a7.586 7.586 0 1 1-7.585-7.585 7.585 7.585 0 0 1 7.585 7.585z" class="prefix__cls-14" data-name="Path 1187" transform="translate(50.114 56.503)"/>
            <path id="prefix__Path_1188" d="M633.882 277.412a7.586 7.586 0 1 1-7.587-7.587 7.587 7.587 0 0 1 7.587 7.587z" class="prefix__cls-14" data-name="Path 1188" transform="translate(193.218 19.903)"/>
        </g>
        <g id="prefix__Group_417" data-name="Group 417" opacity="0.56" transform="translate(23.392 106.137)">
            <g id="prefix__Group_405" class="prefix__cls-16" data-name="Group 405" transform="translate(0 86.416)">
                <g id="prefix__Group_401" data-name="Group 401">
                    <circle id="prefix__Ellipse_499" cx="2.742" cy="2.742" r="2.742" class="prefix__cls-4" data-name="Ellipse 499"/>
                    <circle id="prefix__Ellipse_500" cx="2.742" cy="2.742" r="2.742" class="prefix__cls-4" data-name="Ellipse 500" transform="translate(19.193)"/>
                    <circle id="prefix__Ellipse_501" cx="2.742" cy="2.742" r="2.742" class="prefix__cls-4" data-name="Ellipse 501" transform="translate(38.386)"/>
                    <circle id="prefix__Ellipse_502" cx="2.742" cy="2.742" r="2.742" class="prefix__cls-4" data-name="Ellipse 502" transform="translate(57.579)"/>
                    <circle id="prefix__Ellipse_503" cx="2.742" cy="2.742" r="2.742" class="prefix__cls-4" data-name="Ellipse 503" transform="translate(76.773)"/>
                    <circle id="prefix__Ellipse_504" cx="2.742" cy="2.742" r="2.742" class="prefix__cls-4" data-name="Ellipse 504" transform="translate(95.966)"/>
                    <circle id="prefix__Ellipse_505" cx="2.742" cy="2.742" r="2.742" class="prefix__cls-4" data-name="Ellipse 505" transform="translate(115.159)"/>
                </g>
                <g id="prefix__Group_402" data-name="Group 402" transform="translate(0 19.193)">
                    <circle id="prefix__Ellipse_506" cx="2.742" cy="2.742" r="2.742" class="prefix__cls-4" data-name="Ellipse 506"/>
                    <circle id="prefix__Ellipse_507" cx="2.742" cy="2.742" r="2.742" class="prefix__cls-4" data-name="Ellipse 507" transform="translate(19.193)"/>
                    <circle id="prefix__Ellipse_508" cx="2.742" cy="2.742" r="2.742" class="prefix__cls-4" data-name="Ellipse 508" transform="translate(38.386)"/>
                    <circle id="prefix__Ellipse_509" cx="2.742" cy="2.742" r="2.742" class="prefix__cls-4" data-name="Ellipse 509" transform="translate(57.579)"/>
                    <circle id="prefix__Ellipse_510" cx="2.742" cy="2.742" r="2.742" class="prefix__cls-4" data-name="Ellipse 510" transform="translate(76.773)"/>
                    <circle id="prefix__Ellipse_511" cx="2.742" cy="2.742" r="2.742" class="prefix__cls-4" data-name="Ellipse 511" transform="translate(95.966)"/>
                    <circle id="prefix__Ellipse_512" cx="2.742" cy="2.742" r="2.742" class="prefix__cls-4" data-name="Ellipse 512" transform="translate(115.159)"/>
                </g>
                <g id="prefix__Group_403" data-name="Group 403" transform="translate(0 38.386)">
                    <circle id="prefix__Ellipse_513" cx="2.742" cy="2.742" r="2.742" class="prefix__cls-4" data-name="Ellipse 513"/>
                    <circle id="prefix__Ellipse_514" cx="2.742" cy="2.742" r="2.742" class="prefix__cls-4" data-name="Ellipse 514" transform="translate(19.193)"/>
                    <circle id="prefix__Ellipse_515" cx="2.742" cy="2.742" r="2.742" class="prefix__cls-4" data-name="Ellipse 515" transform="translate(38.386)"/>
                    <circle id="prefix__Ellipse_516" cx="2.742" cy="2.742" r="2.742" class="prefix__cls-4" data-name="Ellipse 516" transform="translate(57.579)"/>
                    <circle id="prefix__Ellipse_517" cx="2.742" cy="2.742" r="2.742" class="prefix__cls-4" data-name="Ellipse 517" transform="translate(76.773)"/>
                    <circle id="prefix__Ellipse_518" cx="2.742" cy="2.742" r="2.742" class="prefix__cls-4" data-name="Ellipse 518" transform="translate(95.966)"/>
                    <circle id="prefix__Ellipse_519" cx="2.742" cy="2.742" r="2.742" class="prefix__cls-4" data-name="Ellipse 519" transform="translate(115.159)"/>
                </g>
                <g id="prefix__Group_404" data-name="Group 404" transform="translate(0 57.579)">
                    <circle id="prefix__Ellipse_520" cx="2.742" cy="2.742" r="2.742" class="prefix__cls-4" data-name="Ellipse 520"/>
                    <circle id="prefix__Ellipse_521" cx="2.742" cy="2.742" r="2.742" class="prefix__cls-4" data-name="Ellipse 521" transform="translate(19.193)"/>
                    <circle id="prefix__Ellipse_522" cx="2.742" cy="2.742" r="2.742" class="prefix__cls-4" data-name="Ellipse 522" transform="translate(38.386)"/>
                    <circle id="prefix__Ellipse_523" cx="2.742" cy="2.742" r="2.742" class="prefix__cls-4" data-name="Ellipse 523" transform="translate(57.579)"/>
                    <circle id="prefix__Ellipse_524" cx="2.742" cy="2.742" r="2.742" class="prefix__cls-4" data-name="Ellipse 524" transform="translate(76.773)"/>
                    <circle id="prefix__Ellipse_525" cx="2.742" cy="2.742" r="2.742" class="prefix__cls-4" data-name="Ellipse 525" transform="translate(95.966)"/>
                    <circle id="prefix__Ellipse_526" cx="2.742" cy="2.742" r="2.742" class="prefix__cls-4" data-name="Ellipse 526" transform="translate(115.159)"/>
                </g>
            </g>
            <g id="prefix__Group_408" class="prefix__cls-16" data-name="Group 408" transform="translate(312.172 414.122)">
                <g id="prefix__Group_406" data-name="Group 406">
                    <circle id="prefix__Ellipse_527" cx="2.742" cy="2.742" r="2.742" class="prefix__cls-4" data-name="Ellipse 527"/>
                    <circle id="prefix__Ellipse_528" cx="2.742" cy="2.742" r="2.742" class="prefix__cls-4" data-name="Ellipse 528" transform="translate(19.193)"/>
                    <circle id="prefix__Ellipse_529" cx="2.742" cy="2.742" r="2.742" class="prefix__cls-4" data-name="Ellipse 529" transform="translate(38.386)"/>
                    <circle id="prefix__Ellipse_530" cx="2.742" cy="2.742" r="2.742" class="prefix__cls-4" data-name="Ellipse 530" transform="translate(57.579)"/>
                    <circle id="prefix__Ellipse_531" cx="2.742" cy="2.742" r="2.742" class="prefix__cls-4" data-name="Ellipse 531" transform="translate(76.773)"/>
                </g>
                <g id="prefix__Group_407" data-name="Group 407" transform="translate(0 19.193)">
                    <circle id="prefix__Ellipse_532" cx="2.742" cy="2.742" r="2.742" class="prefix__cls-4" data-name="Ellipse 532"/>
                    <circle id="prefix__Ellipse_533" cx="2.742" cy="2.742" r="2.742" class="prefix__cls-4" data-name="Ellipse 533" transform="translate(19.193)"/>
                    <circle id="prefix__Ellipse_534" cx="2.742" cy="2.742" r="2.742" class="prefix__cls-4" data-name="Ellipse 534" transform="translate(38.386)"/>
                    <circle id="prefix__Ellipse_535" cx="2.742" cy="2.742" r="2.742" class="prefix__cls-4" data-name="Ellipse 535" transform="translate(57.579)"/>
                    <circle id="prefix__Ellipse_536" cx="2.742" cy="2.742" r="2.742" class="prefix__cls-4" data-name="Ellipse 536" transform="translate(76.773)"/>
                </g>
            </g>
            <g id="prefix__Group_411" class="prefix__cls-16" data-name="Group 411" transform="translate(862.878)">
                <g id="prefix__Group_409" data-name="Group 409">
                    <circle id="prefix__Ellipse_537" cx="2.742" cy="2.742" r="2.742" class="prefix__cls-4" data-name="Ellipse 537"/>
                    <circle id="prefix__Ellipse_538" cx="2.742" cy="2.742" r="2.742" class="prefix__cls-4" data-name="Ellipse 538" transform="translate(19.193)"/>
                    <circle id="prefix__Ellipse_539" cx="2.742" cy="2.742" r="2.742" class="prefix__cls-4" data-name="Ellipse 539" transform="translate(38.386)"/>
                </g>
                <g id="prefix__Group_410" data-name="Group 410" transform="translate(0 19.193)">
                    <circle id="prefix__Ellipse_540" cx="2.742" cy="2.742" r="2.742" class="prefix__cls-4" data-name="Ellipse 540"/>
                    <circle id="prefix__Ellipse_541" cx="2.742" cy="2.742" r="2.742" class="prefix__cls-4" data-name="Ellipse 541" transform="translate(19.193)"/>
                    <circle id="prefix__Ellipse_542" cx="2.742" cy="2.742" r="2.742" class="prefix__cls-4" data-name="Ellipse 542" transform="translate(38.386)"/>
                </g>
            </g>
            <g id="prefix__Group_416" class="prefix__cls-16" data-name="Group 416" transform="translate(945.656 240.132)">
                <g id="prefix__Group_412" data-name="Group 412" transform="translate(57.579)">
                    <circle id="prefix__Ellipse_543" cx="2.742" cy="2.742" r="2.742" class="prefix__cls-4" data-name="Ellipse 543"/>
                    <circle id="prefix__Ellipse_544" cx="2.742" cy="2.742" r="2.742" class="prefix__cls-4" data-name="Ellipse 544" transform="translate(0 19.193)"/>
                    <circle id="prefix__Ellipse_545" cx="2.742" cy="2.742" r="2.742" class="prefix__cls-4" data-name="Ellipse 545" transform="translate(0 38.386)"/>
                    <circle id="prefix__Ellipse_546" cx="2.742" cy="2.742" r="2.742" class="prefix__cls-4" data-name="Ellipse 546" transform="translate(0 57.579)"/>
                    <circle id="prefix__Ellipse_547" cx="2.742" cy="2.742" r="2.742" class="prefix__cls-4" data-name="Ellipse 547" transform="translate(0 76.773)"/>
                    <circle id="prefix__Ellipse_548" cx="2.742" cy="2.742" r="2.742" class="prefix__cls-4" data-name="Ellipse 548" transform="translate(0 95.966)"/>
                    <circle id="prefix__Ellipse_549" cx="2.742" cy="2.742" r="2.742" class="prefix__cls-4" data-name="Ellipse 549" transform="translate(0 115.159)"/>
                </g>
                <g id="prefix__Group_413" data-name="Group 413" transform="translate(38.386)">
                    <circle id="prefix__Ellipse_550" cx="2.742" cy="2.742" r="2.742" class="prefix__cls-4" data-name="Ellipse 550"/>
                    <circle id="prefix__Ellipse_551" cx="2.742" cy="2.742" r="2.742" class="prefix__cls-4" data-name="Ellipse 551" transform="translate(0 19.193)"/>
                    <circle id="prefix__Ellipse_552" cx="2.742" cy="2.742" r="2.742" class="prefix__cls-4" data-name="Ellipse 552" transform="translate(0 38.386)"/>
                    <circle id="prefix__Ellipse_553" cx="2.742" cy="2.742" r="2.742" class="prefix__cls-4" data-name="Ellipse 553" transform="translate(0 57.579)"/>
                    <circle id="prefix__Ellipse_554" cx="2.742" cy="2.742" r="2.742" class="prefix__cls-4" data-name="Ellipse 554" transform="translate(0 76.773)"/>
                    <circle id="prefix__Ellipse_555" cx="2.742" cy="2.742" r="2.742" class="prefix__cls-4" data-name="Ellipse 555" transform="translate(0 95.966)"/>
                    <circle id="prefix__Ellipse_556" cx="2.742" cy="2.742" r="2.742" class="prefix__cls-4" data-name="Ellipse 556" transform="translate(0 115.159)"/>
                </g>
                <g id="prefix__Group_414" data-name="Group 414" transform="translate(19.193)">
                    <circle id="prefix__Ellipse_557" cx="2.742" cy="2.742" r="2.742" class="prefix__cls-4" data-name="Ellipse 557"/>
                    <circle id="prefix__Ellipse_558" cx="2.742" cy="2.742" r="2.742" class="prefix__cls-4" data-name="Ellipse 558" transform="translate(0 19.193)"/>
                    <circle id="prefix__Ellipse_559" cx="2.742" cy="2.742" r="2.742" class="prefix__cls-4" data-name="Ellipse 559" transform="translate(0 38.386)"/>
                    <circle id="prefix__Ellipse_560" cx="2.742" cy="2.742" r="2.742" class="prefix__cls-4" data-name="Ellipse 560" transform="translate(0 57.579)"/>
                    <circle id="prefix__Ellipse_561" cx="2.742" cy="2.742" r="2.742" class="prefix__cls-4" data-name="Ellipse 561" transform="translate(0 76.773)"/>
                    <circle id="prefix__Ellipse_562" cx="2.742" cy="2.742" r="2.742" class="prefix__cls-4" data-name="Ellipse 562" transform="translate(0 95.966)"/>
                    <circle id="prefix__Ellipse_563" cx="2.742" cy="2.742" r="2.742" class="prefix__cls-4" data-name="Ellipse 563" transform="translate(0 115.159)"/>
                </g>
                <g id="prefix__Group_415" data-name="Group 415">
                    <circle id="prefix__Ellipse_564" cx="2.742" cy="2.742" r="2.742" class="prefix__cls-4" data-name="Ellipse 564"/>
                    <circle id="prefix__Ellipse_565" cx="2.742" cy="2.742" r="2.742" class="prefix__cls-4" data-name="Ellipse 565" transform="translate(0 19.193)"/>
                    <circle id="prefix__Ellipse_566" cx="2.742" cy="2.742" r="2.742" class="prefix__cls-4" data-name="Ellipse 566" transform="translate(0 38.386)"/>
                    <circle id="prefix__Ellipse_567" cx="2.742" cy="2.742" r="2.742" class="prefix__cls-4" data-name="Ellipse 567" transform="translate(0 57.579)"/>
                    <circle id="prefix__Ellipse_568" cx="2.742" cy="2.742" r="2.742" class="prefix__cls-4" data-name="Ellipse 568" transform="translate(0 76.773)"/>
                    <circle id="prefix__Ellipse_569" cx="2.742" cy="2.742" r="2.742" class="prefix__cls-4" data-name="Ellipse 569" transform="translate(0 95.966)"/>
                    <circle id="prefix__Ellipse_570" cx="2.742" cy="2.742" r="2.742" class="prefix__cls-4" data-name="Ellipse 570" transform="translate(0 115.159)"/>
                </g>
            </g>
        </g>
        <g id="prefix__Group_432" data-name="Group 432" transform="translate(263.267 86.212)">
            <g id="prefix__Group_422" data-name="Group 422" transform="translate(0 35.151)">
                <rect id="prefix__Rectangle_352" width="532.59" height="338.545" class="prefix__cls-4" data-name="Rectangle 352" rx="11.698"/>
                <rect id="prefix__Rectangle_353" width="524.861" height="323.365" class="prefix__cls-17" data-name="Rectangle 353" rx="9.549" transform="translate(3.864 3.354)"/>
                <g id="prefix__Group_421" data-name="Group 421" transform="translate(14.729 19.611)">
                    <path id="prefix__Path_1189" d="M534.1 127.327v208.441a11.371 11.371 0 0 1-11.377 11.377H208.877a11.376 11.376 0 0 1-11.377-11.377V127.327a11.38 11.38 0 0 1 11.377-11.377h313.846a11.376 11.376 0 0 1 11.377 11.377z" class="prefix__cls-18" data-name="Path 1189" transform="translate(-197.5 -115.948)"/>
                    <rect id="prefix__Rectangle_354" width="152.677" height="89.109" class="prefix__cls-19" data-name="Rectangle 354" rx="7.782" transform="translate(350.451)"/>
                    <rect id="prefix__Rectangle_355" width="152.677" height="89.109" class="prefix__cls-19" data-name="Rectangle 355" rx="7.782" transform="translate(350.451 112.16)"/>
                    <rect id="prefix__Rectangle_356" width="152.677" height="82.788" class="prefix__cls-19" data-name="Rectangle 356" rx="7.782" transform="translate(350.451 224.321)"/>
                    <rect id="prefix__Rectangle_357" width="175.756" height="8.257" class="prefix__cls-19" data-name="Rectangle 357" rx="2.823" transform="translate(.003 245.308)"/>
                    <rect id="prefix__Rectangle_358" width="175.756" height="24.772" class="prefix__cls-19" data-name="Rectangle 358" rx="2.823" transform="translate(.003 267.671)"/>
                    <rect id="prefix__Rectangle_359" width="45.093" height="8.257" class="prefix__cls-19" data-name="Rectangle 359" rx="2.823" transform="translate(291.51 245.308)"/>
                    <rect id="prefix__Rectangle_360" width="45.093" height="8.257" class="prefix__cls-19" data-name="Rectangle 360" rx="2.823" transform="translate(229.019 245.308)"/>
                    <rect id="prefix__Rectangle_361" width="81.31" height="24.772" class="prefix__cls-19" data-name="Rectangle 361" rx="2.823" transform="translate(255.294 267.671)"/>
                    <g id="prefix__Group_418" class="prefix__cls-2" data-name="Group 418" transform="translate(403.758 21.523)">
                        <circle id="prefix__Ellipse_571" cx="23.032" cy="23.032" r="23.032" class="prefix__cls-20" data-name="Ellipse 571"/>
                        <path id="prefix__Path_1190" d="M500.352 147.628l-13.143-7.588a2.162 2.162 0 0 0-3.243 1.872v15.176a2.163 2.163 0 0 0 3.243 1.873l13.143-7.588a2.163 2.163 0 0 0 0-3.745z" class="prefix__cls-18" data-name="Path 1190" transform="translate(-468.815 -126.468)"/>
                    </g>
                    <g id="prefix__Group_419" class="prefix__cls-2" data-name="Group 419" transform="translate(403.758 133.683)">
                        <circle id="prefix__Ellipse_572" cx="23.032" cy="23.032" r="23.032" class="prefix__cls-20" data-name="Ellipse 572"/>
                        <path id="prefix__Path_1191" d="M500.352 224.328l-13.143-7.588a2.162 2.162 0 0 0-3.243 1.872v15.176a2.162 2.162 0 0 0 3.243 1.872l13.143-7.588a2.162 2.162 0 0 0 0-3.744z" class="prefix__cls-18" data-name="Path 1191" transform="translate(-468.815 -203.168)"/>
                    </g>
                    <g id="prefix__Group_420" class="prefix__cls-2" data-name="Group 420" transform="translate(403.758 242.683)">
                        <circle id="prefix__Ellipse_573" cx="23.032" cy="23.032" r="23.032" class="prefix__cls-20" data-name="Ellipse 573"/>
                        <path id="prefix__Path_1192" d="M500.352 298.866l-13.143-7.588a2.162 2.162 0 0 0-3.243 1.872v15.176a2.162 2.162 0 0 0 3.243 1.872l13.143-7.588a2.162 2.162 0 0 0 0-3.744z" class="prefix__cls-18" data-name="Path 1192" transform="translate(-468.815 -277.706)"/>
                    </g>
                    <path id="prefix__Path_1193" fill="#acdae5" d="M530.123 118.685L201.478 344.411a11.371 11.371 0 0 1-3.978-8.642V127.327a11.38 11.38 0 0 1 11.377-11.377h313.846a11.276 11.276 0 0 1 7.4 2.735z" data-name="Path 1193" transform="translate(-197.5 -115.948)"/>
                </g>
            </g>
            <g id="prefix__Group_429" data-name="Group 429" transform="translate(14.732)">
                <g id="prefix__Group_428" clip-path="url(#prefix__clip-path)" data-name="Group 428">
                    <g id="prefix__Group_427" data-name="Group 427" transform="translate(4.006 24.618)">
                        <path id="prefix__Path_1194" d="M361.519 514.479l4.987 60.847h-25.934l-13.466-60.847z" class="prefix__cls-23" data-name="Path 1194" transform="translate(-141.587 98.45)"/>
                        <path id="prefix__Path_1195" d="M336.27 547.791s-11.269 18.2-2.806 21.43 64.1 3.53 77.824 1.471-30.646-20.882-40.788-23.822-13.428 12.483-34.23.921z" class="prefix__cls-24" data-name="Path 1195" transform="translate(-140.104 113.249)"/>
                        <path id="prefix__Path_1196" d="M238.653 514.479l-4.987 60.847H259.6l13.466-60.847z" class="prefix__cls-23" data-name="Path 1196" transform="translate(-184.788 98.45)"/>
                        <path id="prefix__Path_1197" d="M409.858 230.125s18.769-14.813 19.265-19.051c.933-7.981 3.8-14.25 20.971-19.534a4.849 4.849 0 0 1-1.059 5.311 17.559 17.559 0 0 1-4.665 4.046s4.541 1.733 11.311-3.551 9.619-9.866 12.468-8.752c0 0 3.356-3.049 4.953-2.559a1.386 1.386 0 0 1 .945 1.607c2.647-.411 2.112 7.22-2.6 13.418-6.771 8.917-15.22 16.6-22.143 19.129-5.2 1.9-26.644 23.74-26.644 23.74z" class="prefix__cls-25" data-name="Path 1197" transform="translate(-103.328 -53.425)"/>
                        <path id="prefix__Path_1198" d="M389.632 310.669c-8.183 2.765-53.625-67.108-53.625-67.108-17.557-20.207-1.8-86.769 14.094-63.433 0 0 41.337 74.788 45.8 80.81 5.546 7.49 23.986 39.51-6.269 49.731z" class="prefix__cls-26" data-name="Path 1198" transform="translate(-141.038 -58.396)"/>
                        <path id="prefix__Path_1199" d="M266.185 315.278l-40.733 309.209 52.657 9.387 43.738-199.643L375.842 637l42.4-9.471-32.261-312.25z" class="prefix__cls-24" data-name="Path 1199" transform="translate(-188.586 6.353)"/>
                        <path id="prefix__Path_1200" d="M375.056 385.588h-119.79s-9.205-4.055-1.2-21.716c3-6.589 1.7-23.58 1.2-46.918-1.013-46.128-14.7-122.671 2.189-131.449 10.118-5.272 31.611-12.227 47.223-16.972.933-.263 1.845-.547 2.737-.812 9.1-2.717 15.612-4.52 15.612-4.52s7.543 1.094 22.872 5.636c.831.243 1.7.507 2.594.771 4 1.217 8.435 2.637 13.382 4.318 26.786 9.1 23.785 5.86 27.333 39.316 2.839 26.724-14.152 172.346-14.152 172.346z" class="prefix__cls-26" data-name="Path 1200" transform="translate(-177.665 -63.957)"/>
                        <path id="prefix__Path_1201" fill="#e7eafd" d="M330.914 169.608a21.5 21.5 0 0 1-6.772 14.356 21.932 21.932 0 0 1-37.042-15.43c.933-.263 1.845-.547 2.737-.812 9.1-2.717 15.612-4.52 15.612-4.52s7.543 1.094 22.872 5.636c.829.243 1.701.507 2.593.77z" data-name="Path 1201" transform="translate(-160.085 -63.957)"/>
                        <path id="prefix__Path_1202" d="M326.536 136.038l-1.885 36.436-.548 10.4a16.63 16.63 0 0 1-33.232-1.277l.466-18.553.79-30.82z" class="prefix__cls-23" data-name="Path 1202" transform="translate(-158.343 -78.279)"/>
                        <path id="prefix__Path_1203" d="M326.386 141.013l-1.886 34.315c-16.14.649-27.92-5.912-33.313-14.65l.79-23.478z" class="prefix__cls-28" data-name="Path 1203" transform="translate(-158.194 -75.979)"/>
                        <path id="prefix__Path_1204" d="M288.779 110.447s-15.477-1.926-13.7 17.453c1.376 15.031 21.8 35.1 21.8 35.1s12.902-45.3-8.1-52.553z" class="prefix__cls-29" data-name="Path 1204" transform="translate(-165.708 -88.372)"/>
                        <path id="prefix__Path_1205" fill="#0e1235" d="M332.455 125.34a67.9 67.9 0 0 1-4 6.743c-1.322 2.256-2.367 4.826-2.075 7.426-.256-4.22-3.061-7.775-5.466-11.251s-4.6-7.695-3.457-11.764c1.1-3.91 8.167-10.054 12.452-7.525 4.779 2.819 4.418 12.117 2.546 16.371z" data-name="Path 1205" transform="translate(-146.193 -89.306)"/>
                        <path id="prefix__Path_1206" d="M346 125.509a124.009 124.009 0 0 1-.472 25.015c-1.936 15.191-1.239 33.04-23.639 34.229-23.889 1.266-31.807-25.473-31.807-25.473s-12.692-2.363-13.559-10.94 8.006-9.074 10.9-6.661c0 0 3.279-31.984 32.835-31.984 26.093 0 25.742 15.814 25.742 15.814z" class="prefix__cls-25" data-name="Path 1206" transform="translate(-165.001 -88.696)"/>
                        <g id="prefix__Group_423" data-name="Group 423" transform="translate(116.454 47.14)">
                            <path id="prefix__Path_1207" d="M306.321 137.95a2.368 2.368 0 1 1-2.368-2.368 2.367 2.367 0 0 1 2.368 2.368z" class="prefix__cls-29" data-name="Path 1207" transform="translate(-269.84 -123.867)"/>
                            <path id="prefix__Path_1208" d="M320.958 137.95a2.368 2.368 0 1 1-2.368-2.368 2.368 2.368 0 0 1 2.368 2.368z" class="prefix__cls-29" data-name="Path 1208" transform="translate(-263.073 -123.867)"/>
                            <path id="prefix__Path_1209" d="M297.312 132.878a9.618 9.618 0 0 1 10.985-3.694" class="prefix__cls-31" data-name="Path 1209" transform="translate(-271.816 -127.035)"/>
                            <path id="prefix__Path_1210" d="M313.632 129.626s5.4-4.924 10.7.474" class="prefix__cls-31" data-name="Path 1210" transform="translate(-264.271 -127.571)"/>
                            <path id="prefix__Path_1211" d="M310.394 132.992s2.558 6.534 4.735 10.606-4.261 5.871-4.261 5.871" class="prefix__cls-32" data-name="Path 1211" transform="translate(-265.768 -125.065)"/>
                            <path id="prefix__Path_1212" d="M304.529 149.257s5.281 5.123 12.063 1.989" class="prefix__cls-32" data-name="Path 1212" transform="translate(-268.48 -117.545)"/>
                            <path id="prefix__Path_1213" d="M285.441 139.806s-.079-7.353-5.564-5.345" class="prefix__cls-32" data-name="Path 1213" transform="translate(-279.877 -124.546)"/>
                        </g>
                        <path id="prefix__Path_1214" d="M292.334 114.63s13.433 13.686 6.083 18.924a23.362 23.362 0 0 0-9.463 14.082s.17-2.9-3.463-8.239-11.574-24.26 6.843-24.767z" class="prefix__cls-29" data-name="Path 1214" transform="translate(-163.071 -86.414)"/>
                        <path id="prefix__Path_1215" d="M375.171 296.359c9.77 6.358 84.016-72.941 84.016-72.941l-13.179-17.235s-56.452 35.419-64.569 40.445c-11.687 7.237-39.121 28.358-6.268 49.731z" class="prefix__cls-26" data-name="Path 1215" transform="translate(-126.578 -44.086)"/>
                        <path id="prefix__Path_1216" d="M277.872 547.791s11.269 18.2 2.806 21.43-64.1 3.53-77.826 1.471 30.648-20.882 40.794-23.822 13.424 12.483 34.226.921z" class="prefix__cls-24" data-name="Path 1216" transform="translate(-200.241 113.249)"/>
                        <path id="prefix__Path_1217" fill="#172156" d="M291.371 417.35l14.522-65.559-6.146 97.009z" data-name="Path 1217" transform="translate(-158.109 23.234)"/>
                        <path id="prefix__Path_1218" d="M343.241 251.419s3.322-36.25 2.755-47.758c0 0 4.728 30.433 4.837 58.556z" class="prefix__cls-34" data-name="Path 1218" transform="translate(-134.128 -45.252)"/>
                        <path id="prefix__Path_1219" d="M277.339 251.131s17.383-74.442-1.22-73.563c0 0-6.067.727-17.941 19.151-8.3 12.88-17.409 35.216-33.985 71.537-7.835 17.171-17.634 40.4.559 41.643 9.836.671 20.166-4.715 26.245-16.008 11.151-20.714 26.342-42.76 26.342-42.76z" class="prefix__cls-26" data-name="Path 1219" transform="translate(-193.685 -57.319)"/>
                        <path id="prefix__Path_1220" d="M268.088 298.3L362.71 276s-29.763 22.3-94.622 22.3z" class="prefix__cls-34" data-name="Path 1220" transform="translate(-168.874 -11.81)"/>
                        <g id="prefix__Group_424" data-name="Group 424" transform="translate(73.805 168.548)">
                            <path id="prefix__Path_1221" d="M250.712 250.817s15.273-27.044 23.383-40.223l-19.06 103.43s-1.855-42.246-4.323-63.207z" class="prefix__cls-34" data-name="Path 1221" transform="translate(-250.712 -210.594)"/>
                            <path id="prefix__Path_1222" d="M310.216 262.425l-56.6 26.432 2.91-27.18z" class="prefix__cls-34" data-name="Path 1222" transform="translate(-249.368 -186.976)"/>
                        </g>
                        <g id="prefix__Group_426" data-name="Group 426" transform="translate(20.847 183.026)">
                            <g id="prefix__Group_425" data-name="Group 425" transform="translate(122.174)">
                                <path id="prefix__Path_1223" d="M324.369 284.443H304.51a6.465 6.465 0 0 1-6.358-7.629l9.34-51.019a6.464 6.464 0 0 1 6.358-5.3h19.859a6.464 6.464 0 0 1 6.358 7.628l-9.34 51.019a6.464 6.464 0 0 1-6.358 5.301z" class="prefix__cls-4" data-name="Path 1223" transform="translate(-298.044 -220.495)"/>
                                <path id="prefix__Path_1224" d="M326.056 285.917H306.2a6.464 6.464 0 0 1-6.358-7.628l9.34-51.019a6.464 6.464 0 0 1 6.358-5.3h19.86a6.463 6.463 0 0 1 6.358 7.628l-9.34 51.019a6.464 6.464 0 0 1-6.362 5.3z" class="prefix__cls-18" data-name="Path 1224" transform="translate(-297.265 -219.813)"/>
                                <path id="prefix__Path_1225" d="M311.877 239.952h-3.557a1.235 1.235 0 0 1-1.214-1.458l2.28-12.458a1.235 1.235 0 0 1 1.215-1.013h3.555a1.235 1.235 0 0 1 1.215 1.458l-2.281 12.458a1.235 1.235 0 0 1-1.213 1.013z" class="prefix__cls-4" data-name="Path 1225" transform="translate(-293.864 -218.402)"/>
                            </g>
                            <path id="prefix__Path_1226" d="M279.56 252.419s9.679-.325 17.089-2.59c3.184-.974 9.508-2.125 11.59-5.144 2.109-3.058 1.916-9.648 4.021-9.932 1.62-.218 4.875 4.935 4.04 8.423-.815 3.4-1.221 5.289-2.455 6.807-.414.507 13.231 1.48 21.874-.424 5.928-1.306 4.169 4.57.149 6.411 0 0 1.429 3.586-2.77 4.8 0 0 .041 4.779-3.96 5a6.226 6.226 0 0 1-4.7 4.327c-5.051 1.24-12.665 1.705-20.347 1.019-3.9-.348-21.917 2.8-21.917 2.8z" class="prefix__cls-25" data-name="Path 1226" transform="translate(-184.416 -213.907)"/>
                            <path id="prefix__Path_1227" d="M224.137 279.537c13.823 2.408 96.189-6.885 96.189-6.885l-2.052-28.817s-67.117 3.124-76.075 2.327c-29.578-2.635-35.255 30.381-18.062 33.375z" class="prefix__cls-26" data-name="Path 1227" transform="translate(-214.497 -209.704)"/>
                        </g>
                        <path id="prefix__Path_1228" d="M295.067 101.828c1.417-1.42 3-2.92 4.99-3.145s4.257 1.639 3.6 3.534a101.542 101.542 0 0 1 21.091-6.531c1.816-.351 3.779-.636 5.449.161s2.711 3.125 1.557 4.573c3.51 1.318 7.4.459 11.122.019s7.983-.244 10.52 2.518c2.353 2.561 2.4 6.418 2.322 9.9a69.68 69.68 0 0 1-1.316 14.21A35.011 35.011 0 0 1 343.8 145c1.568-5.357-1.236-11.286-5.626-14.73s-10.052-4.813-15.593-5.446a72.485 72.485 0 0 0-20 .5c-4.99.822-12.107 4.367-17.071 2.12-10.967-4.959 5.328-21.386 9.557-25.616z" class="prefix__cls-29" data-name="Path 1228" transform="translate(-162.543 -95.335)"/>
                    </g>
                </g>
            </g>
            <g id="prefix__Group_431" data-name="Group 431" transform="translate(242.732 28.718)">
                <rect id="prefix__Rectangle_363" width="87.831" height="47.911" class="prefix__cls-35" data-name="Rectangle 363" rx="6.519"/>
                <path id="prefix__Path_1229" d="M363.479 129.077v13.137l14.075-14.075z" class="prefix__cls-35" data-name="Path 1229" transform="translate(-348.765 -84.268)"/>
                <g id="prefix__Group_430" data-name="Group 430" transform="translate(14.714 18.472)">
                    <circle id="prefix__Ellipse_574" cx="5.484" cy="5.484" r="5.484" class="prefix__cls-18" data-name="Ellipse 574"/>
                    <circle id="prefix__Ellipse_575" cx="5.484" cy="5.484" r="5.484" class="prefix__cls-18" data-name="Ellipse 575" transform="translate(23.717)"/>
                    <circle id="prefix__Ellipse_576" cx="5.484" cy="5.484" r="5.484" class="prefix__cls-18" data-name="Ellipse 576" transform="translate(47.435)"/>
                </g>
            </g>
        </g>
        <g id="prefix__Group_440" data-name="Group 440" transform="translate(669.499 162.443)">
            <g id="prefix__Group_433" data-name="Group 433" transform="translate(70.387 374.618)">
                <path id="prefix__Path_1230" d="M537.281 386.808l-3.106 37.9h16.153l8.387-37.9z" class="prefix__cls-23" data-name="Path 1230" transform="translate(-503.733 -386.808)"/>
                <path id="prefix__Path_1231" d="M561.707 407.556s7.018 11.332 1.747 13.347-39.92 2.2-48.471.917 19.088-13.006 25.407-14.838 8.361 7.776 21.317.574z" class="prefix__cls-36" data-name="Path 1231" transform="translate(-513.358 -377.591)"/>
            </g>
            <g id="prefix__Group_434" data-name="Group 434" transform="translate(167.459 374.618)">
                <path id="prefix__Path_1232" d="M601.173 386.808l3.106 37.9h-16.153l-8.387-37.9z" class="prefix__cls-23" data-name="Path 1232" transform="translate(-579.74 -386.808)"/>
                <path id="prefix__Path_1233" d="M585.447 407.556s-7.018 11.332-1.747 13.347 39.92 2.2 48.471.917-19.086-13.006-25.407-14.838-8.364 7.776-21.317.574z" class="prefix__cls-36" data-name="Path 1233" transform="translate(-578.816 -377.591)"/>
            </g>
            <path id="prefix__Path_1234" d="M536.394 245.139l-7.328 227.171h34.122L570.542 321l29.232 155.65 37.152-6.192s-33.545-169.79-39.243-225.315z" class="prefix__cls-37" data-name="Path 1234" transform="translate(-435.708 -77.688)"/>
            <path id="prefix__Path_1235" fill="#194248" d="M558.816 307.184l-4.387-32.171 2.65 55.934z" data-name="Path 1235" transform="translate(-423.982 -63.877)"/>
            <path id="prefix__Line_32" fill="none" stroke="#194248" stroke-linecap="round" stroke-linejoin="round" d="M0 0L39.47 226.603" data-name="Line 32" transform="translate(151.016 167.452)"/>
            <path id="prefix__Path_1236" d="M577.778 130.63c7.278.01 15.018 3.836 17.482 10.684 1.9 5.285.474 11.5 3.135 16.45 1.965 3.653 5.877 6 7.642 9.758 3.657 7.774-3.458 17.019-1.193 25.306 2.1 7.664 11.576 12.054 12.373 19.959.51 5.047-3.046 9.881-7.614 12.085s-9.91 2.195-14.913 1.357c-12.272-2.056-23.824-8.793-36.251-8.145-5.115.268-10.473 1.761-15.2-.212-3.375-1.41-5.823-4.372-7.976-7.329-2.471-3.391-4.84-7.249-4.609-11.438.336-6.134 5.914-10.444 9.248-15.606a26.422 26.422 0 0 0 3.884-18.1c-4.519-29.544 12.094-28.63 14.218-28.676 1.94-.042 8.408-4.011 10.97-4.754a31.593 31.593 0 0 1 8.804-1.339z" class="prefix__cls-29" data-name="Path 1236" transform="translate(-434.982 -130.63)"/>
            <g id="prefix__Group_435" data-name="Group 435" transform="translate(0 76.177)">
                <path id="prefix__Path_1237" d="M529.967 229c-7.032-5.595-35.634-24.531-35.915-27.173-.528-4.976-2.271-8.9-12.931-12.306a3.02 3.02 0 0 0 .626 3.315 10.915 10.915 0 0 0 2.878 2.552s-2.84 1.048-7.021-2.287-5.925-6.209-7.707-5.533c0 0-2.071-1.922-3.068-1.628a.865.865 0 0 0-.6 1c-1.645-.273-1.363 4.482 1.528 8.375 4.156 5.6 11.476 9.865 15.771 11.488 3.223 1.218 24.316 32.414 38.467 35.8 4.074.963 11.248-10.997 7.972-13.603z" class="prefix__cls-25" data-name="Path 1237" transform="translate(-465.224 -181.25)"/>
                <path id="prefix__Path_1238" d="M535.972 196.445S504.356 218.5 501.3 223.982s-.772 20.12 13.312 10.72 36.307-26.47 36.307-26.47z" class="prefix__cls-25" data-name="Path 1238" transform="translate(-449.097 -176.379)"/>
                <path id="prefix__Path_1239" d="M544.328 182.723s-8.691 2.191-14.473 9.075c-4.856 5.782-12.68 15.074-12.68 15.074l23.985 18.623s5.85-33.877 3.168-42.772z" class="prefix__cls-40" data-name="Path 1239" transform="translate(-441.206 -182.723)"/>
            </g>
            <path id="prefix__Path_1240" d="M596.963 277.1h-61.3s.249-10.514-3.159-26.848-1.711-24.86 1.7-33.385-2.676-28.238 3.9-31.045c2.676-1.141 7.326-2.983 11.889-4.753 1.155-.439 2.3-.892 3.393-1.316 5.294-2.047 9.754-3.744 9.754-3.744h11.04s7.6 2.515 15.413 5.63c1.024.409 2.062.834 3.086 1.258v.015a78.5 78.5 0 0 1 10.251 4.987c8.29 5.118-5.967 89.201-5.967 89.201z" class="prefix__cls-41" data-name="Path 1240" transform="translate(-434.982 -109.649)"/>
            <g id="prefix__Group_436" data-name="Group 436" transform="translate(116.199 11.801)">
                <path id="prefix__Path_1241" d="M550.318 158.205l1.174 22.694.341 6.478a10.358 10.358 0 0 0 20.7-.8l-.29-11.555-.493-19.195z" class="prefix__cls-25" data-name="Path 1241" transform="translate(-542.082 -130.779)"/>
                <path id="prefix__Path_1242" d="M550.318 158.205l1.174 21.372c10.052.405 17.39-3.682 20.749-9.124l-.493-14.622z" class="prefix__cls-28" data-name="Path 1242" transform="translate(-542.082 -130.779)"/>
                <path id="prefix__Path_1243" d="M544.946 148.549a77.162 77.162 0 0 0 .294 15.58c1.2 9.461 2.255 20.3 14.723 21.319 14.853 1.211 19.81-15.865 19.81-15.865s6.9-1.606 7.753-6.316-4.295-6.149-6.1-4.646c0 0-2.041-19.921-20.449-19.921-16.249 0-16.031 9.849-16.031 9.849z" class="prefix__cls-25" data-name="Path 1243" transform="translate(-544.686 -138.7)"/>
            </g>
            <path id="prefix__Path_1244" d="M586.559 182.9v.015c-12.576 15.311-27.4 14.591-27.4 14.591-11.7-2.559-15.281-16.434-15.281-16.434 1.155-.439 2.3-.892 3.393-1.316 5.294-2.047 9.754-3.744 9.754-3.744h11.035s7.6 2.515 15.413 5.63c1.027.407 2.062.832 3.086 1.258z" class="prefix__cls-37" data-name="Path 1244" transform="translate(-428.863 -109.649)"/>
            <path id="prefix__Path_1245" d="M582.4 181.643c-12.831 13.929-23.94 12.466-23.94 12.466-11.955-4.57-12.267-14.353-12.267-14.353 5.294-2.049 9.754-3.744 9.754-3.744h11.041s7.604 2.516 15.412 5.631z" class="prefix__cls-25" data-name="Path 1245" transform="translate(-427.79 -109.648)"/>
            <path id="prefix__Path_1246" d="M551.9 135.764s1.714 14.4-7.547 19.155c.002 0-4.638-17.45 7.547-19.155z" class="prefix__cls-29" data-name="Path 1246" transform="translate(-429.04 -128.256)"/>
            <path id="prefix__Path_1247" d="M547.318 137.853s3.29 12.551 11.456 13.282 6.708 7.335 13.94 8.1c4.295.456 6.215 4.93 6.215 4.93s.624-4.443 4.524-6.026-9.203-34.788-36.135-20.286z" class="prefix__cls-29" data-name="Path 1247" transform="translate(-427.27 -128.981)"/>
            <g id="prefix__Group_437" data-name="Group 437" transform="translate(119.75 30.627)">
                <path id="prefix__Path_1248" d="M556.791 157.8a1.421 1.421 0 1 0 1.421-1.421 1.422 1.422 0 0 0-1.421 1.421z" class="prefix__cls-29" data-name="Path 1248" transform="translate(-542.64 -149.351)"/>
                <path id="prefix__Path_1249" d="M548.008 157.8a1.421 1.421 0 1 0 1.42-1.421 1.42 1.42 0 0 0-1.42 1.421z" class="prefix__cls-29" data-name="Path 1249" transform="translate(-546.701 -149.351)"/>
                <path id="prefix__Path_1250" d="M563.385 154.757a5.774 5.774 0 0 0-6.594-2.215" class="prefix__cls-42" data-name="Path 1250" transform="translate(-542.64 -151.252)"/>
                <path id="prefix__Path_1251" d="M553.537 152.807a4.537 4.537 0 0 0-6.423.284" class="prefix__cls-42" data-name="Path 1251" transform="translate(-547.114 -151.574)"/>
                <path id="prefix__Path_1252" d="M554.433 154.826s-1.534 3.922-2.841 6.366 2.558 3.524 2.558 3.524" class="prefix__cls-43" data-name="Path 1252" transform="translate(-545.169 -150.07)"/>
                <path id="prefix__Path_1253" d="M561.442 163.495a6.716 6.716 0 0 1-6.86 2.6" class="prefix__cls-43" data-name="Path 1253" transform="translate(-543.661 -146.062)"/>
                <path id="prefix__Path_1254" d="M569.782 157.748s.048-4.413 3.34-3.208" class="prefix__cls-43" data-name="Path 1254" transform="translate(-536.634 -150.299)"/>
            </g>
            <g id="prefix__Group_438" data-name="Group 438" transform="translate(34.714 101.682)">
                <path id="prefix__Path_1255" fill="#265f66" d="M553.314 236.435h-56.15a2.011 2.011 0 0 1-2.011-2.011 2.011 2.011 0 0 1 2.011-2.011h56.151a2.011 2.011 0 0 1 2.011 2.011 2.011 2.011 0 0 1-2.012 2.011z" data-name="Path 1255" transform="translate(-486.101 -185.254)"/>
                <path id="prefix__Path_1256" d="M559.162 247.324H502.5l-10.789-43.5a2.953 2.953 0 0 1 2.866-3.665h50.579a2.953 2.953 0 0 1 2.866 2.243z" class="prefix__cls-4" data-name="Path 1256" transform="translate(-487.735 -200.164)"/>
                <path id="prefix__Path_1257" d="M556.507 247.324h-56.666l-10.791-43.5a2.954 2.954 0 0 1 2.868-3.665H542.5a2.953 2.953 0 0 1 2.866 2.243z" class="prefix__cls-18" data-name="Path 1257" transform="translate(-488.963 -200.164)"/>
                <rect id="prefix__Rectangle_364" width="46.274" height="4.021" fill="#2c7277" data-name="Rectangle 364" rx="1.291" transform="translate(66.3 47.16)"/>
                <path id="prefix__Path_1258" d="M516.036 215.548c1.037 2.7.177 5.535-1.92 6.341s-4.637-.725-5.672-3.422-.177-5.535 1.92-6.341 4.636.727 5.672 3.422z" class="prefix__cls-4" data-name="Path 1258" transform="translate(-480.159 -194.733)"/>
            </g>
            <path id="prefix__Path_1259" d="M579.275 247.516l-3.682-47.766 7.08 20.107z" class="prefix__cls-40" data-name="Path 1259" transform="translate(-414.197 -98.673)"/>
            <g id="prefix__Group_439" data-name="Group 439" transform="translate(110.207 78.248)">
                <path id="prefix__Path_1260" d="M578.441 204.236s8.748 47 10.912 54.7c1.4 4.969 11.608 8.36 14.813 1.785.709-1.454.542-3.865.464-6.323-.491-15.2-11.125-53.861-11.125-53.861z" class="prefix__cls-25" data-name="Path 1260" transform="translate(-523.088 -176.559)"/>
                <path id="prefix__Path_1261" d="M581.909 184.139s5.222 2.679 9.609 10.235 10.448 20.9 10.054 24.129c-2.28 6.219-20.291 12.651-20.291 12.651s-12.033-39.554.628-47.015z" class="prefix__cls-41" data-name="Path 1261" transform="translate(-524.163 -184.139)"/>
                <path id="prefix__Path_1262" d="M608.446 236.8s-27.776-.61-33.031-3.748c-7.138-4.263-8.793-2.419-12.926-3.442-6.642-1.645-5.911-.3-5.911-.3s.306 3.839 5.437 4.326c2.582.246 6.468 1.338 5.642 1.979 0 0-20.591 2.142-24.734 2.508s-2.125 3.556 1.043 4.288a5.055 5.055 0 0 0 4.935 1.645s-.67 1.341 7.252 1.341 15.887-4.2 19.908-2.376 25.743 10.241 39.514 8.29c6.582-.932 6.63-4.092 6.63-7.436 0-5.762-4.268-6.502-13.759-7.075z" class="prefix__cls-25" data-name="Path 1262" transform="translate(-540.588 -163.497)"/>
            </g>
        </g>
        <g id="prefix__Group_451" data-name="Group 451" transform="translate(162.273 146.993)">
            <g id="prefix__Group_441" data-name="Group 441" transform="translate(78.369 390.068)">
                <path id="prefix__Path_1263" d="M201.009 386.808l-9.164 37.9h-16.152l3.883-37.9z" class="prefix__cls-23" data-name="Path 1263" transform="translate(-170.228 -386.808)"/>
                <path id="prefix__Path_1264" d="M175.666 407.556s-7.019 11.332-1.749 13.347 39.922 2.2 48.472.917-19.088-13.006-25.408-14.838-8.36 7.776-21.315.574z" class="prefix__cls-37" data-name="Path 1264" transform="translate(-171.956 -377.591)"/>
            </g>
            <g id="prefix__Group_442" data-name="Group 442" transform="translate(31.108 390.068)">
                <path id="prefix__Path_1265" d="M165.07 386.808l-5.543 37.9h-16.153l.263-37.9z" class="prefix__cls-23" data-name="Path 1265" transform="translate(-137.909 -386.808)"/>
                <path id="prefix__Path_1266" fill="#29686d" d="M143.346 407.556s-7.018 11.332-1.747 13.347 39.92 2.2 48.471.917-19.088-13.006-25.407-14.838-8.363 7.776-21.317.574z" data-name="Path 1266" transform="translate(-139.637 -377.591)"/>
            </g>
            <g id="prefix__Group_443" data-name="Group 443" transform="translate(31.109 200.656)">
                <path id="prefix__Path_1267" fill="#87bcca" d="M139.637 263.452l1.195 202.188h25.642l18.12-148.55 20.647 60.276-15.456 88.274h27.894s24.526-76.284 23.527-91.27S211.9 257.281 211.9 257.281z" data-name="Path 1267" transform="translate(-139.637 -257.281)"/>
                <path id="prefix__Path_1268" fill="#6cabbc" d="M170.38 306.908l2.716-27.6 3.124 44.651z" data-name="Path 1268" transform="translate(-125.423 -247.098)"/>
                <path id="prefix__Line_33" fill="none" stroke="#6cabbc" stroke-miterlimit="10" d="M1.486 0L0 204.633" data-name="Line 33" transform="translate(12.998 3.727)"/>
            </g>
            <path id="prefix__Path_1269" d="M207.372 198.181s16.573 31.339 16.938 40.956-10.236 7.478-15.72-1.2-14.258-33.312-14.258-33.312z" class="prefix__cls-25" data-name="Path 1269" transform="translate(-83.241 -83.949)"/>
            <g id="prefix__Group_444" data-name="Group 444" transform="translate(96.273 77.858)">
                <path id="prefix__Path_1270" d="M215.158 212.3s-4.753 8.452-16.144 13.614c-2.354 1.068-4.343-1.755-5.82-5.1a51.955 51.955 0 0 1-2.705-8.511s-13.056-40.4-1.547-38.952c0 0 9.795.683 16.989 14.868a174.947 174.947 0 0 1 7.282 18.235c.702 2.012 1.36 3.986 1.945 5.846z" class="prefix__cls-40" data-name="Path 1270" transform="translate(-184.199 -173.307)"/>
                <path id="prefix__Path_1271" d="M212.314 201.819s-4.753 8.452-16.144 13.614c-2.354 1.068-4.343-1.755-5.82-5.1a62.011 62.011 0 0 0 20.019-14.36c.702 2.015 1.36 3.989 1.945 5.846z" class="prefix__cls-26" data-name="Path 1271" transform="translate(-181.355 -162.829)"/>
            </g>
            <path id="prefix__Path_1272" d="M213.908 301.1c-7.237 8.212-54.89 7.007-72.878 3.948-3.16-.537-6.281-1.752-1.293-12.75 1.869-4.1 1.06-14.688.744-29.222-.63-28.73-9.154-76.4 1.364-81.87 6.3-3.283 19.687-7.614 29.412-10.57.581-.164 1.148-.341 1.7-.5 5.671-1.692 9.725-2.816 9.725-2.816a115.17 115.17 0 0 1 14.245 3.511c.518.151 1.06.316 1.616.48 2.489.758 5.254 1.642 8.335 2.689 5.978 2.033 10.361 3.28 11.441 5.26 2.847 5.218 1.753 14.471 1.936 27.815.233 16.73.045 86.768-6.347 94.025z" class="prefix__cls-41" data-name="Path 1272" transform="translate(-109.921 -98.219)"/>
            <path id="prefix__Path_1273" d="M137.728 218.481l10.281-25.073-7.49 64.478z" class="prefix__cls-40" data-name="Path 1273" transform="translate(-109.411 -86.155)"/>
            <path id="prefix__Path_1274" d="M187.6 171.3a13.39 13.39 0 0 1-4.217 8.941 13.66 13.66 0 0 1-23.071-9.61c.581-.164 1.148-.341 1.7-.5 5.671-1.692 9.725-2.816 9.725-2.816a115.17 115.17 0 0 1 14.245 3.511c.518.15 1.059.315 1.618.474z" class="prefix__cls-26" data-name="Path 1274" transform="translate(-98.971 -98.219)"/>
            <path id="prefix__Path_1275" d="M161.426 134.447s-6.105.564-8.534 10.871c-2.486 10.542 10.369 27.863 15.224 26.862 0 0 6.391-33.214-6.69-37.733z" class="prefix__cls-29" data-name="Path 1275" transform="translate(-102.546 -113.415)"/>
            <path id="prefix__Path_1276" d="M188.557 143.733a42.463 42.463 0 0 1-2.492 4.2 7.678 7.678 0 0 0-1.293 4.624c-.159-2.628-1.907-4.842-3.4-7.006s-2.866-4.792-2.154-7.328c.686-2.435 5.087-6.262 7.756-4.687 2.974 1.757 2.749 7.548 1.583 10.197z" class="prefix__cls-29" data-name="Path 1276" transform="translate(-90.32 -114.007)"/>
            <g id="prefix__Group_445" data-name="Group 445" transform="translate(51.65 20.362)">
                <path id="prefix__Path_1277" d="M184.87 150.4l-1.17 22.689-.341 6.478a10.358 10.358 0 0 1-20.7-.8l.291-11.555.491-19.195z" class="prefix__cls-23" data-name="Path 1277" transform="translate(-149.537 -127.501)"/>
                <path id="prefix__Path_1278" d="M184.777 153.495l-1.177 21.372c-10.052.405-17.389-3.682-20.748-9.125l.491-14.622z" class="prefix__cls-28" data-name="Path 1278" transform="translate(-149.444 -126.069)"/>
                <path id="prefix__Path_1279" d="M196.994 143.838a77.29 77.29 0 0 1-.294 15.58c-1.206 9.461-.771 20.578-14.723 21.318-14.882.79-19.81-15.863-19.81-15.863s-7.905-1.473-8.446-6.814 4.987-5.65 6.788-4.149c0 0 2.043-19.92 20.451-19.92 16.252-.001 16.034 9.848 16.034 9.848z" class="prefix__cls-25" data-name="Path 1279" transform="translate(-153.684 -133.989)"/>
            </g>
            <g id="prefix__Group_446" data-name="Group 446" transform="translate(54.759 36.643)">
                <path id="prefix__Path_1280" d="M172.587 150.961a1.474 1.474 0 1 1-1.474-1.474 1.475 1.475 0 0 1 1.474 1.474z" class="prefix__cls-29" data-name="Path 1280" transform="translate(-150.416 -141.104)"/>
                <path id="prefix__Path_1281" d="M182.325 150.448a1.475 1.475 0 1 1-1.475-1.474 1.475 1.475 0 0 1 1.475 1.474z" class="prefix__cls-29" data-name="Path 1281" transform="translate(-145.915 -141.342)"/>
                <path id="prefix__Path_1282" d="M166.669 148.427a5.993 5.993 0 0 1 6.842-2.3" class="prefix__cls-42" data-name="Path 1282" transform="translate(-150.79 -144.788)"/>
                <path id="prefix__Path_1283" d="M176.834 146.4a4.707 4.707 0 0 1 6.665.294" class="prefix__cls-42" data-name="Path 1283" transform="translate(-146.09 -145.122)"/>
                <path id="prefix__Path_1284" d="M174.817 148.5s1.592 4.07 2.95 6.605-2.654 3.657-2.654 3.657" class="prefix__cls-43" data-name="Path 1284" transform="translate(-147.022 -143.561)"/>
                <path id="prefix__Path_1285" d="M171.164 158.629a6.973 6.973 0 0 0 7.513 1.239" class="prefix__cls-43" data-name="Path 1285" transform="translate(-148.711 -138.878)"/>
                <path id="prefix__Path_1286" d="M159.276 152.743s-.05-4.58-3.466-3.33" class="prefix__cls-43" data-name="Path 1286" transform="translate(-155.81 -143.238)"/>
            </g>
            <path id="prefix__Path_1287" d="M163.569 137.063s8.366 8.524 3.787 11.786a14.55 14.55 0 0 0-5.893 8.77s.105-1.807-2.157-5.131-7.206-15.109 4.263-15.425z" class="prefix__cls-29" data-name="Path 1287" transform="translate(-100.831 -112.205)"/>
            <path id="prefix__Path_1288" d="M159.871 145.491c-2.8-4.35-.749-12.566 8.019-13.935s14.79.532 18.064-5.367 13.176-9.711 16.042-1.015-3.821 21.8-12.263 21.407-8.055-1.451-13.405 1.707-11.883 4.297-16.457-2.797z" class="prefix__cls-29" data-name="Path 1288" transform="translate(-99.716 -120.064)"/>
            <path id="prefix__Path_1289" d="M135.311 199.333s-16.573 31.339-16.938 40.957 10.236 7.477 15.72-1.2 14.258-33.313 14.258-33.313z" class="prefix__cls-25" data-name="Path 1289" transform="translate(-118.364 -83.416)"/>
            <g id="prefix__Group_447" data-name="Group 447" transform="translate(78.781 113.586)">
                <path id="prefix__Path_1290" d="M228.549 227.705s-24.706-18.275-26.1-19.313c-2.389-1.783-5.868-4.367-7.125-5.247-1.987-1.394-13.62-3.406-15.235-3.148a66.773 66.773 0 0 0-7.376 1.5c-1.3.484.342 2.153 1.628 2.942a43.268 43.268 0 0 0 11.829 4.628 17.311 17.311 0 0 1 6.888 3.222c1.5 1.082 27.564 27.647 28.546 28.3z" class="prefix__cls-25" data-name="Path 1290" transform="translate(-172.237 -196.705)"/>
                <path id="prefix__Path_1291" d="M193.4 206.314s-9.306-8.7-10.688-8.574-.4 2.088 3.258 5.066c1.236 1 2.572 2.6 3.684 3.125a4.951 4.951 0 0 0 3.746.383z" class="prefix__cls-25" data-name="Path 1291" transform="translate(-167.673 -197.739)"/>
            </g>
            <g id="prefix__Group_449" data-name="Group 449" transform="translate(2.338 117.53)">
                <g id="prefix__Group_448" data-name="Group 448" transform="translate(57.703)">
                    <path id="prefix__Path_1292" d="M196.493 237.206l-33.912 4.057a2.821 2.821 0 0 1-3.067-3.511l8.109-31.148a2.82 2.82 0 0 1 2.4-2.09l33.912-4.058a2.823 2.823 0 0 1 3.065 3.513l-8.109 31.148a2.82 2.82 0 0 1-2.398 2.089z" class="prefix__cls-4" data-name="Path 1292" transform="translate(-159.423 -200.436)"/>
                    <path id="prefix__Path_1293" d="M197.523 237.911l-33.912 4.057a2.822 2.822 0 0 1-3.067-3.513l8.109-31.146a2.822 2.822 0 0 1 2.4-2.091l33.912-4.057a2.822 2.822 0 0 1 3.066 3.513l-8.109 31.146a2.824 2.824 0 0 1-2.399 2.091z" class="prefix__cls-18" data-name="Path 1293" transform="translate(-158.946 -200.11)"/>
                    <path id="prefix__Path_1294" d="M169.568 212.065l1.591-6.108a.9.9 0 0 0-.981-1.123l-1.632.194a.9.9 0 0 0-.766.67l-1.59 6.108a.9.9 0 0 0 .981 1.123l1.63-.194a.9.9 0 0 0 .767-.67z" class="prefix__cls-4" data-name="Path 1294" transform="translate(-156.307 -198.406)"/>
                </g>
                <path id="prefix__Path_1295" d="M123.97 224.135c10.359.4 42.712-.262 47-1.72 1.84-.626 6.37-1.576 7.53-3.377 1.176-1.824 2.158-4.609 3.382-4.814.942-.156.722 2.859.436 3.948a10.385 10.385 0 0 1-1.572 3.907c-.232.3 7.733 1.445 12.743.175 3.436-.87 2.8 1.879.484 3.027a2.36 2.36 0 0 1-1.5 3.186s.417 2.66-1.914 2.859a4.156 4.156 0 0 1-2.993 2.407c-2.926.816-8 .812-11.858.967-2.284.092-46.365 6.972-54.163 5.022-3.283-.816-.945-15.722 2.425-15.587z" class="prefix__cls-25" data-name="Path 1295" transform="translate(-119.963 -194.064)"/>
            </g>
            <g id="prefix__Group_450" data-name="Group 450" transform="translate(7.39 82.179)">
                <path id="prefix__Path_1296" d="M152.083 214.207s-.76 2.881-1.886 5.849c-1.258 3.276-2.969 6.639-4.65 6.332 0 0-22.871-7.224-22.111-9.564a57.122 57.122 0 0 1 2.764-6.524c3.787-7.867 9.8-18.133 12.225-22.11 8.277-13.585 11.669-11.86 11.669-11.86 11.597-.553 1.989 37.877 1.989 37.877z" class="prefix__cls-41" data-name="Path 1296" transform="translate(-123.417 -176.262)"/>
                <path id="prefix__Path_1297" d="M150.2 209.294c-1.258 3.276-2.969 6.639-4.65 6.332 0 0-22.871-7.224-22.111-9.564a57.122 57.122 0 0 1 2.764-6.522c4.208 1.989 15.571 7.209 23.997 9.754z" class="prefix__cls-26" data-name="Path 1297" transform="translate(-123.417 -165.499)"/>
            </g>
            <path id="prefix__Path_1298" d="M146.692 255.779s38.021-6.094 58.493-18.279c0 0-22.91 22.91-58.493 18.279z" class="prefix__cls-40" data-name="Path 1298" transform="translate(-105.266 -65.77)"/>
        </g>
        <g id="prefix__Group_453" data-name="Group 453" transform="translate(570.212 416.53)">
            <path id="prefix__Rectangle_365" d="M6.021 0H110.45a6.02 6.02 0 0 1 6.02 6.02v53.329a6.02 6.02 0 0 1-6.02 6.02H6.021A6.021 6.021 0 0 1 0 59.349V6.021A6.021 6.021 0 0 1 6.021 0z" class="prefix__cls-41" data-name="Rectangle 365"/>
            <g id="prefix__Group_452" data-name="Group 452" transform="translate(7.799 14.972)">
                <path id="prefix__Path_1299" d="M404.495 348.133c9.208 0 9.208-10.968 18.418-10.968s9.213-14.623 18.425-14.623 9.21 5.607 18.42 5.607 9.216-13.527 18.431-13.527 9.216 21.226 18.433 21.226" class="prefix__cls-50" data-name="Path 1299" transform="translate(-401.813 -314.622)"/>
                <path id="prefix__Path_1300" d="M408.023 338.385a2.681 2.681 0 1 0-2.68 2.682 2.681 2.681 0 0 0 2.68-2.682z" class="prefix__cls-17" data-name="Path 1300" transform="translate(-402.661 -304.875)"/>
                <path id="prefix__Path_1301" d="M471.023 329.985a2.681 2.681 0 1 0-2.68 2.68 2.681 2.681 0 0 0 2.68-2.68z" class="prefix__cls-17" data-name="Path 1301" transform="translate(-373.534 -308.759)"/>
            </g>
        </g>
        <g id="prefix__Group_458" data-name="Group 458" transform="translate(658.143 114.868)">
            <rect id="prefix__Rectangle_366" width="122.697" height="54.09" class="prefix__cls-41" data-name="Rectangle 366" rx="8.187" transform="rotate(180 61.349 27.045)"/>
            <path id="prefix__Path_1302" d="M150.067 111.377v13.137l-14.075-14.075z" class="prefix__cls-41" data-name="Path 1302" transform="translate(-42.084 -60.39)"/>
            <g id="prefix__Group_457" data-name="Group 457" transform="translate(11.345 13.275)">
                <g id="prefix__Group_454" data-name="Group 454">
                    <path id="prefix__Line_34" d="M0 0L27.377 0" class="prefix__cls-51" data-name="Line 34"/>
                    <path id="prefix__Line_35" d="M0 0L62.88 0" class="prefix__cls-51" data-name="Line 35" transform="translate(37.126)"/>
                </g>
                <g id="prefix__Group_455" data-name="Group 455" transform="translate(0 13.77)">
                    <path id="prefix__Line_36" d="M0 0L51.037 0" class="prefix__cls-51" data-name="Line 36"/>
                    <path id="prefix__Line_37" d="M0 0L15.111 0" class="prefix__cls-51" data-name="Line 37" transform="translate(58.836)"/>
                    <path id="prefix__Line_38" d="M0 0L17.962 0" class="prefix__cls-51" data-name="Line 38" transform="translate(82.044)"/>
                </g>
                <g id="prefix__Group_456" data-name="Group 456" transform="translate(0 27.541)">
                    <path id="prefix__Line_39" d="M0 0L11.554 0" class="prefix__cls-51" data-name="Line 39"/>
                    <path id="prefix__Line_40" d="M0 0L41.677 0" class="prefix__cls-51" data-name="Line 40" transform="translate(18.622)"/>
                </g>
            </g>
        </g>
        <g id="prefix__Group_459" data-name="Group 459" transform="translate(686.9 61.82)">
            <rect id="prefix__Rectangle_367" width="42.391" height="42.391" class="prefix__cls-41" data-name="Rectangle 367" rx="5.829"/>
            <path id="prefix__Path_1303" d="M510.6 78.588l-.636-2.78a1.008 1.008 0 0 0-1.208-.759l-1.636.373a1.02 1.02 0 0 1-1.089-.471 11.671 11.671 0 0 0-2.343-2.683 1.025 1.025 0 0 1-.285-1.228l.812-1.686a1.008 1.008 0 0 0-.471-1.347l-2.569-1.237a1.008 1.008 0 0 0-1.347.471l-.883 1.835a1.026 1.026 0 0 1-1.087.554 11.442 11.442 0 0 0-3.344 0 1.024 1.024 0 0 1-1.087-.554l-.883-1.835a1.01 1.01 0 0 0-1.348-.471l-2.568 1.237a1.009 1.009 0 0 0-.472 1.347l.812 1.686a1.022 1.022 0 0 1-.284 1.228 11.675 11.675 0 0 0-2.344 2.683 1.02 1.02 0 0 1-1.089.471l-1.635-.373a1.009 1.009 0 0 0-1.209.759l-.635 2.78a1.009 1.009 0 0 0 .759 1.209l2.075.474c-.022.285-.044.57-.044.861a11.553 11.553 0 0 0 .7 3.969 1.016 1.016 0 0 1-.306 1.154l-.806.643a1.01 1.01 0 0 0-.161 1.418l1.778 2.23a1.011 1.011 0 0 0 1.42.159l.56-.447a1.027 1.027 0 0 1 1.28.018 11.555 11.555 0 0 0 3.96 2.03 1.024 1.024 0 0 1 .762.975v.585a1.009 1.009 0 0 0 1.009 1.009h2.852a1.009 1.009 0 0 0 1.01-1.009v-.585a1.022 1.022 0 0 1 .762-.975 11.568 11.568 0 0 0 3.96-2.03 1.025 1.025 0 0 1 1.278-.018l.562.447a1.009 1.009 0 0 0 1.418-.159l1.778-2.23a1.009 1.009 0 0 0-.159-1.418l-.806-.643a1.014 1.014 0 0 1-.306-1.154 11.553 11.553 0 0 0 .7-3.969c0-.291-.023-.576-.044-.861l2.074-.474a1.01 1.01 0 0 0 .763-1.209zm-14.416 9.774a7.23 7.23 0 1 1 7.231-7.23 7.231 7.231 0 0 1-7.232 7.231z" class="prefix__cls-17" data-name="Path 1303" transform="translate(-474.988 -59.578)"/>
        </g>
        <g id="prefix__Group_464" data-name="Group 464" transform="translate(883.082 217.636)">
            <circle id="prefix__Ellipse_577" cx="29.315" cy="29.315" r="29.315" class="prefix__cls-35" data-name="Ellipse 577" transform="rotate(-80.783 34.011 28.937)"/>
            <g id="prefix__Group_463" data-name="Group 463" transform="translate(13.806 13.806)">
                <circle id="prefix__Ellipse_578" cx="16.481" cy="16.481" r="16.481" class="prefix__cls-50" data-name="Ellipse 578" transform="rotate(-76.717 20.267 16.04)"/>
                <path id="prefix__Path_1304" d="M636.079 184v10.786l-5.692 5.692" class="prefix__cls-50" data-name="Path 1304" transform="translate(-616.253 -174.956)"/>
                <g id="prefix__Group_462" data-name="Group 462" transform="translate(3.346 3.346)">
                    <g id="prefix__Group_460" data-name="Group 460" transform="translate(16.481)">
                        <path id="prefix__Line_41" d="M0 0L0 1.574" class="prefix__cls-50" data-name="Line 41"/>
                        <path id="prefix__Line_42" d="M0 0L0 1.574" class="prefix__cls-50" data-name="Line 42" transform="translate(0 31.387)"/>
                    </g>
                    <g id="prefix__Group_461" data-name="Group 461" transform="translate(0 16.481)">
                        <path id="prefix__Line_43" d="M1.574 0L0 0" class="prefix__cls-50" data-name="Line 43" transform="translate(31.387)"/>
                        <path id="prefix__Line_44" d="M1.574 0L0 0" class="prefix__cls-50" data-name="Line 44"/>
                    </g>
                </g>
            </g>
        </g>
        <path id="prefix__Line_45" d="M0 0L910.258 0" class="prefix__cls-14" data-name="Line 45" transform="translate(74.433 582.103)"/>
    </g>
</svg>
