<svg xmlns="http://www.w3.org/2000/svg" width="477.193" height="357.382" viewBox="0 0 477.193 357.382">
    <path id="prefix__Path_346" d="M520.33 247.4c-16.58 26.821-265.065 82.362-265.065 82.362-2.208-3.46-75.97-10.514-103.667-30.124-18.707-13.241-29.342-40.589-32.838-69.832s-.621-60.535 2.977-91.343c2.561-21.9 6.026-45.336 17.523-63.15 12.163-18.842 31.336-27.268 48-25.48s31.14 12.343 43.607 25.248c15.587 16.128 29.646 36.727 49.82 41.93 13.741 3.545 28.747-.559 43.36-2.879 24.4-3.88 48.456-2.767 72.345-1.31 22.869 1.395 45.877 3.129 67.186 11.175 15.078 5.7 26.651 17.563 40.723 25.279 9.173 5.029 19.521 5.668 28.068 12.373 10.527 8.261 19.637 23.508 15.422 42.784-4.019 18.337-18.664 28.73-27.461 42.967z" data-name="Path 346" transform="rotate(-169 285.274 188.73)" style="fill:rgba(167,214,118,.08)"/>
</svg>
