<svg xmlns="http://www.w3.org/2000/svg" id="prefix__noun_Volunteer_636903_2_" width="18.271" height="24" data-name="noun_Volunteer_636903 (2)" viewBox="0 0 18.271 24">
    <defs>
        <style>
            .prefix__cls-1{fill:#5e5e5e}
        </style>
    </defs>
    <g id="prefix__Group_441" data-name="Group 441">
        <path id="prefix__Path_1168" d="M43.562 26.824a3.462 3.462 0 1 0 0-6.924 3.5 3.5 0 0 0-3.462 3.462 3.459 3.459 0 0 0 3.462 3.462z" class="prefix__cls-1" data-name="Path 1168" transform="translate(-37.104 -19.9)"/>
        <path id="prefix__Path_1169" d="M39.855 57.151a3.459 3.459 0 0 1 0-3.229l.033-.033a3.439 3.439 0 0 1 2.9-1.564 2.673 2.673 0 0 1 1.465.5c-.836-4.525-4.065-7.225-6.529-7.225-2.8 0-6.624 3.562-6.624 9.42a2.385 2.385 0 0 0 .732 1.8c1.032.965 3.462 1.431 5.925 1.431a16 16 0 0 0 2.563-.2l-.033-.233a2.081 2.081 0 0 1-.432-.667z" class="prefix__cls-1" data-name="Path 1169" transform="translate(-31.1 -37.045)"/>
        <path id="prefix__Path_1170" d="M68.355 72.762a2.389 2.389 0 0 0-.033-2.363 2.531 2.531 0 0 0-2.2-1.2 3.137 3.137 0 0 0-1.831 1.065 2.926 2.926 0 0 0-1.831-1.032A2.606 2.606 0 0 0 60.3 70.4a2.543 2.543 0 0 0 0 2.4 6.444 6.444 0 0 0 1.4 1.731c.566.566 2.13 1.831 2.4 2.064l.233.2.2-.166c.333-.3 1.864-1.564 2.4-2.13a5.616 5.616 0 0 0 1.422-1.737z" class="prefix__cls-1" data-name="Path 1170" transform="translate(-50.38 -52.789)"/>
    </g>
</svg>
