<svg xmlns="http://www.w3.org/2000/svg" width="343.537" height="171.896" viewBox="0 0 343.537 171.896">
    <defs>
        <style>
            .prefix__cls-1{fill:#3f3d56}.prefix__cls-8{fill:#a7d676}.prefix__cls-5{fill:#2f2e41}.prefix__cls-6{fill:#ffb9b9}
        </style>
    </defs>
    <g id="prefix__Group_350" data-name="Group 350" transform="translate(4265 20687)">
        <path id="prefix__Path_1101" d="M454.033 280.655h-84.24v-1.736H331.6v1.736h-84.59a5.7 5.7 0 0 0-5.7 5.7V401.7a5.7 5.7 0 0 0 5.7 5.7h207.023a5.7 5.7 0 0 0 5.7-5.7V286.353a5.7 5.7 0 0 0-5.7-5.7z" class="prefix__cls-1" data-name="Path 1101" transform="translate(-4450.682 -20935.363)"/>
        <path id="prefix__Rectangle_338" d="M0 0H203.14V114.592H0z" data-name="Rectangle 338" transform="translate(-4201.73 -20644.643)" style="opacity:.1;fill:#a7d676"/>
        <circle id="prefix__Ellipse_480" cx="2.083" cy="2.083" r="2.083" data-name="Ellipse 480" transform="translate(-4102.417 -20651.932)" style="fill:#6c63ff"/>
        <path id="prefix__Path_1102" d="M447.3 659.285h-19.821v-1.428a.283.283 0 0 0-.283-.283h-6.8a.283.283 0 0 0-.283.283v1.428h-4.248v-1.428a.283.283 0 0 0-.283-.283h-6.8a.283.283 0 0 0-.283.283v1.428h-4.248v-1.428a.283.283 0 0 0-.283-.283h-6.8a.283.283 0 0 0-.283.283v1.428h-4.248v-1.428a.283.283 0 0 0-.283-.283h-6.8a.283.283 0 0 0-.283.283v1.428h-4.249v-1.428a.283.283 0 0 0-.283-.283h-6.8a.283.283 0 0 0-.283.283v1.428h-4.249v-1.428a.283.283 0 0 0-.283-.283h-6.8a.283.283 0 0 0-.283.283v1.428h-4.249v-1.428a.283.283 0 0 0-.283-.283H304.28a.283.283 0 0 0-.283.283v1.428h-4.248v-1.428a.283.283 0 0 0-.283-.283h-6.8a.283.283 0 0 0-.283.283v1.428h-4.248v-1.428a.283.283 0 0 0-.283-.283h-6.8a.283.283 0 0 0-.283.283v1.428h-4.248v-1.428a.283.283 0 0 0-.283-.283h-6.8a.283.283 0 0 0-.283.283v1.428h-4.248v-1.428a.283.283 0 0 0-.283-.283h-6.8a.283.283 0 0 0-.283.283v1.428H253.3v-1.428a.283.283 0 0 0-.283-.283h-6.8a.283.283 0 0 0-.283.283v1.428h-4.248v-1.428a.283.283 0 0 0-.283-.283h-6.8a.283.283 0 0 0-.283.283v1.428H221.3a6.8 6.8 0 0 0-6.8 6.8v3.073a6.8 6.8 0 0 0 6.8 6.8h226a6.8 6.8 0 0 0 6.8-6.8v-3.073a6.8 6.8 0 0 0-6.8-6.8z" class="prefix__cls-1" data-name="Path 1102" transform="translate(-4432.551 -21191.418)"/>
        <path id="prefix__Path_1117" d="M0 0h82.242v86.451H0z" data-name="Path 1117" transform="translate(-4141.246 -20631.633)" style="fill:#d0cde1"/>
        <path id="prefix__Path_1103" d="M537.929 340.868s-7.013-2.5-11.521 7.514a197.561 197.561 0 0 1-11.521 21.038l4.007 1s1-7.013 3.506-8.014l-1 9.016s30.054 10.519 43.579-1l-.5-3.506s2 .5 2 3.506l1.5-1.5s-1.5-3.005-6.011-7.013c-2.959-2.63-3.976-7.634-4.325-10.763a13.024 13.024 0 0 0-3-7.092c-2.99-3.475-8.45-7.166-16.714-3.186z" class="prefix__cls-5" data-name="Path 1103" transform="translate(-4635.677 -20976.088)"/>
        <path id="prefix__Path_1104" d="M456.311 278.164l-2.911-30.436s-5.828-16.513 2.914-15.218 3.562 13.923 3.562 13.923l4.857 31.731z" class="prefix__cls-6" data-name="Path 1104" transform="translate(-4592.809 -20903.934)"/>
        <circle id="prefix__Ellipse_481" cx="11.656" cy="11.656" r="11.656" class="prefix__cls-6" data-name="Ellipse 481" transform="translate(-4105.739 -20626.418)"/>
        <path id="prefix__Path_1105" d="M544.066 423.661s-.648 13.275-3.885 14.247-12.3 11.656-8.095 14.894 28.493.971 28.493.971l-2.266-16.837s-5.181-3.562-.971-9.714z" class="prefix__cls-6" data-name="Path 1105" transform="translate(-4646.567 -21033.24)"/>
        <path id="prefix__Path_1106" d="M550.822 506.291h-45.783c.165-2.93.58-7.068 1.111-11.617.162-1.379.334-2.8.512-4.235 1.57-12.644 3.665-26.528 3.665-26.528l.55-1.273 5.6-12.974.058.023 7.389 2.891.262 1.243 2 9.442 12.973-10.463 11.964-1.872.81-.126 1.457 13.761s-.065 3.076-.133 7.457c-.078 5.035-.162 11.8-.155 17.588 0 2.768.026 5.317.081 7.35.045 1.713.113 3.063.207 3.869.217 1.831-.936 3.738-2.568 5.464z" class="prefix__cls-1" data-name="Path 1106" transform="translate(-4629.018 -21050.824)"/>
        <path id="prefix__Path_1107" d="M415.069 204.514l-.324-1.943-9.066-11.009-5.179-18.455-12.628 4.857 9.066 22.341 12.951 16.513z" class="prefix__cls-1" data-name="Path 1107" transform="translate(-4527.284 -20804.057)"/>
        <path id="prefix__Path_1108" d="M549.031 377.444s4.007-5.51 7.513-6.512 4.007-6.011 4.007-6.011 9.016 10.018 14.526 10.519.5-12.022.5-12.022l-10.018-2.5-9.517 1-7.514 5.009z" class="prefix__cls-5" data-name="Path 1108" transform="translate(-4658.427 -20990.811)"/>
        <path id="prefix__Path_1109" d="M553.694 574.311l-30.977 1.229s-17.07 3.907-14.786-4.63 14.238-1.951 14.238-1.951l32.078-1.207z" class="prefix__cls-6" data-name="Path 1109" transform="translate(-4630.831 -21129.855)"/>
        <path id="prefix__Path_1110" d="M606.413 454.712l2.914-2.266s4.857-2.59 5.828 6.476 8.095 39.178.971 39.5-25.255.648-25.255.648l1.943-10.037 14.894-.971z" class="prefix__cls-1" data-name="Path 1110" transform="translate(-4687.058 -21052.475)"/>
        <path id="prefix__Path_1111" d="M540.589 318.607l-.971 18.456-14.247 2.914 12.951-5.181z" data-name="Path 1111" transform="translate(-4620.264 -20902.445)" style="opacity:.15"/>
        <path id="prefix__Rectangle_340" d="M0 0H79.004V20.722H0z" class="prefix__cls-8" data-name="Rectangle 340" transform="translate(-4172.106 -20687)"/>
        <path id="prefix__Rectangle_341" d="M0 0H343.537V0.648H0z" class="prefix__cls-1" data-name="Rectangle 341" transform="translate(-4265 -20515.752)"/>
        <path id="prefix__Path_1112" d="M1002.48 631.57c4.655 4.995 4.9 12.336 4.9 12.336s-7.306-.757-11.961-5.752-4.9-12.336-4.9-12.336 7.305.757 11.961 5.752z" data-name="Path 1112" transform="translate(-4957.306 -21169.943)" style="fill:#5ba80c"/>
        <path id="prefix__Path_1113" d="M1046.946 642.681c-4.995 4.655-12.336 4.9-12.336 4.9s.757-7.306 5.752-11.961 12.336-4.9 12.336-4.9-.756 7.306-5.752 11.961z" class="prefix__cls-8" data-name="Path 1113" transform="translate(-4987.121 -21173.258)"/>
        <path id="prefix__Path_1114" d="M1018.234 688.426h-18.372a1.879 1.879 0 0 1-1.69-1.057l-4-8.222a1.879 1.879 0 0 1 1.69-2.7h26.371a1.879 1.879 0 0 1 1.69 2.7l-4 8.222a1.879 1.879 0 0 1-1.689 1.057z" class="prefix__cls-1" data-name="Path 1114" transform="translate(-4959.648 -21204.178)"/>
        <path id="prefix__Path_1115" d="M105.477 631.57c4.655 4.995 4.9 12.336 4.9 12.336s-7.306-.757-11.961-5.752-4.9-12.336-4.9-12.336 7.306.757 11.961 5.752z" class="prefix__cls-8" data-name="Path 1115" transform="translate(-4350.74 -21169.943)"/>
        <path id="prefix__Path_1116" d="M112.234 688.426H93.863a1.879 1.879 0 0 1-1.69-1.057l-4-8.222a1.879 1.879 0 0 1 1.69-2.7h26.371a1.879 1.879 0 0 1 1.69 2.7l-4 8.222a1.879 1.879 0 0 1-1.69 1.057z" class="prefix__cls-1" data-name="Path 1116" transform="translate(-4346.999 -21204.178)"/>
        <path id="prefix__Rectangle_342" d="M0 0H58.929V4.065H0z" data-name="Rectangle 342" transform="translate(-4162.069 -20678.672)" style="fill:#fff"/>
    </g>
</svg>
