<svg xmlns="http://www.w3.org/2000/svg" width="1629.786" height="854.437" viewBox="0 0 1629.786 854.437">
    <defs>
        <style>
            .prefix__cls-2{fill:rgba(240, 254, 255, 0.51)}
        </style>
    </defs>
    <g id="prefix__Group_125" data-name="Group 125" transform="translate(0 -2810.791)" style="opacity:.51">
        <path id="prefix__Path_368" d="M1925.287 570.906v300.806H295.5v-214.3a852.064 852.064 0 0 1 159.213-317.719l1137.533-183.231a860.267 860.267 0 0 1 97.907 74.647l-674.316 257.224 746.522-185.551a859.028 859.028 0 0 1 83.192 109.461L1693.2 526.154l172.142-81.472a856.734 856.734 0 0 1 43.1 84.911q8.941 20.399 16.845 41.313z" class="prefix__cls-2" data-name="Path 368" transform="translate(-295.5 2793.516)"/>
        <path id="prefix__Path_369" d="M1412.232 174.436a852.67 852.67 0 0 0-374.994-86.295c-264.461 0-500.9 119.917-657.949 308.333 268.925-58.922 737.147-160.925 1032.943-222.038z" class="prefix__cls-2" data-name="Path 369" transform="translate(-208.592 2722.65)"/>
    </g>
</svg>
