<svg xmlns="http://www.w3.org/2000/svg" width="204.197" height="206.05" viewBox="0 0 204.197 206.05">
    <defs>
        <style>
            .prefix__cls-4{fill:#fff}
        </style>
    </defs>
    <g id="prefix__Group_312" data-name="Group 312" transform="translate(-520 -1638.985)">
        <path id="prefix__Rectangle_315" d="M0 0H156.375V130.45H0z" data-name="Rectangle 315" transform="rotate(26.346 -3251.51 2077.1)" style="fill:#fafaff"/>
        <path id="prefix__Rectangle_316" d="M0 0H156.375V130.45H0z" data-name="Rectangle 316" transform="rotate(26.346 -3212.399 2054.037)" style="fill:#a7d676"/>
        <path id="prefix__Path_880" d="M269.811 262.8H112.427V131.5h157.384zm-156.561-.823h155.738v-129.65H113.25z" data-name="Path 880" transform="translate(434.005 1529.134)" style="fill:#5e5e5e"/>
        <g id="prefix__Group_311" data-name="Group 311" transform="translate(568.559 1688.373)">
            <path id="prefix__Path_870" d="M93.728 51.992a2.564 2.564 0 0 0-3.284 2.741c.05 1.834 2.646 2.856 4.147 1.846 1.762-1.185.9-3.904-.863-4.587zm.241 1.631a.482.482 0 0 0-.478.495c.137 1.431-2.47 1.712-1.8-.229a1.452 1.452 0 0 1 2.276-.266z" class="prefix__cls-4" data-name="Path 870" transform="translate(5.417 -2.505)"/>
            <path id="prefix__Path_871" d="M93.627 46.852a2.564 2.564 0 0 1-3.39-2.61c-.022-1.835 2.531-2.958 4.071-2.008 1.807 1.115 1.054 3.866-.681 4.618zm.176-1.64a.482.482 0 0 1-.5-.476c.081-1.435-2.535-1.613-1.788.3a1.452 1.452 0 0 0 2.285.176z" class="prefix__cls-4" data-name="Path 871" transform="translate(5.393 -3.723)"/>
            <g id="prefix__Group_310" data-name="Group 310">
                <path id="prefix__Path_826" d="M67.159 29.742a29.853 29.853 0 0 0 11.057-3.152 30.165 30.165 0 0 0-7.995-2.4 30.165 30.165 0 0 0-6.3-5.477 29.854 29.854 0 0 0 3.237 11.033zM81.37 53.274a29.853 29.853 0 0 0 8.258 8 30.164 30.164 0 0 0-1.915-8.126 30.164 30.164 0 0 0 1.594-8.195 29.853 29.853 0 0 0-7.937 8.32zM68.1 77.348A29.854 29.854 0 0 0 65.3 88.5a30.165 30.165 0 0 0 6.079-5.721 30.164 30.164 0 0 0 7.894-2.717A29.853 29.853 0 0 0 68.1 77.348zm-27.485.542a29.854 29.854 0 0 0-11.058 3.152 30.164 30.164 0 0 0 7.995 2.4 30.165 30.165 0 0 0 6.3 5.477 29.854 29.854 0 0 0-3.241-11.029zM26.4 54.357a29.853 29.853 0 0 0-8.258-8 30.165 30.165 0 0 0 1.915 8.126 30.165 30.165 0 0 0-1.594 8.195 29.854 29.854 0 0 0 7.937-8.321zm13.273-24.073a29.854 29.854 0 0 0 2.8-11.152 30.164 30.164 0 0 0-6.079 5.721A30.164 30.164 0 0 0 28.5 27.57a29.854 29.854 0 0 0 11.173 2.714zm28.681-2.71q1.072-.371 2.122-.831-.688-.269-1.387-.5-.57-.466-1.165-.9.176 1.124.43 2.231zm-29.961.591q.214-1.114.341-2.253-.577.462-1.129.95-.688.26-1.366.557 1.065.416 2.153.747zM23.924 54.406q-.858-.743-1.781-1.422.111.731.258 1.452-.119.726-.2 1.461.893-.715 1.723-1.491zm15.492 25.652q-1.072.371-2.122.831.688.269 1.387.5.57.466 1.165.9-.172-1.124-.43-2.231zm29.961-.59q-.214 1.114-.341 2.253.577-.462 1.129-.95.688-.26 1.366-.557-1.065-.416-2.153-.747zm14.469-26.243q.858.743 1.781 1.422-.111-.731-.258-1.452.119-.726.2-1.461-.893.715-1.723 1.491zM69.7 25.136a28.011 28.011 0 0 1 5.56 1.512 27.742 27.742 0 0 1-7.533 2.065 27.742 27.742 0 0 1-2.274-7.472 28.01 28.01 0 0 1 4.247 3.895zm-32.744.645a28.01 28.01 0 0 1 4.09-4.059 27.743 27.743 0 0 1-1.978 7.556 27.742 27.742 0 0 1-7.608-1.767 28.01 28.01 0 0 1 5.5-1.73zm-15.815 28.68a28.009 28.009 0 0 1-1.47-5.572 27.742 27.742 0 0 1 5.555 5.491 27.742 27.742 0 0 1-5.334 5.706 28.01 28.01 0 0 1 1.249-5.625zM38.072 82.5a28.012 28.012 0 0 1-5.56-1.512 27.743 27.743 0 0 1 7.533-2.065 27.742 27.742 0 0 1 2.274 7.472 28.011 28.011 0 0 1-4.247-3.895zm32.744-.645a28.01 28.01 0 0 1-4.09 4.059 27.742 27.742 0 0 1 1.974-7.561 27.742 27.742 0 0 1 7.608 1.767 28.009 28.009 0 0 1-5.5 1.73zM86.629 53.17a28.009 28.009 0 0 1 1.47 5.572 27.742 27.742 0 0 1-5.555-5.491 27.742 27.742 0 0 1 5.334-5.706 28.01 28.01 0 0 1-1.249 5.625z" class="prefix__cls-4" data-name="Path 826" transform="translate(-3.398 -6.55)"/>
                <path id="prefix__Path_827" d="M66.673 44.66a30.056 30.056 0 0 0 2.582-9.074c.59 11.39-3.155 5.188 6.651 11.012a30.056 30.056 0 0 0-9.233-1.938zm.312 15.853a30.056 30.056 0 0 0 9.149-2.3c-9.569 6.206-6.07-.138-6.212 11.266a30.057 30.057 0 0 0-2.937-8.966zm-13.573 8.2a30.057 30.057 0 0 0 6.567 6.773c-10.159-5.184-2.916-5.326-12.862.253a30.056 30.056 0 0 0 6.3-7.027zm-13.886-7.659a30.056 30.056 0 0 0-2.582 9.074c-.59-11.39 3.155-5.188-6.651-11.012a30.056 30.056 0 0 0 9.233 1.938zM39.214 45.2a30.056 30.056 0 0 0-9.149 2.3c9.569-6.206 6.07.138 6.212-11.266a30.056 30.056 0 0 0 2.937 8.966zM52.787 37a30.056 30.056 0 0 0-6.567-6.77c10.159 5.184 2.916 5.326 12.862-.254A30.056 30.056 0 0 0 52.787 37zm17.693 5.36a37.663 37.663 0 0 0-1.022-12.8.28.28 0 0 0-.424-.177c-.131-.7-.728-.373-.71-.052a30.291 30.291 0 0 1-3.663 16.542 30.292 30.292 0 0 1 16.345 4.458c.276.165.84-.212.284-.653a.28.28 0 0 0 .041-.458 37.662 37.662 0 0 0-10.851-6.86zm.4 20.3a37.662 37.662 0 0 0 10.572-7.284.28.28 0 0 0-.059-.456c.539-.462-.041-.816-.31-.641a30.291 30.291 0 0 1-16.157 5.1 30.292 30.292 0 0 1 4.312 16.384c0 .322.6.622.707-.08a.28.28 0 0 0 .417-.194 37.663 37.663 0 0 0 .517-12.828zM53.5 73.158a37.662 37.662 0 0 0 11.594 5.513.28.28 0 0 0 .366-.279c.67.235.687-.444.4-.589A30.291 30.291 0 0 1 53.365 66.36a30.292 30.292 0 0 1-12.033 11.927c-.281.157-.237.834.423.573a.28.28 0 0 0 .376.264A37.663 37.663 0 0 0 53.5 73.158zm-17.781-9.8a37.663 37.663 0 0 0 1.022 12.8.28.28 0 0 0 .424.177c.131.7.728.373.71.052a30.291 30.291 0 0 1 3.663-16.542 30.292 30.292 0 0 1-16.345-4.458c-.276-.165-.84.212-.284.653a.28.28 0 0 0-.041.458 37.662 37.662 0 0 0 10.85 6.862zm-.4-20.3a37.663 37.663 0 0 0-10.572 7.284.28.28 0 0 0 .059.456c-.539.462.041.816.31.641a30.291 30.291 0 0 1 16.157-5.1 30.291 30.291 0 0 1-4.313-16.388c0-.322-.6-.622-.707.08a.28.28 0 0 0-.417.194 37.662 37.662 0 0 0-.517 12.828zM52.7 32.556a37.662 37.662 0 0 0-11.594-5.513.28.28 0 0 0-.366.279c-.67-.235-.687.444-.4.589a30.292 30.292 0 0 1 12.493 11.442 30.292 30.292 0 0 1 12.034-11.926c.281-.157.237-.834-.423-.573a.28.28 0 0 0-.376-.264A37.663 37.663 0 0 0 52.7 32.556z" class="prefix__cls-4" data-name="Path 827" transform="translate(-2.612 -5.591)"/>
                <path id="prefix__Path_828" d="M66.969 35.393a.338.338 0 0 1-.205-.644c2.507-1.172 3.222-3.443 2.625-6a.476.476 0 0 1 .851-.4c1.58 2.536-.447 6.493-3.271 7.044z" class="prefix__cls-4" data-name="Path 828" transform="translate(2.505 -5.399)"/>
                <path id="prefix__Path_829" d="M45.662 28.338a.338.338 0 0 1-.66-.144c.238-2.757-1.371-4.512-3.882-5.273a.476.476 0 0 1 .08-.936c2.983-.102 5.4 3.632 4.462 6.353z" class="prefix__cls-4" data-name="Path 829" transform="translate(-.639 -6.151)"/>
                <path id="prefix__Path_830" d="M29.053 43.2a.338.338 0 0 1-.455.5c-2.269-1.585-4.593-1.068-6.508.726-.375.352-1.036-.039-.771-.537 1.406-2.634 5.845-2.856 7.734-.689z" class="prefix__cls-4" data-name="Path 830" transform="translate(-3.017 -3.743)"/>
                <path id="prefix__Path_831" d="M33.493 65.4a.338.338 0 0 1 .205.644c-2.507 1.172-3.222 3.443-2.625 6a.476.476 0 0 1-.851.4c-1.58-2.544.447-6.496 3.271-7.044z" class="prefix__cls-4" data-name="Path 831" transform="translate(-1.992 -.858)"/>
                <path id="prefix__Path_832" d="M54.893 72.381a.338.338 0 0 1 .66.144c-.238 2.757 1.371 4.512 3.882 5.273a.476.476 0 0 1-.08.936c-2.984.101-5.396-3.634-4.462-6.353z" class="prefix__cls-4" data-name="Path 832" transform="translate(1.059 -.036)"/>
                <path id="prefix__Path_833" d="M71.8 57.106a.338.338 0 0 1 .455-.5c2.269 1.585 4.593 1.068 6.508-.726.375-.352 1.036.039.771.537-1.4 2.636-5.84 2.858-7.734.689z" class="prefix__cls-4" data-name="Path 833" transform="translate(3.134 -2.034)"/>
                <path id="prefix__Path_834" d="M71.513 42.365a.338.338 0 0 0 .474.481c2.2-1.673 4.547-1.249 6.531.469.389.337 1.034-.079.749-.567-1.507-2.578-5.952-2.626-7.754-.383z" class="prefix__cls-4" data-name="Path 834" transform="translate(3.1 -3.863)"/>
                <path id="prefix__Path_835" d="M54.014 28.182a.338.338 0 0 0 .654-.17c-.347-2.746 1.192-4.562 3.671-5.422a.476.476 0 0 0-.117-.932c-2.985.016-5.248 3.842-4.208 6.524z" class="prefix__cls-4" data-name="Path 835" transform="translate(.946 -6.191)"/>
                <path id="prefix__Path_836" d="M32.921 36.059a.338.338 0 0 0 .18-.651c-2.551-1.073-3.355-3.314-2.86-5.89a.476.476 0 0 0-.866-.365c-1.475 2.593.703 6.466 3.546 6.906z" class="prefix__cls-4" data-name="Path 836" transform="translate(-2.086 -5.304)"/>
                <path id="prefix__Path_837" d="M29.348 57.928a.338.338 0 0 0-.474-.481c-2.2 1.673-4.547 1.249-6.531-.469-.389-.337-1.034.079-.749.567 1.506 2.578 5.952 2.625 7.754.383z" class="prefix__cls-4" data-name="Path 837" transform="translate(-2.985 -1.898)"/>
                <path id="prefix__Path_838" d="M46.521 72.554a.338.338 0 0 0-.654.17c.347 2.746-1.192 4.562-3.671 5.422a.476.476 0 0 0 .117.932c2.987-.017 5.249-3.842 4.208-6.524z" class="prefix__cls-4" data-name="Path 838" transform="translate(-.506 -.013)"/>
                <path id="prefix__Path_839" d="M67.561 64.717a.338.338 0 0 0-.179.651c2.551 1.073 3.355 3.314 2.86 5.89a.476.476 0 0 0 .866.365c1.478-2.593-.708-6.466-3.547-6.906z" class="prefix__cls-4" data-name="Path 839" transform="translate(2.578 -.941)"/>
                <path id="prefix__Path_840" d="M69.807 23.595a.476.476 0 0 0 .866.365c1.208-2.12-.028-5.094-2.072-6.35-2.153-1.058-5.328-.516-6.476 1.637-.266.5.4.889.771.537 3.729-3.495 7.878-1.223 6.911 3.811z" class="prefix__cls-4" data-name="Path 840" transform="translate(1.959 -6.748)"/>
                <path id="prefix__Path_841" d="M83.019 53.828a.476.476 0 0 0 .117.932c2.44-.013 4.4-2.571 4.464-4.969-.16-2.394-2.217-4.872-4.656-4.79a.476.476 0 0 0-.08.936c4.891 1.483 4.998 6.212.155 7.891z" class="prefix__cls-4" data-name="Path 841" transform="translate(4.451 -3.344)"/>
                <path id="prefix__Path_842" d="M64.087 80.491c-.389-.337-1.034.079-.749.567 1.232 2.106 4.426 2.523 6.536 1.381 1.993-1.336 3.111-4.357 1.82-6.427a.476.476 0 0 0-.851.4c1.157 4.975-2.881 7.433-6.756 4.079z" class="prefix__cls-4" data-name="Path 842" transform="translate(2.105 .412)"/>
                <path id="prefix__Path_843" d="M31.18 77.177a.476.476 0 0 0-.866-.365c-1.208 2.12.028 5.094 2.072 6.35 2.153 1.058 5.328.516 6.476-1.637.266-.5-.4-.889-.771-.537-3.729 3.494-7.878 1.222-6.911-3.811z" class="prefix__cls-4" data-name="Path 843" transform="translate(-1.971 .508)"/>
                <path id="prefix__Path_844" d="M17.534 47.233a.476.476 0 0 0-.117-.932c-2.44.013-4.4 2.571-4.464 4.969.16 2.394 2.217 4.872 4.656 4.79a.476.476 0 0 0 .08-.936c-4.889-1.483-4.997-6.212-.155-7.891z" class="prefix__cls-4" data-name="Path 844" transform="translate(-4.03 -3.185)"/>
                <path id="prefix__Path_845" d="M36.889 20.3c.389.337 1.034-.079.749-.567-1.232-2.106-4.426-2.523-6.536-1.381-1.993 1.336-3.111 4.357-1.82 6.427a.476.476 0 0 0 .851-.4c-1.161-4.979 2.881-7.435 6.756-4.079z" class="prefix__cls-4" data-name="Path 845" transform="translate(-2.106 -6.67)"/>
                <path id="prefix__Path_846" d="M67 38.961a.445.445 0 0 1-.152-.865c5.915-1.962 7.007-5.466 5.972-10.842-.106-.551.619-1.008.957-.449 2.957 4.908-1.301 11.859-6.777 12.156z" class="prefix__cls-4" data-name="Path 846" transform="translate(2.505 -5.594)"/>
                <path id="prefix__Path_847" d="M48.574 30.429a.445.445 0 0 1-.825-.3c1.259-6.1-1.23-8.8-6.4-10.593-.53-.183-.564-1.04.09-1.053 5.727-.112 9.618 7.051 7.135 11.946z" class="prefix__cls-4" data-name="Path 847" transform="translate(-.617 -6.578)"/>
                <path id="prefix__Path_848" d="M32.32 41.9a.445.445 0 0 1-.673.564c-4.657-4.142-8.238-3.335-12.376.249-.424.367-1.183-.032-.867-.6 2.769-5.024 10.917-4.813 13.916-.213z" class="prefix__cls-4" data-name="Path 848" transform="translate(-3.375 -4.149)"/>
                <path id="prefix__Path_849" d="M33.9 62.388a.445.445 0 0 1 .152.865c-5.915 1.962-7.007 5.466-5.972 10.842.106.551-.619 1.008-.957.449-2.966-4.908 1.292-11.859 6.777-12.156z" class="prefix__cls-4" data-name="Path 849" transform="translate(-2.421 -1.224)"/>
                <path id="prefix__Path_850" d="M52.338 70.894a.445.445 0 0 1 .825.3c-1.259 6.1 1.23 8.8 6.4 10.593.53.183.564 1.04-.09 1.053-5.727.112-9.618-7.051-7.135-11.946z" class="prefix__cls-4" data-name="Path 850" transform="translate(.68 -.214)"/>
                <path id="prefix__Path_851" d="M69.208 58.586a.445.445 0 0 1 .673-.564c4.657 4.142 8.238 3.335 12.376-.249.424-.367 1.183.032.867.6-2.769 5.027-10.918 4.81-13.916.213z" class="prefix__cls-4" data-name="Path 851" transform="translate(2.822 -1.804)"/>
                <path id="prefix__Path_852" d="M68.858 41.179a.445.445 0 0 0 .694.537c4.49-4.322 8.1-3.657 12.376-.239.438.35 1.18-.079.842-.638-2.964-4.905-11.098-4.372-13.912.34z" class="prefix__cls-4" data-name="Path 852" transform="translate(2.781 -4.271)"/>
                <path id="prefix__Path_853" d="M51.528 30.386a.445.445 0 0 0 .812-.333c-1.5-6.049.883-8.843 5.981-10.837.522-.2.522-1.062-.131-1.049-5.73.114-9.335 7.425-6.662 12.219z" class="prefix__cls-4" data-name="Path 853" transform="translate(.564 -6.616)"/>
                <path id="prefix__Path_854" d="M33.458 39.61a.445.445 0 0 0 .118-.87c-5.988-1.727-7.217-5.186-6.395-10.6.084-.554-.658-.983-.974-.411-2.766 5.022 1.763 11.8 7.251 11.881z" class="prefix__cls-4" data-name="Path 854" transform="translate(-2.516 -5.483)"/>
                <path id="prefix__Path_855" d="M32.67 59.3a.445.445 0 0 0-.694-.537c-4.49 4.322-8.1 3.657-12.376.239-.438-.35-1.18.079-.842.638 2.963 4.909 11.097 4.375 13.912-.34z" class="prefix__cls-4" data-name="Path 855" transform="translate(-3.333 -1.68)"/>
                <path id="prefix__Path_856" d="M49.349 70.965a.445.445 0 0 0-.812.333c1.5 6.049-.883 8.843-5.981 10.837-.522.2-.522 1.062.131 1.049 5.73-.114 9.335-7.425 6.662-12.219z" class="prefix__cls-4" data-name="Path 856" transform="translate(-.466 -.204)"/>
                <path id="prefix__Path_857" d="M67.468 61.71a.445.445 0 0 0-.118.87c5.988 1.727 7.217 5.186 6.395 10.6-.084.554.658.983.974.41 2.766-5.021-1.763-11.798-7.251-11.88z" class="prefix__cls-4" data-name="Path 857" transform="translate(2.565 -1.306)"/>
                <path id="prefix__Path_858" d="M70.043 16.049c3.934 2.146 4.221 5.5 3.612 9.506-.084.554.658.983.974.41 2.185-3.965-.182-9.027-3.978-11.019C66.94 12.8 61.4 13.5 59.209 17.464c-.316.572.443.971.867.6 2.87-2.482 5.9-4.281 9.967-2.015z" class="prefix__cls-4" data-name="Path 858" transform="translate(1.601 -7.154)"/>
                <path id="prefix__Path_859" d="M89.822 50.173c.108 4.48-2.654 6.406-6.427 7.881-.522.2-.522 1.062.131 1.049 4.527-.09 7.727-4.671 7.554-8.954 0-4.287-3.374-8.738-7.9-8.65-.654.013-.62.869-.09 1.053 3.588 1.242 6.661 2.967 6.732 7.621z" class="prefix__cls-4" data-name="Path 859" transform="translate(4.474 -3.771)"/>
                <path id="prefix__Path_860" d="M71.382 84.555c-3.825 2.334-6.875.9-10.039-1.625-.438-.35-1.18.079-.842.638 2.342 3.875 7.909 4.356 11.532 2.065 3.715-2.14 5.88-7.291 3.54-11.168-.338-.56-1.063-.1-.957.449.718 3.728.761 7.253-3.234 9.641z" class="prefix__cls-4" data-name="Path 860" transform="translate(1.758 .218)"/>
                <path id="prefix__Path_861" d="M31.732 85.308c-3.934-2.146-4.221-5.5-3.612-9.506.084-.554-.658-.983-.974-.411-2.185 3.965.182 9.027 3.978 11.019 3.711 2.147 9.255 1.447 11.442-2.518.316-.572-.443-.971-.867-.6-2.87 2.482-5.899 4.282-9.967 2.016z" class="prefix__cls-4" data-name="Path 861" transform="translate(-2.401 .329)"/>
                <path id="prefix__Path_862" d="M11.09 51.74c-.108-4.48 2.654-6.406 6.427-7.881.522-.2.522-1.062-.131-1.049-4.527.09-7.727 4.671-7.554 8.954 0 4.287 3.374 8.738 7.9 8.65.654-.013.62-.869.09-1.053-3.587-1.241-6.661-2.966-6.732-7.621z" class="prefix__cls-4" data-name="Path 862" transform="translate(-4.412 -3.611)"/>
                <path id="prefix__Path_863" d="M30.371 16.836c3.825-2.334 6.875-.9 10.039 1.625.438.35 1.18-.079.842-.638-2.341-3.875-7.909-4.356-11.532-2.065-3.715 2.14-5.88 7.291-3.54 11.168.338.56 1.063.1.957-.449-.718-3.728-.761-7.252 3.234-9.641z" class="prefix__cls-4" data-name="Path 863" transform="translate(-2.536 -7.078)"/>
                <path id="prefix__Path_864" d="M79.191 38.082a2.492 2.492 0 0 1 3.5-2.116 2.492 2.492 0 0 1-3.5 2.116zm.6 30.274a2.492 2.492 0 0 1 3.585 1.977 2.492 2.492 0 0 1-3.585-1.977zM53.868 84.009a2.492 2.492 0 0 1 .081 4.093 2.492 2.492 0 0 1-.081-4.093zm-26.516-14.62a2.492 2.492 0 0 1-3.5 2.116 2.492 2.492 0 0 1 3.5-2.116zm-.6-30.274a2.492 2.492 0 0 1-3.585-1.977 2.492 2.492 0 0 1 3.585 1.977zm25.92-15.654a2.492 2.492 0 0 1-.081-4.093 2.492 2.492 0 0 1 .081 4.093z" class="prefix__cls-4" data-name="Path 864" transform="translate(-2.784 -6.47)"/>
                <path id="prefix__Path_865" d="M73.487 13.5a2.564 2.564 0 0 0 .732 4.215c1.614.874 3.8-.864 3.672-2.669-.146-2.122-2.931-2.735-4.404-1.546zm1.533.607a.482.482 0 0 0 .19.661c1.308.6.247 2.995-1.1 1.443a1.452 1.452 0 0 1 .908-2.1z" class="prefix__cls-4" data-name="Path 865" transform="translate(3.253 -7.259)"/>
                <path id="prefix__Path_866" d="M30.033 11.806a2.564 2.564 0 0 0 4.016 1.474c1.563-.961 1.15-3.719-.475-4.515-1.907-.933-3.831 1.173-3.541 3.041zm1.292-1.024a.482.482 0 0 0 .667.166c1.17-.834 2.717 1.283.7 1.672a1.452 1.452 0 0 1-1.369-1.838z" class="prefix__cls-4" data-name="Path 866" transform="translate(-1.951 -7.791)"/>
                <path id="prefix__Path_867" d="M6.83 48.562a2.564 2.564 0 0 0 3.284-2.741c-.05-1.834-2.646-2.856-4.147-1.846-1.767 1.185-.901 3.904.863 4.587zm-.241-1.632a.482.482 0 0 0 .478-.495c-.137-1.431 2.47-1.712 1.8.229a1.452 1.452 0 0 1-2.276.266z" class="prefix__cls-4" data-name="Path 867" transform="translate(-5 -3.518)"/>
                <path id="prefix__Path_868" d="M27.08 87.052a2.564 2.564 0 0 0-.732-4.215c-1.614-.874-3.8.864-3.672 2.669.145 2.119 2.931 2.732 4.404 1.546zm-1.533-.607a.482.482 0 0 0-.19-.661c-1.308-.6-.247-2.995 1.1-1.443a1.452 1.452 0 0 1-.908 2.1z" class="prefix__cls-4" data-name="Path 868" transform="translate(-2.845 1.242)"/>
                <path id="prefix__Path_869" d="M70.513 88.763A2.564 2.564 0 0 0 66.5 87.29c-1.563.961-1.15 3.719.475 4.515 1.904.932 3.825-1.173 3.538-3.042zm-1.293 1.025a.482.482 0 0 0-.667-.166c-1.17.834-2.717-1.283-.7-1.672a1.452 1.452 0 0 1 1.369 1.838z" class="prefix__cls-4" data-name="Path 869" transform="translate(2.38 1.752)"/>
                <path id="prefix__Path_872" d="M68.98 11.038a2.564 2.564 0 0 1-3.955 1.631c-1.6-.9-1.3-3.671.3-4.53 1.866-1.007 3.875 1.021 3.655 2.899zm-1.332-.973a.482.482 0 0 1-.66.192c-1.2-.787-2.664 1.389-.635 1.7a1.452 1.452 0 0 0 1.3-1.891z" class="prefix__cls-4" data-name="Path 872" transform="translate(2.191 -7.872)"/>
                <path id="prefix__Path_873" d="M25.65 14.439a2.564 2.564 0 0 1-.565 4.24c-1.578.936-3.827-.713-3.774-2.522.061-2.122 2.82-2.845 4.339-1.718zm-1.508.667a.482.482 0 0 1-.164.668c-1.283.647-.129 3 1.153 1.4a1.452 1.452 0 0 0-.99-2.067z" class="prefix__cls-4" data-name="Path 873" transform="translate(-3.011 -7.135)"/>
                <path id="prefix__Path_874" d="M6.93 53.7a2.564 2.564 0 0 1 3.39 2.61c.022 1.835-2.531 2.958-4.071 2.008-1.808-1.113-1.054-3.863.681-4.618zm-.176 1.64a.482.482 0 0 1 .5.476c-.081 1.435 2.535 1.613 1.788-.3a1.452 1.452 0 0 0-2.285-.176z" class="prefix__cls-4" data-name="Path 874" transform="translate(-4.975 -2.3)"/>
                <path id="prefix__Path_875" d="M31.566 89.531a2.564 2.564 0 0 1 3.955-1.631c1.6.9 1.3 3.671-.3 4.53-1.866 1.008-3.871-1.02-3.655-2.899zm1.334.969a.482.482 0 0 1 .66-.192c1.2.787 2.664-1.389.635-1.7A1.452 1.452 0 0 0 32.9 90.5z" class="prefix__cls-4" data-name="Path 875" transform="translate(-1.762 1.834)"/>
                <path id="prefix__Path_876" d="M74.918 86.109a2.564 2.564 0 0 1 .565-4.24c1.578-.936 3.827.713 3.774 2.522-.057 2.122-2.82 2.844-4.339 1.718zm1.508-.667a.482.482 0 0 1 .164-.668c1.283-.647.129-3-1.153-1.4a1.452 1.452 0 0 0 .99 2.067z" class="prefix__cls-4" data-name="Path 876" transform="translate(3.419 1.119)"/>
                <path id="prefix__Path_877" d="M57.867 47.48a14.183 14.183 0 0 0 1.219-4.28c.279 5.375-1.489 2.448 3.138 5.2a14.183 14.183 0 0 0-4.357-.92zm.147 7.481a14.183 14.183 0 0 0 4.317-1.086c-4.515 2.929-2.865-.065-2.931 5.316a14.183 14.183 0 0 0-1.386-4.23zm-6.4 3.868a14.182 14.182 0 0 0 3.1 3.2c-4.794-2.446-1.376-2.513-6.069.12a14.183 14.183 0 0 0 2.971-3.316zm-6.552-3.613a14.183 14.183 0 0 0-1.223 4.284c-.279-5.375 1.489-2.448-3.138-5.2a14.183 14.183 0 0 0 4.357.915zm-.147-7.481a14.183 14.183 0 0 0-4.317 1.086c4.515-2.929 2.865.065 2.931-5.316a14.183 14.183 0 0 0 1.386 4.23zm6.4-3.868a14.183 14.183 0 0 0-3.1-3.2c4.794 2.446 1.376 2.513 6.069-.12a14.183 14.183 0 0 0-2.97 3.316zm8.349 2.528c.128-1.518-.055-6.442-.683-6.122-.062-.329-.343-.176-.335-.025a14.294 14.294 0 0 1-1.729 7.806 14.294 14.294 0 0 1 7.713 2.1c.13.078.4-.1.134-.308a.132.132 0 0 0 .019-.216 17.772 17.772 0 0 0-5.12-3.238zm.189 9.58c1.379-.649 5.551-3.268 4.961-3.652.254-.218-.019-.385-.146-.3a14.294 14.294 0 0 1-7.624 2.406 14.294 14.294 0 0 1 2.035 7.732c0 .152.285.293.334-.038a.132.132 0 0 0 .2-.092 17.772 17.772 0 0 0 .244-6.053zm-8.2 4.953c1.251.87 5.606 3.173 5.644 2.47.316.111.324-.209.189-.278a14.294 14.294 0 0 1-5.9-5.4 14.294 14.294 0 0 1-5.678 5.628c-.133.074-.112.394.2.27a.132.132 0 0 0 .178.125 17.772 17.772 0 0 0 5.364-2.815zM43.261 56.3c-.128 1.518.055 6.442.683 6.122.062.329.343.176.335.025a14.294 14.294 0 0 1 1.729-7.806 14.294 14.294 0 0 1-7.713-2.1c-.13-.078-.4.1-.134.308a.132.132 0 0 0-.019.216 17.772 17.772 0 0 0 5.12 3.238zm-.189-9.58c-1.379.649-5.551 3.268-4.961 3.652-.254.218.019.385.146.3a14.294 14.294 0 0 1 7.624-2.406 14.294 14.294 0 0 1-2.035-7.731c0-.152-.285-.293-.334.038a.132.132 0 0 0-.2.091 17.772 17.772 0 0 0-.244 6.053zm8.2-4.953c-1.251-.87-5.606-3.173-5.644-2.47-.316-.111-.324.209-.189.278a14.294 14.294 0 0 1 5.9 5.4 14.294 14.294 0 0 1 5.678-5.628c.133-.074.112-.394-.2-.27a.132.132 0 0 0-.178-.125 17.772 17.772 0 0 0-5.365 2.816z" class="prefix__cls-4" data-name="Path 877" transform="translate(-.975 -4.082)"/>
            </g>
        </g>
    </g>
</svg>
