<svg xmlns="http://www.w3.org/2000/svg" xmlns:xlink="http://www.w3.org/1999/xlink" width="250.902" height="230.933" viewBox="0 0 250.902 230.933">
    <defs>
        <linearGradient id="prefix__linear-gradient" x1=".5" x2=".5" y1="1" gradientUnits="objectBoundingBox">
            <stop offset="0" stop-color="gray" stop-opacity=".251"/>
            <stop offset=".54" stop-color="gray" stop-opacity=".122"/>
            <stop offset="1" stop-color="gray" stop-opacity=".102"/>
        </linearGradient>
        <linearGradient id="prefix__linear-gradient-5" x1=".5" x2=".5" y1="1" y2="0" xlink:href="#prefix__linear-gradient"/>
        <linearGradient id="prefix__linear-gradient-6" x1=".5" x2=".5" y1="1" y2="0" xlink:href="#prefix__linear-gradient"/>
        <linearGradient id="prefix__linear-gradient-7" x1=".5" x2=".5" y1="1" y2="0" xlink:href="#prefix__linear-gradient"/>
        <linearGradient id="prefix__linear-gradient-9" x1=".5" x2=".5" y1="1" y2="0" xlink:href="#prefix__linear-gradient"/>
        <linearGradient id="prefix__linear-gradient-12" x1=".5" x2=".5" y1="1" y2="0" xlink:href="#prefix__linear-gradient"/>
        <style>
            .prefix__cls-2{fill:#5ba80c}.prefix__cls-3{fill:none;stroke:#535461;stroke-miterlimit:10}.prefix__cls-4{fill:#6c63ff}.prefix__cls-6{fill:url(#prefix__linear-gradient)}.prefix__cls-7{fill:rgba(170,255,82,.23)}.prefix__cls-17,.prefix__cls-9{opacity:.1}.prefix__cls-12{fill:url(#prefix__linear-gradient-9)}.prefix__cls-22,.prefix__cls-25{fill:#fff}.prefix__cls-20{fill:#db8b8b}.prefix__cls-22{opacity:.3}.prefix__cls-23{fill:#535461}.prefix__cls-25{opacity:.5}
        </style>
    </defs>
    <g id="prefix__Group_338" data-name="Group 338" transform="translate(-853 -931.548)">
        <path id="prefix__Path_1098" d="M217.738 116.854c-16.085-.6-31.405-6.176-46.034-12.28s-29.121-12.862-44.809-16.1c-10.1-2.08-21.645-2.376-29.782 3.44-7.841 5.607-10.371 15.258-11.724 24.22-1.024 6.745-1.625 13.844 1.178 20.156 1.946 4.384 5.4 8.068 7.794 12.265 8.319 14.609 2.438 32.626-6.576 46.889-4.225 6.691-9.131 13.073-12.395 20.2s-4.779 15.286-1.931 22.556c2.828 7.208 9.571 12.611 16.876 16.4 14.835 7.727 32.31 9.942 49.362 11.184 37.733 2.774 75.67 1.573 113.5.37 14-.445 28.065-.9 41.839-3.231 7.65-1.292 15.546-3.343 21.1-8.291 7.051-6.281 8.8-16.918 4.074-24.794-7.923-13.212-29.824-16.5-35.369-30.675-3.047-7.8.082-16.5 4.513-23.735 9.5-15.529 25.433-29.151 26.27-46.9.577-12.178-7.081-24.4-18.921-30.165-12.412-6.047-29.621-5.286-38.772 4.722-9.422 10.347-25.992 14.301-40.193 13.769z" data-name="Path 1098" transform="translate(781.043 851.929)" style="fill:#f0efff;opacity:.33"/>
        <g id="prefix__Group_326" data-name="Group 326" transform="translate(-16.028 -24)">
            <path id="prefix__Path_976" d="M317.32 691.27a15.66 15.66 0 0 1 2.856 16.289c-3.7 9.731 6.346 25.917 6.346 25.917l-.32-.051a19.091 19.091 0 0 1-12.673-29.225c2.811-4.256 5.094-9.248 3.791-12.93z" class="prefix__cls-2" data-name="Path 976" transform="translate(620.282 447.151)"/>
            <path id="prefix__Path_977" d="M328.775 691.27s3.7 8.04 0 14.6-.64 24.976 9.2 27.608" class="prefix__cls-3" data-name="Path 977" transform="translate(608.828 447.151)"/>
            <path id="prefix__Path_978" d="M295.56 773.946s7.483-1.191 8.165 5.514 14.39 7.637 14.39 7.637l-.256.17c-11.319 7.433-22.139 4.733-20.493-5.124.576-3.675.541-7.361-1.806-8.197z" class="prefix__cls-4" data-name="Path 978" transform="translate(630.374 391.004)"/>
            <path id="prefix__Path_979" d="M295.56 773.946s7.483-1.191 8.165 5.514 14.39 7.637 14.39 7.637l-.256.17c-11.319 7.433-22.139 4.733-20.493-5.124.576-3.675.541-7.361-1.806-8.197z" data-name="Path 979" transform="translate(630.374 391.004)" style="fill:#a7d676"/>
            <path id="prefix__Path_980" d="M295.56 774.12s5.808 1.281 5.331 6.558 8.626 11.614 17.224 6.6" class="prefix__cls-3" data-name="Path 980" transform="translate(630.374 390.83)"/>
            <path id="prefix__Rectangle_321" d="M0 0H14.358V131.168H0z" class="prefix__cls-6" data-name="Rectangle 321" transform="translate(945.329 1049.44)"/>
            <path id="prefix__Path_982" d="M257.5 763.285h-45.03l15.991-10.115h12.072z" class="prefix__cls-6" data-name="Path 982" transform="translate(717.848 423.195)"/>
            <path id="prefix__Path_983" d="M158.44 146.829s60.7-60.028 139.326 0V198.7s-61.668 37.2-139.323 0z" class="prefix__cls-7" data-name="Path 983" transform="translate(723.588 835.398)"/>
            <path id="prefix__Path_984" d="M172.2 154.523s56.852-56.24 130.514 0v48.6s-57.768 34.844-130.514 0z" class="prefix__cls-6" data-name="Path 984" transform="translate(714.234 829.022)"/>
            <path id="prefix__Rectangle_322" d="M0 0H34.585V29.366H0z" class="prefix__cls-6" data-name="Rectangle 322" transform="translate(934.234 1012.246)"/>
            <path id="prefix__Rectangle_323" d="M0 0H28.713V24.38H0z" data-name="Rectangle 323" transform="translate(937.17 1014.737)"/>
            <g id="prefix__Group_316" class="prefix__cls-9" data-name="Group 316" transform="translate(925.477 1045.105)">
                <path id="prefix__Path_985" d="M332.285 441.1l-10.909-18.8-9.676 18.142-8.4-19.007-8.735 19.353-.3-.122c3.522-10.285.029-39.439 0-39.734l-.134-1.092 9.183 20.791 7.656-16.971 10.416 17.954 9.526-17.88 8.069 18.415 7.832-21.06 1.96-.391-.045.237c-.058.3-5.408 28.5-2.366 38.059l.724 1.652-.288.151a7.921 7.921 0 0 1-.743-1.694l-7.044-16.084zm-10.73-19.145l10.663 18.383 6.6-17.742-7.935-18.108zm-18.085-.932l8.23 18.677 9.472-17.733-10.186-17.589zm-8.78-19.071c.557 5.021 2.725 26.439.432 36.775l8.005-17.7zm44.482 20.637l6.426 14.665c-1.953-10.439 2.241-33.336 2.767-36.135l-1.3.259z" data-name="Path 985" transform="translate(-294.13 -399.84)"/>
            </g>
            <g id="prefix__Group_317" class="prefix__cls-9" data-name="Group 317" transform="translate(927.113 1047.301)">
                <path id="prefix__Path_986" d="M307.335 445.806l-8.095-20.266.3-.122 7.807 19.532 7.823-17.851-10.429-19.161.285-.157 10.307 18.94 7.816-17.829h.1l23.208-2.193-21.5 38.37-9.584-17.611zm8.207-18.722l9.42 17.31 20.912-37.32-22.491 2.126z" data-name="Path 986" transform="translate(-299.24 -406.7)"/>
            </g>
            <g id="prefix__Group_318" class="prefix__cls-9" data-name="Group 318" transform="translate(950.404 1047.734)">
                <path id="prefix__Path_987" d="M294.617 389.119l-.167-.32L275.2 351.6l.291-.15 19.084 36.874 7.173-18.585.3.118z" class="prefix__cls-6" data-name="Path 987" transform="translate(-275.2 -351.45)"/>
            </g>
            <path id="prefix__Path_988" d="M318.653 387.91c-15.319 0-27.733 2.046-27.733 4.569s12.417 4.569 27.733 4.569 27.733-2.046 27.733-4.569-12.418-4.569-27.733-4.569zm0 7.179c-14.057 0-25.45-1.316-25.45-2.936s11.393-2.933 25.45-2.933 25.446 1.31 25.446 2.933-11.393 2.936-25.446 2.936z" class="prefix__cls-12" data-name="Path 988" transform="translate(633.529 653.375)"/>
            <g id="prefix__Group_319" data-name="Group 319" transform="translate(924.449 1041.285)" style="opacity:.2">
                <path id="prefix__Path_989" d="M318.653 387.91c-15.319 0-27.733 2.046-27.733 4.569s12.417 4.569 27.733 4.569 27.733-2.046 27.733-4.569-12.418-4.569-27.733-4.569zm0 7.179c-14.057 0-25.45-1.316-25.45-2.936s11.393-2.933 25.45-2.933 25.446 1.31 25.446 2.933-11.393 2.936-25.446 2.936z" class="prefix__cls-12" data-name="Path 989" transform="translate(-290.92 -387.91)"/>
            </g>
            <path id="prefix__Path_990" d="M318.653 384.86c-15.319 0-27.733 2.046-27.733 4.569S303.337 394 318.653 394s27.733-2.046 27.733-4.569-12.418-4.571-27.733-4.571zm0 7.179c-14.057 0-25.45-1.316-25.45-2.936s11.4-2.936 25.45-2.936 25.446 1.3 25.446 2.933-11.393 2.936-25.446 2.936z" class="prefix__cls-12" data-name="Path 990" transform="translate(633.529 655.448)"/>
            <path id="prefix__Rectangle_324" d="M0 0H14.089V128.721H0z" class="prefix__cls-7" data-name="Rectangle 324" transform="translate(945.448 1049.844)"/>
            <path id="prefix__Path_991" d="M257.908 756.966H213.72l15.69-9.926h11.848z" data-name="Path 991" transform="translate(716.998 427.362)" style="fill:#e8eaf1"/>
            <path id="prefix__Path_992" d="M162.5 153.048s59.558-58.917 136.726 0v50.912s-60.518 36.5-136.726 0z" class="prefix__cls-7" data-name="Path 992" transform="translate(720.828 830.835)"/>
            <path id="prefix__Path_993" d="M176 160.611s55.792-55.193 128.081 0V208.3s-56.676 34.2-128.081 0z" data-name="Path 993" transform="translate(711.651 824.568)" style="fill:#f2ffe3"/>
            <path id="prefix__Rectangle_325" d="M0 0H33.941V28.818H0z" data-name="Rectangle 325" transform="translate(934.561 1013.341)" style="fill:#fff"/>
            <path id="prefix__Rectangle_326" d="M0 0H28.178V23.926H0z" class="prefix__cls-7" data-name="Rectangle 326" transform="translate(937.442 1015.787)"/>
            <path id="prefix__Path_994" d="M333.1 441.843l-10.7-18.457-9.513 17.806-8.239-18.652-8.556 18.994-.3-.118c3.471-10.1.029-38.706 0-38.994l-.131-1.073 9.014 20.4 7.515-16.651 10.221 17.611 9.372-17.547 7.919 18.072 7.685-20.669 1.921-.384-.045.234c-.058.3-5.309 27.966-2.321 37.352l.711 1.62-.285.147a7.776 7.776 0 0 1-.73-1.662l-6.916-15.786zm-10.528-18.789l10.464 18.04 6.474-17.409-7.784-17.771zm-17.752-.9l8.088 18.316 9.286-17.4-10.002-17.26zm-8.617-18.716c.548 4.925 2.674 25.936.423 36.09l7.842-17.374zm43.653 20.24l6.3 14.387c-1.921-10.246 2.2-32.715 2.715-35.459l-1.281.256z" class="prefix__cls-17" data-name="Path 994" transform="translate(630.307 644.238)"/>
            <path id="prefix__Path_995" d="M308.614 446.439l-7.944-19.888.3-.118 7.662 19.177 7.685-17.528-10.246-18.8.282-.154 10.113 18.572 7.685-17.5h.093l22.776-2.152-21.111 37.665-9.4-17.291zm8.053-18.373l9.244 16.987 20.525-36.625-22.072 2.084z" class="prefix__cls-17" data-name="Path 995" transform="translate(626.901 639.684)"/>
            <path id="prefix__Path_996" d="M294.328 389.777l-.167-.317-18.892-36.5.285-.147L294.284 389l7.041-18.239.3.115z" class="prefix__cls-17" data-name="Path 996" transform="translate(675.157 695.359)"/>
            <path id="prefix__Path_997" d="M319.717 389.64c-15.03 0-27.217 2.008-27.217 4.483s12.187 4.483 27.217 4.483 27.217-2.008 27.217-4.483-12.187-4.483-27.217-4.483zm0 7.044c-13.794 0-24.976-1.281-24.976-2.882s11.181-2.882 24.976-2.882 24.976 1.281 24.976 2.882-11.182 2.882-24.976 2.882z" data-name="Path 997" transform="translate(632.455 652.199)" style="fill:#5f546f"/>
            <path id="prefix__Path_998" d="M319.717 389.64c-15.03 0-27.217 2.008-27.217 4.483s12.187 4.483 27.217 4.483 27.217-2.008 27.217-4.483-12.187-4.483-27.217-4.483zm0 7.044c-13.794 0-24.976-1.281-24.976-2.882s11.181-2.882 24.976-2.882 24.976 1.281 24.976 2.882-11.182 2.882-24.976 2.882z" class="prefix__cls-2" data-name="Path 998" transform="translate(632.455 652.199)"/>
            <path id="prefix__Path_999" d="M319.717 386.64c-15.03 0-27.217 2.008-27.217 4.483s12.187 4.483 27.217 4.483 27.217-2.008 27.217-4.483-12.187-4.483-27.217-4.483zm0 7.044c-13.794 0-24.976-1.281-24.976-2.882s11.181-2.882 24.976-2.882 24.976 1.281 24.976 2.882-11.182 2.882-24.976 2.882z" class="prefix__cls-2" data-name="Path 999" transform="translate(632.455 654.238)"/>
            <path id="prefix__Path_1001" d="M617.033 396.145c-2.241-.32-6.385-3.842-6.385-3.842a3.157 3.157 0 0 0-2.75-1.4l-4.115-5.786a43.182 43.182 0 0 0-5.642-7.624q-.528-.586-1.092-1.137a30.734 30.734 0 0 0-3.567-3.042 21.226 21.226 0 0 1-2.35-2.037 27.207 27.207 0 0 1-1.921-2.126l-2.863-4.009-.192-.272a4.385 4.385 0 0 0 .058-1.188 2.06 2.06 0 0 0-.032-.279l-11.815-13.89-3.522-7.185c-.042.035-.183.154-.4.32l-.064-.183v-.688a29.627 29.627 0 0 1 3.589-14.243 10.011 10.011 0 0 0 1.214-4.781v-.4l-.061-.067c-.112-.125-.368-.413-.7-.839l.128-.25a6.013 6.013 0 0 1 3.506-3.157 24.1 24.1 0 0 0 11.816-5.588c5.123-2.882 4.162-5.443 4.162-5.443l-4.63-11.175-2.882-5.908-.8-2.715a45.774 45.774 0 0 0-1.1-5.357 3.265 3.265 0 0 0-5.719-1.21c-.038.051-.08.106-.118.163a5.123 5.123 0 0 0 .916 6.836c1.6 1.364 2.994 2.763 2.994 2.763 2.882.8 4.8 15.645 4.8 15.645l-1.921 1.281a10.679 10.679 0 0 0-7.662 3.842h-6.026a.289.289 0 0 1 .026-.08l-1-.224-2.882-.64-1.066-.24-.016.067-.3-.067v.042a17.936 17.936 0 0 1-1.089-1.995.871.871 0 0 0 .259 0 1.332 1.332 0 0 0 .058-.144h.1c.445-.961.061-2.161.49-3.141a11.655 11.655 0 0 1 .769-1.194 5.8 5.8 0 0 0 .375-3.756 9.158 9.158 0 0 0-1.3-3.894 3.873 3.873 0 0 0-3.522-1.79c-1.089.144-2.043.89-3.138.961a6.192 6.192 0 0 1-2.241-.5 14.256 14.256 0 0 0-2.43-.554 1.751 1.751 0 0 0-1.559.32l-.032.042a.948.948 0 0 0-.128.118 1.813 1.813 0 0 0-.32.608l-.708 1.95a.448.448 0 0 0 0 .432c.064.08.176.1.263.157.56.362-.192 1.255.272 1.694a2.337 2.337 0 0 0 1.463.288 6.225 6.225 0 0 0 3.916 9.414v.32a13.084 13.084 0 0 1-.2 2.52l-.468.042c-.778.042-2.35.1-3.724.038a12.418 12.418 0 0 1-1.374-.131s-.054.583-.16 1.476l-.32.09a13.346 13.346 0 0 0-7.333 5.3l-7.185 4.163s-3.2-.8-12.453 7.185l-6.705 3.522s-10.243 3.016-8.328 6.045 11.5-3.67 11.5-3.67l3.842-1.755 11.655-5.123a36.406 36.406 0 0 1 6.705-3.522 18.28 18.28 0 0 0 5.748-3.842l.72-.038.32-.019a2.677 2.677 0 0 1-.157.25 1.282 1.282 0 0 1-.093.125v25.7l-.051.714h.022l-.768 10.455a37.469 37.469 0 0 1-.48 7.5c-.64 2.7.48 13.73.48 13.73s.419 0 1.1-.048l-.019.32-.282 4.518s-.538 1.742 2.562 2.648a7.487 7.487 0 0 1 2 .919l3.573 2.341 3.673 2.241.743 1.559.035.077-.781-.477s-.64 1.6 1.438 3.673a6.788 6.788 0 0 1 2.241 5.588s.32 3.842 2.241 2.882c0 0 3.032-.64 2.882-5.908 0 0-1.21-4.387.2-6.241q.058-.077.122-.147c1.6-1.755-.48-4.483-.48-4.483s-3.7-1.492-3.906.986l-.154-.067a8.186 8.186 0 0 1-3.125-2.994s-2.075-5.267-5.267-5.748l.535-3.032.061-.349a5.073 5.073 0 0 0 2.437-2.049l.019-.038v-.083l.016-.032v-.026l.016-.035.019-.038v-.032l.023-.045.061-.032.022-.048.019-.042.026-.055.022-.045.026-.054.029-.058.022-.045.032-.067.022-.045.138-.3.019-.038.038-.083.029-.061.042-.093.026-.055.048-.109.019-.045.051-.112.026-.054.051-.115.023-.051.054-.122.022-.048.058-.128.019-.048.058-.134.019-.045.064-.144v-.026c1.021-2.376 2.305-5.792 2.241-7.816a4.6 4.6 0 0 0 0-.483h-.038v-.032a.647.647 0 0 0-.045-.192l8.62 1.921 5.123 5.588h.115l.032-.016h.029l.042-.019.032-.016.045-.022.038-.019.054-.029.035-.019.061-.032.038-.022.064-.032.045-.026.07-.038.045-.022.074-.042.051-.029.08-.045.055-.131.09-.051.048-.026.093-.051.054-.032.1-.054.051-.032.1-.061.054-.032.106-.064.051-.032.112-.067h.019l.179.208 2.242 2.6c2.241.961 7.345 5.748 7.345 5.748.589 1.412 3.083 3.429 4.358 4.4a7.952 7.952 0 0 0 1.156.711 13.61 13.61 0 0 1 2.581 2.094 32.891 32.891 0 0 0 3.769 3.2 16.8 16.8 0 0 1 3.263 3.292l.109.141c-.762 2.562 3.6 5.165 3.6 5.165 1.6-.32 6.545 4.163 6.545 4.163s4.63 3.673 6.545-.32-4.79-6.883-4.79-6.883zm-8.46-4.278l-.64-.906a1.108 1.108 0 0 1 .631.9z" data-name="Path 1001" transform="translate(484.833 727.14)"/>
            <path id="prefix__Path_1002" d="M666.235 366.2s-16.154 9.411-12.7 4.076a13.42 13.42 0 0 0 2.241-7.589 9.876 9.876 0 0 0-.352-2.607l6.743-3.138a6.5 6.5 0 0 0 .243 2.75 19.451 19.451 0 0 0 3.825 6.508z" class="prefix__cls-20" data-name="Path 1002" transform="translate(387.354 674.428)"/>
            <path id="prefix__Path_1003" d="M667.417 359.7a6.122 6.122 0 0 1-6.635 2.994 9.871 9.871 0 0 0-.352-2.606l6.743-3.138a6.5 6.5 0 0 0 .244 2.75z" class="prefix__cls-17" data-name="Path 1003" transform="translate(382.337 674.421)"/>
            <circle id="prefix__Ellipse_454" cx="6.116" cy="6.116" r="6.116" class="prefix__cls-20" data-name="Ellipse 454" transform="translate(1038.3 1024.708)"/>
            <path id="prefix__Path_1004" d="M646.422 333.56a2.347 2.347 0 0 1 1.457.961c.4.64.394 1.518.961 2.017a2.03 2.03 0 0 0 1.489.378 7.184 7.184 0 0 1 1.572-.054 3.148 3.148 0 0 1 2.014 1.483 20.454 20.454 0 0 1 1.14 2.305 2.722 2.722 0 0 0 .57.842 1.092 1.092 0 0 0 .938.3c.439-.961.061-2.126.48-3.084a11.423 11.423 0 0 1 .752-1.172 5.6 5.6 0 0 0 .365-3.689 8.959 8.959 0 0 0-1.281-3.823 3.827 3.827 0 0 0-3.445-1.758c-1.069.141-2.008.874-3.084.938a6.186 6.186 0 0 1-2.216-.487 14 14 0 0 0-2.385-.544 1.7 1.7 0 0 0-1.531.32 1.782 1.782 0 0 0-.32.6l-.695 1.921a.442.442 0 0 0 0 .426c.064.077.173.1.256.157.551.355-.189 1.233.266 1.665s2.06.148 2.697.298z" class="prefix__cls-17" data-name="Path 1004" transform="translate(394.084 694.01)"/>
            <path id="prefix__Path_1005" d="M646.912 333.07a2.347 2.347 0 0 1 1.457.961c.4.64.394 1.518.961 2.017a2.03 2.03 0 0 0 1.489.378 7.178 7.178 0 0 1 1.572-.054 3.147 3.147 0 0 1 2.014 1.483 20.4 20.4 0 0 1 1.14 2.305 2.726 2.726 0 0 0 .57.842 1.092 1.092 0 0 0 .938.3c.439-.961.061-2.126.48-3.084a11.444 11.444 0 0 1 .753-1.172 5.6 5.6 0 0 0 .365-3.689 8.959 8.959 0 0 0-1.281-3.823 3.828 3.828 0 0 0-3.445-1.758c-1.07.141-2.008.874-3.084.938a6.187 6.187 0 0 1-2.216-.487 14.009 14.009 0 0 0-2.385-.544 1.7 1.7 0 0 0-1.531.32 1.781 1.781 0 0 0-.32.6l-.695 1.921a.441.441 0 0 0 0 .426c.064.077.173.1.256.157.551.355-.189 1.233.266 1.665s2.059.148 2.696.298z" data-name="Path 1005" transform="translate(393.751 694.343)" style="fill:#472727"/>
            <path id="prefix__Path_1006" d="M708.269 315.455a23.638 23.638 0 0 1-11.6 5.488 5.916 5.916 0 0 0-3.445 3.1 11.228 11.228 0 0 0-1.1 3.17l-7.237-12.261-.448-.759H696.5a10.49 10.49 0 0 1 7.528-3.762l1.883-1.255s-1.883-14.585-4.7-15.37c0 0-1.377-1.377-2.943-2.715a5.034 5.034 0 0 1-.9-6.724c.039-.054.077-.109.118-.16a3.21 3.21 0 0 1 5.62 1.191 45 45 0 0 1 1.085 5.277l.785 2.667 2.824 5.8 4.547 10.977s.94 2.515-4.078 5.336z" class="prefix__cls-20" data-name="Path 1006" transform="translate(366.021 724.699)"/>
            <path id="prefix__Path_1007" d="M555.5 386.34l-.941 8.325-2.117.118-.708.038a17.785 17.785 0 0 1-5.645 3.762 35.259 35.259 0 0 0-6.586 3.452l-11.447 5.008-3.763 1.726s-9.411 6.6-11.293 3.605 8.165-5.972 8.165-5.972l6.587-3.452c9.1-7.842 12.232-7.044 12.232-7.044l7.044-4.076a13.109 13.109 0 0 1 7.2-5.2 8.874 8.874 0 0 1 1.272-.29z" class="prefix__cls-20" data-name="Path 1007" transform="translate(482.718 654.442)"/>
            <path id="prefix__Path_1008" d="M694.171 387.8a11.226 11.226 0 0 0-1.1 3.17l-7.237-12.261a5.014 5.014 0 0 0 .452-.759 6.1 6.1 0 0 0 .436-1.175l1.047.237 2.834.64.983.221a.363.363 0 0 1-.026.077c-1.324 3.88 1.164 7.937 2.611 9.85z" class="prefix__cls-17" data-name="Path 1008" transform="translate(365.07 660.941)"/>
            <path id="prefix__Path_1009" d="M639.738 386.34l-.941 8.325-2.117.118c.9-1.6 1.511-5.84 1.79-8.143a8.855 8.855 0 0 1 1.268-.3z" class="prefix__cls-17" data-name="Path 1009" transform="translate(398.482 654.442)"/>
            <path id="prefix__Path_1010" d="M660.345 393.862a29.09 29.09 0 0 0-3.522 14.127v.695s1.726 4.7 0 4.7-1.569 2.353-3.762 2.824-9.881 3.762-12.232 2.354a12.782 12.782 0 0 1-3.919-4.39v-25.561a1.3 1.3 0 0 0 .093-.125c1.354-1.921 2.1-9.926 2.1-9.926a12.191 12.191 0 0 0 1.351.131c1.348.064 2.882 0 3.657-.038l.48-.029a6.946 6.946 0 0 0 4.118 1.214 6.936 6.936 0 0 1 .961.07c2.648.371 3.455-3.148 3.455-3.148l1.047.237 2.834.64.983.221c-1.764 5 2.882 10.342 3.468 10.989l.061.067a9.81 9.81 0 0 1-1.173 4.948z" class="prefix__cls-4" data-name="Path 1010" transform="translate(398.325 660.955)"/>
            <path id="prefix__Path_1011" d="M640.475 382.524c0 2.078-.5 8.966-3.545 9.962v-.054a1.255 1.255 0 0 0 .093-.125c1.354-1.921 2.1-9.926 2.1-9.926a12.19 12.19 0 0 0 1.352.143z" class="prefix__cls-22" data-name="Path 1011" transform="translate(398.312 657.134)"/>
            <path id="prefix__Path_1012" d="M703.346 390.747c-5.738-.295-5.059-7.8-4.451-11.207l.983.221c-1.764 4.995 2.879 10.339 3.468 10.986z" class="prefix__cls-22" data-name="Path 1012" transform="translate(356.455 659.065)"/>
            <g id="prefix__Group_320" class="prefix__cls-9" data-name="Group 320" transform="translate(1038.594 1039.751)">
                <path id="prefix__Path_1013" d="M668.668 413.921a.077.077 0 0 0-.061-.067c-1.281-.32.141.144-1.281-.32-.055-.019.077-.234.077-.234a9.809 9.809 0 0 1-1.191 4.938 29.088 29.088 0 0 0-3.522 14.127v.692s1.726 4.7 0 4.7-1.569 2.354-3.762 2.824c-2.011.432-8.623 3.228-11.527 2.61.179.131.362.256.551.368 2.353 1.412 10.038-1.883 12.232-2.353s2.04-2.824 3.762-2.824 0-4.7 0-4.7v-.695a29.087 29.087 0 0 1 3.522-14.127 9.811 9.811 0 0 0 1.2-4.938z" data-name="Path 1013" transform="translate(-647.4 -403.636)"/>
                <path id="prefix__Path_1014" d="M661.277 383.28c-.074-.051-.151-.106-.221-.16h-.167a3.958 3.958 0 0 0 .388.16z" data-name="Path 1014" transform="translate(-656.57 -383.12)"/>
            </g>
            <path id="prefix__Path_1015" d="M752.089 566.5l-1.88 4.233a26.314 26.314 0 0 0-1.761-2.546 16.506 16.506 0 0 0-3.2-3.231 32.314 32.314 0 0 1-3.7-3.144 13.428 13.428 0 0 0-2.536-2.059 7.815 7.815 0 0 1-1.137-.7c-1.249-.961-3.7-2.93-4.281-4.316 0 0-5.017-4.7-7.214-5.645l-2.19-2.562-2.52-2.93 6.43-6.43 1.892 2.648 2.815 3.939a25.649 25.649 0 0 0 4.338 4.243 29.19 29.19 0 0 1 4.419 3.948 42.421 42.421 0 0 1 5.507 7.5l4.044 5.684.029.045.64.893z" class="prefix__cls-20" data-name="Path 1015" transform="translate(340.706 551.908)"/>
            <path id="prefix__Path_1016" d="M654.543 596.281l-2.51 5.959-2.036-2.2-.839-1.761-.73-1.534-3.609-2.2-3.522-2.3a7.368 7.368 0 0 0-1.969-.9c-3.045-.89-2.52-2.6-2.52-2.6l.279-4.438.192-3.09 8.325-.941-.416 2.354-.525 2.978c3.138.471 5.174 5.645 5.174 5.645a7.952 7.952 0 0 0 3.071 2.939 2.415 2.415 0 0 0 .538.2z" class="prefix__cls-20" data-name="Path 1016" transform="translate(398.419 522.602)"/>
            <path id="prefix__Path_1017" d="M813.564 624.552l-.074-.042h.045z" class="prefix__cls-17" data-name="Path 1017" transform="translate(278.287 492.535)"/>
            <path id="prefix__Path_1018" d="M808.941 627.883l-1.879 4.233a26.314 26.314 0 0 0-1.761-2.546c.288.275 1.9 1.742 2.414.4a15.655 15.655 0 0 1 .682-1.6 1.766 1.766 0 0 0 .234-.913z" class="prefix__cls-17" data-name="Path 1018" transform="translate(283.854 490.529)"/>
            <path id="prefix__Path_1019" d="M765.321 566.606l-.64-.893-.029-.045-4.044-5.684a42.413 42.413 0 0 0-5.517-7.49 29.183 29.183 0 0 0-4.419-3.948 25.657 25.657 0 0 1-4.339-4.246l-2.805-3.922-1.892-2.648-.275.275 1.694 2.373 2.815 3.938a25.657 25.657 0 0 0 4.342 4.233 29.188 29.188 0 0 1 4.419 3.948 42.417 42.417 0 0 1 5.507 7.486l4.051 5.69.029.045.64.893.32.435-1.684 3.791c.176.279.275.442.275.442l1.883-4.233z" class="prefix__cls-17" data-name="Path 1019" transform="translate(327.321 551.528)"/>
            <path id="prefix__Path_1020" d="M680.836 625.831l-2.51 5.959-2.036-2.2-.839-1.761 2.408 1.6c2.366-1.479 1.454-5.261 1.345-5.684a2.407 2.407 0 0 0 .538.2z" class="prefix__cls-17" data-name="Path 1020" transform="translate(372.126 493.051)"/>
            <path id="prefix__Path_1021" d="M677.6 621.04s1.175 4.163-1.332 5.725l-3.295-2.2s-.64 1.569 1.412 3.609a6.667 6.667 0 0 1 2.2 5.488s.32 3.762 2.2 2.824c0 0 2.981-.64 2.824-5.8 0 0-1.188-4.307.2-6.129.038-.049.078-.1.119-.144 1.569-1.726-.471-4.39-.471-4.39s-3.704-1.491-3.857 1.017z" class="prefix__cls-23" data-name="Path 1021" transform="translate(373.877 495.884)"/>
            <path id="prefix__Path_1022" d="M656.853 480.99c-1.726 0-1.569 2.354-3.762 2.824s-9.881 3.762-12.232 2.354a12.782 12.782 0 0 1-3.919-4.39v-.32c3.919 2.04 8.783 0 8.783 0 3.465.666 9.424-3.878 11.133-5.258v.08s1.72 4.71-.003 4.71z" class="prefix__cls-17" data-name="Path 1022" transform="translate(398.305 593.355)"/>
            <path id="prefix__Path_1023" d="M638.009 581.231l8.325-.941-.416 2.354a25.113 25.113 0 0 1-8.088 1.678z" class="prefix__cls-17" data-name="Path 1023" transform="translate(397.7 522.595)"/>
            <path id="prefix__Path_1024" d="M729.972 539.852c-.394 2.882-3.615 5.357-5.805 6.724l-2.517-2.936 6.43-6.43z" class="prefix__cls-17" data-name="Path 1024" transform="translate(340.719 551.881)"/>
            <path id="prefix__Path_1025" d="M642.627 481.636s-4.861 2.04-8.783 0l-.784 10.664a36.873 36.873 0 0 1-.471 7.365c-.628 2.661.471 13.487.471 13.487s9.724-.157 11.6-3.762c0 0 4.076-8.156 3.295-10.977l8.469 1.883 5.021 5.482s8.626-4.076 7.842-9.1l-11.607-13.637-3.445-7.041s-7.528 6.42-11.608 5.636z" class="prefix__cls-4" data-name="Path 1025" transform="translate(401.395 593.492)"/>
            <path id="prefix__Path_1026" d="M661.438 505.779l-5.017-5.488-8.473-1.876c.019.07.035.144.051.221a3.122 3.122 0 0 1 .045.455c.131 3.263-3.388 10.3-3.388 10.3-1.883 3.609-11.6 3.762-11.6 3.762s-1.114-10.816-.474-13.484a35.887 35.887 0 0 0 .471-7.365l.756-10.269.029-.394a8.434 8.434 0 0 0 3.522.9 13.649 13.649 0 0 0 5.094-.829l.167-.067q.138.026.282.042c3.369.371 8.77-3.644 10.65-5.139.426-.339.672-.548.672-.548l3.452 7.044 11.6 13.644a3.76 3.76 0 0 1 .045.474c.202 4.803-7.884 8.617-7.884 8.617z" class="prefix__cls-17" data-name="Path 1026" transform="translate(401.405 593.492)"/>
            <path id="prefix__Path_1027" d="M669.494 377.034c-3.493 6.311-8.646 2.818-10.074 1.659l.48-.029a6.946 6.946 0 0 0 4.118 1.214 6.942 6.942 0 0 1 .961.07c2.648.371 3.455-3.148 3.455-3.148z" class="prefix__cls-22" data-name="Path 1027" transform="translate(383.023 660.927)"/>
            <path id="prefix__Path_1028" d="M808.132 624.989a3.09 3.09 0 0 1 2.744 1.371s4.073 3.433 6.267 3.753c0 0 6.587 2.824 4.7 6.743s-6.429.32-6.429.32-4.861-4.39-6.43-4.076c0 0-4.313-2.587-3.522-5.1 0 0 1.889 1.921 2.459.445a15.627 15.627 0 0 1 .679-1.6 1.222 1.222 0 0 0-.468-1.856z" class="prefix__cls-23" data-name="Path 1028" transform="translate(283.808 492.212)"/>
            <path id="prefix__Path_1029" d="M644.57 492.979c-1.639.477-4.937 1.114-7.749-.349l-.051.7c3.41 1.24 7.182-.111 7.8-.351z" class="prefix__cls-17" data-name="Path 1029" transform="translate(398.421 582.186)"/>
            <path id="prefix__Path_1030" d="M664.925 492a5.607 5.607 0 0 1-2.533.215s-.346.144-.922.32a7.066 7.066 0 0 0 3.455-.535z" class="prefix__cls-17" data-name="Path 1030" transform="translate(381.63 582.615)"/>
            <path id="prefix__Path_1031" d="M714.266 497.138c-.151 4.653-7.887 8.309-7.887 8.309l-.109-.118c2.142-1.175 7.643-4.611 7.009-8.665l-11.607-13.647-3.183-6.51c.426-.339.672-.547.672-.547l3.453 7.04 11.6 13.644a3.758 3.758 0 0 1 .052.494z" class="prefix__cls-17" data-name="Path 1031" transform="translate(356.464 593.519)"/>
            <path id="prefix__Path_1032" d="M664.134 546c.785 2.824-3.295 10.977-3.295 10.977a5.832 5.832 0 0 1-3.269 2.379c1.87-.557 3.538-1.406 4.211-2.693 0 0 3.618-7.237 3.381-10.435z" class="prefix__cls-17" data-name="Path 1032" transform="translate(384.281 545.906)"/>
            <path id="prefix__Path_1033" d="M661.249 418.91c-2.209 0-4 2.562-4 5.725s1.79 5.725 4 5.725 4-2.562 4-5.725-1.79-5.725-4-5.725zm0 9.1c-1.3 0-2.357-1.508-2.357-3.372s1.054-3.372 2.357-3.372 2.357 1.508 2.357 3.372-1.057 3.369-2.357 3.369z" class="prefix__cls-22" data-name="Path 1033" transform="translate(384.498 632.301)"/>
            <path id="prefix__Path_1034" d="M711.261 272.138v.551a1.286 1.286 0 0 1-.023.295 9.716 9.716 0 0 1-1.6 4.6c-.061.093-.125.183-.189.272a9.452 9.452 0 0 1-7.685 3.964 6.087 6.087 0 0 1-.64-.022c-.211-.022-.394-.032-.589-.058a9.494 9.494 0 0 1-6.7-4.255c-.051-.074-.1-.154-.144-.227v-.016a9.757 9.757 0 0 1-1.431-5.1 9.938 9.938 0 0 1 .1-1.434l.051-.32a9.683 9.683 0 0 1 5.085-6.91l.346-.17a9.4 9.4 0 0 1 7.208-.279 9.177 9.177 0 0 1 .887.384 9.648 9.648 0 0 1 4.665 5.075c.032.074.058.144.083.218a9.807 9.807 0 0 1 .573 3.436z" data-name="Path 1034" transform="translate(360.699 738.67)" style="fill:#f88787"/>
            <path id="prefix__Path_1035" d="M721.709 270.579a6.6 6.6 0 0 1-1.876.272h-.359a3.387 3.387 0 0 1-.448-.038 8.028 8.028 0 0 1-3.484-1.281 14.48 14.48 0 0 0-7.012-4.163l.346-.17a14.394 14.394 0 0 1 6.27 3.586 6.519 6.519 0 0 0 2.2 1.37 7.635 7.635 0 0 0 1.739.419c.128 0 .253.026.378.035h.253a6.336 6.336 0 0 0 1.921-.243 1.758 1.758 0 0 0 .072.213z" class="prefix__cls-25" data-name="Path 1035" transform="translate(349.638 736.793)"/>
            <path id="prefix__Path_1036" d="M711.347 287.836a1.3 1.3 0 0 1-.022.295 12.92 12.92 0 0 0-2.61-1.281l-.24-.086a32.34 32.34 0 0 0-6.724-1.486c-5.379-.685-8.062-.045-9.34.564l.051-.32c1.383-.608 4.108-1.162 9.321-.5a33.151 33.151 0 0 1 6.724 1.47l.24.086a13.314 13.314 0 0 1 2.6 1.258z" class="prefix__cls-25" data-name="Path 1036" transform="translate(360.597 723.522)"/>
            <path id="prefix__Path_1037" d="M726.183 272.725a2.553 2.553 0 0 1-.029.263q-.083.656-.237 1.374-.118.541-.263 1.041l-.077.256a11.1 11.1 0 0 1-5.648 6.859 11.629 11.629 0 0 1-1.281.557l-.589-.058a11.6 11.6 0 0 0 1.787-.724 10.855 10.855 0 0 0 5.536-6.782c.026-.077.048-.157.07-.237q.134-.464.243-.961.157-.72.24-1.409a2.444 2.444 0 0 1 .029-.263 11.65 11.65 0 0 0 0-2.389 1.564 1.564 0 0 0-.029-.247 8.04 8.04 0 0 0-2.132-4.6 8.207 8.207 0 0 0-1.281-1.092 9.142 9.142 0 0 1 .887.384q.282.247.557.538a8.326 8.326 0 0 1 2.181 4.781 2.119 2.119 0 0 0 .029.243 11.894 11.894 0 0 1 .007 2.466z" class="prefix__cls-25" data-name="Path 1037" transform="translate(343.16 737.398)"/>
            <path id="prefix__Path_1038" d="M712.555 301.75c-.061.093-.125.182-.189.272a12.774 12.774 0 0 0-1.281-3.333.638.638 0 0 0-.112-.141.874.874 0 0 0-.215-.144c-1.233-.612-4.915.413-7.653 1.892a14.52 14.52 0 0 1-6.372 1.355l-.144-.227v-.016a14.452 14.452 0 0 0 6.4-1.326c2.562-1.377 6.372-2.562 7.839-1.921a1.245 1.245 0 0 1 .221.125.915.915 0 0 1 .25.269 13.2 13.2 0 0 1 1.256 3.195z" class="prefix__cls-25" data-name="Path 1038" transform="translate(357.755 714.508)"/>
            <path id="prefix__Rectangle_327" d="M0 0H14.089V1.601H0z" class="prefix__cls-17" data-name="Rectangle 327" transform="translate(945.287 1173.602)"/>
            <path id="prefix__Path_1039" d="M112.092 92.531L79.22 125.663v7.845l37.3-42.408z" class="prefix__cls-22" data-name="Path 1039" transform="translate(808.431 873.269)"/>
            <path id="prefix__Path_1040" d="M123.437 82.126l-44.217 56.01v8.3l55.248-65.956z" class="prefix__cls-22" data-name="Path 1040" transform="translate(808.431 880.489)"/>
        </g>
    </g>
</svg>
