<svg xmlns="http://www.w3.org/2000/svg" width="34.228" height="36.368" viewBox="0 0 34.228 36.368">
    <g id="prefix__noun_Calendar_1856577" transform="translate(-4 -3)">
        <path id="prefix__Path_476" fill="#a7d676" d="M31.811 5.139h-2.14V4.07a1.07 1.07 0 1 0-2.139 0v1.07H14.7V4.07a1.07 1.07 0 1 0-2.139 0v1.07h-2.143A6.418 6.418 0 0 0 4 11.557V32.95a6.418 6.418 0 0 0 6.418 6.418h21.393a6.418 6.418 0 0 0 6.418-6.418V11.557a6.418 6.418 0 0 0-6.418-6.418zm4.278 27.811a4.283 4.283 0 0 1-4.279 4.279H10.418a4.283 4.283 0 0 1-4.279-4.279V15.836h29.95z" data-name="Path 476"/>
    </g>
</svg>
