<svg xmlns="http://www.w3.org/2000/svg" width="627.274" height="487.499" viewBox="0 0 627.274 487.499">
    <defs>
        <style>
            .prefix__cls-1{fill:#b8de91}.prefix__cls-2{fill:#7d4092}
        </style>
    </defs>
    <g id="prefix__Group_310" data-name="Group 310" transform="translate(13476.987 18242.949)">
        <path id="prefix__Path_755" d="M117.69 713.918l2.635-17.094 5.048-32.739 6.036-39.1 6.414-41.59 6.2-40.191 5.385-34.912 3.969-25.756c1.021-6.587 2.783-13.372 1.6-20.075s-6.538-11.174-8.909-17.415c-1.844-4.85-2.231-10.062-2.824-15.167a52.444 52.444 0 0 0-3.73-14.574c-3.648-8.753-7.649-18.115-14.533-24.859-5.015-4.94-10.573-10.087-14-16.287-.972-1.746-2.1-4.059-1.523-6.118 1.087-3.886 5.879-4.051 8.745-2.281 3.911 2.421 6.8 6.645 9.584 10.2 6.349 8.127 16.254 23.393 21.013 19.828 2.248-1.647.659-6.274 0-8.358a60.753 60.753 0 0 0-4.94-11.8c-4.94-8.8-10.062-17.7-14.154-26.917-1.746-3.928-7.9-17.193-1.507-19.951s12.5 7.9 14.986 12.195a82.272 82.272 0 0 1 5.253 10.457c2.116 5.286 4.883 10.358 7.172 15.645q3.294 7.633 6.019 15.521a3.393 3.393 0 0 0 1.4 2.108c3.088 1.54 1.112-8.366.881-9.494-1.433-7.032-3.985-13.751-5.583-20.742-2.05-8.942-3.845-18.115-5.015-27.172-.445-3.467-.823-7.411.4-10.778 1.482-4 7-5.212 10.251-2.553 2.2 1.8 2.8 4.784 3.129 7.411.4 3.294.642 6.48 1.3 9.757 1.49 7.411 3.977 14.821 6.069 22.232 1.079 3.8 2.067 7.633 2.767 11.528s.667 7.855 1.844 11.577a3.665 3.665 0 0 0 1.136 1.935 2.47 2.47 0 0 0 2.676 0c3.294-1.951 1.408-6.472 1.029-9.428-.725-5.657-.527-11.264-.585-16.946-.1-7.485-.453-15.027-.585-22.454-.082-4.586.889-10.927 6.513-11.454 5.278-.494 7.411 5.039 8.144 9.321 1.037 6 .156 12.351.626 18.477.5 6.587.65 13.174 1.1 19.671.428 6.258 2.61 12.4 3.252 18.667.692 6.81-.239 13.57 4.471 19.284a9.881 9.881 0 0 0 6.118 3.747c6.793.823 13.035-5.764 16.468-10.828a48.3 48.3 0 0 1 13-13.471c3.063-2.009 6.5-3.977 10.194-4.455 3.335-.436 7.748.914 8.8 4.5 1.317 4.5-4 9.057-6.983 11.6-12.293 10.507-21.013 24.982-21.013 24.982s-13.282 28.35-19.432 36.288c-3.392 4.372-8.539 7.3-10.836 12.45-3.491 7.8-2.94 18.329-3.977 26.827q-1.013 8.308-2.034 16.625-2.536 20.733-5.089 41.467-5.805 47.28-11.635 94.568-4.068 33.052-8.143 66.1z" class="prefix__cls-1" data-name="Path 755" transform="translate(-13496.288 -18469.385)"/>
        <path id="prefix__Path_756" d="M187.107 437.63c-2.322-6.95 3.656-17 10.77-17.86a6.942 6.942 0 0 1 4.57.823c6.414 4.117-.733 21.244-2.536 26.349-2.577 7.312-5.624 14.451-8.852 21.5a19.309 19.309 0 0 1-1.548 3c-6.365-4.94-12.178-11.882-17.292-18.115-4.636-5.673-17.786-20.824-10.927-28.4a8.457 8.457 0 0 1 3.722-2.207 15.4 15.4 0 0 1 11.091.659c5.428 2.509 9.174 8.784 11.002 14.251z" class="prefix__cls-2" data-name="Path 756" transform="translate(-13509.568 -18488.305)"/>
        <path id="prefix__Path_757" d="M674.185 750.158l-.165-2.47-2.355-35.242-1.737-26c-.445-6.661-.2-13.66-2.816-19.935s-8.819-9.477-12.491-15.052c-2.857-4.331-4.372-9.338-6.068-14.187a52.449 52.449 0 0 0-6.818-13.413c-5.467-7.748-11.412-16-19.6-21.088-5.961-3.705-12.516-7.534-17.234-12.837-1.326-1.49-2.931-3.5-2.824-5.64.214-4.026 4.85-5.237 8.036-4.117 4.348 1.507 8.086 5 11.577 7.872 7.962 6.587 20.964 19.284 24.834 14.764 1.828-2.133-.725-6.274-1.8-8.16a60.769 60.769 0 0 0-7.411-10.424c-6.7-7.518-13.677-15.085-19.688-23.179-2.586-3.5-11.5-15.1-5.846-19.218s13.916 4.982 17.292 8.638a82.276 82.276 0 0 1 7.411 9.057c3.22 4.7 7.024 9.058 10.4 13.677q4.941 6.727 9.255 13.833a3.392 3.392 0 0 0 1.828 1.754c3.351.823-.741-8.407-1.21-9.461-2.931-6.587-6.884-12.549-9.971-19.021-3.944-8.275-7.707-16.847-10.828-25.468-1.186-3.294-2.47-7.065-1.96-10.606.576-4.224 5.69-6.587 9.453-4.726 2.536 1.268 3.78 4.051 4.677 6.587 1.112 3.121 2.042 6.184 3.392 9.239 3.071 6.933 7.122 13.619 10.77 20.355 1.877 3.475 3.681 7 5.212 10.639s2.363 7.518 4.323 10.894a3.665 3.665 0 0 0 1.532 1.647 2.47 2.47 0 0 0 2.61-.576c2.8-2.627 0-6.587-1.046-9.428-1.943-5.369-2.964-10.877-4.265-16.4-1.729-7.287-3.714-14.566-5.468-21.787-1.079-4.455-1.515-10.852 3.862-12.6 5.047-1.647 8.316 3.294 9.98 7.32 2.322 5.632 2.849 12.022 4.644 17.893 1.919 6.291 3.5 12.672 5.369 18.938 1.779 6.011 5.253 11.528 7.246 17.506 2.166 6.5 2.726 13.3 8.572 17.851a9.881 9.881 0 0 0 6.793 2.322c6.818-.651 11.47-8.456 13.734-14.163a48.055 48.055 0 0 1 9.757-15.982c2.544-2.627 5.484-5.3 8.975-6.587 3.162-1.153 7.756-.823 9.568 2.47 2.273 4.117-1.935 9.716-4.282 12.845-9.708 12.936-15.06 28.959-15.06 28.959s-6.785 30.565-11.05 39.647c-2.355 5.006-6.744 8.992-7.864 14.508-1.7 8.366 1.128 18.527 1.968 27.049l1.647 16.666q2.042 20.791 4.117 41.574l.313 3.178z" class="prefix__cls-1" data-name="Path 757" transform="translate(-13604.059 -18505.623)"/>
        <path id="prefix__Path_758" d="M694.044 639.82c-1.046-7.254 6.628-16.073 13.784-15.645a6.94 6.94 0 0 1 4.348 1.647c5.583 5.179-4.512 20.766-7.2 25.484-3.837 6.735-8.11 13.216-12.54 19.572a19.3 19.3 0 0 1-2.05 2.676c-5.385-5.961-9.881-13.858-13.759-20.9-3.549-6.406-13.784-23.665-5.681-29.9a8.457 8.457 0 0 1 4.054-1.502 15.4 15.4 0 0 1 10.795 2.627c4.856 3.392 7.425 10.235 8.249 15.941z" class="prefix__cls-2" data-name="Path 758" transform="translate(-13615.684 -18523.877)"/>
        <path id="prefix__Path_759" d="M257.2 729.852l2.256-14.64 6.423-41.59 6.2-40.19 5.385-34.913 3.969-25.748c1.021-6.587 2.783-13.372 1.6-20.075s-6.538-11.174-8.909-17.415c-1.844-4.85-2.231-10.062-2.824-15.167a52.444 52.444 0 0 0-3.73-14.574c-3.648-8.753-7.649-18.115-14.533-24.859-5.015-4.94-10.573-10.087-14-16.287-.972-1.746-2.1-4.059-1.523-6.118 1.087-3.886 5.879-4.051 8.745-2.281 3.911 2.421 6.8 6.645 9.585 10.2 6.348 8.127 16.254 23.393 21.013 19.828 2.248-1.647.659-6.274 0-8.358a60.752 60.752 0 0 0-4.94-11.8c-4.94-8.8-10.062-17.7-14.154-26.917-1.746-3.928-7.9-17.193-1.507-19.951s12.5 7.9 14.986 12.195a82.3 82.3 0 0 1 5.253 10.457c2.116 5.286 4.883 10.359 7.172 15.645q3.294 7.633 6.019 15.521a3.393 3.393 0 0 0 1.4 2.108c3.088 1.54 1.112-8.366.881-9.494-1.433-7.032-3.985-13.751-5.583-20.742-2.05-8.942-3.845-18.115-5.015-27.173-.445-3.466-.823-7.411.4-10.778 1.482-4 7-5.212 10.251-2.553 2.2 1.8 2.8 4.784 3.129 7.411.4 3.294.642 6.48 1.3 9.757 1.49 7.411 3.977 14.821 6.068 22.232 1.079 3.8 2.067 7.633 2.767 11.528s.667 7.855 1.844 11.577a3.664 3.664 0 0 0 1.136 1.935 2.471 2.471 0 0 0 2.676 0c3.294-1.952 1.408-6.472 1.029-9.428-.725-5.657-.527-11.264-.585-16.946-.1-7.485-.453-15.027-.585-22.454-.082-4.586.889-10.927 6.513-11.454 5.278-.494 7.411 5.039 8.143 9.321 1.038 6 .156 12.351.626 18.477.5 6.587.65 13.175 1.1 19.671.428 6.258 2.61 12.4 3.253 18.667.692 6.81-.239 13.57 4.471 19.284a9.882 9.882 0 0 0 6.118 3.747c6.793.823 13.034-5.764 16.468-10.828a48.406 48.406 0 0 1 13-13.471c3.063-2.009 6.5-3.977 10.194-4.455 3.335-.436 7.748.914 8.8 4.5 1.317 4.5-4 9.058-6.982 11.6-12.293 10.507-21.013 24.982-21.013 24.982s-13.282 28.35-19.432 36.288c-3.392 4.372-8.539 7.3-10.836 12.45-3.491 7.8-2.94 18.329-3.977 26.827q-1.013 8.308-2.034 16.625-2.536 20.733-5.089 41.467-5.319 43.163-10.614 86.351z" class="prefix__cls-1" data-name="Path 759" transform="translate(-13526.912 -18485.318)"/>
        <path id="prefix__Path_760" d="M315.157 527.85c-2.322-6.95 3.656-17 10.77-17.86a6.942 6.942 0 0 1 4.57.823c6.414 4.117-.733 21.244-2.536 26.349-2.577 7.312-5.624 14.451-8.852 21.5a19.3 19.3 0 0 1-1.548 3c-6.365-4.94-12.178-11.882-17.292-18.115-4.636-5.673-17.786-20.824-10.927-28.4a8.456 8.456 0 0 1 3.722-2.207 15.4 15.4 0 0 1 11.091.659c5.436 2.509 9.174 8.784 11.002 14.251z" class="prefix__cls-2" data-name="Path 760" transform="translate(-13535.751 -18504.236)"/>
        <path id="prefix__Path_761" d="M524.541 710.976l-1.293-8.358-3.467-22.487-5.006-32.739-6.027-39.1-6.414-41.59-6.241-40.166-5.385-34.913-3.969-25.748c-1.021-6.587-2.783-13.372-1.6-20.075s6.538-11.174 8.909-17.415c1.844-4.85 2.231-10.062 2.824-15.167a52.441 52.441 0 0 1 3.73-14.574c3.648-8.753 7.65-18.115 14.533-24.859 5.015-4.94 10.573-10.087 14-16.287.972-1.746 2.1-4.059 1.523-6.118-1.087-3.886-5.879-4.051-8.745-2.281-3.911 2.421-6.8 6.645-9.584 10.2-6.349 8.127-16.254 23.393-21.013 19.828-2.248-1.647-.659-6.274 0-8.358a60.749 60.749 0 0 1 4.94-11.8c4.941-8.8 10.062-17.7 14.154-26.917 1.746-3.928 7.9-17.193 1.507-19.951s-12.5 7.9-14.986 12.195a82.357 82.357 0 0 0-5.212 10.466c-2.116 5.286-4.883 10.359-7.172 15.645q-3.294 7.633-6.019 15.521a3.392 3.392 0 0 1-1.4 2.108c-3.088 1.54-1.112-8.366-.881-9.494 1.433-7.032 3.985-13.751 5.583-20.742 2.05-8.942 3.845-18.115 5.015-27.172.445-3.467.823-7.411-.4-10.778-1.482-4-7-5.212-10.251-2.553-2.2 1.8-2.8 4.784-3.129 7.411-.4 3.294-.642 6.48-1.3 9.757-1.49 7.411-3.977 14.821-6.069 22.232-1.079 3.8-2.067 7.633-2.767 11.528s-.667 7.855-1.844 11.577a3.663 3.663 0 0 1-1.136 1.935 2.47 2.47 0 0 1-2.676 0c-3.294-1.951-1.408-6.472-1.029-9.428.725-5.657.527-11.264.585-16.946.1-7.485.453-15.027.585-22.454.082-4.586-.889-10.927-6.513-11.454-5.278-.494-7.411 5.039-8.144 9.321-1.038 6-.156 12.351-.626 18.477-.5 6.587-.651 13.174-1.1 19.671-.428 6.258-2.61 12.4-3.253 18.667-.692 6.81.239 13.57-4.471 19.284a9.881 9.881 0 0 1-6.118 3.746c-6.793.823-13.035-5.764-16.468-10.828a48.4 48.4 0 0 0-13-13.471c-3.063-2.009-6.5-3.977-10.194-4.455-3.335-.436-7.748.914-8.8 4.5-1.318 4.5 4 9.057 6.982 11.6 12.293 10.507 21.013 24.982 21.013 24.982s13.282 28.35 19.432 36.288c3.392 4.372 8.539 7.3 10.836 12.45 3.491 7.8 2.94 18.329 3.977 26.827q1.013 8.308 2.034 16.625 2.5 20.684 5.089 41.409 5.764 47.288 11.594 94.552 4.282 34.8 8.572 69.586l1.243 10.284z" class="prefix__cls-1" data-name="Path 761" transform="translate(-13556.6 -18466.441)"/>
        <path id="prefix__Path_762" d="M475.868 420.92c2.322-6.949-3.656-17-10.77-17.86a6.941 6.941 0 0 0-4.57.823c-6.414 4.117.733 21.244 2.536 26.349 2.577 7.312 5.624 14.451 8.852 21.5a19.3 19.3 0 0 0 1.548 3c6.365-4.94 12.178-11.882 17.291-18.115 4.636-5.673 17.786-20.824 10.927-28.4a8.456 8.456 0 0 0-3.722-2.207 15.4 15.4 0 0 0-11.091.659c-5.427 2.509-9.169 8.784-11.001 14.251z" class="prefix__cls-2" data-name="Path 762" transform="translate(-13570.612 -18485.354)"/>
        <path id="prefix__Path_763" d="M408.746 752.236l-.552-27.214-.527-26.044c-.132-6.67-.988-13.627 1.07-20.108s7.954-10.21 11.133-16.081c2.47-4.562 3.549-9.683 4.809-14.665a52.445 52.445 0 0 1 5.624-13.949c4.776-8.193 9.98-16.929 17.7-22.71 5.616-4.208 11.816-8.6 16.057-14.286 1.194-1.6 2.618-3.747 2.322-5.863-.56-3.993-5.286-4.792-8.366-3.417-4.2 1.878-7.625 5.682-10.852 8.844-7.361 7.221-19.21 21.038-23.459 16.872-2-1.968.181-6.307 1.079-8.283a60.75 60.75 0 0 1 6.5-11.034c6.027-8.069 12.351-16.213 17.6-24.8 2.256-3.664 10.111-15.991 4.117-19.572s-13.43 6.176-16.468 10.111a82.285 82.285 0 0 0-6.587 9.667c-2.8 4.94-6.208 9.626-9.173 14.533q-4.306 7.122-8.02 14.591a3.392 3.392 0 0 1-1.647 1.9c-3.294 1.12 0-8.44.379-9.527 2.347-6.777 5.764-13.1 8.275-19.82 3.211-8.588 6.217-17.456 8.572-26.349.9-3.376 1.811-7.254 1.029-10.7-.939-4.158-6.241-6.093-9.823-3.887-2.413 1.49-3.409 4.364-4.117 6.966-.823 3.211-1.5 6.34-2.577 9.494-2.47 7.172-5.912 14.187-8.959 21.219-1.573 3.623-3.055 7.287-4.265 11.05s-1.7 7.7-3.359 11.223a3.664 3.664 0 0 1-1.383 1.762 2.47 2.47 0 0 1-2.651-.346c-3.022-2.371-.544-6.587.222-9.486 1.466-5.517 2.009-11.091 2.824-16.715 1.087-7.411 2.47-14.821 3.557-22.183.692-4.529.568-10.943-4.94-12.211-5.171-1.186-8 4.018-9.3 8.16-1.828 5.813-1.8 12.219-3.071 18.23-1.367 6.431-2.388 12.936-3.7 19.358-1.252 6.143-4.232 11.939-5.7 18.074-1.589 6.661-1.556 13.479-6.983 18.527a9.882 9.882 0 0 1-6.587 2.907c-6.842-.049-12.162-7.411-14.912-12.911a48.006 48.006 0 0 0-11.108-15.077c-2.767-2.4-5.928-4.8-9.519-5.764-3.252-.873-7.8-.124-9.321 3.294-1.9 4.282 2.767 9.51 5.385 12.425 10.795 12.047 17.522 27.543 17.522 27.543s9.412 29.865 14.459 38.535c2.783 4.784 7.493 8.374 9.057 13.767 2.429 8.185.486 18.56.4 27.115q-.091 8.374-.189 16.748-.165 15.043-.321 30.079z" class="prefix__cls-1" data-name="Path 763" transform="translate(-13542.888 -18507.701)"/>
        <path id="prefix__Path_764" d="M404.66 650.294c3.219-6.587-1.375-17.292-8.308-19.128a6.942 6.942 0 0 0-4.644.222c-6.9 3.211-2.092 21.154-.98 26.456 1.589 7.592 3.656 15.068 5.92 22.479a19.315 19.315 0 0 0 1.136 3.178c6.958-4.018 13.644-10.161 19.507-15.645 5.344-5.006 20.388-18.288 14.591-26.7a8.457 8.457 0 0 0-3.392-2.676 15.4 15.4 0 0 0-11.083-.823c-5.665 1.735-10.207 7.458-12.747 12.637z" class="prefix__cls-2" data-name="Path 764" transform="translate(-13556.322 -18525.6)"/>
        <path id="prefix__Path_765" d="M611.753 734.9l-.651-32.113-.823-40.66-.716-35.316-.527-26.044c-.132-6.67-.988-13.627 1.071-20.108s7.954-10.21 11.133-16.081c2.47-4.562 3.549-9.683 4.809-14.665a52.438 52.438 0 0 1 5.624-13.949c4.776-8.193 9.98-16.929 17.695-22.709 5.616-4.208 11.816-8.6 16.057-14.286 1.194-1.6 2.618-3.746 2.322-5.863-.56-3.994-5.286-4.792-8.366-3.417-4.2 1.877-7.625 5.681-10.853 8.843-7.361 7.221-19.21 21.038-23.459 16.872-2-1.968.181-6.307 1.079-8.284a60.739 60.739 0 0 1 6.538-11.009c6.027-8.069 12.351-16.213 17.6-24.8 2.256-3.664 10.111-15.991 4.117-19.572s-13.43 6.176-16.468 10.111a82.273 82.273 0 0 0-6.587 9.667c-2.8 4.94-6.208 9.626-9.173 14.533q-4.306 7.122-8.02 14.591a3.393 3.393 0 0 1-1.647 1.9c-3.294 1.12 0-8.44.379-9.527 2.347-6.777 5.764-13.1 8.275-19.819 3.211-8.588 6.217-17.456 8.572-26.349.9-3.376 1.812-7.254 1.029-10.7-.939-4.158-6.241-6.093-9.823-3.886-2.413 1.49-3.409 4.364-4.117 6.966-.823 3.211-1.5 6.34-2.577 9.494-2.47 7.172-5.912 14.187-8.959 21.219-1.573 3.623-3.055 7.287-4.265 11.05s-1.7 7.7-3.359 11.231a3.665 3.665 0 0 1-1.383 1.762 2.47 2.47 0 0 1-2.651-.346c-3.022-2.371-.543-6.587.222-9.486 1.466-5.517 2.009-11.091 2.824-16.715 1.087-7.411 2.47-14.821 3.557-22.183.692-4.529.568-10.943-4.94-12.211-5.171-1.186-8 4.018-9.3 8.16-1.828 5.813-1.8 12.219-3.071 18.23-1.367 6.431-2.388 12.936-3.7 19.358-1.252 6.143-4.232 11.939-5.7 18.074-1.589 6.661-1.556 13.479-6.982 18.527a9.881 9.881 0 0 1-6.587 2.907c-6.842-.049-12.162-7.411-14.912-12.911a48.006 48.006 0 0 0-11.116-15.086c-2.767-2.4-5.929-4.8-9.519-5.764-3.252-.873-7.8-.124-9.321 3.294-1.9 4.282 2.767 9.51 5.385 12.425 10.811 12.013 17.522 27.51 17.522 27.51s9.411 29.865 14.459 38.535c2.783 4.784 7.493 8.374 9.057 13.767 2.429 8.185.486 18.56.4 27.115l-.181 16.748q-.231 20.89-.445 41.772-.362 34.583-.716 69.166z" class="prefix__cls-1" data-name="Path 765" transform="translate(-13588.619 -18490.361)"/>
        <path id="prefix__Path_766" d="M606.02 552.074c3.219-6.587-1.375-17.292-8.308-19.128a6.941 6.941 0 0 0-4.644.222c-6.9 3.211-2.091 21.153-.98 26.456 1.589 7.592 3.656 15.068 5.92 22.479a19.3 19.3 0 0 0 1.136 3.178c6.958-4.018 13.644-10.161 19.507-15.645 5.344-5.006 20.388-18.288 14.591-26.7a8.457 8.457 0 0 0-3.392-2.676 15.4 15.4 0 0 0-11.083-.823c-5.667 1.735-10.21 7.458-12.747 12.637z" class="prefix__cls-2" data-name="Path 766" transform="translate(-13597.487 -18508.254)"/>
        <path id="prefix__Path_767" d="M30.8 738.558l8.333-25.575 12.6-38.7 10.935-33.554 8.069-24.776c2.067-6.348 3.549-13.175 7.625-18.634s10.869-7.024 15.8-11.528c3.829-3.5 6.53-7.979 9.37-12.269a52.456 52.456 0 0 1 9.881-11.322c7.2-6.167 14.986-12.705 24.175-15.645 6.694-2.124 14-4.232 19.861-8.234 1.647-1.12 3.705-2.676 4.117-4.768.782-3.961-3.417-6.266-6.777-5.978-4.586.4-9.057 2.857-13.175 4.784-9.329 4.4-25.065 13.545-27.7 8.234-1.243-2.52 2.248-5.9 3.746-7.468a60.753 60.753 0 0 1 9.766-8.284c8.349-5.64 16.962-11.264 24.776-17.637 3.294-2.717 14.821-11.775 10.342-17.127s-14.714 1.408-18.873 4.117a82.293 82.293 0 0 0-9.4 6.958c-4.273 3.763-9.057 7.048-13.438 10.7q-6.406 5.311-12.351 11.141a3.393 3.393 0 0 1-2.2 1.252c-3.45 0 2.783-7.971 3.491-8.876 4.446-5.632 9.757-10.474 14.336-15.991 5.863-7.057 11.61-14.443 16.748-22.026 1.96-2.89 4.117-6.25 4.5-9.8.478-4.241-3.895-7.814-8-6.908-2.767.609-4.661 3.005-6.151 5.237-1.844 2.758-3.5 5.5-5.558 8.119-4.677 5.961-10.243 11.453-15.439 17.094a116.876 116.876 0 0 0-7.666 9.058c-2.38 3.178-4.117 6.711-6.867 9.494a3.665 3.665 0 0 1-1.886 1.21 2.47 2.47 0 0 1-2.388-1.194c-2.067-3.236 1.647-6.414 3.294-8.885 3.195-4.726 5.55-9.815 8.168-14.821 3.467-6.637 7.18-13.174 10.655-19.762 2.141-4.051 4.117-10.153-.65-13.174-4.488-2.824-8.876 1.161-11.47 4.644-3.631 4.891-5.714 10.951-8.893 16.2-3.409 5.624-6.5 11.429-9.881 17.061-3.2 5.393-7.921 9.881-11.322 15.192-3.689 5.764-5.9 12.219-12.689 15.2a9.88 9.88 0 0 1-7.155.585c-6.447-2.3-9.057-11.009-9.84-17.1-.823-6.233-2.371-12.409-5.533-17.884-1.762-3.178-3.977-6.488-7.024-8.563-2.783-1.894-7.328-2.676-9.881.049-3.2 3.417-.511 9.881 1 13.5 6.233 14.92 7.493 31.775 7.493 31.775s-.93 31.289.98 41.17c1.054 5.434 4.323 10.375 4.059 16-.4 8.53-5.64 17.687-8.547 25.74l-5.68 15.761Q11.4 642 4.323 661.651L0 673.566v64.992z" class="prefix__cls-1" data-name="Path 767" transform="translate(-13476.987 -18494.023)"/>
        <path id="prefix__Path_768" d="M80.571 567.667c2.4-6.925-3.483-17.028-10.589-17.967a6.942 6.942 0 0 0-4.578.823c-6.456 4.035.519 21.244 2.264 26.349 2.47 7.337 5.476 14.509 8.629 21.59a19.3 19.3 0 0 0 1.515 3.014c6.414-4.842 12.293-11.758 17.448-17.926 4.693-5.624 18-20.643 11.215-28.292a8.457 8.457 0 0 0-3.7-2.248 15.4 15.4 0 0 0-11.1.543c-5.415 2.43-9.219 8.663-11.104 14.114z" class="prefix__cls-2" data-name="Path 768" transform="translate(-13488.063 -18511.248)"/>
        <path id="prefix__Path_770" d="M714.182 403.21c1.136-7.238-6.414-16.155-13.578-15.834a6.941 6.941 0 0 0-4.372 1.581c-5.649 5.105 4.232 20.824 6.859 25.575 3.747 6.785 7.938 13.323 12.285 19.762a19.322 19.322 0 0 0 2.017 2.7c5.467-5.887 10.046-13.726 14-20.709 3.631-6.357 14.1-23.484 6.077-29.816a8.456 8.456 0 0 0-4.035-1.564 15.4 15.4 0 0 0-10.828 2.47c-4.868 3.344-7.527 10.137-8.425 15.835z" class="prefix__cls-2" data-name="Path 770" transform="translate(-13600.383 -18493.135)"/>
        <path id="prefix__Path_771" d="M118.127 199.57c-2.322-6.95 3.656-17 10.77-17.86a6.941 6.941 0 0 1 4.57.823c6.414 4.117-.733 21.244-2.536 26.349-2.577 7.312-5.624 14.451-8.852 21.5a19.3 19.3 0 0 1-1.548 3c-6.365-4.94-12.178-11.882-17.292-18.115-4.636-5.673-17.786-20.824-10.927-28.4a8.457 8.457 0 0 1 3.722-2.207 15.4 15.4 0 0 1 11.091.659c5.428 2.501 9.175 8.781 11.002 14.251z" class="prefix__cls-2" data-name="Path 771" transform="translate(-13492.946 -18405.313)"/>
        <path id="prefix__Path_773" d="M388.053 260.107c-2.026-6.052 3.187-14.821 9.379-15.554a6.044 6.044 0 0 1 3.985.725c5.583 3.574-.634 18.5-2.207 22.957-2.24 6.373-4.9 12.59-7.707 18.724a16.814 16.814 0 0 1-1.342 2.61c-5.541-4.274-10.605-10.35-15.035-15.768-4.035-4.94-15.5-18.115-9.519-24.7a7.361 7.361 0 0 1 3.244-1.919 13.413 13.413 0 0 1 9.659.576c4.69 2.09 7.954 7.59 9.543 12.349z" class="prefix__cls-1" data-name="Path 773" transform="translate(-13551.298 -18457.365)"/>
        <path id="prefix__Path_774" d="M249.044 188.257c2.026-6.052-3.187-14.821-9.379-15.554a6.044 6.044 0 0 0-3.985.725c-5.583 3.574.634 18.5 2.207 22.957 2.248 6.373 4.9 12.59 7.707 18.724a16.812 16.812 0 0 0 1.342 2.61c5.542-4.273 10.605-10.35 15.035-15.768 4.035-4.94 15.5-18.115 9.519-24.7a7.411 7.411 0 0 0-3.244-1.919 13.413 13.413 0 0 0-9.659.576c-4.687 2.123-7.945 7.592-9.543 12.349z" class="prefix__cls-1" data-name="Path 774" transform="translate(-13522.403 -18404.848)"/>
        <path id="prefix__Path_775" d="M499.255 163.647c-2.026-6.052 3.187-14.821 9.379-15.554a6.044 6.044 0 0 1 3.985.725c5.583 3.574-.634 18.5-2.207 22.957-2.248 6.365-4.9 12.59-7.707 18.724a16.8 16.8 0 0 1-1.334 2.627c-5.542-4.273-10.606-10.35-15.035-15.768-4.035-4.94-15.5-18.115-9.519-24.7a7.411 7.411 0 0 1 3.244-1.919 13.413 13.413 0 0 1 9.659.576c4.68 2.122 7.946 7.585 9.535 12.332z" class="prefix__cls-2" data-name="Path 775" transform="translate(-13574.006 -18390.963)"/>
        <path id="prefix__Path_776" d="M268.043 315.865c1.35-4.051-2.133-9.881-6.283-10.416a4.043 4.043 0 0 0-2.668.486c-3.738 2.388.428 12.351 1.474 15.373 1.5 4.265 3.294 8.432 5.163 12.54a11.26 11.26 0 0 0 .9 1.746c3.714-2.857 7.1-6.925 10.07-10.556 2.7-3.294 10.375-12.145 6.373-16.567a4.941 4.941 0 0 0-2.174-1.285 8.984 8.984 0 0 0-6.472.387c-3.139 1.441-5.321 5.105-6.383 8.292z" class="prefix__cls-2" data-name="Path 776" transform="translate(-13529.433 -18468.121)"/>
        <path id="prefix__Path_777" d="M596.363 273.035c1.35-4.051-2.133-9.881-6.283-10.416a4.043 4.043 0 0 0-2.668.486c-3.738 2.388.428 12.351 1.474 15.373 1.5 4.265 3.294 8.432 5.163 12.54a11.254 11.254 0 0 0 .9 1.746c3.714-2.857 7.1-6.925 10.07-10.556 2.7-3.294 10.375-12.145 6.373-16.567a4.94 4.94 0 0 0-2.174-1.285 8.984 8.984 0 0 0-6.472.387c-3.131 1.474-5.313 5.097-6.383 8.292z" class="prefix__cls-1" data-name="Path 777" transform="translate(-13596.287 -18460.561)"/>
        <path id="prefix__Path_778" d="M51.163 395.125c1.35-4.051-2.133-9.881-6.283-10.416a4.043 4.043 0 0 0-2.668.486c-3.738 2.388.428 12.351 1.474 15.373 1.5 4.265 3.294 8.432 5.163 12.54a11.258 11.258 0 0 0 .9 1.746c3.714-2.857 7.1-6.925 10.07-10.556 2.7-3.294 10.375-12.145 6.373-16.567A4.94 4.94 0 0 0 64 386.438a8.983 8.983 0 0 0-6.472.387c-3.121 1.408-5.303 5.113-6.365 8.3z" class="prefix__cls-1" data-name="Path 778" transform="translate(-13484.172 -18482.119)"/>
    </g>
</svg>
