<svg xmlns="http://www.w3.org/2000/svg" width="301.405" height="199.854" viewBox="0 0 301.405 199.854">
    <defs>
        <style>
            .prefix__cls-2{fill:#85cbcd}.prefix__cls-14,.prefix__cls-18,.prefix__cls-2,.prefix__cls-3,.prefix__cls-4,.prefix__cls-6,.prefix__cls-8,.prefix__cls-9{fill-rule:evenodd}.prefix__cls-3{fill:#ff3274}.prefix__cls-4{fill:#a8dee0}.prefix__cls-10,.prefix__cls-13,.prefix__cls-16,.prefix__cls-17,.prefix__cls-19,.prefix__cls-20,.prefix__cls-5,.prefix__cls-7{fill:none}.prefix__cls-5{stroke:#85cbcd}.prefix__cls-10,.prefix__cls-12,.prefix__cls-13,.prefix__cls-16,.prefix__cls-17,.prefix__cls-19,.prefix__cls-20,.prefix__cls-5,.prefix__cls-7{stroke-linecap:round;stroke-linejoin:round;stroke-width:2px}.prefix__cls-6{fill:#6a3416}.prefix__cls-7{stroke:#fff}.prefix__cls-8{fill:#3c1b09}.prefix__cls-9{fill:#c4c4c4}.prefix__cls-10{stroke:#8d8d8d}.prefix__cls-12{fill:#c9edef}.prefix__cls-12,.prefix__cls-13{stroke:#aadaf1}.prefix__cls-14{fill:#f77f89}.prefix__cls-16{stroke:#737999}.prefix__cls-17{stroke:#b5545c}.prefix__cls-18{fill:#b5545c}.prefix__cls-19{stroke:#ff3274}.prefix__cls-20{stroke:#d5d5d5}
        </style>
    </defs>
    <g id="prefix__Group_254" data-name="Group 254" transform="translate(-556.493 -808.166)">
        <path id="prefix__Background_Shape" fill="rgba(170,255,82,0.23)" d="M.38 58.375c7.644-29.552 84.987-12.717 135.693-21.853S246.767-15.162 286.469 5.68s-2.54 71.225-93.6 82.594S-7.263 87.927.38 58.375z" data-name="Background Shape" transform="translate(556.493 894.925)"/>
        <path id="prefix__Path_522" d="M285.44 271.775c0-2.148 3.38-3.885 7.546-3.885s7.546 1.737 7.546 3.885-3.38 3.882-7.546 3.882-7.546-1.731-7.546-3.882z" class="prefix__cls-2" data-name="Path 522" transform="translate(431.717 625.574)"/>
        <path id="prefix__Path_523" d="M248.11 556.963l2.29 7.372 9.5-2.17-.932-9.375z" class="prefix__cls-3" data-name="Path 523" transform="translate(457.257 430.661)"/>
        <path id="prefix__Path_524" d="M165.246 282.94h144.5a1.4 1.4 0 0 1 1.4 1.4v2.527a1.4 1.4 0 0 1-1.4 1.4h-144.5a1.4 1.4 0 0 1-1.4-1.4v-2.527a1.4 1.4 0 0 1 1.4-1.4z" class="prefix__cls-4" data-name="Path 524" transform="translate(514.903 615.278)"/>
        <path id="prefix__Path_525" d="M167.232 300.18L138 389.826" class="prefix__cls-5" data-name="Path 525" transform="translate(532.588 603.483)"/>
        <path id="prefix__Path_529" d="M141.116 537.54l-3.076 6.949 8.515 3.648 3.79-7.025z" class="prefix__cls-3" data-name="Path 529" transform="translate(532.56 441.094)"/>
        <path id="prefix__Path_530" d="M129.128 557.51l9 3.9s11.219 10.512 16.4 13.073c-.016 2.334-.316 3.418-2.11 4.084-.8.3-15.3-5.508-15.3-5.508l-2.432-2.609-9.381-4.315z" class="prefix__cls-6" data-name="Path 530" transform="translate(541.276 427.432)"/>
        <path id="prefix__Path_531" d="M154.63 549.227a1.143 1.143 0 1 1 .335.812 1.147 1.147 0 0 1-.335-.812z" class="prefix__cls-7" data-name="Path 531" transform="translate(521.211 433.883)"/>
        <path id="prefix__Path_532" d="M140.9 553.95a1.15 1.15 0 1 1 1.147 1.15 1.15 1.15 0 0 1-1.147-1.15z" class="prefix__cls-7" data-name="Path 532" transform="translate(530.604 430.654)"/>
        <path id="prefix__Path_533" d="M159.72 560.347a1.147 1.147 0 1 1 1.147 1.146 1.147 1.147 0 0 1-1.147-1.146z" class="prefix__cls-7" data-name="Path 533" transform="translate(517.728 426.276)"/>
        <path id="prefix__Path_534" d="M118.315 579.362l9.182 4.084a.985.985 0 0 1 .512 1.292l-.8 1.8a.979.979 0 0 1-1.3.48l-9.188-4.084a.979.979 0 0 1-.512-1.289l.8-1.8a.985.985 0 0 1 1.311-.483z" class="prefix__cls-8" data-name="Path 534" transform="translate(547.554 412.545)"/>
        <path id="prefix__Path_535" d="M73.6 320.569c20.913-5.891 50.912-2.628 57.384 6.358 2.312 3.209 1.529 8.231.948 10.123s-25.054 54.4-25.054 54.4L95.9 387.274l10.783-42.64S71 321.295 73.6 320.569z" class="prefix__cls-9" data-name="Path 535" transform="translate(576.742 591.566)"/>
        <path id="prefix__Path_536" d="M156.81 454.7l12.631-40.7" class="prefix__cls-10" data-name="Path 536" transform="translate(519.719 525.614)"/>
        <path id="prefix__Path_537" d="M148 524.33l11.775 4.422" class="prefix__cls-10" data-name="Path 537" transform="translate(525.746 450.132)"/>
        <path id="prefix__Path_538" d="M254.76 580.752l9.431-2.691s15.341 1.02 20.97-.281c1.469 1.816 1.933 2.843.948 4.5-.433.736-15.328 5.439-15.328 5.439l-3.534-.477-9.978 2.612z" class="prefix__cls-6" data-name="Path 538" transform="translate(452.707 413.564)"/>
        <path id="prefix__Path_539" d="M256.041 607.509l9.69-2.663a.979.979 0 0 1 1.213.67l.524 1.9a.979.979 0 0 1-.7 1.2l-9.69 2.663a.979.979 0 0 1-1.213-.67l-.524-1.9a.979.979 0 0 1 .7-1.2z" class="prefix__cls-8" data-name="Path 539" transform="translate(452.332 395.073)"/>
        <path id="prefix__Path_540" d="M268.1 574.243a1.15 1.15 0 1 1 1.147 1.147 1.15 1.15 0 0 1-1.147-1.147z" class="prefix__cls-7" data-name="Path 540" transform="translate(443.58 416.773)"/>
        <path id="prefix__Path_541" d="M274.61 562.5a1.15 1.15 0 1 1 1.147 1.147 1.15 1.15 0 0 1-1.147-1.147z" class="prefix__cls-7" data-name="Path 541" transform="translate(439.127 424.805)"/>
        <path id="prefix__Path_542" d="M254.76 571.667a1.147 1.147 0 1 1 1.147 1.147 1.147 1.147 0 0 1-1.147-1.147z" class="prefix__cls-7" data-name="Path 542" transform="translate(452.707 418.531)"/>
        <path id="prefix__Path_543" d="M6.2 408.63h47.947a6.2 6.2 0 0 1 6.2 6.2 6.2 6.2 0 0 1-6.2 6.2H6.2a6.2 6.2 0 0 1-6.2-6.2 6.2 6.2 0 0 1 6.2-6.2z" class="prefix__cls-4" data-name="Path 543" transform="translate(627 529.288)"/>
        <path id="prefix__Path_544" d="M86.57 434.48h4.018a1.2 1.2 0 0 1 1.2 1.2v44.409a1.2 1.2 0 0 1-1.2 1.2H86.57a1.2 1.2 0 0 1-1.2-1.2V435.68a1.2 1.2 0 0 1 1.2-1.2z" class="prefix__cls-4" data-name="Path 544" transform="translate(568.594 511.602)"/>
        <path id="prefix__Path_545" fill="#c9edef" fill-rule="evenodd" d="M79.733 537.54H87a1.977 1.977 0 0 1 1.977 1.977v10.72a1.977 1.977 0 0 1-1.993 1.977h-7.267a1.977 1.977 0 0 1-1.977-1.977v-10.72a1.977 1.977 0 0 1 1.993-1.977z" data-name="Path 545" transform="translate(573.814 441.094)"/>
        <path id="prefix__Path_546" d="M19.32 591.634v-2.094a5.54 5.54 0 0 1 5.54-5.54h18.531" class="prefix__cls-12" data-name="Path 546" transform="translate(613.782 409.309)"/>
        <path id="prefix__Path_547" d="M119.424 591.634v-2.094a5.543 5.543 0 0 0-5.55-5.54H95.35" class="prefix__cls-12" data-name="Path 547" transform="translate(561.767 409.309)"/>
        <path id="prefix__Path_548" d="M66.78 591.634v-2.527c0-2.82 1.469-5.107 3.279-5.107h11.6c1.81 0 3.279 2.287 3.279 5.107v2.527" class="prefix__cls-13" data-name="Path 548" transform="translate(581.313 409.309)"/>
        <path id="prefix__Path_549" d="M9.71 611.215a3.035 3.035 0 1 1 3.035 3.035 3.035 3.035 0 0 1-3.035-3.035z" class="prefix__cls-12" data-name="Path 549" transform="translate(620.357 392.766)"/>
        <path id="prefix__Path_550" d="M57.17 611.215a3.035 3.035 0 1 1 3.035 3.035 3.035 3.035 0 0 1-3.035-3.035z" class="prefix__cls-12" data-name="Path 550" transform="translate(587.887 392.766)"/>
        <path id="prefix__Path_551" d="M117.705 608.17a3.038 3.038 0 1 1-3.035 3.038 3.039 3.039 0 0 1 3.035-3.038" class="prefix__cls-12" data-name="Path 551" transform="translate(548.549 392.773)"/>
        <path id="prefix__Path_552" d="M162 611.215a3.035 3.035 0 1 1 3.035 3.035 3.035 3.035 0 0 1-3.035-3.035z" class="prefix__cls-12" data-name="Path 552" transform="translate(516.168 392.766)"/>
        <path id="prefix__Path_553" d="M14.014 285.758C-5.117 325.72 33.5 326.8 47.046 326.6s17.116-1.219 20.783-2.107c1.172 3.55 15.218 49.526 15.218 49.526l12.334-3.727s-9.428-58.408-11.557-62.353c-5.846-10.846-40.429-11.434-44.8-11.172s-22.584-16.076-25.01-11.009z" class="prefix__cls-9" data-name="Path 553" transform="translate(620.983 614.017)"/>
        <path id="prefix__Path_554" d="M24.839 305.16c-13.1 32.707 43.1 30.736 55.391 26.99 1.838 5.259 17.056 54.141 17.056 54.141" class="prefix__cls-10" data-name="Path 554" transform="translate(611.352 600.076)"/>
        <path id="prefix__Path_555" d="M223.152 353.89a17.909 17.909 0 0 1-14.292-17.04" class="prefix__cls-10" data-name="Path 555" transform="translate(484.109 578.396)"/>
        <path id="prefix__Path_556" d="M177.07 411.7a54.6 54.6 0 0 0 5.884-1.2c.486 1.472 3.187 10.243 6.178 20" class="prefix__cls-10" data-name="Path 556" transform="translate(505.858 528.008)"/>
        <path id="prefix__Path_557" d="M154.051 343.493c-1.03-5.139-1.9-8.8-2.363-9.694-5.5-10.189-36.374-11.327-43.7-11.206" class="prefix__cls-10" data-name="Path 557" transform="translate(553.119 588.155)"/>
        <path id="prefix__Path_558" d="M253.325 544.06l-12.8 3.869" class="prefix__cls-10" data-name="Path 558" transform="translate(462.449 436.634)"/>
        <path id="prefix__Path_559" d="M98.67 77.5a6.544 6.544 0 1 1 6.541 6.544A6.544 6.544 0 0 1 98.67 77.5z" class="prefix__cls-6" data-name="Path 559" transform="translate(559.495 760.303)"/>
        <path id="prefix__Path_560" d="M294.094 255.689c1.077-.884 4-3.042 4.931-3.029s3.765 2.672 3.828 3.37a2.281 2.281 0 0 1-1.374 1.879c-.537.079-2.265-1.579-2.644-1.431a5.191 5.191 0 0 0-1.456 1.424c-.244.393-4.359-1.345-3.285-2.213z" class="prefix__cls-14" data-name="Path 560" transform="translate(425.919 635.994)"/>
        <path id="prefix__Path_561" d="M160.239 155.339l6.462 6.6s4.889-10.5 8.294-16.049c-.689-.992-1.9-4.943-1.74-5.685s3.711-7.748 4.57-7.34a2.721 2.721 0 0 1 1.222 3.159c.509-1.822 1.368-4.343 2.126-4.593s2.353.079 2.284 1.358a2.154 2.154 0 0 1 1.737-1.456c.632-.028 1.92.512 2.009 1.308.107.995-1.314 3.37-1.488 3.708.663-.9.657-.948 1.055-.948a2.092 2.092 0 0 1 1.491 2.931c-.66 1.715-3.923 9.719-6.45 10.06.117 1.554-7.413 23.237-7.413 23.237l-11.409-.455-8.31-10.992z" class="prefix__cls-14" data-name="Path 561" transform="translate(521.176 719.004)"/>
        <path id="prefix__Path_562" fill="#3b4161" fill-rule="evenodd" d="M44.4 131.92c-20.982.025-27.994 49.273-25.8 52.65 1.608 2.476 20.641 9.757 27.163 7.52 2.3-.79 8.294-13.092 11.687-25.505 3.617-2.969 10.461-8.591 11.576-9.675-.316-2.378-5.815-11.961-11.51-16.206-1.969-4.495-5.616-8.784-13.116-8.784z" data-name="Path 562" transform="translate(614.538 718.598)"/>
        <path id="prefix__Path_563" d="M118.3 218.184s10.016 12.634 12.65 13.661 31.086.7 33.165.455 1.7 1.342 3.579 1.443a3.507 3.507 0 0 0 3.332-2.483c1.188 1.32 3.282 3.351 4.656 2.644.973-.505.985-.948.316-1.646.948.546 2.66 1.349 3.351.809 1.112-.865 1.216-1.674.84-2.347a18.913 18.913 0 0 0-5.78-5.37c-1.023-.4-4.141.708-5.641.8-6.8.42-23.948-3.809-29.573-4.065-.828-1.579-9.4-11.949-10.066-12.985-2.355 2.012-10.829 9.084-10.829 9.084z" class="prefix__cls-14" data-name="Path 563" transform="translate(546.065 665.795)"/>
        <path id="prefix__Path_564" d="M109.45 78.32a9.937 9.937 0 1 1 9.935 9.934 9.937 9.937 0 0 1-9.935-9.934z" class="prefix__cls-14" data-name="Path 564" transform="translate(552.12 762.068)"/>
        <path id="prefix__Path_565" d="M103.989 92.693c.041 1.545-3.193 11.311-4.469 13.181.632 1.494 6.813 5.24 9.653 4.441.316-1.9 1.374-5.7 2.028-6.551s-7.253-12.628-7.212-11.071z" class="prefix__cls-14" data-name="Path 565" transform="translate(558.914 745.531)"/>
        <path id="prefix__Path_566" d="M114.77 33.54a6.51 6.51 0 0 0-4.956 2.312 7.422 7.422 0 0 0-9.731 9.138 4.343 4.343 0 0 0-1.4 3.19 4.438 4.438 0 0 0 3.632 4.334c.051-.243.051-.414.13-.692.215-.739 3.43-2.091 3.79-1.848a2.508 2.508 0 0 0 .948.417.757.757 0 0 0 .088 0 7.486 7.486 0 0 0 6.535-3.869 6.634 6.634 0 0 0 .976.1 6.544 6.544 0 1 0 6.544-6.544 6.545 6.545 0 0 0-6.556-6.538z" class="prefix__cls-6" data-name="Path 566" transform="translate(559.488 785.904)"/>
        <path id="prefix__Path_567" d="M101.11 72.478a3.847 3.847 0 1 1 1.123 2.726 3.847 3.847 0 0 1-1.123-2.726z" class="prefix__cls-14" data-name="Path 567" transform="translate(557.826 761.89)"/>
        <path id="prefix__Path_568" d="M38.535 215.466c-.414-6.109 5.423-28.8 9.791-35.556" class="prefix__cls-16" data-name="Path 568" transform="translate(600.651 685.765)"/>
        <path id="prefix__Path_569" d="M79.53 174.193c1.017 2.1 6.049 11.4 10.313 14.684 1.627-1.541 13.351-11.532 13.351-11.532-1.5-2.783-8.7-11.507-11.03-13.645" class="prefix__cls-16" data-name="Path 569" transform="translate(572.59 696.855)"/>
        <path id="prefix__Path_570" d="M105.19 211.466l14.093-11.646" class="prefix__cls-16" data-name="Path 570" transform="translate(555.035 672.144)"/>
        <path id="prefix__Path_571" d="M113.776 150.57a3.049 3.049 0 0 1-.436.872c-1.674 2.337-6.393 2.081-10.54-.569" class="prefix__cls-16" data-name="Path 571" transform="translate(556.67 705.838)"/>
        <path id="prefix__Path_572" d="M142.77 159.8a28.5 28.5 0 0 1 1.431 11.567" class="prefix__cls-16" data-name="Path 572" transform="translate(529.324 699.524)"/>
        <path id="prefix__Path_573" d="M159.2 207.429l5.306-4.709" class="prefix__cls-16" data-name="Path 573" transform="translate(518.084 670.16)"/>
        <path id="prefix__Path_574" d="M86 278.736c1.753-.275 11.323-.079 9.555.521s-5.079 1.027-3.6 1.374a36.423 36.423 0 0 0 4.3.739" class="prefix__cls-16" data-name="Path 574" transform="translate(568.163 618.238)"/>
        <path id="prefix__Path_575" d="M157.528 100.68a6.514 6.514 0 0 0 .755 3.7" class="prefix__cls-17" data-name="Path 575" transform="translate(519.244 739.97)"/>
        <path id="prefix__Path_576" d="M140.293 94.721c.316-.749.948-1.2 1.387-1.008s.527.948.2 1.7-.948 1.2-1.387 1.008-.529-.948-.2-1.7z" class="prefix__cls-18" data-name="Path 576" transform="translate(531.154 744.767)"/>
        <path id="prefix__Path_577" d="M164.043 100.127c.316-.749.948-1.2 1.387-1.011s.527.948.2 1.7-.948 1.2-1.387 1.008-.529-.951-.2-1.697z" class="prefix__cls-18" data-name="Path 577" transform="translate(514.906 741.07)"/>
        <path id="prefix__Path_578" d="M135.743 113.776a3.234 3.234 0 0 1-2.243-2.786" class="prefix__cls-17" data-name="Path 578" transform="translate(535.667 732.917)"/>
        <path id="prefix__Path_579" d="M121.051 121.384a9.943 9.943 0 0 1-6.491-4.334" class="prefix__cls-17" data-name="Path 579" transform="translate(548.624 728.771)"/>
        <path id="prefix__Path_580" d="M112.39 92.2a3.79 3.79 0 0 1-1.342.243 3.852 3.852 0 0 1-1.035-.142" class="prefix__cls-17" data-name="Path 580" transform="translate(551.735 745.772)"/>
        <path id="prefix__Path_581" d="M107.341 78.545a2.252 2.252 0 1 1 2.843-2.173" class="prefix__cls-17" data-name="Path 581" transform="translate(554.7 758.142)"/>
        <path id="prefix__Path_582" d="M181.111 233.671l-10.508-1.6-6.522-8.376" class="prefix__cls-17" data-name="Path 582" transform="translate(514.745 655.814)"/>
        <path id="prefix__Path_583" d="M227.829 154.785c.392-.853 1.478-2.723 1.1-3.538s-2.979-1.917-2.66-2.7a27.493 27.493 0 0 1 1.766-2.89" class="prefix__cls-17" data-name="Path 583" transform="translate(472.216 709.197)"/>
        <path id="prefix__Path_584" d="M241.423 135.92l-1.993 4.075" class="prefix__cls-17" data-name="Path 584" transform="translate(463.195 715.861)"/>
        <path id="prefix__Path_585" d="M249.73 147.2l-1.62 2.3" class="prefix__cls-17" data-name="Path 585" transform="translate(457.257 708.144)"/>
        <path id="prefix__Path_586" d="M296.59 260.86l2.893 2.211" class="prefix__cls-17" data-name="Path 586" transform="translate(424.089 630.384)"/>
        <path id="prefix__Path_587" d="M296.16 277.676l-2.16-2" class="prefix__cls-17" data-name="Path 587" transform="translate(425.861 620.245)"/>
        <path id="prefix__Path_588" d="M259.066 37.17h3.642c.171 0 .316.2.316.452v2.271c0 .25-.142.449-.316.449h-3.642c-.174 0-.316-.2-.316-.449v-2.271c.003-.25.142-.452.316-.452z" class="prefix__cls-3" data-name="Path 588" transform="translate(449.977 783.42)"/>
        <path id="prefix__Path_589" d="M271.826 39.549v1.4c0 .041-.028.057-.06.038l-1.213-.692-1.21-.7c-.035-.019-.035-.051 0-.069l1.21-.7 1.213-.7a.038.038 0 0 1 .06.035z" class="prefix__cls-3" data-name="Path 589" transform="translate(442.747 782.773)"/>
        <path id="prefix__Path_590" d="M251 30.56a5.37 5.37 0 1 1 5.37 5.37 5.37 5.37 0 0 1-5.37-5.37z" class="prefix__cls-19" data-name="Path 590" transform="translate(455.279 791.617)"/>
        <path id="prefix__Path_591" d="M12.171 1H89.11a7.811 7.811 0 0 1 7.814 7.814V48a7.814 7.814 0 0 1-7.814 7.814H12.171A7.814 7.814 0 0 1 4.36 48V8.814A7.811 7.811 0 0 1 12.171 1z" class="prefix__cls-20" data-name="Path 591" transform="translate(624.017 808.166)"/>
        <path id="prefix__Path_592" d="M97.681 16.87H6.2" class="prefix__cls-20" data-name="Path 592" transform="translate(622.758 797.309)"/>
        <path id="prefix__Path_593" d="M22.14 6.815a1.112 1.112 0 1 1 1.112 1.109 1.112 1.112 0 0 1-1.112-1.109z" class="prefix__cls-19" data-name="Path 593" transform="translate(611.853 804.951)"/>
        <path id="prefix__Path_594" d="M36 6.815a1.109 1.109 0 1 1 .326.785A1.112 1.112 0 0 1 36 6.815z" class="prefix__cls-19" data-name="Path 594" transform="translate(602.371 804.951)"/>
        <path id="prefix__Path_595" d="M49.89 6.815A1.112 1.112 0 1 1 51 7.924a1.112 1.112 0 0 1-1.11-1.109z" class="prefix__cls-19" data-name="Path 595" transform="translate(592.868 804.951)"/>
        <path id="prefix__Path_598" d="M561.31 300.18l29.216 89.646" class="prefix__cls-5" data-name="Path 598" transform="translate(242.982 603.483)"/>
        <path id="prefix__Path_600" d="M318.358 115.4h45.29a3.534 3.534 0 0 1 3.534 3.534v37.4a3.534 3.534 0 0 1-3.534 3.534h-45.29a3.534 3.534 0 0 1-3.528-3.534v-37.4a3.534 3.534 0 0 1 3.528-3.534z" class="prefix__cls-4" data-name="Path 600" transform="translate(411.61 729.9)"/>
        <path id="prefix__Path_601" d="M318.344 115.39a3.531 3.531 0 0 0-3.534 3.531v37.407a3.534 3.534 0 0 0 3.534 3.519h2.271c-.019-.215-.069-.423-.069-.632V115.39z" class="prefix__cls-2" data-name="Path 601" transform="translate(411.624 729.907)"/>
        <path id="prefix__Path_602" d="M377.82 221.28h15.291l8.563 19.476h-15.831z" class="prefix__cls-2" data-name="Path 602" transform="translate(368.516 657.462)"/>
        <path id="prefix__Path_603" d="M539.54 239.49h12.6v13.724h-12.6z" class="prefix__cls-2" data-name="Path 603" transform="translate(257.876 645.004)"/>
        <path id="prefix__Path_604" fill="#85cbcd" stroke="#8dc5e0" stroke-linecap="round" stroke-linejoin="round" stroke-width="2px" d="M568.79 254.17a3.25 3.25 0 1 1 3.25 3.25 3.25 3.25 0 0 1-3.25-3.25z" data-name="Path 604" transform="translate(237.865 637.184)"/>
        <path id="prefix__Path_605" d="M539.54 246.89h12.489" class="prefix__cls-13" data-name="Path 605" transform="translate(257.876 639.941)"/>
        <path id="prefix__Path_606" fill="#fff" fill-rule="evenodd" d="M12.3 1h76.94a7.814 7.814 0 0 1 7.814 7.814V48a7.814 7.814 0 0 1-7.814 7.814H12.3A7.814 7.814 0 0 1 4.49 48V8.814A7.811 7.811 0 0 1 12.3 1z" data-name="Path 606" opacity="0.3" transform="translate(623.928 808.166)"/>
        <g id="prefix__Plant" transform="translate(755.81 898.162)">
            <path id="prefix__Fill_19" fill="#a7d676" d="M3.542 12.737C10.195 23.9 17.943 34.7 22.6 46.908c-.188-1.438-.386-2.875-.609-4.31-1.181-7.606-2.648-15.157-4.19-22.7-.785-3.84-1.616-7.665-2.468-11.491-.458-2.055-.911-4.111-1.378-6.163C13.838 1.749 13.741.88 13.6 0c4.522 14.84 8.883 29.691 12.073 44.887q.628 2.992 1.067 5.973c.1-.453.2-.907.306-1.359a87.821 87.821 0 0 1 5.532-15.865 48.1 48.1 0 0 1 3.858-7c.929-1.377 3.121-3.014 3.969-4.424-4.637 8.5-6.311 19.145-8.988 28.391-.653 2.256-1.311 4.509-1.955 6.765 4.037-8.1 10.3-14.75 19.011-17.633C37.929 46.7 31.606 58.9 27.344 71.374l-.045.444a16.7 16.7 0 0 1 4.974-6.04c4.582-3.227 9.664-2.287 14.109.481-3.488-2.217-9.792-.2-12.727 2.055A29.325 29.325 0 0 0 28.2 74.2c-.374.506-.883 1.1-1.422 1.727a77.841 77.841 0 0 1-3.727 14.6 36.6 36.6 0 0 0 .159-4.636l.024-.335q-.4 1.586-.767 3.131a42.847 42.847 0 0 0 .963-6.081l.161-2.668q-.026-2.532-.2-5.08c-.417-1.65-.884-3.206-1.269-4.5a58.164 58.164 0 0 0-5.933-13.316A52.567 52.567 0 0 0 8 46.666c-1.7-1.681-3.487-3.283-5.245-4.906A39.063 39.063 0 0 0 0 38.978c7.157 3.946 14.523 8.214 19.744 14.572q-.918-3.526-1.98-6.939C14.2 35.09 9.691 23.15 3.542 12.737z" data-name="Fill 19"/>
            <path id="prefix__Base" fill="#f4d5ff" d="M0 0c0 12.795 1.013 23.167 14.613 23.167S29.226 12.795 29.226 0" transform="translate(10.692 75.915)"/>
        </g>
    </g>
</svg>
