<svg xmlns="http://www.w3.org/2000/svg" width="262.222" height="176.92" viewBox="0 0 262.222 176.92">
    <defs>
        <style>
            .prefix__cls-1{fill:#5ba80c}.prefix__cls-2{fill:rgba(170,255,82,.23)}.prefix__cls-3{fill:#a7d676}.prefix__cls-6{fill:#de8e68}.prefix__cls-7{fill:#2b44ff}.prefix__cls-12{fill:#dfdfdf}.prefix__cls-13{fill:#f3f3f3}.prefix__cls-14{fill:#fff}
        </style>
    </defs>
    <g id="prefix__Group_260" data-name="Group 260" transform="translate(-420 -443.96)">
        <g id="prefix__Group_251" data-name="Group 251" transform="translate(263 189)">
            <path id="prefix__Twisted_Leaf" d="M36.434.476a2.643 2.643 0 0 0-.851-.229A13.8 13.8 0 0 0 32.923 0 49.081 49.081 0 0 0 24.7.739c-1.712.3-3.782 1.291-5.485.75a11.676 11.676 0 0 0-8.78.449 12.305 12.305 0 0 0-5.669 6.087A15.471 15.471 0 0 0 3.7 10.753c-.084.193-.166.388-.239.585-.208.561-.394 1.131-.567 1.7-.074.244-.26.782-.039.886a16.2 16.2 0 0 0-.926 2.014A29.026 29.026 0 0 0 .077 22.3a9.948 9.948 0 0 0-.011 2.378c.045.391.027 1.179.292 1.476.563.632.853-.253.789-.674-.485-3.21.451-6.224 1.561-9.242a18.988 18.988 0 0 1 3.217-5.353 13.51 13.51 0 0 1 3.681-3.206A57.55 57.55 0 0 1 15.212 4.9c1.248-.566 2.5-1.117 3.781-1.6a3.769 3.769 0 0 1 1.051-.388 10.1 10.1 0 0 1 2.263.675 49.136 49.136 0 0 0 6.475 1.687 8.351 8.351 0 0 0 4.047-.494 3.788 3.788 0 0 0 .637-.347 9.244 9.244 0 0 0 2.71-1.533 10.808 10.808 0 0 0 1.27-1.368.717.717 0 0 0 .168-.451c.087-.046.145-.1.158-.161.1-.458-.778-.467-1.338-.44" class="prefix__cls-1" data-name="Twisted Leaf" transform="translate(366.212 280.621)"/>
            <path id="prefix__Fill_16" d="M4.253 0c-.692 0-1.382.014-2.074.05C1.652.077.847-.032.4.3-.062.635-.03 1.33.042 1.82a11.044 11.044 0 0 0 3.27 6.736 18.926 18.926 0 0 0 10.536 4.911 8.584 8.584 0 0 0 7.622-2.2 31.549 31.549 0 0 1 3.3 9.178 21.885 21.885 0 0 1 .327 4.717c-.033 1.023-.09 2.044-.2 3.063a3.608 3.608 0 0 0-.1 1.531.7.7 0 0 0 1.2.12 3.423 3.423 0 0 0 .263-1.446c.088-.685.169-1.371.227-2.059.094-1.114.164-2.232.159-3.35A24.868 24.868 0 0 0 25.3 15.6a25.465 25.465 0 0 0-7.577-11.84A14.621 14.621 0 0 0 9.852.576 39.647 39.647 0 0 0 4.253 0" class="prefix__cls-2" data-name="Fill 16" transform="rotate(-39 542.926 -88.365)"/>
            <path id="prefix__Leaf" d="M29.037 64.444a113.758 113.758 0 0 0-2.243-13.3c-.641-2.583-1.463-5.111-2.209-7.665q.1.48.178.966c-.26-.762-.8-1.49-1.114-2.249-.348-.846-.628-1.726-.894-2.6-.519-1.706-1.008-3.414-1.592-5.1-.651-1.879-1.4-3.726-2.1-5.588a45.352 45.352 0 0 0-1.919-4.748c-.42-.822-.8-1.7-1.21-2.543-.138-.28-1.324-3.413-1.315-3.413.2 0 .931 1.392 1.053 1.6.356.6.658 1.219.964 1.842a8.2 8.2 0 0 1 .67-2.144c.1-.21.814-1.758 1.046-1.758a24.284 24.284 0 0 1-1.091 3.18 5.294 5.294 0 0 0-.388.695c-.116.358-.056.269.039.592a16.972 16.972 0 0 0 .808 1.741 12.377 12.377 0 0 0 .786 1.827 47.4 47.4 0 0 1 2.046 5.336 11.425 11.425 0 0 1 .695-2.491 9.185 9.185 0 0 1 .866-1.969 13.685 13.685 0 0 1-.665 3.093c-.192.457-.493.9-.653 1.364-.175.51.132.97.328 1.492.721 1.92 1.352 3.86 1.93 5.825 3.352-1.468 4.019-5.789 4.238-8.976a22.264 22.264 0 0 0-.755-6.863 45.867 45.867 0 0 0-3.323-8.608 30.792 30.792 0 0 0-6.24-8.618 32.928 32.928 0 0 0-4.422-3.532 9.408 9.408 0 0 0-2.42-1.249 8.772 8.772 0 0 0-1.223-.3C8.594.229 7.952-.062 7.691.012A8.232 8.232 0 0 0 2.719 3.4 15.939 15.939 0 0 0 .41 9.212 18.486 18.486 0 0 0 .237 16a41.97 41.97 0 0 0 1.316 5.1c1.816 5.971 5 12.372 10.71 15.648a17.382 17.382 0 0 0 6.006 2.009c.5.077.992.151 1.494.179.339.019 1.451-.206 1.7-.06.336.2.529 1.335.675 1.747 1.112 3.128 2.106 6.292 3.009 9.483.96 3.4 1.723 6.825 2.358 10.292.27 1.475.533 2.947.757 4.43.052.345 0 1.43.335 1.735a.406.406 0 0 0 .64-.122c.22-.41-.139-1.542-.2-2" class="prefix__cls-3" transform="rotate(-37 485.705 -98.302)"/>
            <path id="prefix__Fill_10" d="M30.644.235a16.774 16.774 0 0 0-3.8-.223A23.588 23.588 0 0 0 9.441 8.27c-3.613 4.277-4.607 9.595-5.321 14.97-.071.534-.1 1.064-.141 1.6-.009.115-.021.217-.035.314a.69.69 0 0 0-.262.865 35.734 35.734 0 0 0-1.59 4.172C.771 34.4-.573 38.7.255 43.125A61.893 61.893 0 0 1 1.341 35.8c.028-.138.058-.274.09-.41l.009-.043a16.026 16.026 0 0 1 .669-2.147l.009-.023c.036-.092.074-.184.112-.276.078-.19.158-.38.243-.568l.083-.194c.4-.972.564-2.066.919-3.071q.127-.343.267-.683l.017-.04c.251-.61.529-1.212.823-1.807a2.225 2.225 0 0 0 .383-.688 4.3 4.3 0 0 0 .317-.614l.52-1-.016.006.523-.958.115-.21.187-.334c.582-1.041 1.2-2.061 1.839-3.069.229-.36.775-.875.879-1.279 0-.015 0-.029.007-.043a22.914 22.914 0 0 1 4.909-5.18c-.232.251-.725 1.1-.855 1.27-.4.516-.832 1-1.267 1.482a31.548 31.548 0 0 0-2.214 2.719A51.664 51.664 0 0 0 6.6 24.061l-.029.032a13.22 13.22 0 0 0-1.189 2.281c1.442-.668 3.037-1.1 4.517-1.7a37.114 37.114 0 0 0 4.3-2.023 47.963 47.963 0 0 0 5.495-3.5 21.769 21.769 0 0 0 5.151-4.728A24.836 24.836 0 0 0 29.19 7.61a20.467 20.467 0 0 0 1.1-3.909c.01-.058.023-.121.036-.186A12.8 12.8 0 0 0 30.94 2.1c.277-.763.932-1.6-.3-1.87" class="prefix__cls-1" data-name="Fill 10" transform="translate(368.707 293.809)"/>
            <path id="prefix__Leave_the_Leaf_" d="M19.131 29.225c.079 0 .165-.06.257-.18.212-.275.042-1.169-.049-1.65-.016-.086-.03-.159-.038-.209a10.335 10.335 0 0 0-.273-1.25 36.062 36.062 0 0 0-1.328-3.671c-.182-.447-.373-.911-.567-1.378-.036-.087-.067-.151-.092-.2-.089-.185-.089-.185.092-.382l.032-.035a2.508 2.508 0 0 1 .33-.285 3.072 3.072 0 0 0 .277-.23 6.213 6.213 0 0 0 1.516-2.511 6.3 6.3 0 0 0 .274-2.747 10.8 10.8 0 0 0-.7-2.693 21.614 21.614 0 0 0-2.193-4.237 19.536 19.536 0 0 0-3.112-3.658A16.947 16.947 0 0 0 8.383.885a10.945 10.945 0 0 0-3.3-.773C4.92.1 4.755.095 4.59.095a8.966 8.966 0 0 0-1.1.072c-.1.013-.211.034-.315.054a3.235 3.235 0 0 1-.446.066h-.193C2.4.3 2.349.256 2.177.087A.25.25 0 0 0 2.012 0a.148.148 0 0 0-.133.114.408.408 0 0 0 .112.426 3.049 3.049 0 0 0-1.4 1.234 4.4 4.4 0 0 0-.545 1.758 12.688 12.688 0 0 0 .3 3.773 17.3 17.3 0 0 0 1.222 3.766 19.808 19.808 0 0 0 1.973 3.369 28.479 28.479 0 0 0 5.574 5.649 8.143 8.143 0 0 0 3.744 1.711 4.364 4.364 0 0 0 .713.059 4.783 4.783 0 0 0 1.5-.251l.141-.042c.228-.066.573-.165.658-.308s.006-.238-.084-.378c-.026-.041-.054-.084-.079-.13l-.3-.537c-.259-.472-.527-.96-.8-1.437-.042-.075-.087-.175-.135-.28a1.83 1.83 0 0 0-.409-.664.252.252 0 0 0-.064-.007.529.529 0 0 1-.214-.035c-.045-.029-.053-.111-.057-.165 0-.027 0-.049-.01-.052a2.324 2.324 0 0 0-.81-.186c-.137-.016-.265-.031-.367-.053-.281-.06-.613-.135-.94-.238a10.431 10.431 0 0 1-.987-.366c-.068-.029-.167-.086-.272-.146a1.869 1.869 0 0 0-.553-.254 9.035 9.035 0 0 1 2.112.378 8.231 8.231 0 0 1 1.1.383c.043.018.115.058.2.1a1.832 1.832 0 0 0 .577.251.094.094 0 0 0 .048-.011 21.478 21.478 0 0 0-1.469-2.092c-.274-.346-.563-.719-.825-1.1-.017-.025-.058-.1-.111-.194a2.9 2.9 0 0 0-.46-.707c.167 0 .529.391.745.624.063.068.117.126.151.158a10.078 10.078 0 0 1 .8.849 19.281 19.281 0 0 1 1.181 1.6c.523.781.983 1.6 1.409 2.364.1.177.2.358.306.533a10.575 10.575 0 0 1 .763 1.48.09.09 0 0 1 .053-.023c.057 0 .084.092.11.181a.95.95 0 0 0 .03.091c.138.332.274.656.406.98.28.683.5 1.246.706 1.774l.011.028c.236.619.48 1.258.677 1.9a10.873 10.873 0 0 1 .405 1.842c.031.249.053.5.065.748.008.204.11.758.351.758zm-1.147-11.637a6.747 6.747 0 0 1-1.069 1.782c.25-.369.464-.708.657-1.036.044-.074.127-.229.208-.379.1-.187.195-.363.204-.367zm-4.763-5.194c.113 0 .235 1.015.247 1.183a4.944 4.944 0 0 1-.195 1.665 6.381 6.381 0 0 0-.05-.8 6.745 6.745 0 0 1-.035-2.033.044.044 0 0 1 .033-.015z" class="prefix__cls-1" data-name="Leave the Leaf!" transform="rotate(-58 362.886 -3.348)"/>
            <g id="prefix__Background_Shape_2" data-name="Background Shape 2" opacity="0.6" transform="translate(170.543 339.072)">
                <path id="prefix__Background_Shape" d="M235.84 52.09c3.439 23.282-79.969 38.468-151.76 27.87S-20.646 27.976 13.611 5.924 232.4 28.808 235.84 52.09z" class="prefix__cls-2" data-name="Background Shape"/>
            </g>
            <path id="prefix__Fill_1" d="M45.615 1.2A8.934 8.934 0 0 0 40.658 0a32.328 32.328 0 0 0-18.083 6.07 42.3 42.3 0 0 0-7.848 7.164 20.981 20.981 0 0 0-3.362 5 17.241 17.241 0 0 0-1.222 3.856 39.618 39.618 0 0 0-.693 4.921c-.046.649-.422 4.091.656 4.149a1.489 1.489 0 0 0 0 .238c-2.342 3.662-3.789 7.953-5.13 12.021A81.878 81.878 0 0 0 2.092 54.2 117.4 117.4 0 0 0 .341 68.8c-.06 1.051-.1 2.1-.136 3.156l-.09 2.693a17.356 17.356 0 0 0-.05 3.165c.139.871.893.739.926-.128.04-1.047.034-2.1.079-3.143q.091-2.086.192-4.171a97.511 97.511 0 0 1 5.53-28.29 65.963 65.963 0 0 1 4.8-10.6 73.909 73.909 0 0 1 5.9-8.615 54.6 54.6 0 0 1 6.7-7.429 51.565 51.565 0 0 1 6.6-4.85 72.4 72.4 0 0 1 9.036-5.108c1.651-.743 3.333-1.408 5-2.121.3-.128.62-.253.908-.4.961-.5.644-1.241-.121-1.76" class="prefix__cls-3" data-name="Fill 1" transform="translate(356.232 316.262)"/>
            <path id="prefix__Fill_20" d="M-86.383 0a18.143 18.143 0 0 1 7.492 1.405 33.3 33.3 0 0 1 5.927 3.441 18.6 18.6 0 0 1 6.17 6.867c.869 1.707 1.506 4.122.923 5.984-.687 2.193-2.575 4.022-5.061 3.635a9.159 9.159 0 0 1-4.115-2.214 15.561 15.561 0 0 1-3.44-4.053c-1.507-2.5-2.392-5.317-3.673-7.925-.607-1.238-1.194-2.484-1.922-3.661a5.905 5.905 0 0 0-1.29-1.592c-.292-.232-1.525-.632-1.054-1.152A15.223 15.223 0 0 0-100.785 12.7c-.124.612-.22 1.23-.322 1.846-.064.389-.038 1.824-.386 2.072-.767.548-.445-1.117-.412-1.357q.128-.93.271-1.857a15.456 15.456 0 0 1 4.511-8.884A15.724 15.724 0 0 1-86.383 0" class="prefix__cls-1" data-name="Fill 20" transform="translate(461.797 351.189)"/>
            <g id="prefix__Plant" transform="translate(179.81 330.162)">
                <path id="prefix__Fill_19" d="M3.542 12.737C10.195 23.9 17.943 34.7 22.6 46.908c-.188-1.438-.386-2.875-.609-4.31-1.181-7.606-2.648-15.157-4.19-22.7-.785-3.84-1.616-7.665-2.468-11.491-.458-2.055-.911-4.111-1.378-6.163C13.838 1.749 13.741.88 13.6 0c4.522 14.84 8.883 29.691 12.073 44.887q.628 2.992 1.067 5.973c.1-.453.2-.907.306-1.359a87.821 87.821 0 0 1 5.532-15.865 48.1 48.1 0 0 1 3.858-7c.929-1.377 3.121-3.014 3.969-4.424-4.637 8.5-6.311 19.145-8.988 28.391-.653 2.256-1.311 4.509-1.955 6.765 4.037-8.1 10.3-14.75 19.011-17.633C37.929 46.7 31.606 58.9 27.344 71.374l-.045.444a16.7 16.7 0 0 1 4.974-6.04c4.582-3.227 9.664-2.287 14.109.481-3.488-2.217-9.792-.2-12.727 2.055A29.325 29.325 0 0 0 28.2 74.2c-.374.506-.883 1.1-1.422 1.727a77.841 77.841 0 0 1-3.727 14.6 36.6 36.6 0 0 0 .159-4.636l.024-.335q-.4 1.586-.767 3.131a42.847 42.847 0 0 0 .963-6.081l.161-2.668q-.026-2.532-.2-5.08c-.417-1.65-.884-3.206-1.269-4.5a58.164 58.164 0 0 0-5.933-13.316A52.567 52.567 0 0 0 8 46.666c-1.7-1.681-3.487-3.283-5.245-4.906A39.063 39.063 0 0 0 0 38.978c7.157 3.946 14.523 8.214 19.744 14.572q-.918-3.526-1.98-6.939C14.2 35.09 9.691 23.15 3.542 12.737z" class="prefix__cls-3" data-name="Fill 19"/>
                <path id="prefix__Base" fill="#f4d5ff" d="M0 0c0 12.795 1.013 23.167 14.613 23.167S29.226 12.795 29.226 0" transform="translate(10.692 75.915)"/>
            </g>
        </g>
        <g id="prefix__drawkit-folder-man-colour" transform="translate(409 299.362)">
            <path id="prefix__Rectangle_291" d="M0 0H5.563V4.337H0z" class="prefix__cls-6" data-name="Rectangle 291" transform="translate(261.895 303.705)"/>
            <path id="prefix__Path_496" d="M977.459 315.218c-.626-.471-5.388-7.278-6.591-12.114s-1.308 14.154-1.308 14.154l2.982 2.615z" class="prefix__cls-7" data-name="Path 496" transform="translate(-726.408 -122.915)"/>
            <path id="prefix__Path_497" fill="#56cad8" d="M973.353 636.694l-6.466 11.315-1.617-35.159 10.305.338z" data-name="Path 497" transform="translate(-722.932 -374.514)"/>
            <path id="prefix__Path_498" d="M951.688 359.574c16.388 3.458 11.29 41.225 8.113 44.318s-26.589 3.669-28.847 1.082.167-49.744 20.734-45.4z" class="prefix__cls-7" data-name="Path 498" transform="translate(-694.571 -169.077)"/>
            <path id="prefix__Path_499" fill="#d37c59" d="M1024.13 334.133c-.19 1.256-7.607.362-7.284-1.365l1.886-10.059 7.284 1.366s-1.694 8.804-1.886 10.058z" data-name="Path 499" transform="translate(-764.711 -139.438)"/>
            <ellipse id="prefix__Ellipse_423" cx="10.281" cy="7.396" class="prefix__cls-6" data-name="Ellipse 423" rx="10.281" ry="7.396" transform="rotate(-79.39 236.31 -55.433)"/>
            <path id="prefix__Path_500" fill="#4d4d4d" d="M988.786 208.5c1.945 0 2.763 1.328 7.781 1.328 2.441 0 7.4.52 7.4 6.832 0 4.24 2.467 4.555 2.467 7.212 0 1.328-1.175 4.555-4.175 4.555-1.328 0-2.657-2.277-2.657-3.037s.759-1.328.759-1.9c.015-2.742-8.869-4.266-9.461-6.734a15.733 15.733 0 0 0-2.676 3.589c-.759-.389-.672-1.021-1.518-1.6-.731-.5-3.008-1.763-3.008-4.287-.008-1.251 1.302-5.958 5.088-5.958z" data-name="Path 500" transform="translate(-737.864 -46.903)"/>
            <circle id="prefix__Ellipse_424" cx="2.378" cy="2.378" r="2.378" class="prefix__cls-6" data-name="Ellipse 424" transform="translate(260.396 177.812)"/>
            <path id="prefix__Path_501" fill="#74d5de" d="M992.889 596.29l3.712 68.9h-6.792l-18.079-64.7v-3.944z" data-name="Path 501" transform="translate(-728.166 -361.097)"/>
            <path id="prefix__Rectangle_292" d="M0 0H171.667V126.679H0z" class="prefix__cls-12" data-name="Rectangle 292" transform="translate(73 161.672)"/>
            <path id="prefix__Rectangle_293" d="M0 0H171.667V126.679H0z" class="prefix__cls-13" data-name="Rectangle 293" transform="translate(73 176.54)"/>
            <path id="prefix__Path_502" d="M913.217 465.07a11.117 11.117 0 0 0-5.443 5.086c-1.983-.357-11.852-2.137-18.921-2.034-.66 1.423-1.78 3.663-1.328 3.968s14.955 6.358 25.127 5.441c1.328.095 6.673-4.934 6.846-5.341s-6.281-7.12-6.281-7.12z" class="prefix__cls-6" data-name="Path 502" transform="translate(-659.856 -254.781)"/>
            <ellipse id="prefix__Ellipse_425" cx="3.088" cy="4.606" class="prefix__cls-6" data-name="Ellipse 425" rx="3.088" ry="4.606" transform="rotate(-73.84 254.05 -38.416)"/>
            <ellipse id="prefix__Ellipse_426" cx="4.891" cy="4.185" class="prefix__cls-6" data-name="Ellipse 426" rx="4.891" ry="4.185" transform="translate(225 150.61)"/>
            <path id="prefix__Path_503" d="M359.129 416.4H296.17v102.166h86.1v-79.02z" class="prefix__cls-12" data-name="Path 503" transform="translate(-180.816 -215.347)"/>
            <circle id="prefix__Ellipse_427" cx="9.994" cy="9.994" r="9.994" class="prefix__cls-14" data-name="Ellipse 427" transform="translate(128.741 230.097)"/>
            <path id="prefix__Rectangle_294" d="M0 0H33.971V2.685H0z" class="prefix__cls-14" data-name="Rectangle 294" transform="translate(154.1 247.792)"/>
            <path id="prefix__Rectangle_295" d="M0 0H59.332V2.685H0z" class="prefix__cls-14" data-name="Rectangle 295" transform="translate(128.741 259.802)"/>
            <path id="prefix__Rectangle_296" d="M0 0H59.332V2.685H0z" class="prefix__cls-14" data-name="Rectangle 296" transform="translate(128.741 271.81)"/>
            <rect id="prefix__Rectangle_297" width="61.442" height="28.422" class="prefix__cls-13" data-name="Rectangle 297" rx="14.211" transform="translate(183.224 153.102)"/>
            <path id="prefix__Path_504" d="M475.259 188.28c0 2.148-6.612 18.789-41.819 18.789 0 3.587 43.669 1.778 43.669 1.778l.645-20.22z" class="prefix__cls-13" data-name="Path 504" transform="translate(-292.034 -30.521)"/>
            <path id="prefix__Path_505" d="M1023.756 408.517c4.365 4.919-6.358 19.062-8.424 18.477-2.435-.689-9.844-7.624-9.9-10.024s12.94-14.517 18.324-8.453z" class="prefix__cls-7" data-name="Path 505" transform="translate(-755.469 -207.599)"/>
            <path id="prefix__Path_506" d="M1068.32 974.18v3.536l8.719 11.072 2.608-1.268-5.341-13.34z" data-name="Path 506" transform="translate(-806.425 -667.27)"/>
        </g>
    </g>
</svg>
