<svg xmlns="http://www.w3.org/2000/svg" width="127" height="134.137" viewBox="0 0 127 134.137">
    <defs>
        <style>
            .prefix__cls-1{fill:#fff}
        </style>
    </defs>
    <g id="prefix__noun_economics_3170484" transform="translate(-46.295 -33.522)">
        <g id="prefix__Group_367" data-name="Group 367" transform="translate(46.295 33.5)">
            <g id="prefix__Group_366" data-name="Group 366">
                <g id="prefix__Group_365" data-name="Group 365">
                    <path id="prefix__Path_1138" d="M58.5 147.643v.473a4.682 4.682 0 0 0 6.2 4.435l50.951-18.24a1.512 1.512 0 0 1 1-.009c44.606 15.186 43.121 14.524 50.757 17.7a4.685 4.685 0 0 0 3.632-8.636l-54.876-24.389-54.881 24.384a4.69 4.69 0 0 0-2.783 4.282z" class="prefix__cls-1" data-name="Path 1138" transform="translate(-55.088 -93.204)"/>
                    <path id="prefix__Path_1139" d="M265.267 279.065a13.656 13.656 0 0 0-6.408-2.065 1.507 1.507 0 0 1-1.4-1.273l-1.659-10.642h-4.16L250 275.724a1.508 1.508 0 0 1-1.254 1.26 29.984 29.984 0 0 0-6.125 1.642 1.508 1.508 0 0 1-1.719-.461l-6.752-8.392-3.6 2.072 3.889 10.048a1.507 1.507 0 0 1-.451 1.711 31.871 31.871 0 0 0-4.475 4.475 1.508 1.508 0 0 1-1.711.451l-10.048-3.889-2.072 3.6 8.392 6.752a1.508 1.508 0 0 1 .461 1.719 29.98 29.98 0 0 0-1.642 6.125 1.507 1.507 0 0 1-1.26 1.254L211 305.729v4.16l10.641 1.658a1.508 1.508 0 0 1 1.259 1.253 30.382 30.382 0 0 0 1.1 4.568h12.6a19.343 19.343 0 0 1-2.5-9.55 19.65 19.65 0 0 1 19.627-19.627 19.367 19.367 0 0 1 11.535 3.774z" class="prefix__cls-1" data-name="Path 1139" transform="translate(-161.612 -195.266)"/>
                    <path id="prefix__Path_1140" d="M55.522 97.544A4.522 4.522 0 1 0 51 93.022a4.527 4.527 0 0 0 4.522 4.522z" class="prefix__cls-1" data-name="Path 1140" transform="translate(-49.849 -71.919)"/>
                    <path id="prefix__Path_1141" d="M297.636 368.333a16.375 16.375 0 0 0 3.044 9.55h25.1v-21.462a16.417 16.417 0 0 0-11.535-4.7 16.631 16.631 0 0 0-16.609 16.612z" class="prefix__cls-1" data-name="Path 1141" transform="translate(-222.129 -255.783)"/>
                    <path id="prefix__Path_1142" d="M378.537 73.574A7.537 7.537 0 1 0 371 66.037a7.546 7.546 0 0 0 7.537 7.537z" class="prefix__cls-1" data-name="Path 1142" transform="translate(-273.375 -50.963)"/>
                    <path id="prefix__Path_1143" d="M195.3 194.346l-42.569-14.492-41.9 15.127v14.613h16.632a1.507 1.507 0 1 1 0 3.015h-16.63v45.222h40.046c-.288-.987-.538-1.99-.735-3.007l-10.852-1.691a1.508 1.508 0 0 1-1.275-1.489V244.9a1.507 1.507 0 0 1 1.278-1.49l10.848-1.671a33.048 33.048 0 0 1 1.235-4.613l-8.554-6.883a1.508 1.508 0 0 1-.361-1.927l3.361-5.837a1.507 1.507 0 0 1 1.851-.654l10.252 3.967a34.954 34.954 0 0 1 3.351-3.351l-3.967-10.252a1.507 1.507 0 0 1 .654-1.85l5.837-3.361a1.507 1.507 0 0 1 1.927.361l6.883 8.554a33.034 33.034 0 0 1 4.613-1.235l1.671-10.849a1.507 1.507 0 0 1 1.49-1.278h6.743a1.507 1.507 0 0 1 1.489 1.275l1.679 10.773a18.431 18.431 0 0 1 5 1.478v-21.711zm-70.85 42.381h-6.03a1.507 1.507 0 1 1 0-3.015h6.03a1.507 1.507 0 1 1 0 3.015z" class="prefix__cls-1" data-name="Path 1143" transform="translate(-91.643 -135.731)"/>
                    <ellipse id="prefix__Ellipse_488" cx="2.5" cy="3" class="prefix__cls-1" data-name="Ellipse 488" rx="2.5" ry="3" transform="translate(16 .022)"/>
                    <circle id="prefix__Ellipse_489" cx="3" cy="3" r="3" class="prefix__cls-1" data-name="Ellipse 489" transform="translate(33 12.022)"/>
                    <circle id="prefix__Ellipse_490" cx="3" cy="3" r="3" class="prefix__cls-1" data-name="Ellipse 490" transform="translate(75 2.022)"/>
                    <circle id="prefix__Ellipse_491" cx="3" cy="3" r="3" class="prefix__cls-1" data-name="Ellipse 491" transform="translate(117 33.022)"/>
                    <ellipse id="prefix__Ellipse_492" cx="3.5" cy="3" class="prefix__cls-1" data-name="Ellipse 492" rx="3.5" ry="3" transform="translate(120 76.022)"/>
                    <circle id="prefix__Ellipse_493" cx="3" cy="3" r="3" class="prefix__cls-1" data-name="Ellipse 493" transform="translate(0 97.022)"/>
                    <path id="prefix__Path_1144" d="M170.085 454.53h-7.537v-6.03H60.044v6.03h-7.537a1.507 1.507 0 0 0 0 3.015h117.578a1.507 1.507 0 0 0 0-3.015z" class="prefix__cls-1" data-name="Path 1144" transform="translate(-49.849 -323.385)"/>
                </g>
            </g>
        </g>
    </g>
</svg>
