<svg xmlns="http://www.w3.org/2000/svg" width="48.388" height="48.388" viewBox="0 0 48.388 48.388">
    <g id="prefix__noun_Close_1130065" transform="translate(-5 -5)">
        <g id="prefix__Group_147" data-name="Group 147" transform="translate(5 5)">
            <path id="prefix__Path_462" d="M29.194 5a24.194 24.194 0 1 0 24.194 24.194A24.162 24.162 0 0 0 29.194 5zm6.989 34.409l-6.989-6.989-6.994 6.989c-2.1 2.1-5.269-1.129-3.226-3.226l6.989-6.989-6.984-6.994c-2.1-2.1 1.129-5.269 3.226-3.226l6.989 6.989 6.989-6.989c2.1-2.1 5.269 1.129 3.226 3.226l-6.989 6.994 6.989 6.989c2.043 2.044-1.182 5.269-3.226 3.226z" data-name="Path 462" transform="translate(-5 -5)" style="fill:#a7d676"/>
        </g>
    </g>
</svg>
