<svg xmlns="http://www.w3.org/2000/svg" width="20.5" height="12.826" viewBox="0 0 20.5 12.826">
    <defs>
        <style>
            .prefix__cls-1{fill:#d5d5d5}
        </style>
    </defs>
    <g id="prefix__noun_levels_3082135" transform="translate(-2.5 -20.3)">
        <g id="prefix__Group_373" data-name="Group 373" transform="translate(2.5 20.3)">
            <path id="prefix__Path_1158" d="M7.178 54.8h-4.2a.478.478 0 0 0-.474.474v4.419a.478.478 0 0 0 .474.474H7.2a.478.478 0 0 0 .474-.474v-4.419a.513.513 0 0 0-.496-.474z" class="prefix__cls-1" data-name="Path 1158" transform="translate(-2.5 -47.363)"/>
            <path id="prefix__Path_1159" d="M42.7 37.6h-4.226a.478.478 0 0 0-.474.474v8.148a.478.478 0 0 0 .474.474H42.7a.478.478 0 0 0 .474-.474v-8.17a.474.474 0 0 0-.474-.452z" class="prefix__cls-1" data-name="Path 1159" transform="translate(-30.348 -33.871)"/>
            <path id="prefix__Path_1160" d="M78.278 20.3h-4.2a.478.478 0 0 0-.474.474v11.878a.478.478 0 0 0 .474.474H78.3a.478.478 0 0 0 .474-.474V20.774a.513.513 0 0 0-.496-.474z" class="prefix__cls-1" data-name="Path 1160" transform="translate(-58.274 -20.3)"/>
        </g>
    </g>
</svg>
