<svg xmlns="http://www.w3.org/2000/svg" xmlns:xlink="http://www.w3.org/1999/xlink" width="883" height="686.95" viewBox="0 0 883 686.95">
    <defs>
        <linearGradient id="prefix__linear-gradient" x1=".5" x2=".5" y1="1" gradientUnits="objectBoundingBox">
            <stop offset="0" stop-color="gray" stop-opacity=".251"/>
            <stop offset=".54" stop-color="gray" stop-opacity=".122"/>
            <stop offset="1" stop-color="gray" stop-opacity=".102"/>
        </linearGradient>
        <linearGradient id="prefix__linear-gradient-2" x1=".5" x2=".5" y1="1" y2="0" xlink:href="#prefix__linear-gradient"/>
        <linearGradient id="prefix__linear-gradient-3" x1="38824.68" x2="38824.68" y1="4.008" y2="1.002" xlink:href="#prefix__linear-gradient"/>
        <linearGradient id="prefix__linear-gradient-4" x1="170.49" x2="170.49" y1=".999" y2="-.002" xlink:href="#prefix__linear-gradient"/>
        <style>
            .prefix__cls-1{fill:#f2f2f2}.prefix__cls-2{opacity:.5}.prefix__cls-6{fill:#fccc63}.prefix__cls-7{fill:#a7d676}.prefix__cls-15,.prefix__cls-9{fill:#fff}.prefix__cls-10,.prefix__cls-15{opacity:.2}.prefix__cls-13{fill:#ca7070}.prefix__cls-14{fill:#00695c}.prefix__cls-16{fill:#263238}.prefix__cls-17{fill:#ff5252}.prefix__cls-18{fill:#f6b9ad}
        </style>
    </defs>
    <g id="prefix__undraw_air_support_wy1q" transform="translate(.04 -24.91)">
        <rect id="prefix__Rectangle_619" width="200.86" height="21.69" class="prefix__cls-1" data-name="Rectangle 619" rx="9.96" transform="translate(636.34 24.91)"/>
        <rect id="prefix__Rectangle_620" width="200.86" height="21.69" class="prefix__cls-1" data-name="Rectangle 620" rx="9.96" transform="translate(681.33 43.39)"/>
        <rect id="prefix__Rectangle_621" width="200.86" height="21.69" class="prefix__cls-1" data-name="Rectangle 621" rx="9.96" transform="translate(605 59.46)"/>
        <rect id="prefix__Rectangle_622" width="200.86" height="21.69" class="prefix__cls-1" data-name="Rectangle 622" rx="9.96" transform="translate(292.46 273.18)"/>
        <rect id="prefix__Rectangle_623" width="200.86" height="21.69" class="prefix__cls-1" data-name="Rectangle 623" rx="9.96" transform="translate(337.45 291.66)"/>
        <rect id="prefix__Rectangle_624" width="200.86" height="21.69" class="prefix__cls-1" data-name="Rectangle 624" rx="9.96" transform="translate(261.12 307.72)"/>
        <g id="prefix__Group_460" class="prefix__cls-2" data-name="Group 460">
            <path id="prefix__Path_903" fill="url(#prefix__linear-gradient)" d="M1011 780.22c-4.82 0-115.7 48.21-244.25-78.74-69.81-68.93-138.19-76.27-186.11-68.58-29.45 4.72-56.34 19.1-77.64 39.93-17.13 16.82-58.59 39.74-155.73 33.48-149.44-9.64-188.81 97.22-188.81 97.22h883s-25.67-23.31-30.46-23.31z" data-name="Path 903" transform="translate(-158.5 -94.07)"/>
        </g>
        <path id="prefix__Path_904" d="M158.5 805.93s39.37-106.86 188.81-97.22C444.45 715 485.92 692.05 503 675.24c21.26-20.87 48.14-35.21 77.56-39.93 47.92-7.69 116.31-.35 186.11 68.58 128.55 126.95 239.43 78.74 244.25 78.74s30.53 23.3 30.53 23.3z" class="prefix__cls-1" data-name="Path 904" transform="translate(-158.5 -94.07)"/>
        <path id="prefix__Path_905" d="M158.5 805.93s39.37-106.86 188.81-97.22C444.45 715 485.92 692.05 503 675.24c21.26-20.87 48.14-35.21 77.56-39.93 47.92-7.69 116.31-.35 186.11 68.58 128.55 126.95 239.43 78.74 244.25 78.74s30.53 23.3 30.53 23.3z" data-name="Path 905" opacity="0.02" transform="translate(-158.5 -94.07)"/>
        <rect id="prefix__Rectangle_625" width="200.86" height="21.69" class="prefix__cls-1" data-name="Rectangle 625" rx="9.96" transform="translate(91.59 123.73)"/>
        <rect id="prefix__Rectangle_626" width="200.86" height="21.69" class="prefix__cls-1" data-name="Rectangle 626" rx="9.96" transform="translate(136.59 142.21)"/>
        <rect id="prefix__Rectangle_627" width="200.86" height="21.69" class="prefix__cls-1" data-name="Rectangle 627" rx="9.96" transform="translate(60.26 158.28)"/>
        <g id="prefix__Group_469" data-name="Group 469" transform="translate(18 272)">
            <g id="prefix__Group_461" class="prefix__cls-2" data-name="Group 461">
                <circle id="prefix__Ellipse_452" cx="81.15" cy="81.15" r="81.15" fill="url(#prefix__linear-gradient-2)" data-name="Ellipse 452" transform="translate(118.11)"/>
            </g>
            <circle id="prefix__Ellipse_453" cx="72.31" cy="72.31" r="72.31" class="prefix__cls-6" data-name="Ellipse 453" transform="translate(126.95 8.84)"/>
        </g>
        <path id="prefix__Rectangle_628" d="M0 0H62.9V46.73H0z" class="prefix__cls-7" data-name="Rectangle 628" transform="translate(160.98 590.63)"/>
        <path id="prefix__Path_906" d="M314 682.8l35.15-35.15a2.74 2.74 0 0 1 3.88 0l34.87 34.87a2.74 2.74 0 0 1-1.93 4.68l-70 .28a2.74 2.74 0 0 1-1.97-4.68z" class="prefix__cls-7" data-name="Path 906" transform="translate(-158.5 -94.07)"/>
        <path id="prefix__Path_907" d="M314 682.8l35.15-35.15a2.74 2.74 0 0 1 3.88 0l34.87 34.87a2.74 2.74 0 0 1-1.93 4.68l-70 .28a2.74 2.74 0 0 1-1.97-4.68z" data-name="Path 907" opacity="0.05" transform="translate(-158.5 -94.07)"/>
        <path id="prefix__Path_908" d="M191.62 616.28h1.26a7.1 7.1 0 0 1 7.1 7.1v14h-15.46v-14a7.1 7.1 0 0 1 7.1-7.1z" class="prefix__cls-9" data-name="Path 908"/>
        <circle id="prefix__Ellipse_454" cx="3.87" cy="3.87" r="3.87" class="prefix__cls-9" data-name="Ellipse 454" transform="translate(188.73 558.3)"/>
        <path id="prefix__Rectangle_629" d="M0 0H14.76V11.24H0z" class="prefix__cls-9" data-name="Rectangle 629" transform="translate(165.9 596.6)"/>
        <path id="prefix__Rectangle_630" d="M0 0H1.41V11.24H0z" class="prefix__cls-7" data-name="Rectangle 630" transform="translate(172.57 596.6)"/>
        <path id="prefix__Rectangle_631" d="M0 0H14.76V11.24H0z" class="prefix__cls-9" data-name="Rectangle 631" transform="translate(205.25 596.6)"/>
        <path id="prefix__Rectangle_632" d="M0 0H1.41V11.24H0z" class="prefix__cls-7" data-name="Rectangle 632" transform="translate(211.93 596.6)"/>
        <g id="prefix__Group_462" class="prefix__cls-10" data-name="Group 462"/>
        <g id="prefix__Group_463" class="prefix__cls-10" data-name="Group 463">
            <path id="prefix__Path_910" fill="url(#prefix__linear-gradient-4)" d="M612.45 664.26h.12a.14.14 0 0 0 .09-.12.32.32 0 0 0 0-.12v-.1c-.1-.24-.33-.56-.46-.84l-.06-.15a1.152 1.152 0 0 1 0-.2v-.09l2.16-7.09.05-.17s2.75 1.18 3.46 3.54a5.54 5.54 0 0 1 .06 3.55l-.05.12h.05v1.3h3c.21-.1-.07-.36-.35-.62l-.07-.07-.18-.19a.939.939 0 0 1-.13-.19l-.05-.12v-.07H620v-.11a10.21 10.21 0 0 0-3.06-9.66 10.459 10.459 0 0 0 0-6.65c.28-.2 5.73-4.14 5.69-9.24a6.973 6.973 0 0 0 0-.82s.47-.39 0-1.1v-.06h-.38a1.48 1.48 0 0 0-.61.2s-.31 1 0 1.26h-.08s-3.23 7-5.39 8l-.15-.09v-.91a1.124 1.124 0 0 0 0-.12 1.084 1.084 0 0 0 0-.11 2.45 2.45 0 0 0 .65-.49 2.456 2.456 0 0 0 .2-.24l.08-.12.08-.14.06-.13a2.433 2.433 0 0 0 .11-.29v-.55a2.429 2.429 0 0 0-.15-.84.349.349 0 0 0-.09-.22l-.05-.11-.07-.12a.8.8 0 0 1 .19-.17 1.13 1.13 0 0 1 .45-.14h.47a.7.7 0 0 0 .16-.09.73.73 0 0 1 .26-.14h-1.25l-.16-.07a.861.861 0 0 0 .26.06h.4l.06-.05v-.08h-.18a1.519 1.519 0 0 1-.41 0h-.42l-.12-.05A.66.66 0 0 0 617 638l.11-.07a.58.58 0 0 0 .2-.39.439.439 0 0 0 0-.19l-.07.06h-.06a1 1 0 0 1-.65.18h-.08a3 3 0 0 1-.59-.22l-.17-.06h-.91a3.05 3.05 0 0 0-2 .84 3 3 0 0 0-.34.4 3.921 3.921 0 0 1 .39-2.13h-.24l-.09.17a2 2 0 0 1 .27-.68h-.06a.81.81 0 0 0 0-1.08c-.47-.71-1.34-.16-1.34-.16a3.638 3.638 0 0 0-.14.71l-.14-.06c-.16.54-1.94 6.74 1 10.7a2.457 2.457 0 0 0 0 .25v6.68l-2 9.16-.39 1.73 2.81.46zm.5-21.65a2.439 2.439 0 0 0 .52.33 1.1 1.1 0 0 0 0 .19v.87l-.17.08c-.13-.43-.24-.93-.36-1.47z" data-name="Path 910" transform="translate(-158.5 -94.07)"/>
        </g>
        <path id="prefix__Path_911" d="M622.66 636.93s.52-.44 0-1.22-1.48-.17-1.48-.17-.35 1.13 0 1.39 1.48 0 1.48 0z" class="prefix__cls-13" data-name="Path 911" transform="translate(-158.5 -94.07)"/>
        <path id="prefix___Path_" d="M617.28 666.09h2.4a.79.79 0 0 0 .23.62c.32.37 1 .82.67 1h-3.3z" class="prefix__cls-14" data-name="&lt;Path&gt;" transform="translate(-158.5 -94.07)"/>
        <path id="prefix__Path_912" d="M619.73 666.71a.79.79 0 0 1-.23-.62h.17a.79.79 0 0 0 .23.62c.32.37 1 .82.67 1h-.17c.3-.18-.35-.63-.67-1z" class="prefix__cls-15" data-name="Path 912" transform="translate(-158.5 -94.07)"/>
        <path id="prefix___Path_2" d="M608.72 665.6l2.28.4a1.15 1.15 0 0 0 .1.79c.25.51.8 1.17.47 1.31l-3.25-.53z" class="prefix__cls-14" data-name="&lt;Path&gt;" transform="translate(-158.5 -94.07)"/>
        <path id="prefix__Path_913" d="M609.82 635.87s-2.57 8.11 1.74 12.6l1.25-1s-2.55-8.85-1.12-10.93c-2.52-.79-1.87-.67-1.87-.67z" class="prefix__cls-14" data-name="Path 913" transform="translate(-158.5 -94.07)"/>
        <path id="prefix__Path_914" d="M611.6 636.58s.52-.44 0-1.22-1.48-.17-1.48-.17-.35 1.13 0 1.39 1.48 0 1.48 0z" class="prefix__cls-13" data-name="Path 914" transform="translate(-158.5 -94.07)"/>
        <path id="prefix__Path_915" d="M610.9 666.75a1.149 1.149 0 0 1-.1-.79l-2.08-.34 2.28.38a1.15 1.15 0 0 0 .1.79c.25.51.8 1.17.47 1.31h-.14c.22-.24-.29-.86-.53-1.35z" class="prefix__cls-15" data-name="Path 915" transform="translate(-158.5 -94.07)"/>
        <rect id="prefix__Rectangle_633" width="2.44" height="3.62" class="prefix__cls-13" data-name="Rectangle 633" rx="1.12" transform="rotate(180 228.23 276.485)"/>
        <path id="prefix__Path_916" d="M612.63 648s-2.52-8.74-1.15-10.89h.26c-1.43 2.08 1.12 10.93 1.12 10.93l-1.25 1-.11-.12z" class="prefix__cls-15" data-name="Path 916" transform="translate(-158.5 -94.07)"/>
        <circle id="prefix__Ellipse_455" cx="2.7" cy="2.7" r="2.7" class="prefix__cls-13" data-name="Ellipse 455" transform="translate(452.49 545.22)"/>
        <path id="prefix__Path_917" d="M614.65 645.82v-1.18a1.211 1.211 0 0 0 0-.26 2.7 2.7 0 0 0-1.08-5.1h.15a2.7 2.7 0 0 1 1.24 5.1 1.21 1.21 0 0 1 0 .26v1.18a1.22 1.22 0 0 1-1.22 1.22h-.15a1.22 1.22 0 0 0 1.06-1.22z" class="prefix__cls-15" data-name="Path 917" transform="translate(-158.5 -94.07)"/>
        <path id="prefix__Path_918" d="M610.95 655.45s5.21.59 5.4 0a11.52 11.52 0 0 0 0-7.41 2.7 2.7 0 0 0-2.7-2.7 2.7 2.7 0 0 0-2.7 2.7z" class="prefix__cls-14" data-name="Path 918" transform="translate(-158.5 -94.07)"/>
        <path id="prefix__Path_919" d="M610.95 655.45l-2.35 10.8h2.35l2.44-8s3 1.31 3.83 3.92a5.73 5.73 0 0 1 0 4.09h2.53v-.12a11.23 11.23 0 0 0-3.42-10.69" class="prefix__cls-16" data-name="Path 919" transform="translate(-158.5 -94.07)"/>
        <path id="prefix__Path_920" d="M616 655.45a11.52 11.52 0 0 0 0-7.41 2.7 2.7 0 0 0-2.53-2.69h.17a2.7 2.7 0 0 1 2.7 2.7 11.52 11.52 0 0 1 0 7.41c-.07.21-.78.27-1.67.26.77-.02 1.33-.09 1.33-.27z" class="prefix__cls-15" data-name="Path 920" transform="translate(-158.5 -94.07)"/>
        <path id="prefix__Path_921" d="M616.39 648s7-4.88 6.27-11.06h-1.56s-3.75 8.1-6.14 8.89 1.43 2.17 1.43 2.17z" class="prefix__cls-14" data-name="Path 921" transform="translate(-158.5 -94.07)"/>
        <g id="prefix__Group_464" class="prefix__cls-10" data-name="Group 464">
            <path id="prefix__Path_922" d="M613.34 658.42l-2.39 7.87h-.35l2.44-8z" class="prefix__cls-9" data-name="Path 922" transform="translate(-158.5 -94.07)"/>
            <path id="prefix__Path_923" d="M616 655.49h.35a11.23 11.23 0 0 1 3.42 10.69v.12h-.35v-.12a11.23 11.23 0 0 0-3.42-10.69z" class="prefix__cls-9" data-name="Path 923" transform="translate(-158.5 -94.07)"/>
        </g>
        <path id="prefix__Path_924" d="M622.4 637h.26c.7 6.19-6.27 11.06-6.27 11.06l-.17-.07c.78-.57 6.83-5.2 6.18-10.99z" class="prefix__cls-15" data-name="Path 924" transform="translate(-158.5 -94.07)"/>
        <path id="prefix__Path_925" d="M615.84 640.78a4.47 4.47 0 0 0-.31 1.09 2.92 2.92 0 0 1-1.24 1.9 2.74 2.74 0 0 1-1.21.33 2.31 2.31 0 0 1-1.79-.54 2.22 2.22 0 0 1-.55-1.1 3.74 3.74 0 0 1 1-3.44 3.32 3.32 0 0 1 3.45-.73 3.3 3.3 0 0 0 .66.24 1.09 1.09 0 0 0 1-.32.6.6 0 0 1-.58.78 1.68 1.68 0 0 0 1.29.07 1.09 1.09 0 0 1-1.38.55 3.69 3.69 0 0 0 1.56.32c-.11 0-.33.21-.47.25a2.989 2.989 0 0 1-.52 0 1 1 0 0 0-.91.6z" class="prefix__cls-16" data-name="Path 925" transform="translate(-158.5 -94.07)"/>
        <g id="prefix__Group_465" class="prefix__cls-10" data-name="Group 465">
            <path id="prefix__Path_926" d="M616.2 639a1.669 1.669 0 0 0 .64.16 1.68 1.68 0 0 1-.84-.16.61.61 0 0 0 .61-.66l.14-.12a.6.6 0 0 1-.55.78z" class="prefix__cls-9" data-name="Path 926" transform="translate(-158.5 -94.07)"/>
            <path id="prefix__Path_927" d="M615.66 638.53a3.3 3.3 0 0 1-.66-.24 3 3 0 0 0-1-.21 3 3 0 0 1 1.21.21 3.3 3.3 0 0 0 .66.24h.09a1 1 0 0 1-.3 0z" class="prefix__cls-9" data-name="Path 927" transform="translate(-158.5 -94.07)"/>
            <path id="prefix__Path_928" d="M617 640.18c.14 0 .36-.25.47-.25a3.691 3.691 0 0 1-1.56-.32 1 1 0 0 0 .35.07 3.69 3.69 0 0 0 1.39.24c-.11 0-.33.21-.47.25a1.16 1.16 0 0 1-.36 0z" class="prefix__cls-9" data-name="Path 928" transform="translate(-158.5 -94.07)"/>
            <path id="prefix__Path_929" d="M612.9 644.1a2.741 2.741 0 0 0 1.21-.33 2.92 2.92 0 0 0 1.24-1.9 4.467 4.467 0 0 1 .31-1.09 1 1 0 0 1 .85-.56h.17a1 1 0 0 0-.85.56 4.465 4.465 0 0 0-.31 1.09 2.92 2.92 0 0 1-1.24 1.9 2.74 2.74 0 0 1-1.21.33z" class="prefix__cls-9" data-name="Path 929" transform="translate(-158.5 -94.07)"/>
            <path id="prefix__Path_930" d="M616.41 639.69a1.1 1.1 0 0 0 .89-.57l.2-.06a1.1 1.1 0 0 1-1.09.63z" class="prefix__cls-9" data-name="Path 930" transform="translate(-158.5 -94.07)"/>
        </g>
        <path id="prefix__Path_931" d="M622.49 636.93s.52-.44 0-1.22a.83.83 0 0 0-.65-.4.85.85 0 0 1 .82.4c.52.78 0 1.22 0 1.22a4.721 4.721 0 0 1-1 .11 5.157 5.157 0 0 0 .83-.11z" class="prefix__cls-15" data-name="Path 931" transform="translate(-158.5 -94.07)"/>
        <path id="prefix__Path_932" d="M634.41 627.22s-2.57 8.11 1.74 12.6l1.25-1s-2.55-8.85-1.12-10.93c-2.52-.79-1.87-.67-1.87-.67z" class="prefix__cls-17" data-name="Path 932" transform="translate(-158.5 -94.07)"/>
        <path id="prefix__Path_933" d="M636.19 627.94s.52-.44 0-1.22-1.48-.17-1.48-.17-.35 1.13 0 1.39 1.48 0 1.48 0z" class="prefix__cls-18" data-name="Path 933" transform="translate(-158.5 -94.07)"/>
        <rect id="prefix__Rectangle_634" width="2.44" height="3.62" class="prefix__cls-18" data-name="Rectangle 634" rx="1.12" transform="rotate(180 240.525 272.165)"/>
        <path id="prefix__Path_934" d="M637.22 639.39s-2.52-8.74-1.15-10.89h.26c-1.43 2.08 1.12 10.93 1.12 10.93l-1.25 1-.11-.12z" class="prefix__cls-15" data-name="Path 934" transform="translate(-158.5 -94.07)"/>
        <circle id="prefix__Ellipse_456" cx="2.7" cy="2.7" r="2.7" class="prefix__cls-18" data-name="Ellipse 456" transform="translate(477.08 536.57)"/>
        <path id="prefix__Path_935" d="M639.24 637.17V636a1.211 1.211 0 0 0 0-.26 2.7 2.7 0 0 0-1.08-5.1h.15a2.7 2.7 0 0 1 1.24 5.1 1.211 1.211 0 0 1 0 .26v1.18a1.22 1.22 0 0 1-1.22 1.22h-.15a1.22 1.22 0 0 0 1.06-1.23z" class="prefix__cls-15" data-name="Path 935" transform="translate(-158.5 -94.07)"/>
        <path id="prefix__Path_936" d="M635.54 646.8s5.21.59 5.4 0c.62-1.9-1-4-.21-5a2.47 2.47 0 0 0 .21-2.44 2.7 2.7 0 0 0-2.7-2.7 2.7 2.7 0 0 0-2.7 2.7z" class="prefix__cls-17" data-name="Path 936" transform="translate(-158.5 -94.07)"/>
        <path id="prefix__Path_937" d="M640.74 641.84a2.47 2.47 0 0 0 .21-2.44 2.7 2.7 0 0 0-2.7-2.7h-.17a2.7 2.7 0 0 1 2.53 2.69 2.47 2.47 0 0 1-.21 2.44c-.84 1 .83 3.06.21 5-.06.18-.6.25-1.31.26.88 0 1.59-.05 1.66-.26.61-1.93-1.06-3.99-.22-4.99z" class="prefix__cls-15" data-name="Path 937" transform="translate(-158.5 -94.07)"/>
        <path id="prefix__Path_938" d="M639.83 646.63a15.46 15.46 0 0 1 2.2 10.69v.12h-1.62a8.7 8.7 0 0 0 0-4.09 6.46 6.46 0 0 0-2.46-3.92l-1.57 8h-1.51l1.51-10.8z" class="prefix__cls-18" data-name="Path 938" transform="translate(-158.5 -94.07)"/>
        <path id="prefix__Path_939" d="M649 631.09s.63-.26.36-1.17-1.36-.6-1.36-.6-.67 1-.41 1.33 1.41.44 1.41.44z" class="prefix__cls-18" data-name="Path 939" transform="translate(-158.5 -94.07)"/>
        <path id="prefix__Path_940" d="M639.75 639.83s8.09-2.62 9.24-8.74l-1.5-.46s-6 6.65-8.48 6.7.74 2.5.74 2.5z" class="prefix__cls-17" data-name="Path 940" transform="translate(-158.5 -94.07)"/>
        <path id="prefix__Path_941" d="M648.71 631.1l.25.08c-1.15 6.12-9.24 8.74-9.24 8.74l-.14-.11c.95-.34 8.06-3 9.13-8.71z" class="prefix__cls-15" data-name="Path 941" transform="translate(-158.5 -94.07)"/>
        <g id="prefix__Group_466" class="prefix__cls-10" data-name="Group 466">
            <path id="prefix__Path_942" d="M637.58 649.42l-1.57 8h.35l1.52-7.78q-.144-.117-.3-.22z" class="prefix__cls-9" data-name="Path 942" transform="translate(-158.5 -94.07)"/>
            <path id="prefix__Path_943" d="M639.83 646.63h-.35a15.46 15.46 0 0 1 2.2 10.69v.12h.32v-.12a15.46 15.46 0 0 0-2.17-10.69z" class="prefix__cls-9" data-name="Path 943" transform="translate(-158.5 -94.07)"/>
        </g>
        <path id="prefix__Path_944" d="M648.82 631s.63-.26.36-1.17a.83.83 0 0 0-.5-.57.85.85 0 0 1 .67.62c.27.9-.36 1.17-.36 1.17a4.722 4.722 0 0 1-1-.19 5.167 5.167 0 0 0 .83.14z" class="prefix__cls-15" data-name="Path 944" transform="translate(-158.5 -94.07)"/>
        <path id="prefix__Path_945" d="M635.54 646.51l-3.28 6.92a40.612 40.612 0 0 1 5.71.69c3.63.69 5.36-1 5.36-1l-2.33-6.61z" class="prefix__cls-16" data-name="Path 945" transform="translate(-158.5 -94.07)"/>
        <path id="prefix__Path_946" d="M636.41 657.4s1.73.35 1.38 1h-3.11l.17-1z" class="prefix__cls-17" data-name="Path 946" transform="translate(-158.5 -94.07)"/>
        <path id="prefix__Path_947" d="M641.94 657.4s1.73.35 1.38 1h-3.11l.17-1z" class="prefix__cls-17" data-name="Path 947" transform="translate(-158.5 -94.07)"/>
        <path id="prefix__Path_948" d="M640.73 631.12s-4.15 5.88-2.25 8.3l-7.43-.17s2.07-13.32 9.68-8.13z" class="prefix__cls-6" data-name="Path 948" transform="translate(-158.5 -94.07)"/>
        <path id="prefix__Path_949" d="M640.73 631.12a6.309 6.309 0 0 0-2.9-1.18 7.32 7.32 0 0 1 2 1s-4.15 5.88-2.25 8.3l-6.54-.15v.15l7.43.17c-1.89-2.41 2.26-8.29 2.26-8.29z" class="prefix__cls-15" data-name="Path 949" transform="translate(-158.5 -94.07)"/>
        <path id="prefix__Path_950" d="M641 646.51h-.52l2.34 6.57a5.279 5.279 0 0 1-3.44 1.2 5.5 5.5 0 0 0 4-1.2z" class="prefix__cls-15" data-name="Path 950" transform="translate(-158.5 -94.07)"/>
        <path id="prefix__Path_951" d="M636.41 657.4h-.35s1.73.35 1.38 1h.35c.35-.66-1.38-1-1.38-1z" class="prefix__cls-15" data-name="Path 951" transform="translate(-158.5 -94.07)"/>
        <path id="prefix__Path_952" d="M641.94 657.4h-.35s1.73.35 1.38 1h.35c.35-.66-1.38-1-1.38-1z" class="prefix__cls-15" data-name="Path 952" transform="translate(-158.5 -94.07)"/>
    </g>
</svg>
