<svg xmlns="http://www.w3.org/2000/svg" width="450.841" height="450.841" viewBox="0 0 450.841 450.841">
    <path id="prefix__Path_348" d="M241.547 50.755c14.046-14.049 36.094-16.929 56.161-15.811 63.037 3.518 119.943 37.717 169.165 76.4 4.875 3.836-75.174 159.29-103.588 180.859-74.863 56.829-165.668 8.925-198.764-14.268-19.995-14.011-38.84-31.432-47.082-54.1s-2.967-51.4 17.451-64.816c8.444-5.549 18.538-8.051 28.424-10.407 14.546-3.464 29.333-6.879 42.461-13.92 13.561-7.273 29.617-21.344 26.929-37.441-2.876-17.273-5.189-32.451 8.843-46.496z" data-name="Path 348" transform="rotate(45 199.26 122.689)" style="fill:rgba(167,214,118,.08)"/>
</svg>
