<svg xmlns="http://www.w3.org/2000/svg" width="513.794" height="481.998" viewBox="0 0 513.794 481.998">
    <path id="prefix__Path_347" d="M241.547 50.755c14.046-14.049 36.094-16.929 56.161-15.811 63.037 3.518 119.943 37.717 169.165 76.4 17.792 14 35.358 29.093 46.928 48.378 23.563 39.257 16.561 93.638-16.181 125.973-11.137 11.007-24.645 19.453-38.5 26.915-24.649 13.3-51.246 23.97-79.223 27.018-19.951 2.161-40.148.405-59.979-2.615-55.415-8.457-109.807-27.131-155.393-59.077-19.995-14.011-38.84-31.432-47.082-54.1s-2.967-51.4 17.451-64.816c8.444-5.549 18.538-8.051 28.424-10.407 14.546-3.464 29.333-6.879 42.461-13.92 13.561-7.273 29.617-21.344 26.929-37.441-2.88-17.274-5.193-32.452 8.839-46.497z" data-name="Path 347" transform="rotate(-33 378.567 321.856)" style="fill:rgba(167,214,118,.08)"/>
</svg>
