<svg xmlns="http://www.w3.org/2000/svg" width="320.855" height="239.642" viewBox="0 0 320.855 239.642">
    <defs>
        <style>
            .prefix__cls-1{fill:rgba(170,255,82,.23)}.prefix__cls-2{opacity:.5}.prefix__cls-4{fill:#b28b67}.prefix__cls-9{fill:#e4e4e4}
        </style>
    </defs>
    <g id="prefix__Group_252" data-name="Group 252" transform="translate(-986.073 -761.366)">
        <path id="prefix__Background_Shape" d="M.4 61.78C8.492 30.5 90.347 48.321 144.01 38.652S261.16-16.047 303.178 6.011s-2.689 75.379-99.058 87.411S-7.687 93.055.4 61.78z" class="prefix__cls-1" data-name="Background Shape" transform="translate(987.943 867.148)"/>
        <g id="prefix__Cells" transform="translate(1012.879 784.24)">
            <path id="prefix__Fill_5" d="M.347.321c-.5.5-.308 2.287-.318 2.948C.013 4.3.077 5.316.163 6.34c.058.686.382 7.233 1.286 6.73.509-.283.19-2.177.189-2.776 0-1.332-.057-2.66-.146-3.989A34.912 34.912 0 0 1 1.4 2.617c.012-.3.294-3.649-1.058-2.3" class="prefix__cls-1" data-name="Fill 5" transform="translate(.197 .492)"/>
            <path id="prefix__Fill_7" d="M22.427.006c-4.322.034-8.641.247-12.96.378-2.079.063-4.156.143-6.232.258C2.527.681 1.01.455.421.832c-1.308.837.8 1.033 1.364 1.012 8.548-.31 17.1-.718 25.654-.737 4.2-.009 8.391.11 12.588.083 1.6-.01 3.381-.7 3.786 1.166.457 2.107-.068 4.453-.211 6.571a37.151 37.151 0 0 0 0 4.21 22.1 22.1 0 0 0 .094 2.812c.154.855.769 1.368 1.332.41a7.4 7.4 0 0 0 .192-2.648c.03-.893 0-1.786 0-2.679 0-2.18.307-4.351.267-6.531C45.464 3.1 45.39.548 43.617.21c-1.952-.372-4.351 0-6.349-.021-4.949-.056-9.89-.222-14.841-.183" class="prefix__cls-1" data-name="Fill 7" transform="translate(.023)"/>
            <path id="prefix__Fill_9" d="M10.542.027Q8.1.027 5.654.064C4.257.087 2.06-.2.759.3c-.89.342-1.127 1.336 0 1.6 1.229.289 3.081-.183 4.367-.206 6.448-.114 12.958-.262 19.4.146a141.212 141.212 0 0 0 18.226.349c.508-.034 3.1-.137 1.918-1.109-.69-.567-3.488-.194-4.385-.221-3.164-.1-6.331-.117-9.494-.237C27.666.5 24.558.149 21.436.062c-3.628-.1-7.264-.035-10.893-.035" class="prefix__cls-1" data-name="Fill 9" transform="translate(0 13.614)"/>
            <path id="prefix__face" d="M5.361 8.922c-2.208 0-4.619-1.06-5.026-3.429a2.2 2.2 0 0 1-.015-.42A1.878 1.878 0 0 0 .3 4.62a.874.874 0 0 0-.141-.264A.693.693 0 0 1 0 4.019a1.843 1.843 0 0 1 .8-1.4 6.407 6.407 0 0 0 .477-.483A5.7 5.7 0 0 1 3.827.2a3.007 3.007 0 0 1 1.1-.2 5.448 5.448 0 0 1 3.208 1.244 5.048 5.048 0 0 1 1.907 2.7 3.843 3.843 0 0 1-.531 2.923 4.411 4.411 0 0 1-2.77 1.91 6.54 6.54 0 0 1-1.38.145zM1.91 3.825a2.515 2.515 0 0 0 .243 2.405 3.988 3.988 0 0 0 3.239 1.5 3.755 3.755 0 0 0 2.155-.63 2.412 2.412 0 0 0 .975-1.26 2.487 2.487 0 0 0-.012-1.454A4.178 4.178 0 0 0 7.2 2.437a3.622 3.622 0 0 0-2.135-.911.552.552 0 0 1-.3.15.263.263 0 0 1-.125-.039.286.286 0 0 0-.14-.037.308.308 0 0 0-.093.016 3.734 3.734 0 0 0-1.089.645l-.079.059-.091.068a6.185 6.185 0 0 0-.936.8l-.076.165c-.081.177-.215.474-.222.477z" class="prefix__cls-1" transform="translate(3.848 2.846)"/>
            <path id="prefix__Fill_13" d="M0 .78a.814.814 0 0 0 1.626 0A.814.814 0 0 0 0 .78" class="prefix__cls-1" data-name="Fill 13" transform="translate(6.616 6.259)"/>
            <path id="prefix__Fill_15" d="M0 .62a.647.647 0 0 0 1.292 0A.647.647 0 0 0 0 .62" class="prefix__cls-1" data-name="Fill 15" transform="translate(8.651 6.211)"/>
            <path id="prefix__Fill_17" d="M1.535.03C1.121.189.6-.141.256.077c-.6.385 0 .734.324.888 1.452.7 1.71-1.224.954-.935" class="prefix__cls-1" data-name="Fill 17" transform="translate(7.516 8.487)"/>
            <path id="prefix__Fill_19" d="M.658 3.008a.732.732 0 0 1-.193-.027c-.343-.094-.5-.286-.46-.572A3.017 3.017 0 0 1 1.183.92 3.493 3.493 0 0 1 2.974.083a.775.775 0 0 1 .109.007 3 3 0 0 1 1.182.549 2.911 2.911 0 0 0 1.228.555 1.911 1.911 0 0 0 .218.012 3.7 3.7 0 0 0 1.717-.6A5.049 5.049 0 0 1 8.678.07 2.859 2.859 0 0 1 9.3 0a4.806 4.806 0 0 1 2.157.681l.013.007a4.761 4.761 0 0 0 2.112.674 2.766 2.766 0 0 0 .961-.176c.106-.039.222-.088.354-.15h.008c.128-.061.257-.126.382-.19a3.8 3.8 0 0 1 1.416-.5h.122a3.5 3.5 0 0 1 1.835.739c.223.143.454.291.684.411a1.507 1.507 0 0 0 .34.11c.27.065.525.126.56.449a.42.42 0 0 1-.076.34.464.464 0 0 1-.366.117 2.88 2.88 0 0 1-.317-.024l-.121-.013a2.814 2.814 0 0 1-1.248-.563 2.8 2.8 0 0 0-1.2-.55 1.3 1.3 0 0 0-.135-.007 4.083 4.083 0 0 0-1.607.536 5.2 5.2 0 0 1-1.215.476 3.2 3.2 0 0 1-.584.055 4.364 4.364 0 0 1-2.02-.6l-.211-.11A3.845 3.845 0 0 0 9.36 1.1a2.65 2.65 0 0 0-1 .215c-.281.114-.549.244-.808.37a4.563 4.563 0 0 1-2.023.621 2.864 2.864 0 0 1-.474-.04 3.629 3.629 0 0 1-.985-.418A2.9 2.9 0 0 0 2.878 1.4a.8.8 0 0 0-.087 0c-.376.041-.7.42-1.007.786-.339.408-.691.822-1.126.822z" class="prefix__cls-1" data-name="Fill 19" transform="translate(16.224 5.242)"/>
            <path id="prefix__Fill_21" d="M25.077.017c-4.441.041-8.9.107-13.326.463C10.7.564-.02 1.577 0 1.649c.038.135 1.417.341 1.408.373q-.139-.346-.637-.286c10.168 0 20.3-.91 30.486-.747 2.558.041 5.126.024 7.683.1.638.02 2.22.478 2.721.189C42.975.527 40.586.44 40.19.408 35.179.007 30.1-.033 25.077.017" class="prefix__cls-1" data-name="Fill 21" transform="translate(1.748 20.123)"/>
            <path id="prefix__Fill_23" d="M.308.332C-.356 1 .256 3.393.282 4.293.32 5.594.288 6.9.4 8.2a26.445 26.445 0 0 0 .722 4.5c.214.792.966 2.052 1.264.612a12.318 12.318 0 0 0-.223-3.44 40.552 40.552 0 0 1-.192-4.193C1.968 4.454 1.945 3.222 1.844 2 1.792 1.364 1.472-.825.308.332" class="prefix__cls-1" data-name="Fill 23" transform="translate(.123 21.965)"/>
            <path id="prefix__Fill_25" d="M15.519.027c-3.152.054-6.31.128-9.457.325C4.773.433 3.484.553 2.2.689 1.937.717-.965.835.332 1.906c.585.484 2.993-.185 3.788-.255 1.337-.117 2.675-.193 4.016-.25 3.108-.132 6.225-.248 9.336-.194 5.681.1 11.326.143 17.009.016.807-.018 7.133.151 7.348-.689.171-.678-2.09-.367-2.502-.355-1.513.045-3.026.035-4.54.027C28.375.173 21.926-.082 15.519.027" class="prefix__cls-1" data-name="Fill 25" transform="translate(1.617 34.467)"/>
            <path id="prefix__Fill_27" d="M0 .789C.1 3.595.578 6.4.731 9.212.8 10.5.883 11.784.946 13.071c.02.415-.147 1.416.344 1.654.673.328.764-.332.89-.779a15.493 15.493 0 0 0 .085-4.289c-.032-1.283-.034-2.568-.129-3.848-.1-1.308-.36-2.592-.483-3.9C1.6 1.363 1.783.446 1.2.1A.8.8 0 0 0 0 .789" class="prefix__cls-1" data-name="Fill 27" transform="translate(42.374 20.386)"/>
            <path id="prefix__face-2" d="M5.827 9.244h-.05A9.186 9.186 0 0 1 2 8.472 3.816 3.816 0 0 1 .578 7.326 3.1 3.1 0 0 1 0 5.491a5.929 5.929 0 0 1 1.349-3.612A5.476 5.476 0 0 1 2.833.573 3.969 3.969 0 0 1 4.656.006C4.73 0 4.805 0 4.88 0a5.077 5.077 0 0 1 1.813.352 6.388 6.388 0 0 1 1.666.948 6.361 6.361 0 0 1 1.315 1.4 5.025 5.025 0 0 1 .764 1.678A3.546 3.546 0 0 1 9.813 7.5a4.427 4.427 0 0 1-1.74 1.29 5.747 5.747 0 0 1-2.246.453zM4.586 1.278a3.441 3.441 0 0 0-2.5 1.257 4.443 4.443 0 0 0-1.029 2.658 2.321 2.321 0 0 0 .629 1.771 3.76 3.76 0 0 0 1.843.954 9.227 9.227 0 0 0 2.171.237h.148a3.856 3.856 0 0 0 3.012-1.32 2.451 2.451 0 0 0 .363-2.191 3.808 3.808 0 0 0-.733-1.369 6.559 6.559 0 0 0-1.13-1.09 3.871 3.871 0 0 0-1.891-.718 8.324 8.324 0 0 1-.882-.188z" class="prefix__cls-1" data-name="face" transform="translate(4.132 23.733)"/>
            <path id="prefix__Fill_31" d="M0 .627a.655.655 0 0 0 1.307 0A.654.654 0 0 0 0 .627" class="prefix__cls-1" data-name="Fill 31" transform="translate(6.183 27.095)"/>
            <path id="prefix__Fill_33" d="M0 .632a.66.66 0 0 0 1.318 0A.659.659 0 0 0 0 .632" class="prefix__cls-1" data-name="Fill 33" transform="translate(8.925 26.727)"/>
            <path id="prefix__Fill_35" d="M.151.11C-.7.959 2.289 2.449 2.994 1.267 3.573.3 2.313.618 1.866.566 1.38.508.547-.285.151.11" class="prefix__cls-1" data-name="Fill 35" transform="translate(7.263 29.136)"/>
            <path id="prefix__Fill_37" d="M.648 2.987a.626.626 0 0 1-.471-.168A.851.851 0 0 1 0 2.181C.039 1.167 2.843.209 3.728.043A2.5 2.5 0 0 1 4.188 0 4.2 4.2 0 0 1 6.07.6h.008a4.235 4.235 0 0 0 1.91.6 2.63 2.63 0 0 0 .572-.064A7.475 7.475 0 0 0 9.6.793a5.4 5.4 0 0 1 1.433-.4c.08-.007.159-.011.234-.011a2.482 2.482 0 0 1 1.43.5 5.312 5.312 0 0 0 .806.435 1.475 1.475 0 0 0 .581.115A3.308 3.308 0 0 0 14.5 1.4h.01a3.528 3.528 0 0 1 .451-.036h.127c.427.027.7.171.742.395.048.244-.187.525-.615.735a2.039 2.039 0 0 1-.9.231A2.752 2.752 0 0 1 12.9 2.2a3.428 3.428 0 0 0-1.392-.563 2.112 2.112 0 0 0-.225-.012 4.888 4.888 0 0 0-1.817.5l-.029.012a5.077 5.077 0 0 1-1.9.514h-.106a4.547 4.547 0 0 1-1.726-.5 3.684 3.684 0 0 0-1.525-.44 2.312 2.312 0 0 0-.882.183c-.106.043-.277.137-.494.255a5.736 5.736 0 0 1-2.156.838z" class="prefix__cls-1" data-name="Fill 37" transform="translate(16.359 25.95)"/>
            <path id="prefix__point" d="M2.129 3.979a1.924 1.924 0 0 1-1.318-.606 2.788 2.788 0 0 1-.762-1.358 1.8 1.8 0 0 1 .08-1.1A1.636 1.636 0 0 1 1 .08.981.981 0 0 1 1.405 0a3.258 3.258 0 0 1 1.844.8 1.737 1.737 0 0 1 .541 1.326 1.98 1.98 0 0 1-.67 1.468 1.512 1.512 0 0 1-.991.385zm-.623-2.733a.825.825 0 0 0-.077.877c.132.333.369.548.6.548a.4.4 0 0 0 .087-.01c.244-.054.378-.151.4-.288.071-.441-1-1.121-1.013-1.128z" class="prefix__cls-1" transform="translate(35.675 25.565)"/>
            <path id="prefix__Fill_41" d="M12.086.01C9.008.011 5.9-.053 2.83.129 2.312.16.342.061.075.6c-.488.989 1.54.5 1.834.468C8.03.458 14.422.81 20.562.985c5.022.143 10.016.231 15.032.49q1.978.1 3.953.223c.429.026 1.51.311 1.6-.375.084-.635-1.264-.491-1.6-.509Q35.53.6 31.516.374C25.071.011 18.54.009 12.086.01" class="prefix__cls-1" data-name="Fill 41" transform="translate(1.432 41.494)"/>
            <path id="prefix__Fill_43" d="M.445.316C-.13.888.139 3.07.123 3.791.1 5.053.036 6.313.009 7.574-.019 8.892.02 10.216.1 11.532c.033.553.486 3.223 1.2 1.7.319-.683-.008-2.585 0-3.359 0-1.413.08-2.816.15-4.222.06-1.209.063-2.419.115-3.629.017-.386.063-2.892-1.12-1.706" class="prefix__cls-1" data-name="Fill 43" transform="translate(.963 42.288)"/>
            <path id="prefix__Fill_45" d="M42.2 0c-3 .307-6.039.162-9.045.389-2.591.2-5.18.275-7.778.33-5.884.127-11.777.248-17.643.738-1.337.112-2.672.23-4.012.29-.67.03-3.483-.275-3.693.431-.357 1.2 2.651.727 3.3.708 1.427-.041 2.847-.144 4.27-.253 5.981-.456 11.985-.592 17.978-.781 3.26-.1 6.5-.341 9.749-.558 1.621-.108 3.247-.112 4.868-.216.424-.027 1.925.027 2.231-.315.21-.234.263-.807-.226-.761" class="prefix__cls-1" data-name="Fill 45" transform="translate(.899 53.869)"/>
            <path id="prefix__Fill_47" d="M0 .877C.1 3.75.266 6.62.363 9.492c.029.864-.232 2.412.249 3.174.773 1.225 1.377-.071 1.519-.835.447-2.409-.034-5.07-.158-7.494-.048-.925.24-2.983-.207-3.81C1.339-.261-.037-.182 0 .877" class="prefix__cls-1" data-name="Fill 47" transform="translate(42.082 41.931)"/>
            <path id="prefix__hola_:_" d="M2.248 5.054a2.407 2.407 0 0 1-.782-.143A2.141 2.141 0 0 1 .6 4.326a2.388 2.388 0 0 1-.525-.9 1.8 1.8 0 0 1 .181-1.4 2.629 2.629 0 0 0 .26-.834 1.463 1.463 0 0 0-.026-.3.958.958 0 0 1 .046-.676c.1-.136.353-.2.765-.2.151 0 .3.008.429.016l.18.009A1.861 1.861 0 0 1 2.278 0a1.568 1.568 0 0 1 1.348.79 3.3 3.3 0 0 1 .468 1.737 2.925 2.925 0 0 1-.7 2.054 1.559 1.559 0 0 1-1.146.473zM2.231 1.03a2.522 2.522 0 0 0-1.1 2.37.79.79 0 0 0 .869.64 1.82 1.82 0 0 0 .255-.019.931.931 0 0 0 .655-.42 1.641 1.641 0 0 0 .248-.812 2.267 2.267 0 0 0-.206-1.1 1.181 1.181 0 0 0-.717-.663z" class="prefix__cls-1" data-name="hola :)" transform="translate(34.823 45.869)"/>
            <path id="prefix__Fill_51" d="M4.49 9.152A4.465 4.465 0 0 1 .754 7.1a3.769 3.769 0 0 1-.089-3.79.439.439 0 0 1-.265.114c-.233 0-.346-.311-.393-.5-.074-.291.386-.8.69-1.138.07-.077.13-.144.172-.2A3.531 3.531 0 0 1 3.5 0h.126a4.359 4.359 0 0 1 2.749 1.05 5.95 5.95 0 0 1 1.777 2.479 4.72 4.72 0 0 1 .279 2.43A3.578 3.578 0 0 1 7.232 8.1 4.1 4.1 0 0 1 4.49 9.152zM3.419 2.1a1.023 1.023 0 0 0-.293.032A2.366 2.366 0 0 0 2 3.021a4.053 4.053 0 0 0-.64 1.309 3.042 3.042 0 0 0 .232 2.358 2.987 2.987 0 0 0 1.9 1.343 3.886 3.886 0 0 0 .977.127A3.11 3.11 0 0 0 6.2 7.666a2.618 2.618 0 0 0 1.069-1.5 3.333 3.333 0 0 0-.435-2.86 5.572 5.572 0 0 0-2.3-1.869l.02.173.02.173c-.08.29-.381.329-.665.329-.084 0-.173 0-.251-.007h-.005c-.082-.005-.16-.005-.234-.005zm.065-1.012a2.152 2.152 0 0 0-1.32.5 2.681 2.681 0 0 1 1.319-.5z" class="prefix__cls-1" data-name="Fill 51" transform="translate(3.727 43.128)"/>
            <path id="prefix__Fill_53" d="M0 .414a.428.428 0 0 0 .856 0 .428.428 0 0 0-.856 0" class="prefix__cls-1" data-name="Fill 53" transform="translate(6.162 46.563)"/>
            <path id="prefix__Fill_55" d="M0 .42a.435.435 0 0 0 .87 0 .435.435 0 0 0-.87 0" class="prefix__cls-1" data-name="Fill 55" transform="translate(7.623 46.65)"/>
            <path id="prefix__Fill_57" d="M2.3 0C1.891.035.4-.1.14.253c-.437.6.26.616.6.681.309.058 1.65.025 1.839-.249.169-.242.13-.718-.279-.685" class="prefix__cls-1" data-name="Fill 57" transform="translate(5.988 49.037)"/>
            <path id="prefix__Fill_59" d="M.551 2.979c-.215 0-.38-.148-.506-.451-.264-.637.714-1.467 1.035-1.74A2.071 2.071 0 0 1 2.472.207a2.761 2.761 0 0 1 .835.147c.237.075.435.16.628.242a2.568 2.568 0 0 0 1.056.281A2.156 2.156 0 0 0 5.5.813 7.365 7.365 0 0 0 6.54.449 5.084 5.084 0 0 1 8.068.007C8.132 0 8.2 0 8.262 0a5.011 5.011 0 0 1 1.707.407 7.555 7.555 0 0 0 1.131.35 3.9 3.9 0 0 0 .757.076 4.952 4.952 0 0 0 1.77-.386A4.638 4.638 0 0 1 15.3.063a3.765 3.765 0 0 1 1.153.2c.052.017.155.045.284.082.661.186 2.036.573 2.1.809a.5.5 0 0 1-.031.441.5.5 0 0 1-.42.149 4.2 4.2 0 0 1-1.176-.269l-.061-.021c-.158-.053-.311-.108-.458-.162A4.613 4.613 0 0 0 15.1.913a2.669 2.669 0 0 0-.741.107c-.28.08-.541.166-.794.249a6.315 6.315 0 0 1-2.041.428 4.284 4.284 0 0 1-.567-.039 6.476 6.476 0 0 1-1.097-.281 4.837 4.837 0 0 0-1.45-.306h-.017a4.561 4.561 0 0 0-1.743.487 6.667 6.667 0 0 1-1.193.425 1.933 1.933 0 0 1-.408.043 3.6 3.6 0 0 1-1.156-.249l-.03-.01a3.344 3.344 0 0 0-1.063-.24 1.527 1.527 0 0 0-.258.022 2.238 2.238 0 0 0-.8.614c-.387.382-.829.816-1.191.816z" class="prefix__cls-1" data-name="Fill 59" transform="translate(12.536 47.075)"/>
        </g>
        <g id="prefix__Big_Cards" data-name="Big Cards" transform="translate(1118.831 761.366)">
            <path id="prefix__Fill_67" d="M1.651 32.408a5.755 5.755 0 0 1-.663-.036c-.459-.054-.72-.153-.82-.311s-.029-.406.072-.7a4.223 4.223 0 0 0 .155-.528 8.674 8.674 0 0 0-.1-2.691c-.068-.5-.133-.981-.15-1.407-.237-5.867-.135-11.746-.02-16.8.028-1.216.062-2.452.1-3.647l.022-.8c0-.1.006-.2.009-.3a11.29 11.29 0 0 0-.025-1.577 1.21 1.21 0 0 0-.106-.361c-.083-.194-.142-.334.106-.658.324-.422 1.163-.476 1.857-.476.22 0 .443.006.67.013H2.8c.2.006.389.012.557.012.147 0 .265 0 .359-.014C5.073 2 6.327 1.9 7.556 1.839c3.864-.2 7.787-.465 11.581-.718C27.383.57 35.91 0 44.337 0h.749a20.189 20.189 0 0 1 4.458.351 7.1 7.1 0 0 0 .927.17 1.193 1.193 0 0 0 .129.006c.057 0 .114 0 .168-.006.053 0 .107-.006.161-.006a.84.84 0 0 1 .336.061 1.268 1.268 0 0 1 .743.945 5.3 5.3 0 0 1-.135 2.1c-.07.374-.136.726-.161 1.032-.1 1.288-.152 2.689-.148 4.283v.5a57.95 57.95 0 0 0 .319 7.243c.077.6.162 1.2.245 1.785.224 1.58.455 3.213.532 4.85.026.553.046 1.115.066 1.659.028.774.057 1.574.1 2.362.008.136.007.275.007.424a3.478 3.478 0 0 0 .067.86.642.642 0 0 0 .233.333.383.383 0 0 1 .139.176c.1.392.13.653.008.828s-.343.25-.788.375a20.773 20.773 0 0 1-5.525.555c-.375 0-.744 0-1.1-.005H44.759c-6.339 0-12.053.019-17.781.175-1.74.048-3.513.075-5.228.1-4.078.063-8.294.129-12.416.468-.968.08-1.952.176-2.9.268L5.3 32c-.412.039-.844.1-1.3.17a16.573 16.573 0 0 1-2.349.238zM18.843 10.57a8.309 8.309 0 0 1 4.257 1.407 31.175 31.175 0 0 1 3.69 2.76l.181.15c.418.347.838.7 1.244 1.045.92.778 1.871 1.582 2.845 2.329l.191.147.033.025c.824.633 1.676 1.288 2.561 1.859a2.189 2.189 0 0 0 1.155.451 2.886 2.886 0 0 0 1.467-.67c.217-.144.434-.291.644-.433a23.964 23.964 0 0 1 2.662-1.635 8.184 8.184 0 0 1 3.005-.885c.205-.017.417-.026.631-.026a13.436 13.436 0 0 1 6.516 2.011A53.359 53.359 0 0 1 49.16 5.3c.053-.791.14-1.587.227-2.329.008-.072.033-.184.062-.314a2.021 2.021 0 0 0 .086-.888c-.163-.321-.753-.362-1.249-.362-.133 0-.262 0-.405.007h-.021c-.124 0-.24.006-.346.006h-.125c-.608-.019-1.236-.028-1.92-.028-1.547 0-3.121.049-4.642.1-.692.021-1.406.044-2.107.061-6.26.154-12.813.5-19.477 1.033-2.477.2-5 .34-7.438.477-2.847.16-5.789.326-8.677.581-1.074.095-1.075.185-1.082 1.054v.344c-.006.293-.014.59-.021.877v.175c-.038 1.507-.081 3.114-.135 4.737-.068 2.019-.176 4.069-.281 6.051-.061 1.147-.123 2.332-.177 3.5 1.624-.994 3.2-2.127 4.715-3.224C7.6 16.093 9.114 15 10.676 14.033a25.063 25.063 0 0 1 6.893-3.307 5.222 5.222 0 0 1 1.274-.156z" class="prefix__cls-1" data-name="Fill 67"/>
            <path id="prefix__Fill_69" d="M.023.734a7.6 7.6 0 0 0 .271 3.047c.521 1.065 1.174.732 1.346-.269A9.085 9.085 0 0 0 1.553.734C1.293.015.023-.474.023.734" class="prefix__cls-1" data-name="Fill 69" transform="translate(37.506 5.358)"/>
            <path id="prefix__Fill_71" d="M4.135.006C3.3.036.86-.165.293.508c-.971 1.154.72 1.359 1.446 1.294.84-.075 3.437.108 4-.566C6.681.109 4.793-.018 4.135.006" class="prefix__cls-1" data-name="Fill 71" transform="translate(34.89 6.43)"/>
            <path id="prefix__Fill_73" d="M4.993 8.524A5.325 5.325 0 0 1 2.107 7.6 4.778 4.778 0 0 1 .213 5.33 3.819 3.819 0 0 1 .556 2.1 4.322 4.322 0 0 1 1.75.783 3.961 3.961 0 0 1 3.422.078 5.67 5.67 0 0 1 4.361 0a5.194 5.194 0 0 1 2.6.665A3.771 3.771 0 0 1 8.677 2.7a4.261 4.261 0 0 1 .214 1.641A5.113 5.113 0 0 1 8.509 6 4.619 4.619 0 0 1 7.6 7.418a3.539 3.539 0 0 1-1.376.9 3.675 3.675 0 0 1-1.231.206zM4.671 1.81a3.983 3.983 0 0 0-1.747.432A2.645 2.645 0 0 0 1.668 3.47a1.656 1.656 0 0 0 0 1.355A4.227 4.227 0 0 0 4 6.773a2.872 2.872 0 0 0 1 .195 2.033 2.033 0 0 0 1.55-.69A2.7 2.7 0 0 0 7.2 4.7a2.6 2.6 0 0 0-2.255-2.877c-.088-.009-.18-.013-.274-.013z" class="prefix__cls-1" data-name="Fill 73" transform="translate(1.595 34.401)"/>
            <path id="prefix__Fill_75" d="M14.961.008c-.916.076-1.708.718-2.63.831A5.707 5.707 0 0 1 9.948.414 5.207 5.207 0 0 0 7.08.257a14.784 14.784 0 0 1-2.3.775c-1.562.123-3.372-1.654-4.588.355-.583.963.263 1.584 1.135 1.135.909-.468.463-.636 1.59-.359a4.309 4.309 0 0 0 2.644.037 9.876 9.876 0 0 1 2.53-.889 9.567 9.567 0 0 1 2.567.533 5.626 5.626 0 0 0 3.024-.281A3.116 3.116 0 0 1 16 1.35c.615.18 1.958.751 2.557.291 1.035-.8-.351-.912-.9-1.026a9.952 9.952 0 0 0-2.7-.608" class="prefix__cls-1" data-name="Fill 75" transform="translate(12.44 36.873)"/>
            <path id="prefix__Fill_77" d="M3.514 6.532a3.365 3.365 0 0 1-2.383-.965A3.73 3.73 0 0 1 .032 3.4a3.006 3.006 0 0 1 .4-2.021A3.239 3.239 0 0 1 2.375.022.689.689 0 0 1 2.558 0a5.351 5.351 0 0 1 2.08.777 3.494 3.494 0 0 1 1.389 1.651 3.5 3.5 0 0 1 .221 1.46 3.219 3.219 0 0 1-.4 1.393 2.343 2.343 0 0 1-1.689 1.196 3.884 3.884 0 0 1-.645.055zm-.951-4.516a.918.918 0 0 0-.726 1.077 1.936 1.936 0 0 0 .6 1.042 1.656 1.656 0 0 0 1.085.491h.053c.527-.026.819-.269.823-.686a1.982 1.982 0 0 0-.579-1.223 1.982 1.982 0 0 0-1.255-.7z" class="prefix__cls-1" data-name="Fill 77" transform="translate(44.906 34.142)"/>
            <path id="prefix__Image_Border" d="M.375 27.162c-.3-.721.116-1.053.724-1.2a8.022 8.022 0 0 1-.064-1.6C1 23.439.99 22.519.955 21.6c-.084-2.19-.14-4.392-.309-6.577-.161-2.089-.569-4.114-.58-6.218-.008-1.423-.4-5.029.843-6 2.142-1.25 1.3 3.16 1.26 3.923a45.529 45.529 0 0 0 .269 6.778 44.745 44.745 0 0 1-.113 6.269c-.043 1.111-.067 2.221-.15 3.33a19.593 19.593 0 0 1-.167 2.735c.276-.012.543-.009.767-.007h.391c1.735-.052 3.471-.1 5.205-.164 6.674-.251 13.351-.137 20.024-.454 6.311-.3 12.646-.363 18.961-.441a.64.64 0 0 1 .445 1.074c-.347.436-1.956.34-2.457.381-1.779.143-3.554.207-5.339.224-3.758.036-7.5.2-11.252.411-6.665.38-13.34.349-20.009.62-1.619.066-3.237.115-4.857.157-.433.011-1.222.149-1.95.149-.705.004-1.354-.126-1.562-.628zm48.21-5.86q-.211-3.647-.537-7.29c-.355-3.92-.66-7.748-.657-11.685a.887.887 0 0 1 1.619-.487c.475.608.169 2.448.181 3.175.038 2.4.265 4.779.48 7.164.214 2.366.365 4.733.53 7.1.076 1.1.918 5.466-.305 6.1a.814.814 0 0 1-.374.106c-1.139.006-.898-3.495-.938-4.185zM.958 2.494c-.4-.164-.724-.392-.5-.877.181-.4.824-.363 1.312-.328.151.011.288.022.391.02 1.575-.031 3.146-.119 4.717-.215C10.443.876 14 .621 17.58.56 24.395.443 31.2.068 38.017 0c2.019-.019 4.027.017 6.044.132.894.051 1.788.1 2.683.139.165.007.4-.006.651-.018a3.644 3.644 0 0 1 1.5.11c1.78.942-1.846 1.045-2.287 1.038-1.85-.031-3.7-.175-5.546-.22-6.8-.167-13.657.247-20.454.526-3.27.134-6.538.153-9.806.337-1.787.1-3.572.215-5.359.309-.824.043-1.648.085-2.473.106-.35.009-.951.112-1.444.112a1.576 1.576 0 0 1-.568-.077z" class="prefix__cls-1" data-name="Image Border" transform="translate(.701 46.317)"/>
            <path id="prefix__Image_X" d="M.775 15.692c-.435-.01-.728-.1-.773-.629-.058-.674 1.027-.95 1.465-1.17Q3.722 12.766 6 11.685c3.012-1.437 6.052-2.816 9.1-4.168l.053-.023q-2.538-.859-5.09-1.679C9.094 5.5 2.28 3.821 2.528 2.918c.279-1.012 6.315 1.374 7.243 1.67Q13.2 5.68 16.6 6.848A152.7 152.7 0 0 1 33.217.02c.357-.112.583.257.5.566-.109.414-1.381.749-1.735.907-1.4.624-2.8 1.233-4.2 1.857-3.045 1.361-6.1 2.708-9.14 4.07l-.179.08q3.211 1.141 6.388 2.374c1.134.438 2.262.89 3.393 1.335.567.222 2.923.781 3.059 1.347.191.8-2.321-.182-2.72-.31-1.129-.361-2.244-.765-3.358-1.166-2.494-.9-4.978-1.826-7.482-2.7l-.7-.244q-3.987 1.791-7.955 3.624-2.127.985-4.234 2.009c-1.034.5-2.9 1.921-4.048 1.921z" class="prefix__cls-1" data-name="Image X" transform="translate(9.008 52.397)"/>
            <path id="prefix__Fill_117" d="M4.164 7.867a4.038 4.038 0 0 1-2.557-.814 2.715 2.715 0 0 1-.914-1.337 3.065 3.065 0 0 1-.065-1.264.836.836 0 0 1-.123.01.554.554 0 0 1-.5-.289c-.1-1.183.988-2.218 1.642-2.73A7.025 7.025 0 0 1 4.683.024 3.092 3.092 0 0 1 5.069 0 3.362 3.362 0 0 1 7.5 1.11a4.035 4.035 0 0 1 1.123 2.923 3.834 3.834 0 0 1-1.174 2.615A4.5 4.5 0 0 1 4.814 7.83a5.717 5.717 0 0 1-.65.037zM5.1 1.248a.61.61 0 0 0-.664.366 1.054 1.054 0 0 1-.5.49.861.861 0 0 1-.365.05 1.02 1.02 0 0 0-.45.069 2.225 2.225 0 0 0-.819.933l-.021.035a2.621 2.621 0 0 0-.311 2.446 2.126 2.126 0 0 0 1.739 1.106 4.174 4.174 0 0 0 .584.041 3.673 3.673 0 0 0 2.136-.645 2.64 2.64 0 0 0 1.108-1.9 2.722 2.722 0 0 0-.531-1.921 2.68 2.68 0 0 0-1.69-1.06c-.079-.007-.154-.01-.216-.01z" class="prefix__cls-1" data-name="Fill 117" transform="translate(2.032 75.755)"/>
            <path id="prefix__Fill_119" d="M2.6.312A6.372 6.372 0 0 0 .181 2.1c-.472.81.017 1.7 1.011 1.313.789-.3 1.292-1.271 2.134-1.58a2.171 2.171 0 0 1 1.828.138 5.652 5.652 0 0 0 2.392.483c1.1-.086 2.052-.724 3.128-.869a8.213 8.213 0 0 1 2.522.371 6.405 6.405 0 0 0 2.604-.414c.641-.135 1.77.414 2.238.209C19.092 1.288 17.98.723 17.4.537a3.792 3.792 0 0 0-2.517.223 3.7 3.7 0 0 1-2.417-.19C10.509.045 9 1.317 7.142 1.085 5.424.871 4.4-.641 2.6.312" class="prefix__cls-1" data-name="Fill 119" transform="translate(12.344 78.025)"/>
            <path id="prefix__Fill_121" d="M3.274 6.019A4.3 4.3 0 0 1 1.8 5.761a3.091 3.091 0 0 1-1.2-.772 2.228 2.228 0 0 1-.59-1.755A2.972 2.972 0 0 1 1.2 1.01 5.671 5.671 0 0 1 3.588.052 2.767 2.767 0 0 1 4.111 0a2.021 2.021 0 0 1 1.642.793A3.134 3.134 0 0 1 6.364 2.6a3.649 3.649 0 0 1-.635 2.228 2.8 2.8 0 0 1-2.135 1.178c-.105.009-.213.013-.32.013zm.812-4.545a3.085 3.085 0 0 0-2.286.864 1.559 1.559 0 0 0-.391 1.18 1.231 1.231 0 0 0 .564.83 2.2 2.2 0 0 0 1.247.414 1.8 1.8 0 0 0 1.029-.32 1.778 1.778 0 0 0 .651-.809 1.73 1.73 0 0 0 .069-1.056 2.247 2.247 0 0 0-.679-1.1c-.068-.001-.135-.003-.204-.003z" class="prefix__cls-1" data-name="Fill 121" transform="translate(42.659 75.918)"/>
        </g>
        <path id="prefix__Fill_79" d="M8.5 0C6.318.034.924.63.122 2.57c-.609 1.473 1.2 1.149 2.168.613A10.825 10.825 0 0 1 6.376 1.8C12.564.965 18.51 3.978 24.638 4.359a25.374 25.374 0 0 0 7.34-.326c1.579-.4 1.785-1.278-.017-1.412-1.531-.113-3.224.244-4.793.234C20.675 2.813 14.9-.09 8.5 0" class="prefix__cls-1" data-name="Fill 79" transform="translate(1232.019 771.056)"/>
        <g id="prefix__Cards" class="prefix__cls-2" transform="translate(986.073 868.677)">
            <path id="prefix__Fill_173" d="M17.046.01q-4.041.045-8.075.3a61.474 61.474 0 0 0-7.845.535C.411.985-.553 1.636.4 2.352c.667.5 3.109-.076 3.907-.125 2.935-.18 5.872-.4 8.811-.5 2.783-.1 5.565-.133 8.349-.161a6.335 6.335 0 0 1 1.554-.017c.608.177.464.226.509 1 .083 1.4.06 2.8.032 4.2-.027 1.355-.077 2.709-.072 4.065 0 .967-.306 2.889.18 3.728.7 1.209 1.423-.1 1.475-.907.1-1.536.055-3.092.056-4.63 0-1.444.011-2.888-.04-4.331-.037-1.043.112-2.862-.45-3.81-.572-.965-1.949-.757-2.954-.8-1.571-.075-3.142-.07-4.711-.054" class="prefix__cls-1" data-name="Fill 173" transform="translate(.533)"/>
            <path id="prefix__Fill_171" d="M.439.82c0 2.713-.311 5.408-.4 8.118a13.879 13.879 0 0 0 .193 3.837c.318 1.235 1.329 1.5 1.445.124.236-2.792.178-5.687.361-8.5.062-.999.488-2.816.095-3.746C1.786-.167.438-.324.439.82" class="prefix__cls-1" data-name="Fill 171" transform="translate(0 .933)"/>
            <path id="prefix__Fill_175" d="M24.978 0C20.3.623 15.409.4 10.7.495c-2.264.047-4.524.05-6.784.073C3.127.576 1.123.276.44.72c-1.087.706.092 1.251.812 1.267 4.462.1 8.973-.107 13.434-.254 2-.066 4.015-.1 6.014-.268a21.2 21.2 0 0 0 3.77-.537c.255-.071.809-.056.866-.4.035-.215-.029-.565-.358-.52" class="prefix__cls-1" data-name="Fill 175" transform="translate(.723 13.707)"/>
            <path id="prefix__Fill_177" d="M5.874.137C4.573.145.655-.459.117.809-.6 2.5 2.2 2.1 2.952 2.086c1.711-.044 3.42-.049 5.131-.048 1.679 0 3.358-.01 5.036-.05.486-.012 1.618.19 1.9-.4A.737.737 0 0 0 14.67.561c-.944-.567-3.395-.238-4.5-.289C8.741.205 7.306.137 5.874.137" class="prefix__cls-1" data-name="Fill 177" transform="translate(.373 17.518)"/>
            <path id="prefix__Fill_179" d="M3.371.085C2.628.129 1.125-.178.459.162c-.759.387-.49.992.163 1.258a6.423 6.423 0 0 0 2.749-.126c.459-.223.979-1.27 0-1.21" class="prefix__cls-1" data-name="Fill 179" transform="translate(18.694 17.884)"/>
            <path id="prefix__Fill_181" d="M.654 0C-.139.22.1 4.726.081 5.44.025 7.4-.195 9.859.455 11.743c.415 1.2 1.211 1.039 1.075-.226-.119-1.11-.324-2.208-.412-3.325A51.691 51.691 0 0 1 .835.436c.081.147.833 1.511 1.011 1.409C1.792 1.877.977-.082.654 0" class="prefix__cls-1" data-name="Fill 181" transform="translate(29.557 2.016)"/>
            <path id="prefix__Fill_183" d="M10.048.025C8.442.048 6.836.077 5.23.121 3.954.157 1.947-.053.777.484c-1.394.639-.733 2.064.577 2.094 1.158.022 2.393-.234 3.562-.278 3.157-.108 6.32-.131 9.479-.158 2.857-.025 5.835.28 8.666-.149.42 3.729-.716 7.475-.33 11.247.06.586.033 1.413.779 1.546.941.168.98-.764 1.015-1.431.1-1.906.047-3.813.186-5.721a27.765 27.765 0 0 0 .169-5.347c-.264-2.179-1.309-2-3.155-2.1C17.826 0 13.952-.033 10.048.025" class="prefix__cls-1" data-name="Fill 183" transform="translate(29.091 .335)"/>
            <path id="prefix__Fill_185" d="M2.9.046C2.086.067.726-.185.2.6c-.546.816.1 1.529.9 1.7a16.429 16.429 0 0 0 3.138-.077c1.015 0 2.03.008 3.045.012 4.352.017 8.722.083 13.07-.1.607-.025 2.331.179 2.751-.4.373-.517.112-.98-.379-1.243-.806-.432-2.461-.268-3.358-.3-1.109-.049-2.217-.063-3.325-.08C11.67.045 7.276-.062 2.9.046" class="prefix__cls-1" data-name="Fill 185" transform="translate(30.852 13.556)"/>
            <path id="prefix__Fill_187" d="M6.117 0a37.7 37.7 0 0 0-4.978.2C-.279.42-.453 1.791 1.073 1.951a28.7 28.7 0 0 0 4.512-.219c.5-.032 1.083.013 1.322-.54A.889.889 0 0 0 6.117 0" class="prefix__cls-1" data-name="Fill 187" transform="translate(31.32 17.377)"/>
            <path id="prefix__Fill_189" d="M3.936.113C3.067.135.528-.239.1.754c-.717 1.653 2.72 1.025 3.38 1 .831-.031 4.07.455 4.07-.868 0-1.3-2.816-.793-3.611-.773" class="prefix__cls-1" data-name="Fill 189" transform="translate(45.812 17.408)"/>
            <path id="prefix__Fill_191" d="M.06 1.024c0 3.007-.185 6.042.089 9.041.113 1.24.094 3.617.812 4.668.51.746 1.217.694 1.5-.2a9.223 9.223 0 0 0-.145-2.438c-.032-.615-.069-1.23-.1-1.845-.073-1.585-.067-3.168-.046-4.754a20.415 20.415 0 0 0 .037-4.469C1.919-.2.06-.48.06 1.024" class="prefix__cls-1" data-name="Fill 191" transform="translate(.238 24.71)"/>
            <path id="prefix__Fill_193" d="M29.717.1C24.5.232 19.272.116 14.06.374c-2.57.126-5.131.407-7.688.685-1.257.137-2.512.278-3.767.433-.379.047-3.524.169-2.341 1.365.517.522 2.16-.023 2.811-.1 1.259-.149 2.521-.278 3.782-.412 2.4-.254 4.8-.494 7.212-.628 5.676-.314 11.375-.22 17.057-.43 1.537-.057 3.069-.1 4.607-.037.4.016 3.37.167 2.082-.929-.609-.521-2.905-.25-3.666-.266-1.477-.03-2.956.01-4.432.045" class="prefix__cls-1" data-name="Fill 193" transform="translate(.8 22.987)"/>
            <path id="prefix__Wireframy_Stuff" d="M0 17.917c-.119-1.709 4.169-1.706 5.4-1.817a149.625 149.625 0 0 1 15.895-.313c2.553.035 5.1.113 7.653-.043s5.184-.115 7.714-.389a24.374 24.374 0 0 1-.37-4.134c-.235-3.315-.172-6.64-.323-9.958C35.9-.2 37.889-.423 38.479.76s.209 3.566.248 4.892c.089 3.068.658 6.5.057 9.537-.209 1.055-1.1 1.61-1.692 1.035-.223.328-.916.328-1.427.327-.141 0-.268 0-.367.006-1.4.1-2.773.256-4.161.464a66.8 66.8 0 0 1-8.3.738c-5.526.137-11.075.009-16.593.387a30.293 30.293 0 0 0-3.628.458 8.351 8.351 0 0 1-1.524.249c-.563.004-1.037-.197-1.092-.936z" class="prefix__cls-1" data-name="Wireframy Stuff" transform="translate(1.549 22.728)"/>
            <path id="prefix__Fill_199" d="M1.065.211a1.076 1.076 0 0 0-.978 1.464c.4.963 1.577.587 2.356.526 2.478-.194 5.066.194 7.514-.1C10.626 2.022 11.6 1.658 11 .76 10.545.084 8.9.2 8.2.138a37.283 37.283 0 0 0-7.135.073" class="prefix__cls-1" data-name="Fill 199" transform="translate(40.785 24.847)"/>
            <path id="prefix__Fill_201" d="M3.721.035C2.76.1.523.048.117 1.142-.609 3.1 2.237 2.412 3.1 2.3c1.007-.13 3.379.217 3.915-.759C7.977-.2 4.564-.024 3.721.035" class="prefix__cls-1" data-name="Fill 201" transform="translate(42.312 29.226)"/>
            <path id="prefix__Fill_203" d="M.342.424a1.26 1.26 0 0 0 0 1.727c.559.559 1.777.443 2.512.483 1.025.057 3.967.6 4.476-.607C8.017.4 5.352.433 4.475.34 3.462.234 1.182-.416.342.424" class="prefix__cls-1" data-name="Fill 203" transform="translate(43.219 33.143)"/>
            <path id="prefix__Fill_205" d="M0 1.315a1.368 1.368 0 0 0 2.733 0 1.368 1.368 0 0 0-2.733 0" class="prefix__cls-1" data-name="Fill 205" transform="translate(7.643 4.386)"/>
            <path id="prefix__Fill_207" d="M0 1.5a1.558 1.558 0 0 0 3.113 0A1.558 1.558 0 0 0 0 1.5" class="prefix__cls-1" data-name="Fill 207" transform="translate(12.828 4.218)"/>
            <path id="prefix__Fill_209" d="M.678.027c-1.513.418-.119 1.7.584 1.993a4.268 4.268 0 0 0 3.758.111c.444-.278.805-.647.48-1.186C5.152.371 4.677.626 4.149.679A4.144 4.144 0 0 1 2.292.521C1.809.361 1.2-.118.678.027" class="prefix__cls-1" data-name="Fill 209" transform="translate(9.013 8.355)"/>
            <path id="prefix__Fill_211" d="M0 .888a.92.92 0 0 0 1.838 0A.92.92 0 0 0 0 .888" class="prefix__cls-1" data-name="Fill 211" transform="translate(37.143 4.924)"/>
            <path id="prefix__Fill_213" d="M0 .986a1.022 1.022 0 0 0 2.042 0A1.022 1.022 0 0 0 0 .986" class="prefix__cls-1" data-name="Fill 213" transform="translate(41.208 5.004)"/>
            <path id="prefix__Fill_215" d="M4.364.057C3.291.2.189.51.015 1.832c-.268 2.04 3.132.389 3.907.229A11.245 11.245 0 0 1 6.78 1.95c.542.022 1.262.109 1.205-.716C7.892-.121 5.3-.063 4.364.057" class="prefix__cls-1" data-name="Fill 215" transform="translate(36.694 8.787)"/>
            <path id="prefix__Fill_217" d="M1.409.027C.631.234-.386 1.578.149 2.4c.877 1.349 1.264-.722 1.631-.922.668-.363 1.21.963 1.908.267C4.79.649 2.1-.159 1.409.027" class="prefix__cls-1" data-name="Fill 217" transform="translate(12.679 27.629)"/>
            <path id="prefix__eye" d="M3.017 0C2.1.009.149 1.314.011 2.278a.953.953 0 0 0 .915 1.131c.841.01 1.108-1.083 1.836-1.311.786-.247.669.321 1.348.615a.881.881 0 0 0 1.29-.486C5.727 1.075 3.965-.018 3.017 0" class="prefix__cls-1" transform="translate(19.979 26.658)"/>
            <path id="prefix__Fill_221" d="M.465.142c-1.475.864.952 2.717 1.793 2.948 1.27.349 3.826-.3 4.127-1.854A.83.83 0 0 0 5.438.17C4.877.261 4.517.965 4 1.217a1.608 1.608 0 0 1-1.921-.2C1.591.6 1.331-.362.465.142" class="prefix__cls-1" data-name="Fill 221" transform="translate(15.473 32.035)"/>
            <path id="prefix__Fill_223" d="M12.8.126c-1.318.281-2.657.092-3.981.357-1.35.27-2.157.78-3.411.266L5.23.673a2.988 2.988 0 0 0-3 .125C1.624 1.192-.2 2.556.018 3.389c.477 1.8 2.531-1.025 3.055-1.3 1-.526 1.684.146 2.712.336C7.017 2.65 8.008 2 9.168 1.74c1.357-.3 2.884-.409 4.264-.571.545-.064 2.611.367 2.8-.312.319-1.165-2.916-.841-3.432-.731" class="prefix__cls-1" data-name="Fill 223" transform="translate(4.209 44.821)"/>
            <path id="prefix__Fill_225" d="M5.2 6.461c-.982 0-1.769-.032-2.476-.1a3.781 3.781 0 0 1-1.411-.33A1.654 1.654 0 0 1 .5 4.925a15.669 15.669 0 0 1-.447-2.1C-.079 1.78.037 1.158.4.983a.845.845 0 0 1 .376-.07c.074 0 .15 0 .211.009h.008c.066 0 .129.008.188.008a.74.74 0 0 0 .133-.01c.316-.058.64-.143.984-.232a11.66 11.66 0 0 1 1.364-.3c1.3-.176 2.715-.3 4.323-.365h.02C8.265.012 8.559 0 8.876 0a6.049 6.049 0 0 1 1.785.217 1.868 1.868 0 0 1 1.251 1.008 3.867 3.867 0 0 1 .045 2.084 7.19 7.19 0 0 1-.671 2c-.562 1.006-1.678 1.144-2.8 1.144-.21 0-.425 0-.614-.009H7.86c-.2 0-.389-.009-.575-.009h-.126l-.539.007h-.007c-.463.012-.941.019-1.413.019zM1.44 1.648c.025.159.042.46.061.809a6.284 6.284 0 0 0 .379 2.386c.251.284 1.141.292 1.673.3.132 0 .247 0 .325.007.839.052 1.693.077 2.519.1l1.059.033c.184.007.432.038.694.072a9.758 9.758 0 0 0 1.174.1 1.654 1.654 0 0 0 .717-.121 3.022 3.022 0 0 0 .937-1.722 3.32 3.32 0 0 0 .077-2.2 1.269 1.269 0 0 0-.766-.49A4.616 4.616 0 0 0 9.078.789a19.348 19.348 0 0 0-2.728.271c-.311.047-.58.087-.773.107A12.623 12.623 0 0 0 4.3 1.4a11.216 11.216 0 0 1-2.184.334 2.212 2.212 0 0 1-.681-.09z" class="prefix__cls-1" data-name="Fill 225" transform="translate(24.627 43.709)"/>
            <path id="prefix__quare" d="M7.409 7.977a40.361 40.361 0 0 1-4.494-.229 3.411 3.411 0 0 1-1.883-.632A2.534 2.534 0 0 1 .269 5.3c-.019-.2-.052-.434-.09-.71C-.006 3.268-.284 1.269.744.613a8.042 8.042 0 0 1 3.44-.575C4.445.03 4.692.022 4.9.009 5.024 0 5.151 0 5.279 0a16.946 16.946 0 0 1 2.108.181c.573.073 1.164.148 1.737.173a4.145 4.145 0 0 1 2.057.412 2.511 2.511 0 0 1 .941 1.742 1.7 1.7 0 0 0 .124.342 1.247 1.247 0 0 1 .144.541 7.173 7.173 0 0 1-.22 1.409c-.049.222-.095.431-.126.61a2.967 2.967 0 0 1-1.02 1.962 3.539 3.539 0 0 1-2.116.584c-.508.015-1.016.021-1.499.021zm1.342-2.235c-.576.1-1.183.218-1.911.355l-.359.068c.225.016.427.045.622.072a4.675 4.675 0 0 0 .629.062 1.14 1.14 0 0 0 1.019-.557zm-4.465-.107l-.1.033L3.8 5.8l-.262.086.828.1a.664.664 0 0 1-.079-.345zm-1.752-1a.152.152 0 0 0-.114.035.113.113 0 0 0-.026.087.212.212 0 0 0 .028.158.077.077 0 0 0 .06.024c.083 0 .228-.09.428-.266h-.028a1.21 1.21 0 0 1-.176-.019 1.171 1.171 0 0 0-.173-.018zM7.508 2.2a.1.1 0 0 0-.08.044c-.057.045-.083.072-.079.084s.007.006.016.006a.939.939 0 0 0 .2-.061l.055-.02a.185.185 0 0 0-.112-.053zm2.686-.468c.271.394.4.424.436.424a.043.043 0 0 0 .046-.045c.009-.103-.149-.324-.481-.38z" class="prefix__cls-1" transform="translate(38.822 42.763)"/>
        </g>
        <g id="prefix__Profile" class="prefix__cls-2" transform="translate(1121.993 865.067)">
            <path id="prefix__face-3" d="M7.1 12.321a7.429 7.429 0 0 1-1.942-.264 7.954 7.954 0 0 1-1.811-.741 7.517 7.517 0 0 1-1.544-1.143A6.336 6.336 0 0 1 .664 8.7 5.052 5.052 0 0 1 0 6.127a5.634 5.634 0 0 1 .906-2.878c-.362-.073-.559-.205-.586-.39C.246 2.352 1.431 1.6 1.728 1.442l.107-.057A10.245 10.245 0 0 1 5.041.1 9.619 9.619 0 0 1 6.465 0a8.941 8.941 0 0 1 3.716.771 6.5 6.5 0 0 1 1.576 1.011 5.455 5.455 0 0 1 1.186 1.47 5.133 5.133 0 0 1 .617 2.072 6.011 6.011 0 0 1-.22 2.128 6.988 6.988 0 0 1-.91 1.967 6.875 6.875 0 0 1-1.454 1.589A6.163 6.163 0 0 1 7.1 12.321zM6.336 1.479a5.341 5.341 0 0 0-3.987 1.739 4.209 4.209 0 0 0-.859 1.514A4.278 4.278 0 0 0 1.341 6.6a5.126 5.126 0 0 0 1.925 3.27 6.02 6.02 0 0 0 1.693.968 5.418 5.418 0 0 0 1.893.351c.113 0 .227 0 .339-.012a5.379 5.379 0 0 0 3.285-1.466 5.4 5.4 0 0 0 1.674-3.196 3.764 3.764 0 0 0-.85-3.076 5.327 5.327 0 0 0-2.165-1.448 8.076 8.076 0 0 0-2.68-.511z" class="prefix__cls-1" data-name="face" transform="translate(16.463)"/>
            <path id="prefix__Fill_231" d="M0 .85a.88.88 0 0 0 1.759 0A.88.88 0 0 0 0 .85" class="prefix__cls-1" data-name="Fill 231" transform="translate(20.816 4.419)"/>
            <path id="prefix__Fill_233" d="M0 .921a.954.954 0 0 0 1.907 0A.954.954 0 0 0 0 .921" class="prefix__cls-1" data-name="Fill 233" transform="translate(24.077 4.529)"/>
            <path id="prefix__Fill_235" d="M.016.318c-.257.932 2.669 1.41 2.767.331C2.829.134.194-.332.016.318" class="prefix__cls-1" data-name="Fill 235" transform="translate(21.86 7.562)"/>
            <path id="prefix__Fill_237" d="M.333 1.923A69.617 69.617 0 0 1 10.555 1.8c.847.024 1.693.048 2.54.062.538.009 1.7.267 2.171.015C17.19.849 13.415.35 12.881.3A116.57 116.57 0 0 0 .947.057C-.052.1-.267 2 .333 1.923" class="prefix__cls-1" data-name="Fill 237" transform="translate(30.121 5.381)"/>
            <path id="prefix__Hola_:_2" d="M45.605 17.757c.029-3.528.155-7.08.427-10.6.11-1.434.243-2.865.353-4.3.052-.675.292-1.621-.105-2.214a1.21 1.21 0 0 0-1.847-.2c-.647.838-.459 2.244-.54 3.258-.124 1.558-.273 3.116-.348 4.677a71.745 71.745 0 0 0 .066 9.117 27.675 27.675 0 0 0 .694 4.2c.151.632 1.349 3.449 1.1 3.838-.391.6-3.277.375-3.9.391-1.606.043-3.214.071-4.82.1q-2.064.039-4.127.057c-.546 0-3.756-.092-3.044.718-7.962.555-16.077-.371-23.99-.689-.4-.016-1.054-.13-1.657-.162a5.271 5.271 0 0 1-.146-.733c-.1-1.272-.131-2.548-.244-3.82-.206-2.326-.606-4.629-.844-6.952s-.214-4.647-.352-6.973c-.024-.4-.08-3.663-.9-4.456a3.74 3.74 0 0 0 1.383.138c2.936-.237 5.85-.747 8.76-1.185.833-.125 2.722-.036 3.413-.453.6-.36.834-1.624-.206-1.521C11.818.317 8.932.8 6.052 1.274c-.77.127-1.538.263-2.306.4a7.6 7.6 0 0 0-2.265.395c-.483.375-.534.631-.371.8-.228-.063-.5.036-.828.364-.62.806-.037 2.792.037 3.738C.408 8.107.451 9.244.5 10.38a56.471 56.471 0 0 0 .684 6.54c.4 2.434.734 4.877 1.131 7.31a16.916 16.916 0 0 0 .411 1.863c-1.071.548-.343 1.419.506 1.573h.019c.265.646.635 1.244.924.379a.855.855 0 0 0 .035-.24c2.193.248 4.6.094 6.764.182 4.678.191 9.384.478 14.067.333a54.346 54.346 0 0 0 5.551-.47c1.077-.145 2.158-.318 3.218-.558.076-.017.191-.035.325-.057h.065q2.434-.037 4.865-.135c1.361-.057 2.728-.086 4.084-.214.843-.08 2.623-.065 3.141-.912.47-.771-.316-2.755-.428-3.621a33.806 33.806 0 0 1-.259-4.6" class="prefix__cls-1" data-name="Hola :)" transform="translate(0 6.285)"/>
            <path id="prefix__Fill_241" d="M17.2.008c-1.3.111-2.5.72-3.8.728-1.1.006-2.18-.322-3.284-.274-1.3.057-2.008.894-3.143 1.175-.9.223-1.473-.469-2.267-.774a2.542 2.542 0 0 0-2.6.4C1.462 1.689-.011 2.652 0 3.521c.034 2.63 3.1-1 3.721-1.047.822-.058 1.74.879 2.615.932 1.156.071 1.9-.675 2.963-.946a9.8 9.8 0 0 1 3.32.166 10.089 10.089 0 0 0 3.5-.449 7.073 7.073 0 0 1 3.312-.031c.792.162 2.765 1.1 3.111-.107C23.015.395 18.1-.069 17.2.008" class="prefix__cls-1" data-name="Fill 241" transform="translate(11.964 13.848)"/>
            <path id="prefix__Fill_243" d="M13.229 0C10.572.261 7.9.487 5.23.56 4.074.591-.369.1.025 1.565c.338 1.259 6.385.466 7.617.371 1.36-.106 2.717-.253 4.07-.424.479-.061 1.637 0 1.976-.4.323-.384.163-1.17-.459-1.107" class="prefix__cls-1" data-name="Fill 243" transform="translate(16.327 18.869)"/>
            <path id="prefix__have_a_nice_day_:_" d="M2.952 6.013A2.725 2.725 0 0 1 .825 4.95 3.754 3.754 0 0 1 0 2.684 2.644 2.644 0 0 1 .613.859 2.776 2.776 0 0 1 2.677 0h.029a.455.455 0 0 1 .375.174.378.378 0 0 0 .247.145h.008a.479.479 0 0 0 .2-.1L3.567.2a.574.574 0 0 1 .279-.124h.012A2.04 2.04 0 0 1 5.73 1a2.5 2.5 0 0 1 .37 1.254 3.867 3.867 0 0 1-.211 1.394 3.432 3.432 0 0 1-1.882 2.17 3.1 3.1 0 0 1-1.055.195zm.587-4.59a.594.594 0 0 0-.316.095 1.06 1.06 0 0 1-.545.146c-.7.022-1.1.391-1.086 1.011a1.968 1.968 0 0 0 .458 1.163 1.418 1.418 0 0 0 1.057.575A1.259 1.259 0 0 0 4 3.99a2.506 2.506 0 0 0 .56-1.09 1.415 1.415 0 0 0-.129-1.173c-.161-.2-.228-.2-.349-.214a1.1 1.1 0 0 1-.223-.037 1.231 1.231 0 0 0-.32-.053z" class="prefix__cls-1" data-name="have a nice day :)" transform="translate(9.111 23.891)"/>
            <path id="prefix__espero" d="M2.471 5.441h-.054A2.343 2.343 0 0 1 .672 4.62a2.851 2.851 0 0 1-.651-2.188C.193 1.031 1.068.266 2.773.024A2.42 2.42 0 0 1 3.106 0 1.768 1.768 0 0 1 4.44.567a2.882 2.882 0 0 1 .632 2.154 3.284 3.284 0 0 1-.728 1.87 2.382 2.382 0 0 1-1.873.85zm-.383-3.489A.893.893 0 0 0 1.77 3a.847.847 0 0 0 .778.671.843.843 0 0 0 .3-.058 1.309 1.309 0 0 0 .632-.862.591.591 0 0 0-.1-.547c.011.011.014.02.012.026s-.022.014-.052.014a4.071 4.071 0 0 1-.718-.144c-.215-.055-.41-.11-.494-.133l-.04-.011z" class="prefix__cls-1" transform="translate(20.711 23.853)"/>
            <path id="prefix__hola" d="M2.222 6.433A2.108 2.108 0 0 1 .669 5.8a2.457 2.457 0 0 1-.654-1.456 2.611 2.611 0 0 1 .4-1.709 2.556 2.556 0 0 1 1.658-1.076.8.8 0 0 1-.325-1.077A.8.8 0 0 1 2.414 0c.947 0 2.068 2.237 2.165 2.8a4.247 4.247 0 0 1-.144 2.184 2.251 2.251 0 0 1-.572.867 2.134 2.134 0 0 1-1.006.506 2.989 2.989 0 0 1-.635.076zm.7-3.139c-1 .088-1.085.5-1.078.668a.611.611 0 0 0 .57.551.4.4 0 0 0 .3-.134 1.413 1.413 0 0 0 .209-1.085z" class="prefix__cls-1" transform="translate(36.264 22.577)"/>
        </g>
        <path id="prefix__Fill_251" fill="rgba(170,255,82,0.23)" d="M4.971.107C3.484.305-.031 1.538 0 2.862c.048 2.067 3.035-.191 3.7-.494 3.57-1.631 8.193.482 11.91.932 1.7.206 5.038.587 6.543-.27 2.677-1.525-3.514-1.143-4.3-1.2C13.565 1.493 9.3-.474 4.971.107" data-name="Fill 251" opacity="0.5" transform="translate(1174.968 891.357)"/>
        <g id="prefix__List" class="prefix__cls-2" transform="translate(1267.472 877.488)">
            <path id="prefix__Fill_253" d="M.012.985a29.716 29.716 0 0 0 .242 5.463c.1.543.181 1.583.754 1.865a.874.874 0 0 0 1.277-.625 10.025 10.025 0 0 0-.236-2.434C2 4.269 1.994 3.284 1.994 2.3c0-.712.234-1.857-.606-2.223A1.011 1.011 0 0 0 .012.985" class="prefix__cls-1" data-name="Fill 253" transform="translate(.776 1.9)"/>
            <path id="prefix__Fill_255" d="M28.311.012C22.3.616 16.193.742 10.155 1.057 7.364 1.2 3.991 1.017 1.362 2.1.874 2.3-.875 3.414.545 3.869c.443.142.892-.335 1.255-.495a8.043 8.043 0 0 1 1.951-.452c5.486-.881 11.225-.728 16.767-1.139 1.42-.106 2.841-.214 4.258-.354 1.013-.1 3.141-.829 4.075-.456 1.6.638 1.559 4.782 1.591 6.207.016.737-.7 3.383.723 3.115 1.138-.215.726-2.964.637-3.715-.233-1.971-.63-6.858-3.492-6.568" class="prefix__cls-1" data-name="Fill 255" transform="translate(1.183)"/>
            <path id="prefix__Fill_257" d="M29.711 0c-5.226.474-10.572.012-15.819.2-2.75.1-5.5.252-8.248.343C4.454.58 3.263.581 2.073.59 1.5.594-1.087.939.516 2.067c.71.5 2.971.1 3.785.087 1.223-.014 2.445-.065 3.667-.113 2.831-.111 5.66-.264 8.492-.341 2.709-.073 5.42-.089 8.129-.162a34.23 34.23 0 0 0 4.05-.275c.3-.044 1.281-.08 1.49-.416.2-.318.059-.891-.419-.845" class="prefix__cls-1" data-name="Fill 257" transform="translate(2.002 10.197)"/>
            <path id="prefix__Fill_259" d="M2.978 5.628a2.908 2.908 0 0 1-2.089-.834 3.029 3.029 0 0 1-.878-1.862 2.585 2.585 0 0 1 .507-1.811A3.149 3.149 0 0 1 2.524.012.74.74 0 0 1 2.655 0a.918.918 0 0 1 .42.124 1.02 1.02 0 0 0 .339.118.962.962 0 0 0 .106.005 2.188 2.188 0 0 0 .315-.03 2.174 2.174 0 0 1 .318-.031.9.9 0 0 1 .256.035 1.907 1.907 0 0 1 .9.618 3.114 3.114 0 0 1 .543.953 2.908 2.908 0 0 1 .158 1.239 2.8 2.8 0 0 1-1.135 2.015 2.9 2.9 0 0 1-1.141.5 3.752 3.752 0 0 1-.756.082zm.839-3.736c-.681 0-1.894.148-2.116.667-.1.232.008.517.318.847A1.346 1.346 0 0 0 3 3.857a1.247 1.247 0 0 0 1.136-.724 1.12 1.12 0 0 0-.319-1.24z" class="prefix__cls-1" data-name="Fill 259" transform="translate(4.371 3.677)"/>
            <path id="prefix__Fill_261" d="M10.375.038C7.843.046 5.309.154 2.777.2 2 .217 0-.131 0 1.094c0 1.306 2.221.825 2.961.806 2.512-.06 5.031-.17 7.533-.409.632-.06 2.82.044 2.818-.816 0-.911-2.425-.638-2.936-.638" class="prefix__cls-1" data-name="Fill 261" transform="translate(12.594 5.227)"/>
            <path id="prefix__Fill_263" d="M28.044.006C21.78.174 15.525.233 9.265.553c-2.341.12-4.679.21-7.024.21C1.789.763.88.588.455.872c-1.153.771.16 1.433.912 1.475 5.142.285 10.359-.425 15.5-.585 3.009-.094 6.018-.122 9.025-.275.82-.042 1.641-.09 2.46-.154.471-.036 1.716.064 2.1-.212 1.662-1.2-1.842-1.131-2.4-1.115" class="prefix__cls-1" data-name="Fill 263" transform="translate(.975 13.8)"/>
            <path id="prefix__Fill_265" d="M.035 1.086a28.777 28.777 0 0 0 .148 4.835c.083.636.117 1.357.867 1.519.677.147 1.02-.365 1.16-.933a22.406 22.406 0 0 0 .037-4.819c0-.712 0-1.508-.882-1.669a1.12 1.12 0 0 0-1.33 1.067" class="prefix__cls-1" data-name="Fill 265" transform="translate(.241 15.783)"/>
            <path id="prefix__Fill_267" d="M35.66 0Q20.449.8 5.243 1.432C4.452 1.466-1.7 1.4.453 3.543c.664.662 2.374.214 3.233.172 1.29-.063 2.581-.112 3.871-.178 5.115-.26 10.244-.331 15.356-.623q4.219-.241 8.418-.74a16.383 16.383 0 0 0 4.23-.661c.641-.268 1.333-1.576.1-1.51" class="prefix__cls-1" data-name="Fill 267" transform="translate(0 20.782)"/>
            <path id="prefix__Fill_269" d="M.47.433C-.3 1.2.1 2.716.153 3.666c.08 1.306.177 2.614.34 3.913a8.04 8.04 0 0 0 .5 2.886 1.246 1.246 0 0 0 2.166-.065c.422-.729.208-2.264.2-3.073-.018-1.118-.088-2.237-.159-3.353-.056-.932.156-2.427-.357-3.225A1.533 1.533 0 0 0 .47.433" class="prefix__cls-1" data-name="Fill 269" transform="translate(29.359 12.112)"/>
            <path id="prefix__Fill_271" d="M2.78 4.649a3.293 3.293 0 0 1-.5-.037 2.838 2.838 0 0 1-2.043-1.42A2.048 2.048 0 0 1 0 2.3a2.07 2.07 0 0 1 .224-.978A2.066 2.066 0 0 1 1.574.289a8.408 8.408 0 0 1 1.79-.27l.154-.012C3.576 0 3.635 0 3.693 0a2.432 2.432 0 0 1 1.743.77 2.079 2.079 0 0 1 .578 1.569 2.228 2.228 0 0 1-1.129 1.72 4.059 4.059 0 0 1-2.105.59zm-.791-2.782a.19.19 0 0 0-.124.052c-.1.088-.242.289-.011.652a1.015 1.015 0 0 0 .9.467 1.949 1.949 0 0 0 1.018-.32 1.018 1.018 0 0 0 .518-.638c.016-.158-.064-.367-.536-.462h-.033a4.642 4.642 0 0 0-1.35.351.165.165 0 0 1-.066.014.338.338 0 0 1-.159-.057.336.336 0 0 0-.157-.059z" class="prefix__cls-1" data-name="Fill 271" transform="translate(4.702 16.662)"/>
            <path id="prefix__Fill_273" d="M5.14.088C3.952.107 1.617-.244.582.335S.015 1.928.949 2.172a9.3 9.3 0 0 0 2.27-.125c.846-.034 1.692-.042 2.538-.053 1.423-.019 2.846 0 4.269 0 1.454 0 2.932.04 4.383-.067C16.245 1.788 16.2.413 14.4.242A84.1 84.1 0 0 0 5.14.088" class="prefix__cls-1" data-name="Fill 273" transform="translate(12.659 17.398)"/>
            <path id="prefix__Fill_275" d="M0 .29c0 .653.58 0 .575 0S0-.363 0 .29" class="prefix__cls-1" data-name="Fill 275" transform="translate(14.765 32.593)"/>
            <path id="prefix__Fill_277" d="M0 .913c.037 1.9.062 3.8.143 5.7C.169 7.209 0 8.38.724 8.686c.809.34 1.061-.508 1.154-1.083a34.06 34.06 0 0 0-.023-5.745C1.846 1.24 1.98.378 1.277.069A.937.937 0 0 0 0 .913" class="prefix__cls-1" data-name="Fill 277" transform="translate(1.655 26.712)"/>
            <path id="prefix__Fill_279" d="M32.6 6.818a.894.894 0 0 1-.731-.522 3.557 3.557 0 0 1-.041-2.044 6.086 6.086 0 0 0 .106-1.238c-.007-.079-.012-.156-.017-.232-.038-.548-.071-1.022-.534-1.225a1.675 1.675 0 0 0-.659-.1c-.271 0-.56.029-.84.057-.232.023-.45.045-.624.046-1.454.007-2.933.011-4.364.014-4.349.012-8.846.024-13.267.113-2.617.052-4.62.12-6.5.219a17.85 17.85 0 0 0-2.97.342 6.293 6.293 0 0 1-1.223.142c-.506 0-.812-.1-.908-.3-.089-.184 0-.452.278-.8C.795.68 2.466.562 3.464.491c.184-.013.342-.024.474-.037C5.015.352 6.121.306 7.19.261l.482-.02C10.28.129 12.93.089 15.492.05h.029l.9-.014C17.979.012 19.58 0 21.314 0c1.286 0 2.619.006 4.074.02 1.708.016 3.43.1 5.264.244A4.3 4.3 0 0 1 32.343.6a2.136 2.136 0 0 1 .908 1.4 8.423 8.423 0 0 1 .449 3.635 1.729 1.729 0 0 1-.395.8.974.974 0 0 1-.705.383z" class="prefix__cls-1" data-name="Fill 279" transform="translate(1.187 26.065)"/>
            <path id="prefix__Fill_281" d="M27.472.548c-6.322.734-12.824.3-19.179.327C6.747.882 5.2.894 3.656.969 2.84 1.009.907.784.349 1.413c-1.178 1.326.944 1.519 1.718 1.464C3.633 2.766 5.2 2.715 6.772 2.7c5.53-.043 11.091.215 16.616-.057a48.226 48.226 0 0 0 6.85-.953c.5-.1 3.949-.753 1.984-1.538-1.161-.464-3.531.251-4.751.394" class="prefix__cls-1" data-name="Fill 281" transform="translate(1.665 33.401)"/>
            <path id="prefix__Fill_284" d="M2.86 4.734A3.57 3.57 0 0 1 1.576 4.5a2.634 2.634 0 0 1-1.041-.71C-.529 2.576.186 1.343 1.025.3a.876.876 0 0 1 .731-.3 3.962 3.962 0 0 1 .864.135c.153.036.3.069.418.085l.254.032a1.948 1.948 0 0 1 1.555.713A2.573 2.573 0 0 1 5.474 3a1.82 1.82 0 0 1-.894 1.29 3.384 3.384 0 0 1-1.72.444zm.212-2.814a.941.941 0 0 0-.684.188.193.193 0 0 0-.051.155c.023.167.282.344.717.344a1.974 1.974 0 0 0 .513-.073 1.461 1.461 0 0 0-.307-.608c-.06-.004-.128-.006-.188-.006z" class="prefix__cls-1" data-name="Fill 284" transform="translate(6.962 29.068)"/>
            <path id="prefix__Fill_286" d="M0 .912c0 1.406 6.07.8 7.15.8.9 0 6.374.5 5.981-.949-.323-1.189-5.71-.6-6.857-.6C5.282.162 0-.519 0 .912" class="prefix__cls-1" data-name="Fill 286" transform="translate(16.75 30.407)"/>
        </g>
        <g id="prefix__Checkmark_" class="prefix__cls-2" data-name="Checkmark!" transform="translate(1143.818 923.996)">
            <path id="prefix__Fill_292" d="M8.955 14.8a6.59 6.59 0 0 1-1.862-.274 7.718 7.718 0 0 1-1.832-.826 9.079 9.079 0 0 1-3.185-3.319 7.722 7.722 0 0 1-.989-4.466 1.062 1.062 0 0 1-.545.2.45.45 0 0 1-.4-.241 1.758 1.758 0 0 1 .041-1.456 11.04 11.04 0 0 1 1.194-1.646l.233-.285A6.648 6.648 0 0 1 3.88.619 6.6 6.6 0 0 1 6.778 0h.117a12.2 12.2 0 0 1 4.639.905 8.521 8.521 0 0 1 2.041 1.2 6.165 6.165 0 0 1 2.292 3.985 7.48 7.48 0 0 1-.029 2.369 7.954 7.954 0 0 1-2.093 4.2 7.255 7.255 0 0 1-2.269 1.6 6.221 6.221 0 0 1-2.521.541zM6.823 1.826a4.622 4.622 0 0 0-1.723.286 3.086 3.086 0 0 0-1.4 1.11 5.6 5.6 0 0 0-.872 1.936 5.862 5.862 0 0 0-.114 2.123 6.428 6.428 0 0 0 .678 2.057 8.466 8.466 0 0 0 1.356 1.9 7.351 7.351 0 0 0 1.829 1.427 4.986 4.986 0 0 0 2.1.627c.086 0 .172.007.258.007A5.136 5.136 0 0 0 12.8 11.4a6.7 6.7 0 0 0 1.155-1.917 6.1 6.1 0 0 0 .43-2.154 4.519 4.519 0 0 0-1.938-3.866 9.55 9.55 0 0 0-4.233-1.539 11.649 11.649 0 0 0-1.391-.098z" class="prefix__cls-1" data-name="Fill 292" transform="translate(0 1.054)"/>
            <path id="prefix__Fill_294" d="M9.936.214a19.555 19.555 0 0 0-3.76 3.768C5.132 5.329 4.443 7.01 3.189 8.185 2.556 7.5 1.815 5.633.552 6.372-.5 6.985.179 8.039.689 8.731c1.318 1.787 2.781 2.507 4.471.741C6.7 7.868 7.567 5.729 9 4.033a22.118 22.118 0 0 0 2.1-2.3C11.56.984 11-.566 9.936.214" class="prefix__cls-1" data-name="Fill 294" transform="translate(3.435)"/>
        </g>
        <g id="prefix__Whiteboard_Stuff" data-name="Whiteboard Stuff" transform="translate(1230.025 789.17)">
            <path id="prefix__Wireframy_Stuff-2" d="M.836 15.377c-.7-.318-.687-.672-.4-.946a4.713 4.713 0 0 1-.183-1.31A31.017 31.017 0 0 1 0 9.345a27.142 27.142 0 0 1 .69-7.486.612.612 0 0 1-.442-.559C.248.039 4.078.07 6.043.1c.41.007.739.013.935.008C8.371.077 9.765.072 11.159.08c.3 0 .645-.019 1-.04a7.79 7.79 0 0 1 2.084.06c1.786.415 1.673 3.476 1.71 4.957a77.712 77.712 0 0 1-.188 8.1c-.075.915-.74 2.074-1.5.813-.423-.7-.235-2.346-.235-3.122 0-2.761.431-5.607.017-8.354-.136-.9-.106-.962-1.022-.943-.727.015-1.454.039-2.18.054-1.48.031-2.961.052-4.44.106-.562.021-2.581.374-4.156.372v.038c.022 1.065-.5 2.357-.571 3.477-.171 2.694.033 5.451-.219 8.132-.008.081-.012.168-.017.255.047-.007.094-.012.138-.015 1.174-.075 2.363-.044 3.539-.071.75-.017 1.509-.017 2.271-.016a42.919 42.919 0 0 0 5.034-.19c.486-.063.657.561.438.885-.245.363-1.029.345-1.392.4a31.387 31.387 0 0 1-3.212.26c-1.126.05-2.253.087-3.38.119-.654.018-1.842.207-2.827.207a3.145 3.145 0 0 1-1.215-.187z" class="prefix__cls-1" data-name="Wireframy Stuff" transform="translate(12.571)"/>
            <path id="prefix__Wireframy_Stuff-3" d="M.967 14.779a.472.472 0 0 1 .1-.3 1.99 1.99 0 0 1-.454-.8A14.043 14.043 0 0 1 .171 9.85C.111 7.126.141 4.4.125 1.672A.7.7 0 0 1 .333.7c.833-.72 3.233-.538 4.29-.594C6.145.026 7.668.007 9.192 0c1.613-.008 3.229.021 4.842.071.6.018 4.758.123 2.9 1.131a1.942 1.942 0 0 1-.357.146 5.89 5.89 0 0 1 .074 1.159c-.079 1.45-.113 2.9-.177 4.354-.072 1.62-.14 3.239-.2 4.86-.03.856.264 2.848-.414 3.467-.457.417-.769.333-.979.05a19.217 19.217 0 0 1-4.858.216c-.563-.024-1-.048-1.19-.048-.643 0-2.786.218-4.673.218-1.696.001-3.187-.175-3.193-.845zm1.026-9.288c0 2.757.1 5.5.16 8.242q0 .135-.006.251a23.183 23.183 0 0 1 4.825-.176c.558.021.993.043 1.2.042 1.352-.005 2.705.014 4.057.068.153.006.387 0 .662-.008a12.5 12.5 0 0 1 1.6.034c-.007-.074-.012-.141-.015-.2-.074-1.459.007-2.932.054-4.391s.12-2.939.176-4.409a22.441 22.441 0 0 1 .045-3.422c-.982-.019-2.013-.137-2.675-.137-1.556 0-3.11-.018-4.665.013a45.164 45.164 0 0 0-5.045.275c-.091.012-.2.036-.323.064a18.385 18.385 0 0 1-.05 3.754z" class="prefix__cls-1" data-name="Wireframy Stuff" transform="translate(34.145 .276)"/>
            <path id="prefix__Fill_135" d="M.574.155C-.426.739.113 3.076.46 3.884a6.686 6.686 0 0 0 2.972 3.059c2.521 1.394 6.154 1.024 8.06 3.441.02.025.679.677.829-.167.123-.693-1.107-1.752-1.584-2.1a15.579 15.579 0 0 0-4.662-1.8C4.4 5.791 2.568 4.82 1.867 3.1 1.619 2.486 2.092-.736.574.155" class="prefix__cls-1" data-name="Fill 135" transform="translate(19.023 15.138)"/>
            <path id="prefix__Fill_137" d="M11.08.032c-.917.253-.31 1.514-.312 2.145a3.74 3.74 0 0 1-.739 2.241C8.8 6.012 6.387 6.251 4.58 6.708 3.268 7.041.128 7.753 0 9.528-.132 11.51 2.64 9.1 2.874 9c2.591-.95 5.943-1.134 7.943-3.226a5.141 5.141 0 0 0 1.391-3.206c.044-.67.051-2.857-1.127-2.535" class="prefix__cls-1" data-name="Fill 137" transform="translate(31.38 16.384)"/>
            <path id="prefix__Fill_139" d="M7.548 13.236a8.367 8.367 0 0 1-2.648-.451 8.623 8.623 0 0 1-2.426-1.276A6.614 6.614 0 0 1 .7 9.52 5.245 5.245 0 0 1 0 6.933a5.338 5.338 0 0 1 .586-2.48 6.6 6.6 0 0 1 1.547-1.942A11.322 11.322 0 0 1 6.662.213 6.362 6.362 0 0 1 8.281 0a6.1 6.1 0 0 1 4.137 1.628 6.6 6.6 0 0 1 2.061 4.1 6.559 6.559 0 0 1-1.5 5.073 6.764 6.764 0 0 1-2.231 1.714 7.349 7.349 0 0 1-2.885.716c-.104.002-.209.005-.315.005zM2.316 4.62a3.723 3.723 0 0 0-.124 3.9 5.512 5.512 0 0 0 2.362 2.1 7.477 7.477 0 0 0 3.277.786 5.369 5.369 0 0 0 2.262-.461 4.473 4.473 0 0 0 2.271-2.361 5.3 5.3 0 0 0 .289-3.158 4.492 4.492 0 0 0-1.344-2.413 4.117 4.117 0 0 0-2.788-1.037.95.95 0 0 1 .216.663.466.466 0 0 1-.239.309.549.549 0 0 1-.276.087c-.228 0-.379-.211-.525-.416a.944.944 0 0 0-.434-.408.625.625 0 0 0-.169-.022 2.949 2.949 0 0 0-1.426.663 5.68 5.68 0 0 0-.641.655c-.592.659-1.4 1.562-2.054 1.563a.761.761 0 0 1-.657-.45z" class="prefix__cls-1" data-name="Fill 139" transform="translate(23.523 27.064)"/>
            <path id="prefix__Fill_141" d="M0 .638a.666.666 0 0 0 1.329 0A.665.665 0 0 0 0 .638" class="prefix__cls-1" data-name="Fill 141" transform="translate(28.553 32.132)"/>
            <path id="prefix__Fill_143" d="M0 .781a.816.816 0 0 0 1.629 0A.815.815 0 0 0 0 .781" class="prefix__cls-1" data-name="Fill 143" transform="translate(30.891 31.83)"/>
            <path id="prefix__Fill_145" d="M.282.075C-1.05.859 2.76 2.416 2.91.825c.065-.686-.6-.5-1.043-.552C1.443.224.684-.159.282.075" class="prefix__cls-1" data-name="Fill 145" transform="translate(28.936 34.939)"/>
            <path id="prefix__Fill_147" d="M0 .671a37.109 37.109 0 0 0 .41 5.975c.072.375.122 1.734.419 2.013.729.685.741-.628.769-1.131.1-1.8-.088-3.66-.13-5.466a4.747 4.747 0 0 0-.09-1.57C1.087-.105-.028-.282 0 .671" class="prefix__cls-1" data-name="Fill 147" transform="translate(28.639 39.902)"/>
            <path id="prefix__Fill_149" d="M19.48.222C16.559 3.5 12.538 3.259 8.486 3.546c-2.141.152-4.305.463-6.028 1.848A7.317 7.317 0 0 0 .5 7.764c-.2.4-1.165 2.721.28 2.171.513-.2 1.017-1.729 1.349-2.183A6.442 6.442 0 0 1 4.54 5.711c1.87-.894 4.1-.879 6.13-.993a17.029 17.029 0 0 0 6.342-1.151A9.6 9.6 0 0 0 19.525 1.9c.264-.249.829-.672.871-1.053.048-.435-.37-1.232-.916-.622" class="prefix__cls-1" data-name="Fill 149" transform="translate(7.735 38.729)"/>
            <path id="prefix__Fill_151" d="M10.256.2C7.513.293 4.773.4 2.033.578 1.472.613-.4.5.077 1.65c.382.922 2.665.312 3.42.267 2.855-.169 5.721-.228 8.57-.485.64-.058 3.533-.035 2.338-1.169-.568-.539-3.363-.088-4.149-.063" class="prefix__cls-1" data-name="Fill 151" transform="translate(2.215 48.81)"/>
            <path id="prefix__Fill_153" d="M.55.262C-.315 1.4.082 4.158.148 5.523.211 6.846-.046 9.265 1.681 9.47c-.548-.072.416.033.573.042.351.019.7.025 1.054.029.811.009 1.623 0 2.434-.018 1.837-.037 3.679-.09 5.514-.192.771-.043 4.955-.007 5.121-.808.212-1.024-3.8-.445-4.518-.412-1.749.08-3.5.1-5.251.12-.868.011-1.736.02-2.6 0-.358-.007-1.777.14-1.995-.1a10.166 10.166 0 0 1-.045-2.36c-.013-.933-.012-1.868.021-2.8.022-.628.362-1.822.085-2.412A.955.955 0 0 0 .55.262" class="prefix__cls-1" data-name="Fill 153" transform="translate(0 50.073)"/>
            <path id="prefix__Fill_155" d="M0 1.085a29.519 29.519 0 0 0 .557 6.229c.163.676.392 2.071 1.071 2.421A.932.932 0 0 0 3 8.871a20.162 20.162 0 0 0-.514-2.966c-.114-1.063-.18-2.128-.219-3.2C2.24 1.906 2.485.7 1.719.183A1.1 1.1 0 0 0 0 1.085" class="prefix__cls-1" data-name="Fill 155" transform="translate(14.676 49.303)"/>
            <path id="prefix__Fill_157" d="M.543.335c-.853.85-.472 3.541-.365 4.633.078.8.954 4.735 2.265 2.683.58-.908-.157-3.308-.152-4.366a13.551 13.551 0 0 0 .127-2.174C2.266.255 1.317-.438.543.335" class="prefix__cls-1" data-name="Fill 157" transform="translate(19.593 49.546)"/>
            <path id="prefix__Wireframy_Stuff-4" d="M1.211 10.129C.557 10.1-.141 9.889.025 9.044c.147-.749.9-.755 1.516-.818a52.88 52.88 0 0 1 5.567-.249c3.911.014 7.819-.007 11.73-.027a.847.847 0 0 1 .436.168c-.2-.248-.106-.616-.144-.974-.1-.968-.169-1.919-.353-2.886-.147-.774-.257-2.088-.974-2.575a5.475 5.475 0 0 0-2.738-.383c-.265 0-.511.009-.716 0a65.092 65.092 0 0 0-7.549.343c-1.141.1-2.3.183-3.425.388C2.751 2.145.908 3.068.406 2.5-.8 1.133 4.508.572 5.229.5 7.791.234 10.357.035 12.934.011c1.74-.014 4.718-.162 6 1.266a8.492 8.492 0 0 1 1.336 3.339c.23.822.855 2.3.411 3.152-.2.384-.524.711-1.015.576a.922.922 0 0 1-.275-.12.712.712 0 0 1 .149.776c-.293.681-1.373.534-1.959.583-1.957.163-3.922.272-5.886.289-.934.008-1.869 0-2.8-.007-.966-.009-1.929-.017-2.895-.007-1.437.014-2.928.28-4.364.28q-.212 0-.425-.009z" class="prefix__cls-1" data-name="Wireframy Stuff" transform="translate(20.815 48.681)"/>
            <path id="prefix__Line" d="M19.138 10.1c-.473 0-.96-.8-1.283-1.337a4.682 4.682 0 0 0-.273-.423 4.452 4.452 0 0 0-2.189-1.616 25.761 25.761 0 0 0-5.284-.991C9.5 5.661 8.878 5.587 8.278 5.5c-.31-.044-.625-.084-.959-.126a13.445 13.445 0 0 1-4.806-1.21C1.911 3.823.01 2.082 0 .919a.842.842 0 0 1 .455-.77A.952.952 0 0 1 .927 0c.46 0 .715.5.941.942.072.141.14.274.211.384a3.755 3.755 0 0 0 2.3 1.666 34.669 34.669 0 0 0 4.459.876c.384.058.781.118 1.17.181.318.051.648.1.968.149a20.385 20.385 0 0 1 5.175 1.243 9.415 9.415 0 0 1 1.989 1.643 5.152 5.152 0 0 1 1.521 2.364.6.6 0 0 1-.307.589.433.433 0 0 1-.216.063z" class="prefix__cls-1" transform="translate(35.512 37.452)"/>
            <path id="prefix__Wireframy_Stuff-5" d="M2.12 10.434C1.451 10.369.732 10.133.9 9.29a10.723 10.723 0 0 1-.723-2.945 31.27 31.27 0 0 1-.168-4.368.957.957 0 0 1 1.534-.738A11.51 11.51 0 0 1 4.422.78C5.616.66 6.821.615 8.019.543c2.8-.167 5.589-.469 8.391-.531a3.777 3.777 0 0 1 2.631.526c.763.7.915 2.452 1.144 3.394a22.972 22.972 0 0 1 .649 3.112 5.925 5.925 0 0 1 .06 1.048.656.656 0 0 1 .522.755c-.065.686-1.016.78-1.572.888a35.208 35.208 0 0 1-5.7.332c-3.04.086-6.243.485-9.35.485-.901.001-1.794-.033-2.674-.118zm.39-1.951h.252q2.959-.052 5.915-.17c2.011-.077 4.021-.163 6.033-.186.7-.008 1.411.014 2.123.036.913.028 1.829.056 2.734.021a22.191 22.191 0 0 1-.479-3.272A14.906 14.906 0 0 0 18.461 2c-.422-.985-.789-.757-1.887-.682-1.129.077-2.258.184-3.386.277-2.48.2-4.963.333-7.445.506-1.287.09-2.519.457-3.778.6-.019.449-.082.9-.075 1.231.021.967.117 1.928.2 2.891.034.392.2 1.068.22 1.661h.2z" class="prefix__cls-1" data-name="Wireframy Stuff" transform="translate(43.418 48.076)"/>
        </g>
        <g id="prefix__Head" transform="translate(1071.953 851.859)">
            <g id="prefix__Head-2" data-name="Head" transform="translate(5.389 9.706)">
                <path id="prefix__Head-3" d="M0 26.241L2.968 12.4a9.743 9.743 0 0 1-2.588-7c.539-7.692 11.24-6 13.32-2.117s1.834 13.731-.856 14.425c-1.073.277-3.358-.4-5.685-1.8l1.46 10.337z" class="prefix__cls-4" data-name="Head"/>
            </g>
            <path id="prefix__hair" fill="#191847" d="M15.685 8.76a11.244 11.244 0 0 0-3.608-.4 6.213 6.213 0 0 0 .439-3.139A9.569 9.569 0 0 0 11.5 2.385a3.882 3.882 0 0 0-.753-1.174A2.57 2.57 0 0 0 9.529.557a3.256 3.256 0 0 0-1.4 0C7.923.6 7.74.692 7.54.744s-.3-.075-.453-.2A2.563 2.563 0 0 0 5.75.021 3.445 3.445 0 0 0 4.229.2a2.977 2.977 0 0 0-1.267.813 2.126 2.126 0 0 0-.38.582c-.037.088-.043.141-.131.173s-.177.031-.261.059A3.286 3.286 0 0 0 .3 3.544 5.435 5.435 0 0 0 0 5.776a9.707 9.707 0 0 0 1.653 4.243 5.273 5.273 0 0 0 2.725 1.54 7.8 7.8 0 0 0-1.424 2.657 13.011 13.011 0 0 0-.652 3.227 10.542 10.542 0 0 0 .162 3.182A3.448 3.448 0 0 0 4.01 22.87a7.357 7.357 0 0 0 1.186.557 7.8 7.8 0 0 0 1.222.392 2.45 2.45 0 0 0 2.321-.5 4.36 4.36 0 0 0 .624-.793c.058-.1.093-.166.022-.264a1.885 1.885 0 0 0-.328-.3 3.1 3.1 0 0 1-1.095-2.051 2.193 2.193 0 0 1 .946-2.3 3.5 3.5 0 0 1 3.019.552 4.94 4.94 0 0 1 2.393-3.178c1.358-.684 2.917-.764 4.313-1.35a2.573 2.573 0 0 0 1-.638 1.3 1.3 0 0 0 .288-.471.763.763 0 0 0-.2-.592 11.011 11.011 0 0 0-4.036-3.174z"/>
        </g>
        <g id="prefix__Bottom" transform="translate(1048.964 918.002)">
            <g id="prefix__Seat" transform="translate(0 9.706)">
                <ellipse id="prefix__Ballsy_Ball" cx="27.66" cy="26.421" fill="#f4d5ff" data-name="Ballsy Ball" rx="27.66" ry="26.421"/>
            </g>
            <path id="prefix__Skin" d="M45.467 23.155C43.179 15.136 41.439 8.08 41 5.445c-1.049-6.283 8.068-6.65 9.274-3.527 1.824 4.727 5.008 20.256 8.835 43.714l-4.374 1.277a201.374 201.374 0 0 1-9.268-23.754zm-44.12-8.238c4.223-1.67 19.011-6.9 26.143-8.376 2.05-.425 4.036-.82 5.9-1.177 5.551-1.061 8.427 8.961 3.081 9.731-13.315 1.918-32.192 3.9-33.807 4.12a2.057 2.057 0 0 1-.28.019c-2.115.001-3.584-3.311-1.037-4.317z" class="prefix__cls-4" transform="translate(25.195 11.563)"/>
            <path id="prefix__Leg_Back" fill="#1f28cf" d="M22.9 15.36a4.675 4.675 0 0 1-.062-1.191L0 2.533V0h2.716s33.148 8.452 33.877 10.833l.014.05.033.045c4.379 6.027 7 35.452 7.863 37.655l-8.392 1.253C32.9 37.925 22.631 29.627 22.9 15.36z" data-name="Leg Back" transform="translate(39.155)"/>
            <path id="prefix__Leg_Front" fill="#2b44ff" d="M11.163 23.448l6.9-2.368c-2.089-.419-4.015-.792-5.661-1.081C1.764 18.131-1.339 12.433.5 0h19.6c3.2.92 19.84 7.9 28.473 11.617 5.714 2.458 3.913 11.319.677 13.625a.316.316 0 0 1-.179.281C37.1 30.487 26.845 30.246 20.114 30c-3.056-.109-5.387-.219-6.823.159z" data-name="Leg Front" transform="translate(22.99)"/>
            <g id="prefix__Right_Shoe" data-name="Right Shoe" transform="rotate(64.02 -3.655 36.043)">
                <path id="prefix__shoe" d="M1.431 1.5a.64.64 0 0 0-.82.431L0 4.085a20.543 20.543 0 0 0 .288 2.524h18.036s.7-2.324-.812-2.51S15 3.765 15 3.765L6.613.028A.32.32 0 0 0 6.187.2l-.539 1.305a7.248 7.248 0 0 1-2.279.654z" class="prefix__cls-9"/>
            </g>
            <g id="prefix__Right_Shoe-2" data-name="Right Shoe" transform="translate(77.232 54.399)">
                <path id="prefix__shoe-2" d="M1.607 2.022a.718.718 0 0 0-.921.485L0 4.924a23.108 23.108 0 0 0 .324 2.837h20.26s.79-2.613-.912-2.821-2.827-.376-2.827-.376L7.429.363a.359.359 0 0 0-.479.192l-.605 1.469a8.137 8.137 0 0 1-2.56.735z" class="prefix__cls-9" data-name="shoe" transform="translate(0 -.332)"/>
            </g>
        </g>
        <g id="prefix__Body_Long_Sleeve_1" data-name="Body/Long Sleeve 1" transform="translate(1050.818 878.635)">
            <path id="prefix__Skin-2" d="M.441 31.2c-.4-.247-.84-1.179.221-1.907C3.3 27.475 7.114 24.3 7.628 23.256 8.681 21.12 12.266.291 12.266.291l7.507.03S12.82 22.78 12.266 24.154c-.831 2.061.928 5.2 1.68 6.888-1.186.531-1.736-.147-2.339-.825a2.131 2.131 0 0 0-2.94-.7c-2.041.95-3.727 2.458-5.738 2.458A4.664 4.664 0 0 1 .441 31.2zm64.633-20.225L53.727 6.266 56.26 0l11.459 8.42a30.822 30.822 0 0 1 7.789 3.132c.493.449 1.088 1.358-.955 1.2s-4.2-.231-4.48.467.954 1.531.384 2.472a.271.271 0 0 1-.249.134q-1.008.001-5.134-4.85z" class="prefix__cls-4" data-name="Skin" transform="translate(0 34.41)"/>
            <path id="prefix__Coat_Back" fill="#e87613" d="M0 .8L3.048 0C15.4 8.92 21.781 27.575 36.738 36.444l-3.02 4.5C9.039 40.053.954 17.325 0 .8z" data-name="Coat Back" transform="rotate(5.13 -9.555 387.428)"/>
            <path id="prefix__Shirt" fill="#dde3e9" d="M0 40.98h27.484c1.256 0 1.019-1.815.838-2.73-2.1-10.569-10.274-21.961-10.274-37.005L10.12 0C3.563 10.553 1.295 23.547 0 40.98z" transform="translate(20.058 1.263)"/>
            <path id="prefix__Coat_Front" fill="#ff9b21" d="M.036 57.34a77 77 0 0 1 13.626-45.828 4.168 4.168 0 0 1-3.568-2.193C7.2 4.087 8.243 1.206 11.34.259s5.858 1 10.792 1a3.843 3.843 0 0 1 .588.042l2.631.15s10.681 36.224 5.891 48.336H9.519a69 69 0 0 1-3.588 7.553z" data-name="Coat Front" transform="translate(7.449)"/>
            <path id="prefix__Shade" fill="rgba(0,0,0,0.1)" d="M8.119 13.137H0C1.489 9.558 3.132 5.139 4.882 0 5.611 6.333 6.7 10.752 8.119 13.137z" transform="translate(16.967 36.654)"/>
        </g>
        <g id="prefix__Head-4" data-name="Head" transform="translate(1192.915 835.672)">
            <path id="prefix__Head-5" d="M0 0l2.972 13.854a9.747 9.747 0 0 0-2.592 7c.54 7.7 11.257 6.005 13.342 2.119s1.837-13.742-.857-14.437c-1.075-.277-3.363.4-5.693 1.806L8.634 0z" class="prefix__cls-4" data-name="Head" transform="rotate(180 7.554 13.131)"/>
        </g>
        <g id="prefix__Hijab" transform="translate(1194.353 834.858)">
            <path id="prefix__Front" fill="#2c2c2c" d="M1.894.724c.2-.118.612-.367.821-.457.05-.022.4-.269.406-.266.263.089 1.024.416 1.09.7.01.021.02.042.03.059.108.2.207.4.3.6.207.447.386.913.557 1.377.333.9.622 1.825.888 2.75.271.942.5 1.894.757 2.84.37 1.361.844 2.688 1.211 4.048a7.981 7.981 0 0 1 .3 2.641v.045q-.016.206-.045.413c-.017.118-.035.237-.054.355-.336-.669-.592-1.407-.864-2.107-.027-.069-.052-.138-.077-.207q-.132-.213-.267-.423c-.57-.885-1.142-1.767-1.689-2.669a48.084 48.084 0 0 0-3.121-4.765c-.344-.44-.7-.872-1.036-1.316q-.29-.378-.564-.77c-.13-.187-.7-.837-.492-1.228A10.563 10.563 0 0 1 1.894.724z" transform="translate(0 .813)"/>
            <path id="prefix__Turban" fill="#8991dc" d="M.106 1.112c-.192.065-.1-.336.088-.476.863-.653 4.162-.89 7.033-.294a13.93 13.93 0 0 1 5.7 2.671 9.626 9.626 0 0 1 2.828 4.782 13.9 13.9 0 0 1 .306 5.747c-.063.422-.2.824-.274 1.237a9.58 9.58 0 0 1-.28 1.365c-.093.277-.25.549-.33.827a1.9 1.9 0 0 0 .031.935 10.216 10.216 0 0 0 .43 1.556c.284.756.629 1.464.845 2.248.288 1.044 1.491 4.439.611 5.365H.356c.421-1.149 1.686-2.5 1.942-3.733.151-.725.223-2.308.238-2.365.377-2.6 1.114-3.841 1.575-4.292s1.075-.589 1.107-.98a12.549 12.549 0 0 0-.983-4.674c-.562-1.8-.973-3.64-1.552-5.432C2.426 4.806 1.1.776.106 1.112z" transform="translate(2.547)"/>
            <path id="prefix__Shade-2" fill="rgba(0,0,0,0.2)" d="M2.005 5.494l.254.308C5.715 4.719 5.33 2.484 9.683.22L9.32 0C5.508 1.573 4.617 4.947 2.005 5.494zM4.8 17.5l.277.022c.534-4.05.69-6.364 3.472-10.795l-.3-.09C5.392 10.5 4.938 13.646 4.8 17.5zm-4.8-3l.247.119c1.176-2.854 1.712-4.539 5-6.848L4.99 7.6C1.73 9.444.781 11.647 0 14.5zm7.773-.521c-.579 2.582-.064 5.013.551 5.807h.389a13.584 13.584 0 0 1-.631-5.807z" data-name="Shade" transform="rotate(180 8.617 11.38)"/>
        </g>
        <path id="prefix__Skin-3" d="M.441.777c-.4.247-.841 1.178.221 1.9C3.31 4.493 7.124 7.664 7.64 8.708c1.054 2.135 6.321 29.612 6.321 29.612l7.877-.029s-9-29.106-9.555-30.479c-.832-2.059.929-5.2 1.682-6.881-1.187-.53-1.739.147-2.343.824a2.137 2.137 0 0 1-2.944.7C6.636 1.506 4.946 0 2.932 0A4.679 4.679 0 0 0 .441.777zm70.566 16.478l-10.6 6.237 3.385 5.846 10.191-9.924a30.91 30.91 0 0 0 7.289-4.183c.426-.513.889-1.5-1.114-1.056s-4.131.812-4.508.162.733-1.647.037-2.5a.264.264 0 0 0-.214-.1q-.957 0-4.466 5.518z" class="prefix__cls-4" data-name="Skin" transform="rotate(172 592.015 499.726)"/>
        <path id="prefix__Clothes_Back" fill="#db2721" d="M0 39.746l3.053.8c6.389-16.8 32.5-26.346 34.6-32.651.771-2.312-.827-3.655.116-4.3L34 .3c-.752.735-2.08-.846-5.209-.1S1.785 19.348 0 39.746z" data-name="Clothes Back" transform="rotate(167 554.31 517.058)"/>
        <path id="prefix__Clothes_Front" fill="#ff4133" d="M24.268 51.788C18.419 47.3 3.9 33.857.114 8.829-.554 4.4 1.94 3.439 1.581 1.458L6.873 0c0 1.458 4.017 2.06 5.053 5.845.582 2.126 1.434 4.782 2.452 7.735a23.106 23.106 0 0 1 2.458-10.489c4.039-7.434 27.38.718 29.819 8.3 2.988 9.293-10.623 15.164-9.928 38.745a3.807 3.807 0 0 1 .053 1.31l.024.449-.119.021a3.771 3.771 0 0 1-3.378 2.784l-5.038.353q-.134.009-.266.009a3.771 3.771 0 0 1-3.735-3.274z" data-name="Clothes Front" transform="rotate(172 588.456 495.444)"/>
        <path id="prefix__Leg" fill="#997659" d="M30.379 0l-15.7 39.725L4.157 73.309H0L16.093 0z" transform="translate(1184.399 905.423)"/>
        <path id="prefix__Leg-2" d="M15.632 0c.167 13.96 2.6 32.754 2.994 33.624s26.886 22.132 26.886 22.132l-2.863 3.064S11.385 40.591 9.938 38.159 3.782 13.355 0 0z" class="prefix__cls-4" data-name="Leg" transform="translate(1202.307 905.423)"/>
        <g id="prefix__Left_Shoe" data-name="Left Shoe" transform="rotate(130 398.771 766.84)">
            <path id="prefix__shoe-3" d="M4.474 5.033a2 2 0 0 0-2.566 1.348L0 13.106A64.242 64.242 0 0 0 .9 21h56.4s2.2-7.268-2.538-7.848-7.87-1.047-7.87-1.047L20.68.419a1 1 0 0 0-1.332.532l-1.685 4.088s-4.385 2.046-7.127 2.046z" class="prefix__cls-9" data-name="shoe" transform="translate(1 19)"/>
        </g>
        <path id="prefix__shoe-4" d="M17.057 1.835a.64.64 0 0 1 .82.431l.61 2.15a20.543 20.543 0 0 1-.287 2.525H.163s-.7-2.324.812-2.51S3.491 4.1 3.491 4.1L11.874.36a.32.32 0 0 1 .426.17l.539 1.307a7.248 7.248 0 0 0 2.279.654z" class="prefix__cls-9" data-name="shoe" transform="translate(1171.928 974.909)"/>
        <path id="prefix__shoe-5" d="M17.057 1.5a.64.64 0 0 1 .82.431l.61 2.15a20.543 20.543 0 0 1-.287 2.528H.163S-.54 4.285.975 4.1s2.517-.335 2.517-.335L11.874.028A.32.32 0 0 1 12.3.2l.539 1.307a7.248 7.248 0 0 0 2.279.654z" class="prefix__cls-9" data-name="shoe" transform="rotate(-30 2421.5 -1813.147)"/>
        <path id="prefix__Pant" fill="#69a1ac" d="M19.764 69.85L0 67.705 14.647 0h17.7z" transform="translate(1184.463 905.423)"/>
        <path id="prefix__Pant-2" fill="#89c5cc" d="M42.959 50.813L29.995 66.158S9.513 43.788 6.113 36.965 0 0 0 0h19.929s1.482 26.518 2 27.752 21.03 23.061 21.03 23.061z" data-name="Pant" transform="translate(1200.772 905.423)"/>
    </g>
</svg>
