<svg xmlns="http://www.w3.org/2000/svg" width="125.517" height="129.671" viewBox="0 0 125.517 129.671">
    <defs>
        <style>
            .prefix__cls-1{fill:#fff}
        </style>
    </defs>
    <g id="prefix__Group_359" data-name="Group 359" transform="translate(-1495.8 -1630)">
        <path id="prefix__Path_1123" d="M17.47 78.913a2.98 2.98 0 0 1 2.33 1.556 2.356 2.356 0 0 1 0 2.593 12.565 12.565 0 0 0-1.811 6.738v1.3a2.338 2.338 0 0 0 .259 1.3 1.559 1.559 0 0 0 .259 1.037.953.953 0 0 0 .259.778c0 .259.259.519.259.778a.254.254 0 0 0 .259.259c.259.259.259.519.519 1.037.259.259.259.519.519.778a15.158 15.158 0 0 0 3.371 3.631 1.966 1.966 0 0 0 1.037.519 11.007 11.007 0 0 0 4.927 1.556h1.556a13.282 13.282 0 0 0 13.228-13.227 2.853 2.853 0 1 1 5.705 0 18.761 18.761 0 0 1-18.672 18.673h-.519a17.646 17.646 0 0 0-.519 5.187 20.919 20.919 0 0 0 21.006 21.007 21.134 21.134 0 0 0 15.819-7.262 1.426 1.426 0 0 1 1.3-.778v-10.634a14.773 14.773 0 0 1-11.929-14.523 2.853 2.853 0 1 1 5.705 0 8.72 8.72 0 0 0 6.224 8.558V80.209a14.773 14.773 0 0 1-11.932-14.523 2.853 2.853 0 1 1 5.705 0 8.72 8.72 0 0 0 6.224 8.558V44.42A14.773 14.773 0 0 1 56.629 29.9a2.853 2.853 0 1 1 5.705 0 8.72 8.72 0 0 0 6.224 8.558V13.04a2.205 2.205 0 0 1-1.3-.778C62.335 7.593 56.629 5 50.665 5a20.919 20.919 0 0 0-21.006 21.007 18.373 18.373 0 0 0 .259 3.631 2.645 2.645 0 0 1-.519 2.334 3.2 3.2 0 0 1-2.075 1.037h-1.555a2.338 2.338 0 0 0-1.3.259l-2.334.778c-.519.259-.778.259-1.037.519a1.966 1.966 0 0 1-1.037.519 3.58 3.58 0 0 0-1.037.778c-.259.259-.778.519-1.037 1.037a4.553 4.553 0 0 0-1.037 1.3c-.259.519-.778 1.037-1.037 1.556s-.519.778-.519 1.3c-.259.519-.259.778-.519 1.3-.778.259-.778.519-.778.519a.953.953 0 0 1-.259.778c0 .259-.259.778-.259 1.037v3.112a.953.953 0 0 0 .259.778v.259c0 .259 0 .259.259.519v.259c0 .259.259.519.259.778s0 .259.259.519a13.43 13.43 0 0 0 12.189 8.04 2.853 2.853 0 0 1 0 5.706 18.954 18.954 0 0 1-16.079-9.077A12.78 12.78 0 0 0 5.8 65.686a13.208 13.208 0 0 0 11.67 13.227z" class="prefix__cls-1" data-name="Path 1123" transform="translate(1490 1625)"/>
        <path id="prefix__Path_1124" d="M89.891 65.945a12.773 12.773 0 0 0-7.521-11.67c-1.3-.778-2.075-2.075-1.3-3.631a14.686 14.686 0 0 0 .778-4.668v-.259A10.9 10.9 0 0 0 79 37.418a15.768 15.768 0 0 0-6.224-3.89 1.559 1.559 0 0 0-1.037-.259c-.519 0-.778-.259-1.3-.259h-2.332a12.9 12.9 0 0 0-12.448 12.966 2.853 2.853 0 1 1-5.705 0 18.7 18.7 0 0 1 15.819-18.413v-1.3A20.6 20.6 0 0 0 45.026 5 21.126 21.126 0 0 0 31.8 9.668v29.046a9.2 9.2 0 0 0 6.224-8.558 2.853 2.853 0 1 1 5.705 0A14.773 14.773 0 0 1 31.8 44.679v30.084a9.2 9.2 0 0 0 6.224-8.563 2.853 2.853 0 1 1 5.705 0A14.773 14.773 0 0 1 31.8 80.728v30.084a9.2 9.2 0 0 0 6.224-8.558 2.853 2.853 0 1 1 5.705 0A14.773 14.773 0 0 1 31.8 116.777V130a20.109 20.109 0 0 0 13.226 4.668 20.919 20.919 0 0 0 21.006-21.007 17.971 17.971 0 0 0-.778-5.187h-.519A18.761 18.761 0 0 1 46.063 89.8a2.853 2.853 0 1 1 5.705 0 13.282 13.282 0 0 0 13.226 13.226 1.559 1.559 0 0 1 1.037.259c.259-.259.778-.259 1.037-.519A13.1 13.1 0 0 0 78.221 89.8a15.4 15.4 0 0 0-1.815-6.743 2.356 2.356 0 0 1 0-2.593 2.98 2.98 0 0 1 2.334-1.556 13.134 13.134 0 0 0 11.151-12.963z" class="prefix__cls-1" data-name="Path 1124" transform="translate(1531.427 1625)"/>
    </g>
</svg>
