<svg xmlns="http://www.w3.org/2000/svg" width="109.786" height="129.671" viewBox="0 0 109.786 129.671">
    <defs>
        <style>
            .prefix__cls-1{fill:#fff}
        </style>
    </defs>
    <g id="prefix__noun_leader_1931421" transform="translate(-7.969 -4.414)">
        <path id="prefix__Path_1151" d="M52.55 31l-2.99 5.956A2.333 2.333 0 0 0 49.326 38a2.333 2.333 0 0 0-.245-1.038L46.1 31zm1.318 43.481l-4.542 4.542-4.542-4.542 4.523-36.193a1.941 1.941 0 0 0 .019-.288 1.944 1.944 0 0 0 .019.285zM19 52a21.021 21.021 0 0 1 21-21h.891l3.7 7.409-4.577 36.625a2.333 2.333 0 0 0 .665 1.939l7 7a2.333 2.333 0 0 0 3.3 0l7-7a2.333 2.333 0 0 0 .665-1.939l-4.582-36.625L57.766 31h.891a21.021 21.021 0 0 1 21 21v46.651H19z" class="prefix__cls-1" data-name="Path 1151" transform="translate(14.702 35.434)"/>
        <path id="prefix__Path_1152" d="M60.325 38.44a16.33 16.33 0 0 1-32.659 0v-9.331h32.659zM23 9.9l8.13 4.878a2.333 2.333 0 0 0 2.851-.35L44 4.414l10.01 10.015a2.333 2.333 0 0 0 2.851.35L64.99 9.9v14.543H23z" class="prefix__cls-1" data-name="Path 1152" transform="translate(20.033)"/>
        <path id="prefix__Path_1153" d="M55.374 17.969a11.637 11.637 0 0 0 2.405 2.405 11.636 11.636 0 0 0-2.405 2.405 11.635 11.635 0 0 0-2.405-2.405 11.636 11.636 0 0 0 2.405-2.405z" class="prefix__cls-1" data-name="Path 1153" transform="translate(59.976 18.066)"/>
        <path id="prefix__Path_1154" d="M13.374 33.779a11.636 11.636 0 0 0-2.405-2.405 11.636 11.636 0 0 0 2.405-2.405 11.636 11.636 0 0 0 2.405 2.405 11.636 11.636 0 0 0-2.405 2.405z" class="prefix__cls-1" data-name="Path 1154" transform="translate(3.998 32.727)"/>
        <path id="prefix__Path_1155" d="M10.374 10.969a11.636 11.636 0 0 0 2.405 2.405 11.636 11.636 0 0 0-2.405 2.405 11.636 11.636 0 0 0-2.405-2.405 11.636 11.636 0 0 0 2.405-2.405z" class="prefix__cls-1" data-name="Path 1155" transform="translate(0 8.736)"/>
    </g>
</svg>
